<svg xmlns="http://www.w3.org/2000/svg" width="480" height="480" viewBox="0 0 360 360"><path fill="#fff" d="M0 0h360v360H0z"/><path d="M30 330h33.33v-33.33H30zm0 0" fill="#fff" stroke-width=".75" stroke-linecap="round" stroke-linejoin="round" stroke="#000" stroke-miterlimit="10"/><path d="M30 296.67h33.33v-33.33H30zm0 0" fill="#a9a9a9" stroke-width=".75" stroke-linecap="round" stroke-linejoin="round" stroke="#000" stroke-miterlimit="10"/><path d="M30 263.33h33.33V230H30zm0 0" fill="#fff" stroke-width=".75" stroke-linecap="round" stroke-linejoin="round" stroke="#000" stroke-miterlimit="10"/><path d="M30 230h33.33v-33.33H30zm0 0" fill="#a9a9a9" stroke-width=".75" stroke-linecap="round" stroke-linejoin="round" stroke="#000" stroke-miterlimit="10"/><path d="M30 196.67h33.33v-33.33H30zm0 0" fill="#fff" stroke-width=".75" stroke-linecap="round" stroke-linejoin="round" stroke="#000" stroke-miterlimit="10"/><path d="M30 163.33h33.33V130H30zm0 0" fill="#a9a9a9" stroke-width=".75" stroke-linecap="round" stroke-linejoin="round" stroke="#000" stroke-miterlimit="10"/><path d="M30 130h33.33V96.67H30zm0 0" fill="#fff" stroke-width=".75" stroke-linecap="round" stroke-linejoin="round" stroke="#000" stroke-miterlimit="10"/><path d="M30 96.67h33.33V63.34H30zm0 0" fill="#a9a9a9" stroke-width=".75" stroke-linecap="round" stroke-linejoin="round" stroke="#000" stroke-miterlimit="10"/><path d="M30 63.33h33.33V30H30zm0 0" fill="#fff" stroke-width=".75" stroke-linecap="round" stroke-linejoin="round" stroke="#000" stroke-miterlimit="10"/><path d="M63.33 330h33.33v-33.33H63.33zm0 0" fill="#a9a9a9" stroke-width=".75" stroke-linecap="round" stroke-linejoin="round" stroke="#000" stroke-miterlimit="10"/><path d="M63.33 296.67h33.33v-33.33H63.33zm0 0" fill="#fff" stroke-width=".75" stroke-linecap="round" stroke-linejoin="round" stroke="#000" stroke-miterlimit="10"/><path d="M63.33 263.33h33.33V230H63.33zm0 0" fill="#a9a9a9" stroke-width=".75" stroke-linecap="round" stroke-linejoin="round" stroke="#000" stroke-miterlimit="10"/><path d="M63.33 230h33.33v-33.33H63.33zm0 0" fill="#fff" stroke-width=".75" stroke-linecap="round" stroke-linejoin="round" stroke="#000" stroke-miterlimit="10"/><path d="M63.33 196.67h33.33v-33.33H63.33zm0 0" fill="#a9a9a9" stroke-width=".75" stroke-linecap="round" stroke-linejoin="round" stroke="#000" stroke-miterlimit="10"/><path d="M63.33 163.33h33.33V130H63.33zm0 0" fill="#fff" stroke-width=".75" stroke-linecap="round" stroke-linejoin="round" stroke="#000" stroke-miterlimit="10"/><path d="M63.33 130h33.33V96.67H63.33zm0 0" fill="#a9a9a9" stroke-width=".75" stroke-linecap="round" stroke-linejoin="round" stroke="#000" stroke-miterlimit="10"/><path d="M63.33 96.67h33.33V63.34H63.33zm0 0" fill="#fff" stroke-width=".75" stroke-linecap="round" stroke-linejoin="round" stroke="#000" stroke-miterlimit="10"/><path d="M63.33 63.33h33.33V30H63.33zm0 0" fill="#a9a9a9" stroke-width=".75" stroke-linecap="round" stroke-linejoin="round" stroke="#000" stroke-miterlimit="10"/><path d="M96.67 330H130v-33.33H96.67zm0 0" fill="#fff" stroke-width=".75" stroke-linecap="round" stroke-linejoin="round" stroke="#000" stroke-miterlimit="10"/><path d="M96.67 296.67H130v-33.33H96.67zm0 0" fill="#a9a9a9" stroke-width=".75" stroke-linecap="round" stroke-linejoin="round" stroke="#000" stroke-miterlimit="10"/><path d="M96.67 263.33H130V230H96.67zm0 0" fill="#fff" stroke-width=".75" stroke-linecap="round" stroke-linejoin="round" stroke="#000" stroke-miterlimit="10"/><path d="M96.67 230H130v-33.33H96.67zm0 0" fill="#a9a9a9" stroke-width=".75" stroke-linecap="round" stroke-linejoin="round" stroke="#000" stroke-miterlimit="10"/><path d="M96.67 196.67H130v-33.33H96.67zm0 0" fill="#fff" stroke-width=".75" stroke-linecap="round" stroke-linejoin="round" stroke="#000" stroke-miterlimit="10"/><path d="M96.67 163.33H130V130H96.67zm0 0" fill="#a9a9a9" stroke-width=".75" stroke-linecap="round" stroke-linejoin="round" stroke="#000" stroke-miterlimit="10"/><path d="M96.67 130H130V96.67H96.67zm0 0" fill="#fff" stroke-width=".75" stroke-linecap="round" stroke-linejoin="round" stroke="#000" stroke-miterlimit="10"/><path d="M96.67 96.67H130V63.34H96.67zm0 0" fill="#a9a9a9" stroke-width=".75" stroke-linecap="round" stroke-linejoin="round" stroke="#000" stroke-miterlimit="10"/><path d="M96.67 63.33H130V30H96.67zm0 0" fill="#fff" stroke-width=".75" stroke-linecap="round" stroke-linejoin="round" stroke="#000" stroke-miterlimit="10"/><path d="M130 330h33.33v-33.33H130zm0 0" fill="#a9a9a9" stroke-width=".75" stroke-linecap="round" stroke-linejoin="round" stroke="#000" stroke-miterlimit="10"/><path d="M130 296.67h33.33v-33.33H130zm0 0" fill="#fff" stroke-width=".75" stroke-linecap="round" stroke-linejoin="round" stroke="#000" stroke-miterlimit="10"/><path d="M130 263.33h33.33V230H130zm0 0" fill="#a9a9a9" stroke-width=".75" stroke-linecap="round" stroke-linejoin="round" stroke="#000" stroke-miterlimit="10"/><path d="M130 230h33.33v-33.33H130zm0 0" fill="#fff" stroke-width=".75" stroke-linecap="round" stroke-linejoin="round" stroke="#000" stroke-miterlimit="10"/><path d="M130 196.67h33.33v-33.33H130zm0 0" fill="#a9a9a9" stroke-width=".75" stroke-linecap="round" stroke-linejoin="round" stroke="#000" stroke-miterlimit="10"/><path d="M130 163.33h33.33V130H130zm0 0" fill="#fff" stroke-width=".75" stroke-linecap="round" stroke-linejoin="round" stroke="#000" stroke-miterlimit="10"/><path d="M130 130h33.33V96.67H130zm0 0" fill="#a9a9a9" stroke-width=".75" stroke-linecap="round" stroke-linejoin="round" stroke="#000" stroke-miterlimit="10"/><path d="M130 96.67h33.33V63.34H130zm0 0" fill="#fff" stroke-width=".75" stroke-linecap="round" stroke-linejoin="round" stroke="#000" stroke-miterlimit="10"/><path d="M130 63.33h33.33V30H130zm0 0" fill="#a9a9a9" stroke-width=".75" stroke-linecap="round" stroke-linejoin="round" stroke="#000" stroke-miterlimit="10"/><path d="M163.33 330h33.33v-33.33h-33.33zm0 0" fill="#fff" stroke-width=".75" stroke-linecap="round" stroke-linejoin="round" stroke="#000" stroke-miterlimit="10"/><path d="M163.33 296.67h33.33v-33.33h-33.33zm0 0" fill="#a9a9a9" stroke-width=".75" stroke-linecap="round" stroke-linejoin="round" stroke="#000" stroke-miterlimit="10"/><path d="M163.33 263.33h33.33V230h-33.33zm0 0" fill="#fff" stroke-width=".75" stroke-linecap="round" stroke-linejoin="round" stroke="#000" stroke-miterlimit="10"/><path d="M163.33 230h33.33v-33.33h-33.33zm0 0" fill="#a9a9a9" stroke-width=".75" stroke-linecap="round" stroke-linejoin="round" stroke="#000" stroke-miterlimit="10"/><path d="M163.33 196.67h33.33v-33.33h-33.33zm0 0" fill="#fff" stroke-width=".75" stroke-linecap="round" stroke-linejoin="round" stroke="#000" stroke-miterlimit="10"/><path d="M163.33 163.33h33.33V130h-33.33zm0 0" fill="#a9a9a9" stroke-width=".75" stroke-linecap="round" stroke-linejoin="round" stroke="#000" stroke-miterlimit="10"/><path d="M163.33 130h33.33V96.67h-33.33zm0 0" fill="#fff" stroke-width=".75" stroke-linecap="round" stroke-linejoin="round" stroke="#000" stroke-miterlimit="10"/><path d="M163.33 96.67h33.33V63.34h-33.33zm0 0" fill="#a9a9a9" stroke-width=".75" stroke-linecap="round" stroke-linejoin="round" stroke="#000" stroke-miterlimit="10"/><path d="M163.33 63.33h33.33V30h-33.33zm0 0" fill="#fff" stroke-width=".75" stroke-linecap="round" stroke-linejoin="round" stroke="#000" stroke-miterlimit="10"/><path d="M196.67 330H230v-33.33h-33.33zm0 0" fill="#a9a9a9" stroke-width=".75" stroke-linecap="round" stroke-linejoin="round" stroke="#000" stroke-miterlimit="10"/><path d="M196.67 296.67H230v-33.33h-33.33zm0 0" fill="#fff" stroke-width=".75" stroke-linecap="round" stroke-linejoin="round" stroke="#000" stroke-miterlimit="10"/><path d="M196.67 263.33H230V230h-33.33zm0 0" fill="#a9a9a9" stroke-width=".75" stroke-linecap="round" stroke-linejoin="round" stroke="#000" stroke-miterlimit="10"/><path d="M196.67 230H230v-33.33h-33.33zm0 0" fill="#fff" stroke-width=".75" stroke-linecap="round" stroke-linejoin="round" stroke="#000" stroke-miterlimit="10"/><path d="M196.67 196.67H230v-33.33h-33.33zm0 0" fill="#a9a9a9" stroke-width=".75" stroke-linecap="round" stroke-linejoin="round" stroke="#000" stroke-miterlimit="10"/><path d="M196.67 163.33H230V130h-33.33zm0 0" fill="#fff" stroke-width=".75" stroke-linecap="round" stroke-linejoin="round" stroke="#000" stroke-miterlimit="10"/><path d="M196.67 130H230V96.67h-33.33zm0 0" fill="#a9a9a9" stroke-width=".75" stroke-linecap="round" stroke-linejoin="round" stroke="#000" stroke-miterlimit="10"/><path d="M196.67 96.67H230V63.34h-33.33zm0 0" fill="#fff" stroke-width=".75" stroke-linecap="round" stroke-linejoin="round" stroke="#000" stroke-miterlimit="10"/><path d="M196.67 63.33H230V30h-33.33zm0 0" fill="#a9a9a9" stroke-width=".75" stroke-linecap="round" stroke-linejoin="round" stroke="#000" stroke-miterlimit="10"/><path d="M230 330h33.33v-33.33H230zm0 0" fill="#fff" stroke-width=".75" stroke-linecap="round" stroke-linejoin="round" stroke="#000" stroke-miterlimit="10"/><path d="M230 296.67h33.33v-33.33H230zm0 0" fill="#a9a9a9" stroke-width=".75" stroke-linecap="round" stroke-linejoin="round" stroke="#000" stroke-miterlimit="10"/><path d="M230 263.33h33.33V230H230zm0 0" fill="#fff" stroke-width=".75" stroke-linecap="round" stroke-linejoin="round" stroke="#000" stroke-miterlimit="10"/><path d="M230 230h33.33v-33.33H230zm0 0" fill="#a9a9a9" stroke-width=".75" stroke-linecap="round" stroke-linejoin="round" stroke="#000" stroke-miterlimit="10"/><path d="M230 196.67h33.33v-33.33H230zm0 0" fill="#fff" stroke-width=".75" stroke-linecap="round" stroke-linejoin="round" stroke="#000" stroke-miterlimit="10"/><path d="M230 163.33h33.33V130H230zm0 0" fill="#a9a9a9" stroke-width=".75" stroke-linecap="round" stroke-linejoin="round" stroke="#000" stroke-miterlimit="10"/><path d="M230 130h33.33V96.67H230zm0 0" fill="#fff" stroke-width=".75" stroke-linecap="round" stroke-linejoin="round" stroke="#000" stroke-miterlimit="10"/><path d="M230 96.67h33.33V63.34H230zm0 0" fill="#a9a9a9" stroke-width=".75" stroke-linecap="round" stroke-linejoin="round" stroke="#000" stroke-miterlimit="10"/><path d="M230 63.33h33.33V30H230zm0 0" fill="#fff" stroke-width=".75" stroke-linecap="round" stroke-linejoin="round" stroke="#000" stroke-miterlimit="10"/><path d="M263.33 330h33.33v-33.33h-33.33zm0 0" fill="#a9a9a9" stroke-width=".75" stroke-linecap="round" stroke-linejoin="round" stroke="#000" stroke-miterlimit="10"/><path d="M263.33 296.67h33.33v-33.33h-33.33zm0 0" fill="#fff" stroke-width=".75" stroke-linecap="round" stroke-linejoin="round" stroke="#000" stroke-miterlimit="10"/><path d="M263.33 263.33h33.33V230h-33.33zm0 0" fill="#a9a9a9" stroke-width=".75" stroke-linecap="round" stroke-linejoin="round" stroke="#000" stroke-miterlimit="10"/><path d="M263.33 230h33.33v-33.33h-33.33zm0 0" fill="#fff" stroke-width=".75" stroke-linecap="round" stroke-linejoin="round" stroke="#000" stroke-miterlimit="10"/><path d="M263.33 196.67h33.33v-33.33h-33.33zm0 0" fill="#a9a9a9" stroke-width=".75" stroke-linecap="round" stroke-linejoin="round" stroke="#000" stroke-miterlimit="10"/><path d="M263.33 163.33h33.33V130h-33.33zm0 0" fill="#fff" stroke-width=".75" stroke-linecap="round" stroke-linejoin="round" stroke="#000" stroke-miterlimit="10"/><path d="M263.33 130h33.33V96.67h-33.33zm0 0" fill="#a9a9a9" stroke-width=".75" stroke-linecap="round" stroke-linejoin="round" stroke="#000" stroke-miterlimit="10"/><path d="M263.33 96.67h33.33V63.34h-33.33zm0 0" fill="#fff" stroke-width=".75" stroke-linecap="round" stroke-linejoin="round" stroke="#000" stroke-miterlimit="10"/><path d="M263.33 63.33h33.33V30h-33.33zm0 0" fill="#a9a9a9" stroke-width=".75" stroke-linecap="round" stroke-linejoin="round" stroke="#000" stroke-miterlimit="10"/><path d="M296.67 330H330v-33.33h-33.33zm0 0" fill="#fff" stroke-width=".75" stroke-linecap="round" stroke-linejoin="round" stroke="#000" stroke-miterlimit="10"/><path d="M296.67 296.67H330v-33.33h-33.33zm0 0" fill="#a9a9a9" stroke-width=".75" stroke-linecap="round" stroke-linejoin="round" stroke="#000" stroke-miterlimit="10"/><path d="M296.67 263.33H330V230h-33.33zm0 0" fill="#fff" stroke-width=".75" stroke-linecap="round" stroke-linejoin="round" stroke="#000" stroke-miterlimit="10"/><path d="M296.67 230H330v-33.33h-33.33zm0 0" fill="#a9a9a9" stroke-width=".75" stroke-linecap="round" stroke-linejoin="round" stroke="#000" stroke-miterlimit="10"/><path d="M296.67 196.67H330v-33.33h-33.33zm0 0" fill="#fff" stroke-width=".75" stroke-linecap="round" stroke-linejoin="round" stroke="#000" stroke-miterlimit="10"/><path d="M296.67 163.33H330V130h-33.33zm0 0" fill="#a9a9a9" stroke-width=".75" stroke-linecap="round" stroke-linejoin="round" stroke="#000" stroke-miterlimit="10"/><path d="M296.67 130H330V96.67h-33.33zm0 0" fill="#fff" stroke-width=".75" stroke-linecap="round" stroke-linejoin="round" stroke="#000" stroke-miterlimit="10"/><path d="M296.67 96.67H330V63.34h-33.33zm0 0" fill="#a9a9a9" stroke-width=".75" stroke-linecap="round" stroke-linejoin="round" stroke="#000" stroke-miterlimit="10"/><path d="M296.67 63.33H330V30h-33.33zm0 0" fill="#fff" stroke-width=".75" stroke-linecap="round" stroke-linejoin="round" stroke="#000" stroke-miterlimit="10"/></svg>