<svg xmlns="http://www.w3.org/2000/svg" xmlns:xlink="http://www.w3.org/1999/xlink" width="576" height="576" viewBox="0 0 432 432"><defs><symbol overflow="visible" id="a"><path d="M-6.27-.77v-1.05h.89c-.31-.25-.54-.47-.68-.68a2.04 2.04 0 01-.35-1.18c0-.5.12-.9.36-1.2.14-.18.35-.33.62-.48a2.29 2.29 0 01-.74-.82 2.28 2.28 0 01-.24-1.07c0-.84.3-1.41.91-1.72.33-.16.77-.25 1.32-.25H0v1.1h-4.36c-.42 0-.7.1-.86.31-.16.21-.23.47-.23.77 0 .41.13.77.41 1.07.28.3.74.45 1.4.45H0v1.07h-4.1c-.42 0-.73.05-.93.15-.29.16-.44.46-.44.9 0 .4.16.76.47 1.08.3.33.86.5 1.67.5H0v1.05zm0 0"/></symbol><symbol overflow="visible" id="b"><path d="M-.7-3.42c0-.5-.21-.9-.63-1.23-.4-.33-1.03-.5-1.85-.5-.5 0-.93.08-1.28.23-.7.27-1.04.77-1.04 1.5s.36 1.23 1.1 1.5a4.35 4.35 0 002.72 0c.65-.28.97-.78.97-1.5zM-6.26-.7v-1.03h.84c-.29-.21-.51-.44-.67-.69a2.23 2.23 0 01-.35-1.25c0-.71.27-1.32.82-1.81.54-.5 1.32-.75 2.34-.75 1.36 0 2.34.36 2.93 1.08.37.45.55.98.55 1.58 0 .47-.1.86-.3 1.19-.12.18-.33.4-.61.62h3.2v1.06zm0 0"/></symbol><symbol overflow="visible" id="c"><path d="M-6.39-2.99c0-.49.12-.92.37-1.29.13-.2.33-.4.6-.6h-.8v-.98H-.5c.8 0 1.43.12 1.89.35.85.44 1.28 1.27 1.28 2.48 0 .67-.16 1.24-.46 1.7-.3.47-.78.72-1.42.78v-1.07c.28-.06.5-.15.65-.31.23-.24.35-.6.35-1.12 0-.81-.28-1.34-.85-1.6a4.73 4.73 0 00-1.8-.2c.32.22.56.47.71.76.16.3.24.7.24 1.18 0 .68-.24 1.28-.73 1.79-.48.5-1.28.76-2.39.76a3.6 3.6 0 01-2.46-.77 2.38 2.38 0 01-.89-1.86zm3.23-1.9c-.78 0-1.36.16-1.73.48-.38.32-.56.73-.56 1.23 0 .74.34 1.25 1.04 1.52.37.14.86.22 1.46.22.7 0 1.24-.15 1.61-.43.37-.29.55-.68.55-1.16 0-.76-.33-1.29-1.02-1.6a3.32 3.32 0 00-1.35-.26zm0 0"/></symbol><symbol overflow="visible" id="d"><path d="M-6.46-3.2c0-.7.17-1.28.52-1.72.34-.44.93-.7 1.78-.8v1.02c-.4.07-.71.21-.97.43-.26.23-.39.58-.39 1.07 0 .68.33 1.16.99 1.45.42.18.95.28 1.58.28.63 0 1.15-.13 1.59-.4.43-.26.64-.68.64-1.25 0-.44-.14-.79-.4-1.04a2.26 2.26 0 00-1.1-.54v-1.02c.83.12 1.44.41 1.83.88.38.47.57 1.07.57 1.8 0 .82-.3 1.47-.9 1.96-.6.49-1.35.73-2.24.73a3.8 3.8 0 01-2.58-.8 2.6 2.6 0 01-.92-2.05zm0 0"/></symbol><symbol overflow="visible" id="e"><path d="M-6.27-4.7v-1.16l2.75 1 2.64.95c1.6.61 2.58 1.04 2.93 1.3.35.24.52.67.52 1.28a2.53 2.53 0 01-.08.64h-.96a4.9 4.9 0 00.11-.61c0-.2-.03-.34-.1-.44a.88.88 0 00-.23-.23l-.48-.21-.65-.27-6.45 2.33v-1.2L-1.17-3zm0 0"/></symbol><symbol overflow="visible" id="f"><path d="M-8.6-.8v-1.06H0V-.8zm0 0"/></symbol><symbol overflow="visible" id="g"><path d="M-3.06-1.44c.67 0 1.23-.15 1.69-.43.45-.28.67-.74.67-1.37 0-.49-.2-.89-.63-1.2a2.97 2.97 0 00-1.8-.47c-.8 0-1.39.16-1.76.48-.39.32-.58.72-.58 1.2 0 .53.2.96.61 1.3.4.32 1 .49 1.8.49zm-3.33-1.6c0-.47.1-.87.3-1.2.13-.18.33-.4.62-.63h-3.17V-5.9H0v.95h-.87c.39.25.66.54.83.87.18.34.26.73.26 1.16 0 .7-.29 1.3-.88 1.82-.59.5-1.37.76-2.35.76-.91 0-1.7-.23-2.37-.7a2.3 2.3 0 01-1-2zm0 0"/></symbol><symbol overflow="visible" id="h"><path d="M-6.25-.77v-1.08H0v1.08zm-2.36 0v-1.08h1.2v1.08zm0 0"/></symbol><symbol overflow="visible" id="i"><path d="M-1.97-1.4c.35-.03.62-.12.81-.26.34-.27.51-.73.51-1.39 0-.39-.08-.73-.26-1.03a.84.84 0 00-.78-.44.67.67 0 00-.62.36c-.08.15-.18.45-.3.9l-.21.83c-.13.54-.28.93-.45 1.19-.28.45-.68.68-1.18.68-.59 0-1.07-.22-1.44-.64-.37-.43-.55-1-.55-1.73 0-.94.28-1.62.83-2.05.35-.26.74-.38 1.14-.38v1c-.24.02-.46.1-.65.25-.28.24-.42.66-.42 1.26 0 .4.08.7.23.9.15.21.36.31.6.31.28 0 .5-.13.66-.4.1-.16.18-.39.26-.69l.17-.7c.18-.76.36-1.27.53-1.52.27-.41.7-.62 1.27-.62.56 0 1.05.21 1.45.64.4.42.61 1.07.61 1.94 0 .93-.21 1.6-.63 1.98-.43.39-.95.6-1.58.62zm0 0"/></symbol><symbol overflow="visible" id="j"><path d="M-8.64-.77v-1.06h3.21a3.05 3.05 0 01-.66-.67 2.27 2.27 0 01-.34-1.27c0-.91.32-1.53.96-1.85.34-.18.83-.27 1.45-.27H0v1.09h-3.95c-.46 0-.8.05-1.02.17-.34.2-.51.55-.51 1.08 0 .44.14.83.45 1.19.3.35.87.53 1.7.53H0v1.06zm0 0"/></symbol><symbol overflow="visible" id="k"><path d="M-6.27-.8v-1h1.08a2.38 2.38 0 01-.77-.61c-.3-.32-.45-.69-.45-1.1v-.1l.02-.25h1.12l-.03.18v.17c0 .53.17.94.51 1.22.34.29.74.43 1.18.43H0V-.8zm0 0"/></symbol><symbol overflow="visible" id="l"><path d="M-1.67-1.58c.3 0 .54-.12.72-.33.18-.23.27-.5.27-.8 0-.37-.09-.73-.26-1.08a1.45 1.45 0 00-1.4-.87h-.85c.08.12.15.3.2.5.06.2.1.4.12.59l.08.64c.05.38.13.67.24.86.19.32.48.49.88.49zM-3.8-4.14c-.03-.24-.14-.4-.3-.49a.92.92 0 00-.41-.07c-.36 0-.62.13-.78.4-.17.25-.25.61-.25 1.09 0 .55.15.94.45 1.17.16.13.4.21.73.25v.99c-.77-.02-1.31-.27-1.61-.75a3.08 3.08 0 01-.46-1.68c0-.74.14-1.34.42-1.8.28-.46.72-.69 1.31-.69h3.62c.11 0 .2-.02.27-.07.06-.04.1-.14.1-.28l-.01-.16-.03-.18h.78c.05.16.08.29.09.37l.02.35c0 .37-.13.63-.39.8-.14.08-.33.14-.58.17.28.22.53.52.73.93.2.4.31.84.31 1.33 0 .58-.17 1.06-.53 1.42-.35.38-.8.56-1.33.56A1.7 1.7 0 01-3-1.03a2.62 2.62 0 01-.6-1.42zm0 0"/></symbol><symbol overflow="visible" id="m"><path d="M-8.03-.98v-1.07h1.76v-1h.86v1h4.1c.21 0 .36-.08.43-.22a.94.94 0 00.07-.41v-.17l-.02-.2H0a2.41 2.41 0 01.1.8c0 .5-.13.83-.38 1-.25.18-.58.27-.98.27H-5.4v.84h-.86v-.84zm0 0"/></symbol><symbol overflow="visible" id="n"><path d="M-6.27-1.26l4.94-1.2-4.94-1.23v-1.19l4.91-1.23-4.91-1.28v-1.06L0-6.62v1.1l-4.86 1.27L0-3.01v1.1l-6.27 1.8zm0 0"/></symbol><symbol overflow="visible" id="o"><path d="M-3.05-1.45c.54 0 1-.08 1.36-.23.65-.27.98-.75.98-1.45 0-.73-.34-1.24-1.03-1.52a3.94 3.94 0 00-1.45-.22c-.54 0-1 .08-1.36.25-.63.28-.93.78-.93 1.5 0 .46.2.85.59 1.18.4.32 1 .49 1.84.49zm-3.36-1.56c0-.52.12-.96.39-1.31.14-.2.34-.39.62-.57h-.87v-1H2.5v1.06H-.72c.28.18.5.42.67.73.17.31.25.7.25 1.16a2.5 2.5 0 01-.79 1.8c-.52.53-1.32.79-2.39.79-1 0-1.82-.25-2.47-.74a2.3 2.3 0 01-.96-1.92zm0 0"/></symbol><symbol overflow="visible" id="p"><path d="M-6.41-3.39A2.82 2.82 0 01-5.3-5.64a2.8 2.8 0 011.1-.42c.3-.06.76-.1 1.39-.1v4.6A2.68 2.68 0 00-1.27-2c.39-.29.58-.72.58-1.31a1.68 1.68 0 00-1.28-1.72v-1.03c.23.02.49.11.77.27A2.47 2.47 0 01.13-4.1c.06.26.1.55.1.87 0 .78-.3 1.44-.86 1.99-.57.54-1.36.8-2.39.8-1 0-1.82-.27-2.45-.81a2.7 2.7 0 01-.94-2.15zm2.77-1.68c-.45.04-.82.14-1.1.3-.5.29-.76.77-.76 1.45 0 .48.18.89.53 1.21.35.33.79.5 1.33.53zm0 0"/></symbol><symbol overflow="visible" id="q"><path d="M-6.27-1.29l5.1-1.67-5.1-1.76v-1.15L0-3.5v1.12L-6.27-.07zm0 0"/></symbol><symbol overflow="visible" id="r"><path d="M-8.64-.7v-1.02h3.12c-.3-.23-.52-.5-.68-.82a2.35 2.35 0 01-.24-1.05c0-.78.27-1.41.8-1.9.54-.48 1.34-.73 2.38-.73 1 0 1.82.24 2.47.72.66.48.99 1.15.99 2 0 .48-.11.88-.34 1.21-.14.2-.36.4-.66.63H0v.97zm7.91-2.73c0-.57-.23-1-.68-1.28a3.36 3.36 0 00-1.8-.43c-.65 0-1.2.14-1.63.43-.44.28-.66.7-.66 1.25 0 .48.18.9.54 1.26.35.36.94.54 1.76.54.59 0 1.06-.07 1.43-.22.7-.28 1.04-.8 1.04-1.55zm0 0"/></symbol><symbol overflow="visible" id="s"><path d="M.77-6.27h1.05v.89c.25-.31.47-.54.68-.68.34-.24.74-.35 1.18-.35.5 0 .9.12 1.2.36.18.14.33.35.48.62.23-.33.5-.58.82-.74.32-.17.67-.24 1.07-.24.84 0 1.41.3 1.72.91.16.33.25.77.25 1.32V0h-1.1v-4.36c0-.42-.1-.7-.31-.86a1.25 1.25 0 00-.77-.23c-.41 0-.77.13-1.07.41-.3.28-.45.74-.45 1.4V0H4.45v-4.1c0-.42-.05-.73-.15-.93-.16-.29-.46-.44-.9-.44-.4 0-.76.16-1.08.47-.33.3-.5.86-.5 1.67V0H.78zm0 0"/></symbol><symbol overflow="visible" id="t"><path d="M3.42-.71c.5 0 .9-.2 1.23-.62.33-.4.5-1.03.5-1.85 0-.5-.08-.93-.23-1.28-.27-.7-.77-1.04-1.5-1.04s-1.23.36-1.5 1.1a4.34 4.34 0 000 2.72c.28.65.78.97 1.5.97zM.7-6.25h1.03v.84c.21-.29.44-.51.69-.67.35-.23.77-.35 1.25-.35.71 0 1.32.27 1.81.82.5.54.75 1.32.75 2.34 0 1.36-.36 2.34-1.08 2.93C4.7.03 4.16.2 3.56.2 3.1.21 2.7.11 2.37-.1c-.18-.12-.4-.32-.62-.6v3.2H.69zm0 0"/></symbol><symbol overflow="visible" id="u"><path d="M2.99-6.39c.49 0 .92.12 1.29.37.2.13.4.33.6.6v-.8h.98V-.5c0 .8-.12 1.42-.35 1.89-.44.85-1.27 1.28-2.48 1.28-.67 0-1.24-.16-1.7-.46C.85 1.9.6 1.42.54.78h1.07c.06.28.15.5.31.65.24.23.6.35 1.12.35.81 0 1.34-.28 1.6-.85.14-.34.2-.94.2-1.8-.22.32-.47.56-.76.71-.3.16-.7.24-1.18.24-.68 0-1.28-.24-1.79-.73-.5-.48-.76-1.28-.76-2.39 0-1.05.25-1.87.77-2.46a2.38 2.38 0 011.86-.89zm1.9 3.23c0-.78-.16-1.36-.48-1.73a1.54 1.54 0 00-1.23-.56 1.5 1.5 0 00-1.52 1.04 4.1 4.1 0 00-.22 1.46c0 .7.15 1.24.43 1.61.29.37.68.55 1.16.55.76 0 1.29-.33 1.6-1.02.17-.39.26-.84.26-1.35zm0 0"/></symbol><symbol overflow="visible" id="v"><path d="M3.2-6.46c.7 0 1.28.17 1.72.52.44.34.7.93.8 1.78H4.7a1.9 1.9 0 00-.43-.97c-.23-.26-.58-.39-1.07-.39-.68 0-1.16.33-1.45.99-.19.42-.28.95-.28 1.58 0 .63.13 1.15.4 1.58.26.43.68.65 1.25.65.44 0 .79-.14 1.04-.4.26-.27.43-.64.54-1.1h1.02c-.12.83-.41 1.44-.88 1.83-.47.38-1.07.57-1.8.57a2.4 2.4 0 01-1.96-.9 3.44 3.44 0 01-.74-2.24c0-1.1.27-1.96.8-2.58a2.6 2.6 0 012.06-.92zm0 0"/></symbol><symbol overflow="visible" id="w"><path d="M4.7-6.27h1.16l-1 2.75-.95 2.64C3.3.72 2.87 1.7 2.6 2.05c-.24.35-.67.52-1.28.52a2.53 2.53 0 01-.64-.08v-.96a4.9 4.9 0 00.61.11c.2 0 .34-.03.44-.1a.9.9 0 00.23-.24l.21-.47.27-.65L.12-6.27h1.2L3-1.17zm0 0"/></symbol><symbol overflow="visible" id="x"><path d="M.8-8.6h1.06V0H.8zm0 0"/></symbol><symbol overflow="visible" id="y"><path d="M1.44-3.06c0 .67.15 1.23.43 1.69.28.45.74.67 1.37.67.49 0 .89-.2 1.2-.63.32-.42.47-1.02.47-1.8 0-.8-.16-1.39-.48-1.76a1.52 1.52 0 00-1.2-.58c-.53 0-.96.2-1.3.61-.32.4-.49 1-.49 1.8zm1.6-3.33c.47 0 .87.1 1.2.3.18.13.4.33.63.62v-3.17H5.9V0h-.95v-.88c-.25.4-.54.67-.87.84A2.5 2.5 0 012.9.22c-.7 0-1.3-.29-1.82-.88a3.45 3.45 0 01-.76-2.35c0-.91.23-1.7.7-2.37a2.3 2.3 0 012-1zm0 0"/></symbol><symbol overflow="visible" id="z"><path d="M.77-6.25h1.07V0H.77zm0-2.36h1.07v1.2H.77zm0 0"/></symbol><symbol overflow="visible" id="A"><path d="M1.4-1.97c.03.35.12.62.26.81.27.34.73.51 1.39.51.39 0 .73-.08 1.03-.26.3-.16.44-.43.44-.79a.67.67 0 00-.36-.6 4.49 4.49 0 00-.9-.3l-.83-.22a4.09 4.09 0 01-1.19-.45 1.33 1.33 0 01-.68-1.18c0-.59.22-1.07.64-1.44.43-.37 1-.55 1.73-.55.94 0 1.62.28 2.05.83.26.35.38.74.38 1.14h-1c-.02-.24-.1-.46-.25-.65-.24-.28-.66-.42-1.26-.42-.4 0-.7.08-.9.23-.21.15-.32.36-.32.6 0 .28.14.5.4.66.17.1.4.18.7.26l.7.17c.76.18 1.27.36 1.52.53.41.27.62.7.62 1.27 0 .56-.21 1.05-.64 1.45-.42.4-1.07.61-1.94.61-.93 0-1.6-.21-1.98-.63A2.4 2.4 0 01.4-1.97zm0 0"/></symbol><symbol overflow="visible" id="B"><path d="M.77-8.64h1.06v3.21c.25-.31.47-.53.67-.66.34-.23.77-.34 1.27-.34.91 0 1.53.32 1.85.96.18.34.27.83.27 1.45V0H4.8v-3.95c0-.46-.05-.8-.17-1.02-.2-.34-.55-.51-1.08-.51-.44 0-.83.14-1.2.45-.35.3-.52.87-.52 1.7V0H.77zm0 0"/></symbol><symbol overflow="visible" id="C"><path d="M.8-6.27h1v1.08c.09-.21.29-.47.6-.77a1.56 1.56 0 011.22-.45l.24.02v1.12a1.63 1.63 0 00-.35-.03c-.53 0-.94.17-1.22.51-.29.34-.43.74-.43 1.18V0H.8zm0 0"/></symbol><symbol overflow="visible" id="D"><path d="M1.58-1.67c0 .3.12.54.33.72.23.18.5.26.8.26.37 0 .73-.08 1.08-.26.58-.28.87-.75.87-1.4v-.85c-.12.09-.3.16-.5.21-.2.06-.4.1-.59.12l-.64.08a2.4 2.4 0 00-.86.24.94.94 0 00-.49.88zM4.14-3.8c.24-.04.4-.14.49-.3.04-.1.07-.24.07-.41 0-.36-.13-.62-.4-.78a2.03 2.03 0 00-1.09-.25c-.55 0-.94.15-1.17.45-.13.16-.21.4-.25.73H.8c.02-.77.27-1.31.75-1.61.49-.3 1.05-.46 1.68-.46.74 0 1.34.14 1.8.42.46.28.69.72.69 1.31v3.62c0 .11.02.2.07.27.04.06.14.1.28.1l.16-.01.18-.03v.78c-.16.05-.29.08-.37.09l-.35.01c-.37 0-.63-.12-.8-.38a1.44 1.44 0 01-.17-.58c-.22.28-.52.53-.93.73-.4.2-.84.31-1.33.31-.58 0-1.06-.17-1.42-.53-.38-.35-.56-.8-.56-1.33 0-.58.18-1.03.54-1.35.37-.32.85-.52 1.43-.6zm0 0"/></symbol><symbol overflow="visible" id="E"><path d="M.98-8.03h1.07v1.76h1v.86h-1v4.09c0 .22.08.37.22.44.09.04.22.07.41.07h.17l.2-.02V0a2.41 2.41 0 01-.8.1c-.5 0-.83-.13-1-.38a1.69 1.69 0 01-.27-.98V-5.4H.13v-.86h.85zm0 0"/></symbol><symbol overflow="visible" id="F"><path d="M1.26-6.27l1.2 4.94L3.7-6.27h1.19L6.1-1.36l1.28-4.91h1.06L6.62 0h-1.1L4.25-4.86 3.01 0h-1.1L.11-6.27zm0 0"/></symbol><symbol overflow="visible" id="G"><path d="M1.45-3.05c0 .54.08 1 .23 1.36.27.65.75.98 1.45.98.73 0 1.24-.34 1.52-1.03.15-.38.22-.86.22-1.46 0-.54-.08-.99-.25-1.35-.28-.63-.78-.93-1.5-.93-.46 0-.85.2-1.18.59-.32.4-.49 1-.49 1.84zm1.56-3.36c.52 0 .96.12 1.31.39.2.14.39.34.57.62v-.87h1V2.5H4.83V-.72c-.18.28-.42.5-.73.67-.31.17-.7.25-1.16.25a2.5 2.5 0 01-1.8-.79C.61-1.1.35-1.9.35-2.98c0-1 .25-1.82.74-2.47a2.3 2.3 0 011.92-.96zm0 0"/></symbol><symbol overflow="visible" id="H"><path d="M3.39-6.41A2.82 2.82 0 015.64-5.3c.2.32.35.68.42 1.1.06.3.1.76.1 1.39h-4.6c.01.64.16 1.15.44 1.53.29.39.72.58 1.31.58a1.7 1.7 0 001.72-1.28h1.03A2.76 2.76 0 015.27-.5c-.32.32-.72.53-1.18.64-.26.06-.55.1-.87.1-.78 0-1.44-.3-1.99-.86a3.32 3.32 0 01-.8-2.39c0-1 .27-1.82.81-2.45a2.7 2.7 0 012.15-.94zm1.68 2.77a2.72 2.72 0 00-.3-1.1c-.29-.5-.77-.76-1.45-.76-.48 0-.89.18-1.22.53-.33.35-.5.79-.52 1.33zm0 0"/></symbol><symbol overflow="visible" id="I"><path d="M1.29-6.27l1.67 5.1 1.76-5.1h1.15L3.5 0H2.38L.06-6.27zm0 0"/></symbol><symbol overflow="visible" id="J"><path d="M.7-8.64h1.02v3.12c.23-.3.5-.52.82-.68.32-.16.67-.24 1.05-.24.78 0 1.41.27 1.9.8.48.54.73 1.34.73 2.38 0 1-.24 1.82-.72 2.47-.48.66-1.15.99-2 .99-.48 0-.88-.11-1.21-.35-.2-.14-.4-.35-.63-.65V0H.7zm2.73 7.9c.57 0 1-.22 1.28-.67.29-.46.43-1.05.43-1.8 0-.65-.14-1.2-.43-1.63a1.4 1.4 0 00-1.25-.66c-.48 0-.9.18-1.26.54-.36.35-.54.94-.54 1.76 0 .59.07 1.06.22 1.43.28.7.8 1.04 1.55 1.04zm0 0"/></symbol></defs><path fill="#fff" d="M0 0h432v432H0z"/><path d="M85.33 346.67h30.3v-30.3h-30.3zm0 0M115.64 346.67h30.3v-30.3h-30.3zm0 0M145.94 346.67h30.3v-30.3h-30.3zm0 0M176.24 346.67h30.3v-30.3h-30.3zm0 0M206.55 346.67h30.3v-30.3h-30.3zm0 0" fill="none" stroke-width=".75" stroke-linecap="round" stroke-linejoin="round" stroke="#000" stroke-miterlimit="10"/><path d="M236.85 346.67h30.3v-30.3h-30.3zm0 0M267.15 346.67h30.3v-30.3h-30.3zm0 0M297.45 346.67h30.3v-30.3h-30.3zm0 0M327.76 346.67h30.3v-30.3h-30.3zm0 0M358.06 346.67h30.3v-30.3h-30.3zm0 0M388.36 346.67h30.3v-30.3h-30.3zm0 0M85.33 316.36h30.3v-30.3h-30.3zm0 0M115.64 316.36h30.3v-30.3h-30.3zm0 0M145.94 316.36h30.3v-30.3h-30.3zm0 0M176.24 316.36h30.3v-30.3h-30.3zm0 0M206.55 316.36h30.3v-30.3h-30.3zm0 0" fill="none" stroke-width=".75" stroke-linecap="round" stroke-linejoin="round" stroke="#000" stroke-miterlimit="10"/><path d="M236.85 316.36h30.3v-30.3h-30.3zm0 0M267.15 316.36h30.3v-30.3h-30.3zm0 0M297.45 316.36h30.3v-30.3h-30.3zm0 0M327.76 316.36h30.3v-30.3h-30.3zm0 0M358.06 316.36h30.3v-30.3h-30.3zm0 0M388.36 316.36h30.3v-30.3h-30.3zm0 0M85.33 286.06h30.3v-30.3h-30.3zm0 0M115.64 286.06h30.3v-30.3h-30.3zm0 0M145.94 286.06h30.3v-30.3h-30.3zm0 0M176.24 286.06h30.3v-30.3h-30.3zm0 0M206.55 286.06h30.3v-30.3h-30.3zm0 0" fill="none" stroke-width=".75" stroke-linecap="round" stroke-linejoin="round" stroke="#000" stroke-miterlimit="10"/><path d="M236.85 286.06h30.3v-30.3h-30.3zm0 0M267.15 286.06h30.3v-30.3h-30.3zm0 0M297.45 286.06h30.3v-30.3h-30.3zm0 0M327.76 286.06h30.3v-30.3h-30.3zm0 0M358.06 286.06h30.3v-30.3h-30.3zm0 0M388.36 286.06h30.3v-30.3h-30.3zm0 0M85.33 255.76h30.3v-30.3h-30.3zm0 0M115.64 255.76h30.3v-30.3h-30.3zm0 0M145.94 255.76h30.3v-30.3h-30.3zm0 0M176.24 255.76h30.3v-30.3h-30.3zm0 0M206.55 255.76h30.3v-30.3h-30.3zm0 0" fill="none" stroke-width=".75" stroke-linecap="round" stroke-linejoin="round" stroke="#000" stroke-miterlimit="10"/><path d="M236.85 255.76h30.3v-30.3h-30.3zm0 0M267.15 255.76h30.3v-30.3h-30.3zm0 0M297.45 255.76h30.3v-30.3h-30.3zm0 0M327.76 255.76h30.3v-30.3h-30.3zm0 0M358.06 255.76h30.3v-30.3h-30.3zm0 0M388.36 255.76h30.3v-30.3h-30.3zm0 0M85.33 225.45h30.3v-30.3h-30.3zm0 0M115.64 225.45h30.3v-30.3h-30.3zm0 0M145.94 225.45h30.3v-30.3h-30.3zm0 0M176.24 225.45h30.3v-30.3h-30.3zm0 0M206.55 225.45h30.3v-30.3h-30.3zm0 0" fill="none" stroke-width=".75" stroke-linecap="round" stroke-linejoin="round" stroke="#000" stroke-miterlimit="10"/><path d="M236.85 225.45h30.3v-30.3h-30.3zm0 0M267.15 225.45h30.3v-30.3h-30.3zm0 0M297.45 225.45h30.3v-30.3h-30.3zm0 0M327.76 225.45h30.3v-30.3h-30.3zm0 0M358.06 225.45h30.3v-30.3h-30.3zm0 0M388.36 225.45h30.3v-30.3h-30.3zm0 0M85.33 195.15h30.3v-30.3h-30.3zm0 0M115.64 195.15h30.3v-30.3h-30.3zm0 0M145.94 195.15h30.3v-30.3h-30.3zm0 0M176.24 195.15h30.3v-30.3h-30.3zm0 0" fill="none" stroke-width=".75" stroke-linecap="round" stroke-linejoin="round" stroke="#000" stroke-miterlimit="10"/><path d="M206.55 195.15h30.3v-30.3h-30.3zm0 0" fill="none" stroke-width=".75" stroke-linecap="round" stroke-linejoin="round" stroke="#000" stroke-miterlimit="10"/><path d="M236.85 195.15h30.3v-30.3h-30.3zm0 0M267.15 195.15h30.3v-30.3h-30.3zm0 0M297.45 195.15h30.3v-30.3h-30.3zm0 0M327.76 195.15h30.3v-30.3h-30.3zm0 0M358.06 195.15h30.3v-30.3h-30.3zm0 0M388.36 195.15h30.3v-30.3h-30.3zm0 0M85.33 164.85h30.3v-30.3h-30.3zm0 0M115.64 164.85h30.3v-30.3h-30.3zm0 0M145.94 164.85h30.3v-30.3h-30.3zm0 0M176.24 164.85h30.3v-30.3h-30.3zm0 0M206.55 164.85h30.3v-30.3h-30.3zm0 0" fill="none" stroke-width=".75" stroke-linecap="round" stroke-linejoin="round" stroke="#000" stroke-miterlimit="10"/><path d="M236.85 164.85h30.3v-30.3h-30.3zm0 0M267.15 164.85h30.3v-30.3h-30.3zm0 0M297.45 164.85h30.3v-30.3h-30.3zm0 0M327.76 164.85h30.3v-30.3h-30.3zm0 0M358.06 164.85h30.3v-30.3h-30.3zm0 0M388.36 164.85h30.3v-30.3h-30.3zm0 0M85.33 134.55h30.3v-30.3h-30.3zm0 0M115.64 134.55h30.3v-30.3h-30.3zm0 0M145.94 134.55h30.3v-30.3h-30.3zm0 0M176.24 134.55h30.3v-30.3h-30.3zm0 0" fill="none" stroke-width=".75" stroke-linecap="round" stroke-linejoin="round" stroke="#000" stroke-miterlimit="10"/><path d="M206.55 134.55h30.3v-30.3h-30.3zm0 0" fill="none" stroke-width=".75" stroke-linecap="round" stroke-linejoin="round" stroke="#000" stroke-miterlimit="10"/><path d="M236.85 134.55h30.3v-30.3h-30.3zm0 0M267.15 134.55h30.3v-30.3h-30.3zm0 0M297.45 134.55h30.3v-30.3h-30.3zm0 0M327.76 134.55h30.3v-30.3h-30.3zm0 0M358.06 134.55h30.3v-30.3h-30.3zm0 0M388.36 134.55h30.3v-30.3h-30.3zm0 0M85.33 104.24h30.3v-30.3h-30.3zm0 0M115.64 104.24h30.3v-30.3h-30.3zm0 0M145.94 104.24h30.3v-30.3h-30.3zm0 0M176.24 104.24h30.3v-30.3h-30.3zm0 0M206.55 104.24h30.3v-30.3h-30.3zm0 0" fill="none" stroke-width=".75" stroke-linecap="round" stroke-linejoin="round" stroke="#000" stroke-miterlimit="10"/><path d="M236.85 104.24h30.3v-30.3h-30.3zm0 0M267.15 104.24h30.3v-30.3h-30.3zm0 0M297.45 104.24h30.3v-30.3h-30.3zm0 0M327.76 104.24h30.3v-30.3h-30.3zm0 0M358.06 104.24h30.3v-30.3h-30.3zm0 0M388.36 104.24h30.3v-30.3h-30.3zm0 0M85.33 73.94h30.3v-30.3h-30.3zm0 0M115.64 73.94h30.3v-30.3h-30.3zm0 0M145.94 73.94h30.3v-30.3h-30.3zm0 0M176.24 73.94h30.3v-30.3h-30.3zm0 0M206.55 73.94h30.3v-30.3h-30.3zm0 0" fill="none" stroke-width=".75" stroke-linecap="round" stroke-linejoin="round" stroke="#000" stroke-miterlimit="10"/><path d="M236.85 73.94h30.3v-30.3h-30.3zm0 0M267.15 73.94h30.3v-30.3h-30.3zm0 0M297.45 73.94h30.3v-30.3h-30.3zm0 0M327.76 73.94h30.3v-30.3h-30.3zm0 0M358.06 73.94h30.3v-30.3h-30.3zm0 0M388.36 73.94h30.3v-30.3h-30.3zm0 0M85.33 43.64h30.3v-30.3h-30.3zm0 0M115.64 43.64h30.3v-30.3h-30.3zm0 0M145.94 43.64h30.3v-30.3h-30.3zm0 0M176.24 43.64h30.3v-30.3h-30.3zm0 0M206.55 43.64h30.3v-30.3h-30.3zm0 0" fill="none" stroke-width=".75" stroke-linecap="round" stroke-linejoin="round" stroke="#000" stroke-miterlimit="10"/><path d="M236.85 43.64h30.3v-30.3h-30.3zm0 0M267.15 43.64h30.3v-30.3h-30.3zm0 0M297.45 43.64h30.3v-30.3h-30.3zm0 0M327.76 43.64h30.3v-30.3h-30.3zm0 0M358.06 43.64h30.3v-30.3h-30.3zm0 0M388.36 43.64h30.3v-30.3h-30.3zm0 0" fill="none" stroke-width=".75" stroke-linecap="round" stroke-linejoin="round" stroke="#000" stroke-miterlimit="10"/><path d="M115.64 331.52a15.15 15.15 0 11-30.31 0 15.15 15.15 0 0130.3 0" fill="#003560" stroke-width=".75" stroke-linecap="round" stroke-linejoin="round" stroke="#000" stroke-miterlimit="10"/><path d="M143.7 331.52a12.91 12.91 0 11-25.82 0 12.91 12.91 0 0125.82 0M173.93 331.52a12.84 12.84 0 11-25.68-.01 12.84 12.84 0 0125.68 0" fill="#942400" stroke-width=".75" stroke-linecap="round" stroke-linejoin="round" stroke="#000" stroke-miterlimit="10"/><path d="M203.15 331.52a11.75 11.75 0 11-23.5 0 11.75 11.75 0 0123.5 0" fill="#af2d00" stroke-width=".75" stroke-linecap="round" stroke-linejoin="round" stroke="#000" stroke-miterlimit="10"/><path d="M232.02 331.52a10.32 10.32 0 11-20.64 0 10.32 10.32 0 0120.64 0" fill="#0089bb" stroke-width=".75" stroke-linecap="round" stroke-linejoin="round" stroke="#000" stroke-miterlimit="10"/><path d="M265.14 331.52a13.14 13.14 0 11-26.28 0 13.14 13.14 0 0126.28 0" fill="#8d2200" stroke-width=".75" stroke-linecap="round" stroke-linejoin="round" stroke="#000" stroke-miterlimit="10"/><path d="M288.65 331.52a6.35 6.35 0 11-12.7 0 6.35 6.35 0 0112.7 0" fill="#94c0db" stroke-width=".75" stroke-linecap="round" stroke-linejoin="round" stroke="#000" stroke-miterlimit="10"/><path d="M322.67 331.52a10.06 10.06 0 11-20.13 0 10.06 10.06 0 0120.13 0" fill="#008dbe" stroke-width=".75" stroke-linecap="round" stroke-linejoin="round" stroke="#000" stroke-miterlimit="10"/><path d="M352 331.52a9.09 9.09 0 11-18.18 0 9.09 9.09 0 0118.18 0" fill="#279ac5" stroke-width=".75" stroke-linecap="round" stroke-linejoin="round" stroke="#000" stroke-miterlimit="10"/><path d="M380.49 331.52a7.28 7.28 0 11-14.56 0 7.28 7.28 0 0114.56 0" fill="#7bb4d4" stroke-width=".75" stroke-linecap="round" stroke-linejoin="round" stroke="#000" stroke-miterlimit="10"/><path d="M411.86 331.52a8.35 8.35 0 11-16.7 0 8.35 8.35 0 0116.7 0" fill="#d9715b" stroke-width=".75" stroke-linecap="round" stroke-linejoin="round" stroke="#000" stroke-miterlimit="10"/><path d="M113.4 301.21a12.91 12.91 0 11-25.83 0 12.91 12.91 0 0125.82 0" fill="#942400" stroke-width=".75" stroke-linecap="round" stroke-linejoin="round" stroke="#000" stroke-miterlimit="10"/><path d="M145.94 301.21a15.15 15.15 0 11-30.3 0 15.15 15.15 0 0130.3 0" fill="#003560" stroke-width=".75" stroke-linecap="round" stroke-linejoin="round" stroke="#000" stroke-miterlimit="10"/><path d="M174.76 301.21a13.67 13.67 0 11-27.33 0 13.67 13.67 0 0127.33 0" fill="#005082" stroke-width=".75" stroke-linecap="round" stroke-linejoin="round" stroke="#000" stroke-miterlimit="10"/><path d="M204 301.21a12.61 12.61 0 11-25.22 0 12.61 12.61 0 0125.23 0" fill="#00659d" stroke-width=".75" stroke-linecap="round" stroke-linejoin="round" stroke="#000" stroke-miterlimit="10"/><path d="M232.3 301.21a10.6 10.6 0 11-21.2 0 10.6 10.6 0 0121.2 0" fill="#c64000" stroke-width=".75" stroke-linecap="round" stroke-linejoin="round" stroke="#000" stroke-miterlimit="10"/><path d="M263.86 301.21a11.85 11.85 0 11-23.71 0 11.85 11.85 0 0123.7 0" fill="#0073b0" stroke-width=".75" stroke-linecap="round" stroke-linejoin="round" stroke="#000" stroke-miterlimit="10"/><path d="M291.26 301.21a8.96 8.96 0 11-17.92 0 8.96 8.96 0 0117.92 0" fill="#d5644b" stroke-width=".75" stroke-linecap="round" stroke-linejoin="round" stroke="#000" stroke-miterlimit="10"/><path d="M324.9 301.21a12.28 12.28 0 11-24.58 0 12.28 12.28 0 0124.57 0" fill="#a32900" stroke-width=".75" stroke-linecap="round" stroke-linejoin="round" stroke="#000" stroke-miterlimit="10"/><path d="M350.83 301.21a7.92 7.92 0 11-15.84 0 7.92 7.92 0 0115.84 0" fill="#dc7a67" stroke-width=".75" stroke-linecap="round" stroke-linejoin="round" stroke="#000" stroke-miterlimit="10"/><path d="M380.68 301.21a7.46 7.46 0 11-14.93 0 7.46 7.46 0 0114.93 0" fill="#df8372" stroke-width=".75" stroke-linecap="round" stroke-linejoin="round" stroke="#000" stroke-miterlimit="10"/><path d="M411.5 301.21a7.98 7.98 0 11-15.97 0 7.98 7.98 0 0115.97 0" fill="#60aace" stroke-width=".75" stroke-linecap="round" stroke-linejoin="round" stroke="#000" stroke-miterlimit="10"/><path d="M113.33 270.91a12.84 12.84 0 11-25.69 0 12.84 12.84 0 0125.69 0" fill="#942400" stroke-width=".75" stroke-linecap="round" stroke-linejoin="round" stroke="#000" stroke-miterlimit="10"/><path d="M144.45 270.91a13.67 13.67 0 11-27.33 0 13.67 13.67 0 0127.33 0" fill="#005082" stroke-width=".75" stroke-linecap="round" stroke-linejoin="round" stroke="#000" stroke-miterlimit="10"/><path d="M176.24 270.91a15.15 15.15 0 11-30.3 0 15.15 15.15 0 0130.3 0" fill="#003560" stroke-width=".75" stroke-linecap="round" stroke-linejoin="round" stroke="#000" stroke-miterlimit="10"/><path d="M203.38 270.91a11.99 11.99 0 11-23.97 0 11.99 11.99 0 0123.97 0" fill="#0070ad" stroke-width=".75" stroke-linecap="round" stroke-linejoin="round" stroke="#000" stroke-miterlimit="10"/><path d="M232.46 270.91a10.76 10.76 0 11-21.52 0 10.76 10.76 0 0121.52 0" fill="#c43c00" stroke-width=".75" stroke-linecap="round" stroke-linejoin="round" stroke="#000" stroke-miterlimit="10"/><path d="M265.45 270.91a13.45 13.45 0 11-26.9 0 13.45 13.45 0 0126.9 0" fill="#005386" stroke-width=".75" stroke-linecap="round" stroke-linejoin="round" stroke="#000" stroke-miterlimit="10"/><path d="M288.88 270.91a6.57 6.57 0 11-13.15 0 6.57 6.57 0 0113.14 0" fill="#e49487" stroke-width=".75" stroke-linecap="round" stroke-linejoin="round" stroke="#000" stroke-miterlimit="10"/><path d="M323.37 270.91a10.76 10.76 0 11-21.52 0 10.76 10.76 0 0121.52 0" fill="#c43c00" stroke-width=".75" stroke-linecap="round" stroke-linejoin="round" stroke="#000" stroke-miterlimit="10"/><path d="M351.87 270.91a8.96 8.96 0 11-17.92 0 8.96 8.96 0 0117.92 0" fill="#d5644b" stroke-width=".75" stroke-linecap="round" stroke-linejoin="round" stroke="#000" stroke-miterlimit="10"/><path d="M381.63 270.91a8.42 8.42 0 11-16.84 0 8.42 8.42 0 0116.84 0" fill="#d86e57" stroke-width=".75" stroke-linecap="round" stroke-linejoin="round" stroke="#000" stroke-miterlimit="10"/><path d="M409.5 270.91a5.98 5.98 0 11-11.97 0 5.98 5.98 0 0111.97 0" fill="#a0c6de" stroke-width=".75" stroke-linecap="round" stroke-linejoin="round" stroke="#000" stroke-miterlimit="10"/><path d="M112.25 240.6a11.76 11.76 0 11-23.53 0 11.76 11.76 0 0123.53 0" fill="#af2d00" stroke-width=".75" stroke-linecap="round" stroke-linejoin="round" stroke="#000" stroke-miterlimit="10"/><path d="M143.4 240.6a12.61 12.61 0 11-25.23 0 12.61 12.61 0 0125.23 0" fill="#00659d" stroke-width=".75" stroke-linecap="round" stroke-linejoin="round" stroke="#000" stroke-miterlimit="10"/><path d="M173.07 240.6a11.98 11.98 0 11-23.96.01 11.98 11.98 0 0123.96 0" fill="#0070ad" stroke-width=".75" stroke-linecap="round" stroke-linejoin="round" stroke="#000" stroke-miterlimit="10"/><path d="M206.55 240.6a15.15 15.15 0 11-30.31 0 15.15 15.15 0 0130.3 0" fill="#003560" stroke-width=".75" stroke-linecap="round" stroke-linejoin="round" stroke="#000" stroke-miterlimit="10"/><path d="M228.5 240.6a6.8 6.8 0 11-13.6 0 6.8 6.8 0 0113.6 0" fill="#e38e80" stroke-width=".75" stroke-linecap="round" stroke-linejoin="round" stroke="#000" stroke-miterlimit="10"/><path d="M261.98 240.6a9.98 9.98 0 11-19.96 0 9.98 9.98 0 0119.96 0" fill="#008dbe" stroke-width=".75" stroke-linecap="round" stroke-linejoin="round" stroke="#000" stroke-miterlimit="10"/><path d="M293.04 240.6a10.73 10.73 0 11-21.47 0 10.73 10.73 0 0121.47 0" fill="#c43c00" stroke-width=".75" stroke-linecap="round" stroke-linejoin="round" stroke="#000" stroke-miterlimit="10"/><path d="M323.56 240.6a10.96 10.96 0 11-21.91 0 10.96 10.96 0 0121.91 0" fill="#c33800" stroke-width=".75" stroke-linecap="round" stroke-linejoin="round" stroke="#000" stroke-miterlimit="10"/><path d="M346.6 240.6c0 4.92-7.38 4.92-7.38 0 0-4.9 7.37-4.9 7.37 0" fill="#efc7c2" stroke-width=".75" stroke-linecap="round" stroke-linejoin="round" stroke="#000" stroke-miterlimit="10"/><path d="M375.12 240.6c0 2.54-3.81 2.54-3.81 0 0-2.53 3.8-2.53 3.8 0" fill="#f3e1df" stroke-width=".75" stroke-linecap="round" stroke-linejoin="round" stroke="#000" stroke-miterlimit="10"/><path d="M414.88 240.6a11.36 11.36 0 11-22.73 0 11.36 11.36 0 0122.73 0" fill="#0079b3" stroke-width=".75" stroke-linecap="round" stroke-linejoin="round" stroke="#000" stroke-miterlimit="10"/><path d="M110.8 210.3a10.32 10.32 0 11-20.64 0 10.32 10.32 0 0120.64 0" fill="#0089bb" stroke-width=".75" stroke-linecap="round" stroke-linejoin="round" stroke="#000" stroke-miterlimit="10"/><path d="M141.4 210.3a10.6 10.6 0 11-21.21 0 10.6 10.6 0 0121.2 0" fill="#c64000" stroke-width=".75" stroke-linecap="round" stroke-linejoin="round" stroke="#000" stroke-miterlimit="10"/><path d="M171.85 210.3a10.76 10.76 0 11-21.52 0 10.76 10.76 0 0121.52 0" fill="#c43c00" stroke-width=".75" stroke-linecap="round" stroke-linejoin="round" stroke="#000" stroke-miterlimit="10"/><path d="M198.2 210.3a6.8 6.8 0 11-13.6 0 6.8 6.8 0 0113.6 0" fill="#e38e80" stroke-width=".75" stroke-linecap="round" stroke-linejoin="round" stroke="#000" stroke-miterlimit="10"/><path d="M236.85 210.3a15.15 15.15 0 11-30.3 0 15.15 15.15 0 0130.3 0" fill="#003560" stroke-width=".75" stroke-linecap="round" stroke-linejoin="round" stroke="#000" stroke-miterlimit="10"/><path d="M262.8 210.3a10.8 10.8 0 11-21.6 0 10.8 10.8 0 0121.6 0" fill="#c43c00" stroke-width=".75" stroke-linecap="round" stroke-linejoin="round" stroke="#000" stroke-miterlimit="10"/><path d="M283.68 210.3c0 1.84-2.76 1.84-2.76 0s2.76-1.84 2.76 0" fill="#f0f4f6" stroke-width=".75" stroke-linecap="round" stroke-linejoin="round" stroke="#000" stroke-miterlimit="10"/><path d="M319.28 210.3a6.67 6.67 0 11-13.34 0 6.67 6.67 0 0113.34 0" fill="#8cbcd9" stroke-width=".75" stroke-linecap="round" stroke-linejoin="round" stroke="#000" stroke-miterlimit="10"/><path d="M353.7 210.3a10.8 10.8 0 11-21.6 0 10.8 10.8 0 0121.6 0" fill="#0082b8" stroke-width=".75" stroke-linecap="round" stroke-linejoin="round" stroke="#000" stroke-miterlimit="10"/><path d="M383.81 210.3a10.6 10.6 0 11-21.2 0 10.6 10.6 0 0121.2 0" fill="#0084b9" stroke-width=".75" stroke-linecap="round" stroke-linejoin="round" stroke="#000" stroke-miterlimit="10"/><path d="M404.9 210.3c0 1.84-2.76 1.84-2.76 0 0-1.83 2.75-1.83 2.75 0" fill="#f5e9e8" stroke-width=".75" stroke-linecap="round" stroke-linejoin="round" stroke="#000" stroke-miterlimit="10"/><path d="M113.63 180a13.15 13.15 0 11-26.29 0 13.15 13.15 0 0126.3 0" fill="#8d2200" stroke-width=".75" stroke-linecap="round" stroke-linejoin="round" stroke="#000" stroke-miterlimit="10"/><path d="M142.64 180a11.86 11.86 0 11-23.7 0 11.86 11.86 0 0123.7 0" fill="#0073b0" stroke-width=".75" stroke-linecap="round" stroke-linejoin="round" stroke="#000" stroke-miterlimit="10"/><path d="M174.55 180a13.46 13.46 0 11-26.92 0 13.46 13.46 0 0126.92 0" fill="#005386" stroke-width=".75" stroke-linecap="round" stroke-linejoin="round" stroke="#000" stroke-miterlimit="10"/><path d="M201.38 180a9.98 9.98 0 11-19.97 0 9.98 9.98 0 0119.97 0" fill="#008dbe" stroke-width=".75" stroke-linecap="round" stroke-linejoin="round" stroke="#000" stroke-miterlimit="10"/><path d="M232.5 180a10.8 10.8 0 11-21.6 0 10.8 10.8 0 0121.6 0" fill="#c43c00" stroke-width=".75" stroke-linecap="round" stroke-linejoin="round" stroke="#000" stroke-miterlimit="10"/><path d="M267.15 180a15.15 15.15 0 11-30.3 0 15.15 15.15 0 0130.3 0" fill="#003560" stroke-width=".75" stroke-linecap="round" stroke-linejoin="round" stroke="#000" stroke-miterlimit="10"/><path d="M284.95 180c0 3.53-5.3 3.53-5.3 0s5.3-3.53 5.3 0" fill="#f2d8d5" stroke-width=".75" stroke-linecap="round" stroke-linejoin="round" stroke="#000" stroke-miterlimit="10"/><path d="M321.02 180a8.4 8.4 0 11-16.82 0 8.4 8.4 0 0116.82 0" fill="#d9715b" stroke-width=".75" stroke-linecap="round" stroke-linejoin="round" stroke="#000" stroke-miterlimit="10"/><path d="M353.4 180a10.5 10.5 0 11-20.99 0 10.5 10.5 0 0121 0" fill="#c74300" stroke-width=".75" stroke-linecap="round" stroke-linejoin="round" stroke="#000" stroke-miterlimit="10"/><path d="M382.05 180a8.84 8.84 0 11-17.67 0 8.84 8.84 0 0117.67 0" fill="#d6684f" stroke-width=".75" stroke-linecap="round" stroke-linejoin="round" stroke="#000" stroke-miterlimit="10"/><path d="M410 180a6.48 6.48 0 11-12.96 0 6.48 6.48 0 0112.95 0" fill="#90beda" stroke-width=".75" stroke-linecap="round" stroke-linejoin="round" stroke="#000" stroke-miterlimit="10"/><path d="M106.83 149.7a6.34 6.34 0 11-12.69 0 6.34 6.34 0 0112.69 0" fill="#94c0db" stroke-width=".75" stroke-linecap="round" stroke-linejoin="round" stroke="#000" stroke-miterlimit="10"/><path d="M139.75 149.7a8.96 8.96 0 11-17.92 0 8.96 8.96 0 0117.92 0" fill="#d5644b" stroke-width=".75" stroke-linecap="round" stroke-linejoin="round" stroke="#000" stroke-miterlimit="10"/><path d="M167.66 149.7a6.57 6.57 0 11-13.15 0 6.57 6.57 0 0113.15 0" fill="#e49487" stroke-width=".75" stroke-linecap="round" stroke-linejoin="round" stroke="#000" stroke-miterlimit="10"/><path d="M202.13 149.7a10.73 10.73 0 11-21.46 0 10.73 10.73 0 0121.46 0" fill="#c43c00" stroke-width=".75" stroke-linecap="round" stroke-linejoin="round" stroke="#000" stroke-miterlimit="10"/><path d="M223.08 149.7c0 1.84-2.76 1.84-2.76 0s2.76-1.84 2.76 0" fill="#f0f4f6" stroke-width=".75" stroke-linecap="round" stroke-linejoin="round" stroke="#000" stroke-miterlimit="10"/><path d="M254.65 149.7c0 3.53-5.3 3.53-5.3 0s5.3-3.53 5.3 0" fill="#f2d8d5" stroke-width=".75" stroke-linecap="round" stroke-linejoin="round" stroke="#000" stroke-miterlimit="10"/><path d="M297.45 149.7a15.15 15.15 0 11-30.3 0 15.15 15.15 0 0130.3 0" fill="#003560" stroke-width=".75" stroke-linecap="round" stroke-linejoin="round" stroke="#000" stroke-miterlimit="10"/><path d="M323.89 149.7a11.28 11.28 0 11-22.57 0 11.28 11.28 0 0122.57 0" fill="#007bb4" stroke-width=".75" stroke-linecap="round" stroke-linejoin="round" stroke="#000" stroke-miterlimit="10"/><path d="M346.4 149.7c0 4.64-6.97 4.64-6.97 0 0-4.65 6.96-4.65 6.96 0" fill="#f0c9c5" stroke-width=".75" stroke-linecap="round" stroke-linejoin="round" stroke="#000" stroke-miterlimit="10"/><path d="M376.43 149.7c0 4.3-6.44 4.3-6.44 0s6.44-4.3 6.44 0" fill="#f0ceca" stroke-width=".75" stroke-linecap="round" stroke-linejoin="round" stroke="#000" stroke-miterlimit="10"/><path d="M413.46 149.7a9.94 9.94 0 11-19.89 0 9.94 9.94 0 0119.89 0" fill="#cc4e24" stroke-width=".75" stroke-linecap="round" stroke-linejoin="round" stroke="#000" stroke-miterlimit="10"/><path d="M110.55 119.4a10.06 10.06 0 11-20.13 0 10.06 10.06 0 0120.13 0" fill="#008dbe" stroke-width=".75" stroke-linecap="round" stroke-linejoin="round" stroke="#000" stroke-miterlimit="10"/><path d="M143.07 119.4a12.28 12.28 0 11-24.57 0 12.28 12.28 0 0124.57 0" fill="#a32900" stroke-width=".75" stroke-linecap="round" stroke-linejoin="round" stroke="#000" stroke-miterlimit="10"/><path d="M171.86 119.4a10.76 10.76 0 11-21.53 0 10.76 10.76 0 0121.53 0" fill="#c43c00" stroke-width=".75" stroke-linecap="round" stroke-linejoin="round" stroke="#000" stroke-miterlimit="10"/><path d="M202.35 119.4a10.96 10.96 0 11-21.91 0 10.96 10.96 0 0121.91 0" fill="#c33800" stroke-width=".75" stroke-linecap="round" stroke-linejoin="round" stroke="#000" stroke-miterlimit="10"/><path d="M228.37 119.4a6.67 6.67 0 11-13.34 0 6.67 6.67 0 0113.34 0" fill="#8cbcd9" stroke-width=".75" stroke-linecap="round" stroke-linejoin="round" stroke="#000" stroke-miterlimit="10"/><path d="M260.4 119.4a8.4 8.4 0 11-16.8 0 8.4 8.4 0 0116.8 0" fill="#d9715b" stroke-width=".75" stroke-linecap="round" stroke-linejoin="round" stroke="#000" stroke-miterlimit="10"/><path d="M293.58 119.4a11.28 11.28 0 11-22.55 0 11.28 11.28 0 0122.55 0" fill="#007bb4" stroke-width=".75" stroke-linecap="round" stroke-linejoin="round" stroke="#000" stroke-miterlimit="10"/><path d="M327.76 119.4a15.15 15.15 0 11-30.31 0 15.15 15.15 0 0130.3 0" fill="#003560" stroke-width=".75" stroke-linecap="round" stroke-linejoin="round" stroke="#000" stroke-miterlimit="10"/><path d="M345.46 119.4c0 3.4-5.1 3.4-5.1 0s5.1-3.4 5.1 0" fill="#e1ebf2" stroke-width=".75" stroke-linecap="round" stroke-linejoin="round" stroke="#000" stroke-miterlimit="10"/><path d="M376.33 119.4c0 4.15-6.24 4.15-6.24 0 0-4.17 6.24-4.17 6.24 0" fill="#d8e5ef" stroke-width=".75" stroke-linecap="round" stroke-linejoin="round" stroke="#000" stroke-miterlimit="10"/><path d="M412.14 119.4a8.63 8.63 0 11-17.25 0 8.63 8.63 0 0117.25 0" fill="#d76b53" stroke-width=".75" stroke-linecap="round" stroke-linejoin="round" stroke="#000" stroke-miterlimit="10"/><path d="M109.57 89.09a9.1 9.1 0 11-18.18 0 9.1 9.1 0 0118.18 0" fill="#279ac5" stroke-width=".75" stroke-linecap="round" stroke-linejoin="round" stroke="#000" stroke-miterlimit="10"/><path d="M138.7 89.09a7.92 7.92 0 11-15.83 0 7.92 7.92 0 0115.84 0" fill="#dc7a67" stroke-width=".75" stroke-linecap="round" stroke-linejoin="round" stroke="#000" stroke-miterlimit="10"/><path d="M170.05 89.09a8.96 8.96 0 11-17.92 0 8.96 8.96 0 0117.92 0" fill="#d5644b" stroke-width=".75" stroke-linecap="round" stroke-linejoin="round" stroke="#000" stroke-miterlimit="10"/><path d="M195.08 89.09c0 4.91-7.37 4.91-7.37 0s7.37-4.91 7.37 0" fill="#efc7c2" stroke-width=".75" stroke-linecap="round" stroke-linejoin="round" stroke="#000" stroke-miterlimit="10"/><path d="M232.5 89.09a10.8 10.8 0 11-21.6 0 10.8 10.8 0 0121.6 0" fill="#0082b8" stroke-width=".75" stroke-linecap="round" stroke-linejoin="round" stroke="#000" stroke-miterlimit="10"/><path d="M262.5 89.09a10.5 10.5 0 11-21 0 10.5 10.5 0 0121 0" fill="#c74300" stroke-width=".75" stroke-linecap="round" stroke-linejoin="round" stroke="#000" stroke-miterlimit="10"/><path d="M285.79 89.09c0 4.64-6.97 4.64-6.97 0s6.97-4.64 6.97 0" fill="#f0c9c5" stroke-width=".75" stroke-linecap="round" stroke-linejoin="round" stroke="#000" stroke-miterlimit="10"/><path d="M315.16 89.09c0 3.4-5.1 3.4-5.1 0s5.1-3.4 5.1 0" fill="#e1ebf2" stroke-width=".75" stroke-linecap="round" stroke-linejoin="round" stroke="#000" stroke-miterlimit="10"/><path d="M358.06 89.09a15.15 15.15 0 11-30.3 0 15.15 15.15 0 0130.3 0" fill="#003560" stroke-width=".75" stroke-linecap="round" stroke-linejoin="round" stroke="#000" stroke-miterlimit="10"/><path d="M385.24 89.09a12.03 12.03 0 11-24.06 0 12.03 12.03 0 0124.06 0" fill="#0070ad" stroke-width=".75" stroke-linecap="round" stroke-linejoin="round" stroke="#000" stroke-miterlimit="10"/><path d="M404.39 89.09c0 1.16-1.75 1.16-1.75 0s1.75-1.16 1.75 0" fill="#f5f6f8" stroke-width=".75" stroke-linecap="round" stroke-linejoin="round" stroke="#000" stroke-miterlimit="10"/><path d="M107.76 58.79a7.28 7.28 0 11-14.55 0 7.28 7.28 0 0114.55 0" fill="#7bb4d4" stroke-width=".75" stroke-linecap="round" stroke-linejoin="round" stroke="#000" stroke-miterlimit="10"/><path d="M138.25 58.79a7.47 7.47 0 11-14.93 0 7.47 7.47 0 0114.93 0" fill="#df8372" stroke-width=".75" stroke-linecap="round" stroke-linejoin="round" stroke="#000" stroke-miterlimit="10"/><path d="M169.5 58.79a8.42 8.42 0 11-16.83 0 8.42 8.42 0 0116.84 0" fill="#d86e57" stroke-width=".75" stroke-linecap="round" stroke-linejoin="round" stroke="#000" stroke-miterlimit="10"/><path d="M193.3 58.79c0 2.54-3.81 2.54-3.81 0s3.8-2.54 3.8 0" fill="#f3e1df" stroke-width=".75" stroke-linecap="round" stroke-linejoin="round" stroke="#000" stroke-miterlimit="10"/><path d="M232.3 58.79a10.6 10.6 0 11-21.2 0 10.6 10.6 0 0121.2 0" fill="#0084b9" stroke-width=".75" stroke-linecap="round" stroke-linejoin="round" stroke="#000" stroke-miterlimit="10"/><path d="M260.84 58.79a8.83 8.83 0 11-17.67 0 8.83 8.83 0 0117.67 0" fill="#d6684f" stroke-width=".75" stroke-linecap="round" stroke-linejoin="round" stroke="#000" stroke-miterlimit="10"/><path d="M285.53 58.79c0 4.3-6.45 4.3-6.45 0s6.45-4.3 6.45 0" fill="#f0ceca" stroke-width=".75" stroke-linecap="round" stroke-linejoin="round" stroke="#000" stroke-miterlimit="10"/><path d="M315.73 58.79c0 4.16-6.25 4.16-6.25 0s6.25-4.16 6.25 0" fill="#d8e5ef" stroke-width=".75" stroke-linecap="round" stroke-linejoin="round" stroke="#000" stroke-miterlimit="10"/><path d="M354.94 58.79a12.03 12.03 0 11-24.06 0 12.03 12.03 0 0124.06 0" fill="#0070ad" stroke-width=".75" stroke-linecap="round" stroke-linejoin="round" stroke="#000" stroke-miterlimit="10"/><path d="M388.36 58.79a15.15 15.15 0 11-30.3 0 15.15 15.15 0 0130.3 0" fill="#003560" stroke-width=".75" stroke-linecap="round" stroke-linejoin="round" stroke="#000" stroke-miterlimit="10"/><path d="M407.67 58.79c0 5.53-8.3 5.53-8.3 0 0-5.54 8.3-5.54 8.3 0" fill="#c7dcea" stroke-width=".75" stroke-linecap="round" stroke-linejoin="round" stroke="#000" stroke-miterlimit="10"/><path d="M108.83 28.48a8.35 8.35 0 11-16.7 0 8.35 8.35 0 0116.7 0" fill="#d9715b" stroke-width=".75" stroke-linecap="round" stroke-linejoin="round" stroke="#000" stroke-miterlimit="10"/><path d="M138.77 28.48a7.98 7.98 0 11-15.96 0 7.98 7.98 0 0115.96 0" fill="#60aace" stroke-width=".75" stroke-linecap="round" stroke-linejoin="round" stroke="#000" stroke-miterlimit="10"/><path d="M167.07 28.48a5.98 5.98 0 11-11.97 0 5.98 5.98 0 0111.97 0" fill="#a0c6de" stroke-width=".75" stroke-linecap="round" stroke-linejoin="round" stroke="#000" stroke-miterlimit="10"/><path d="M202.75 28.48a11.36 11.36 0 11-22.72 0 11.36 11.36 0 0122.72 0" fill="#0079b3" stroke-width=".75" stroke-linecap="round" stroke-linejoin="round" stroke="#000" stroke-miterlimit="10"/><path d="M223.07 28.48c0 1.84-2.75 1.84-2.75 0 0-1.83 2.75-1.83 2.75 0" fill="#f5e9e8" stroke-width=".75" stroke-linecap="round" stroke-linejoin="round" stroke="#000" stroke-miterlimit="10"/><path d="M258.48 28.48a6.48 6.48 0 11-12.96 0 6.48 6.48 0 0112.96 0" fill="#90beda" stroke-width=".75" stroke-linecap="round" stroke-linejoin="round" stroke="#000" stroke-miterlimit="10"/><path d="M292.25 28.48a9.95 9.95 0 11-19.9 0 9.95 9.95 0 0119.9 0" fill="#cc4e24" stroke-width=".75" stroke-linecap="round" stroke-linejoin="round" stroke="#000" stroke-miterlimit="10"/><path d="M321.24 28.48a8.64 8.64 0 11-17.27 0 8.64 8.64 0 0117.27 0" fill="#d76b53" stroke-width=".75" stroke-linecap="round" stroke-linejoin="round" stroke="#000" stroke-miterlimit="10"/><path d="M343.78 28.48c0 1.17-1.74 1.17-1.74 0 0-1.16 1.74-1.16 1.74 0" fill="#f5f6f8" stroke-width=".75" stroke-linecap="round" stroke-linejoin="round" stroke="#000" stroke-miterlimit="10"/><path d="M377.36 28.48c0 5.54-8.3 5.54-8.3 0 0-5.53 8.3-5.53 8.3 0" fill="#c7dcea" stroke-width=".75" stroke-linecap="round" stroke-linejoin="round" stroke="#000" stroke-miterlimit="10"/><path d="M418.67 28.48a15.15 15.15 0 11-30.31 0 15.15 15.15 0 0130.3 0" fill="#003560" stroke-width=".75" stroke-linecap="round" stroke-linejoin="round" stroke="#000" stroke-miterlimit="10"/><use xlink:href="#a" x="104.22" y="384"/><use xlink:href="#b" x="104.22" y="374"/><use xlink:href="#c" x="104.22" y="367.33"/><use xlink:href="#d" x="134.53" y="375"/><use xlink:href="#e" x="134.53" y="369"/><use xlink:href="#f" x="134.53" y="363"/><use xlink:href="#g" x="164.83" y="383"/><use xlink:href="#h" x="164.83" y="376.33"/><use xlink:href="#i" x="164.83" y="373.66"/><use xlink:href="#b" x="164.83" y="367.66"/><use xlink:href="#j" x="195.13" y="374"/><use xlink:href="#b" x="195.13" y="367.33"/><use xlink:href="#g" x="225.44" y="381"/><use xlink:href="#k" x="225.44" y="374.33"/><use xlink:href="#l" x="225.44" y="370.33"/><use xlink:href="#m" x="225.44" y="363.66"/><use xlink:href="#n" x="255.74" y="372"/><use xlink:href="#m" x="255.74" y="363.33"/><use xlink:href="#o" x="286.04" y="386"/><use xlink:href="#i" x="286.04" y="379.33"/><use xlink:href="#p" x="286.04" y="373.33"/><use xlink:href="#d" x="286.04" y="366.65"/><g><use xlink:href="#q" x="316.35" y="372"/><use xlink:href="#i" x="316.35" y="366"/></g><g><use xlink:href="#l" x="346.65" y="377"/><use xlink:href="#a" x="346.65" y="370.33"/></g><g><use xlink:href="#c" x="376.95" y="385"/><use xlink:href="#p" x="376.95" y="378.33"/><use xlink:href="#l" x="376.95" y="371.65"/><use xlink:href="#k" x="376.95" y="364.98"/></g><g><use xlink:href="#d" x="407.26" y="384"/><use xlink:href="#l" x="407.26" y="378"/><use xlink:href="#k" x="407.26" y="371.33"/><use xlink:href="#r" x="407.26" y="367.33"/></g><g><use xlink:href="#s" x="48" y="335.26"/><use xlink:href="#t" x="58" y="335.26"/><use xlink:href="#u" x="64.67" y="335.26"/></g><g><use xlink:href="#v" x="57" y="304.95"/><use xlink:href="#w" x="63" y="304.95"/><use xlink:href="#x" x="69" y="304.95"/></g><g><use xlink:href="#y" x="49" y="274.65"/><use xlink:href="#z" x="55.67" y="274.65"/><use xlink:href="#A" x="58.34" y="274.65"/><use xlink:href="#t" x="64.34" y="274.65"/></g><g><use xlink:href="#B" x="58" y="244.35"/><use xlink:href="#t" x="64.67" y="244.35"/></g><g><use xlink:href="#y" x="51" y="214.04"/><use xlink:href="#C" x="57.67" y="214.04"/><use xlink:href="#D" x="61.67" y="214.04"/><use xlink:href="#E" x="68.34" y="214.04"/></g><g><use xlink:href="#F" x="60" y="183.74"/><use xlink:href="#E" x="68.67" y="183.74"/></g><g><use xlink:href="#G" x="46" y="153.44"/><use xlink:href="#A" x="52.67" y="153.44"/><use xlink:href="#H" x="58.67" y="153.44"/><use xlink:href="#v" x="65.35" y="153.44"/></g><g><use xlink:href="#I" x="60" y="123.13"/><use xlink:href="#A" x="66" y="123.13"/></g><g><use xlink:href="#D" x="55" y="92.83"/><use xlink:href="#s" x="61.67" y="92.83"/></g><g><use xlink:href="#u" x="47" y="62.53"/><use xlink:href="#H" x="53.67" y="62.53"/><use xlink:href="#D" x="60.35" y="62.53"/><use xlink:href="#C" x="67.02" y="62.53"/></g><g><use xlink:href="#v" x="48" y="32.22"/><use xlink:href="#D" x="54" y="32.22"/><use xlink:href="#C" x="60.67" y="32.22"/><use xlink:href="#J" x="64.67" y="32.22"/></g></svg>