<svg xmlns="http://www.w3.org/2000/svg" xmlns:xlink="http://www.w3.org/1999/xlink" width="768" height="384" viewBox="0 0 576 288"><defs><symbol overflow="visible" id="a"><path d="M4.91-4.66c.55 0 .98-.11 1.3-.33.32-.22.48-.62.48-1.19 0-.6-.22-1.03-.67-1.25a2.17 2.17 0 00-.95-.18H2.22v2.95zM1.05-8.61h3.99a4 4 0 011.62.29c.81.37 1.21 1.05 1.21 2.03 0 .52-.1.94-.32 1.27-.2.32-.5.59-.89.79.34.14.59.32.76.54.17.22.27.58.28 1.08l.05 1.16c0 .32.04.57.08.73.07.27.2.45.37.52V0H6.77a1.1 1.1 0 01-.09-.29 5.51 5.51 0 01-.06-.68L6.55-2.4c-.03-.56-.24-.94-.63-1.13-.22-.1-.57-.16-1.04-.16H2.21V0H1.05zm0 0"/></symbol><symbol overflow="visible" id="b"><path d="M1.83-6.27v4.16c0 .32.05.58.15.79.19.37.54.56 1.05.56.74 0 1.24-.33 1.5-.99.15-.35.22-.83.22-1.45v-3.07H5.8V0h-1l.02-.93A2.24 2.24 0 012.85.17c-.9 0-1.51-.3-1.83-.9A2.67 2.67 0 01.75-2v-4.26zm0 0"/></symbol><symbol overflow="visible" id="c"><path d="M.8-6.27h1v1.08c.09-.21.29-.47.6-.77a1.56 1.56 0 011.22-.45l.24.02v1.12a1.63 1.63 0 00-.35-.03c-.53 0-.94.17-1.22.51-.29.34-.43.74-.43 1.18V0H.8zm0 0"/></symbol><symbol overflow="visible" id="d"><path d="M1.58-1.67c0 .3.12.54.33.72.23.18.5.26.8.26.37 0 .73-.08 1.08-.26.58-.28.87-.75.87-1.4v-.85c-.12.09-.3.16-.5.21-.2.06-.4.1-.59.12l-.64.08a2.4 2.4 0 00-.86.24.94.94 0 00-.49.88zM4.14-3.8c.24-.04.4-.14.49-.3.04-.1.07-.24.07-.41 0-.36-.13-.62-.4-.78a2.03 2.03 0 00-1.09-.25c-.55 0-.94.15-1.17.45-.13.16-.21.4-.25.73H.8c.02-.77.27-1.31.75-1.61.49-.3 1.05-.46 1.68-.46.74 0 1.34.14 1.8.42.46.28.69.72.69 1.31v3.62c0 .11.02.2.07.27.04.06.14.1.28.1l.16-.01.18-.03v.78c-.16.05-.29.08-.37.09l-.35.01c-.37 0-.63-.12-.8-.38a1.44 1.44 0 01-.17-.58c-.22.28-.52.53-.93.73-.4.2-.84.31-1.33.31-.58 0-1.06-.17-1.42-.53-.38-.35-.56-.8-.56-1.33 0-.58.18-1.03.54-1.35.37-.32.85-.52 1.43-.6zm0 0"/></symbol><symbol overflow="visible" id="e"><path d="M.8-8.6h1.06V0H.8zm0 0"/></symbol><symbol overflow="visible" id="g"><path d="M.88-8.6h1.67l2.48 7.27L7.48-8.6h1.65V0h-1.1v-5.08-.87c.02-.4.02-.85.02-1.3L5.6 0H4.44L1.97-7.26V-7l.01.97.02.95V0H.88zm0 0"/></symbol><symbol overflow="visible" id="h"><path d="M3.39-6.41A2.82 2.82 0 015.64-5.3c.2.32.35.68.42 1.1.06.3.1.76.1 1.39h-4.6c.01.64.16 1.15.44 1.53.29.39.72.58 1.31.58a1.7 1.7 0 001.72-1.28h1.03A2.76 2.76 0 015.27-.5c-.32.32-.72.53-1.18.64-.26.06-.55.1-.87.1-.78 0-1.44-.3-1.99-.86a3.32 3.32 0 01-.8-2.39c0-1 .27-1.82.81-2.45a2.7 2.7 0 012.15-.94zm1.68 2.77a2.72 2.72 0 00-.3-1.1c-.29-.5-.77-.76-1.45-.76-.48 0-.89.18-1.22.53-.33.35-.5.79-.52 1.33zm0 0"/></symbol><symbol overflow="visible" id="i"><path d="M1.02-8.6H7v1.05H2.2v2.61H6.4v1.03H2.2V0H1.02zm0 0"/></symbol><symbol overflow="visible" id="j"><path d="M.77-6.27h1.05v.89c.25-.31.47-.54.68-.68.34-.24.74-.35 1.18-.35.5 0 .9.12 1.2.36.18.14.33.35.48.62.23-.33.5-.58.82-.74.32-.17.67-.24 1.07-.24.84 0 1.41.3 1.72.91.16.33.25.77.25 1.32V0h-1.1v-4.36c0-.42-.1-.7-.31-.86a1.25 1.25 0 00-.77-.23c-.41 0-.77.13-1.07.41-.3.28-.45.74-.45 1.4V0H4.45v-4.1c0-.42-.05-.73-.15-.93-.16-.29-.46-.44-.9-.44-.4 0-.76.16-1.08.47-.33.3-.5.86-.5 1.67V0H.78zm0 0"/></symbol><symbol overflow="visible" id="k"><path d="M2.18-8.6v5.31c0 .63.12 1.15.35 1.56.35.63.93.94 1.76.94.99 0 1.66-.34 2.01-1.01.2-.37.3-.86.3-1.49V-8.6h1.17v4.84a5.6 5.6 0 01-.42 2.44C6.82-.29 5.84.23 4.38.23 2.93.23 1.95-.3 1.42-1.33A5.6 5.6 0 011-3.77v-4.84zm0 0"/></symbol><symbol overflow="visible" id="l"><path d="M.7-8.64h1.02v3.12c.23-.3.5-.52.82-.68.32-.16.67-.24 1.05-.24.78 0 1.41.27 1.9.8.48.54.73 1.34.73 2.38 0 1-.24 1.82-.72 2.47-.48.66-1.15.99-2 .99-.48 0-.88-.11-1.21-.35-.2-.14-.4-.35-.63-.65V0H.7zm2.73 7.9c.57 0 1-.22 1.28-.67.29-.46.43-1.05.43-1.8 0-.65-.14-1.2-.43-1.63a1.4 1.4 0 00-1.25-.66c-.48 0-.9.18-1.26.54-.36.35-.54.94-.54 1.76 0 .59.07 1.06.22 1.43.28.7.8 1.04 1.55 1.04zm0 0"/></symbol><symbol overflow="visible" id="m"><path d="M.77-6.27h1v.89c.3-.37.62-.64.95-.8.33-.16.7-.23 1.1-.23.9 0 1.5.3 1.81.93.17.34.26.82.26 1.46V0H4.82v-3.95c0-.39-.06-.7-.17-.93-.19-.4-.53-.59-1.03-.59-.25 0-.45.03-.6.08-.3.09-.55.26-.77.51-.18.21-.29.43-.34.65-.05.22-.08.53-.08.94V0H.77zm0 0"/></symbol><symbol overflow="visible" id="L"><path d="M2.99-6.39c.49 0 .92.12 1.29.37.2.13.4.33.6.6v-.8h.98V-.5c0 .8-.12 1.42-.35 1.89-.44.85-1.27 1.28-2.48 1.28-.67 0-1.24-.16-1.7-.46C.85 1.9.6 1.42.54.78h1.07c.06.28.15.5.31.65.24.23.6.35 1.12.35.81 0 1.34-.28 1.6-.85.14-.34.2-.94.2-1.8-.22.32-.47.56-.76.71-.3.16-.7.24-1.18.24-.68 0-1.28-.24-1.79-.73-.5-.48-.76-1.28-.76-2.39 0-1.05.25-1.87.77-2.46a2.38 2.38 0 011.86-.89zm1.9 3.23c0-.78-.16-1.36-.48-1.73a1.54 1.54 0 00-1.23-.56 1.5 1.5 0 00-1.52 1.04 4.1 4.1 0 00-.22 1.46c0 .7.15 1.24.43 1.61.29.37.68.55 1.16.55.76 0 1.29-.33 1.6-1.02.17-.39.26-.84.26-1.35zm0 0"/></symbol><symbol overflow="visible" id="M"><path d="M.77-6.25h1.07V0H.77zm0-2.36h1.07v1.2H.77zm0 0"/></symbol><symbol overflow="visible" id="N"><path d="M1.4-1.97c.03.35.12.62.26.81.27.34.73.51 1.39.51.39 0 .73-.08 1.03-.26.3-.16.44-.43.44-.79a.67.67 0 00-.36-.6 4.49 4.49 0 00-.9-.3l-.83-.22a4.09 4.09 0 01-1.19-.45 1.33 1.33 0 01-.68-1.18c0-.59.22-1.07.64-1.44.43-.37 1-.55 1.73-.55.94 0 1.62.28 2.05.83.26.35.38.74.38 1.14h-1c-.02-.24-.1-.46-.25-.65-.24-.28-.66-.42-1.26-.42-.4 0-.7.08-.9.23-.21.15-.32.36-.32.6 0 .28.14.5.4.66.17.1.4.18.7.26l.7.17c.76.18 1.27.36 1.52.53.41.27.62.7.62 1.27 0 .56-.21 1.05-.64 1.45-.42.4-1.07.61-1.94.61-.93 0-1.6-.21-1.98-.63A2.4 2.4 0 01.4-1.97zm0 0"/></symbol><symbol overflow="visible" id="O"><path d="M1.48-2.14c.07.6.35 1.02.84 1.25.25.12.54.18.87.18.62 0 1.08-.2 1.39-.6.3-.4.45-.84.45-1.33 0-.58-.18-1.04-.54-1.36a1.87 1.87 0 00-1.29-.48c-.36 0-.67.07-.93.21-.26.14-.48.34-.66.59l-.92-.05.64-4.52h4.36v1.02H2.12L1.77-4.9c.2-.15.37-.26.55-.33.31-.13.67-.2 1.09-.2.77 0 1.42.25 1.95.75s.8 1.13.8 1.88c0 .8-.24 1.5-.73 2.1-.5.61-1.27.91-2.35.91C2.4.21 1.8.02 1.27-.37.74-.75.45-1.34.39-2.14zm0 0"/></symbol><symbol overflow="visible" id="P"><path d="M3.25-8.4c1.08 0 1.87.45 2.35 1.35a6 6 0 01.56 2.84c0 1.14-.17 2.08-.5 2.83C5.16-.3 4.36.23 3.24.23c-1 0-1.76-.43-2.25-1.3a6 6 0 01-.61-2.94c0-.96.12-1.78.36-2.46.46-1.27 1.3-1.91 2.5-1.91zM3.23-.72c.55 0 .99-.25 1.3-.73.33-.49.5-1.38.5-2.7 0-.96-.12-1.74-.35-2.36-.24-.61-.7-.92-1.37-.92-.62 0-1.08.3-1.36.87a6.02 6.02 0 00-.43 2.59c0 .85.09 1.54.27 2.06.28.8.76 1.19 1.44 1.19zm0 0"/></symbol><symbol overflow="visible" id="Q"><path d="M.5-3.88h2.94v1.08H.5zm0 0"/></symbol><symbol overflow="visible" id="R"><path d="M3.97-2.97v-3.8l-2.7 3.8zM3.98 0v-2.05H.3v-1.03l3.85-5.33h.89v5.44h1.23v.92H5.04V0zm0 0"/></symbol><symbol overflow="visible" id="S"><path d="M1.6-2.03c.02.58.25.99.67 1.21.21.12.46.18.72.18.5 0 .94-.22 1.3-.63.35-.43.6-1.28.75-2.56-.24.37-.52.63-.87.78-.35.15-.72.23-1.12.23-.8 0-1.44-.26-1.92-.76-.47-.5-.7-1.15-.7-1.94 0-.77.23-1.44.7-2.02.46-.57 1.14-.86 2.05-.86 1.22 0 2.07.55 2.53 1.65a7.5 7.5 0 01-.07 5C5.12-.43 4.26.23 3.04.23 2.2.23 1.59.02 1.16-.4a2.2 2.2 0 01-.63-1.62zm1.6-1.72c.41 0 .8-.14 1.14-.41.34-.28.52-.76.52-1.45 0-.62-.16-1.07-.47-1.38-.3-.3-.7-.45-1.19-.45-.51 0-.92.17-1.22.52-.3.34-.46.8-.46 1.38 0 .55.14.99.4 1.3.27.33.69.49 1.28.49zm0 0"/></symbol><symbol overflow="visible" id="T"><path d="M3.5-8.43c.95 0 1.6.25 1.97.73.37.49.55.99.55 1.5H4.98a1.86 1.86 0 00-.3-.77c-.25-.35-.64-.53-1.15-.53a1.6 1.6 0 00-1.4.82 4.71 4.71 0 00-.6 2.34 2.32 2.32 0 012.05-1.04c.7 0 1.32.23 1.84.68.53.45.78 1.12.78 2.01 0 .76-.24 1.44-.74 2.03-.5.58-1.2.88-2.12.88-.79 0-1.46-.3-2.04-.9-.57-.6-.85-1.6-.85-3 0-1.05.13-1.93.38-2.66.49-1.39 1.38-2.09 2.68-2.09zM3.44-.72c.56 0 .97-.19 1.25-.56a2.25 2.25 0 00.04-2.55c-.24-.39-.69-.58-1.34-.58-.45 0-.85.15-1.2.45-.33.3-.5.75-.5 1.36a2 2 0 00.46 1.34c.31.36.74.54 1.3.54zm0 0"/></symbol><symbol overflow="visible" id="U"><path d="M6.27-8.25v.92a14 14 0 00-2.26 3.46A13.88 13.88 0 002.82 0H1.62c.27-1.6.85-3.2 1.76-4.78.54-.93 1.1-1.74 1.69-2.4H.44v-1.07zm0 0"/></symbol><symbol overflow="visible" id="n"><path d="M3.76-7.85A2.45 2.45 0 015.88-6.7v-3.65H7.9V0H5.96v-1.06c-.28.45-.6.78-.98.99-.36.2-.82.3-1.36.3-.9 0-1.65-.35-2.26-1.08a4.18 4.18 0 01-.92-2.79c0-1.3.3-2.33.9-3.08.6-.75 1.41-1.13 2.42-1.13zm.44 6.4c.57 0 1-.21 1.3-.63.29-.42.43-.97.43-1.64 0-.94-.23-1.6-.7-2.01A1.53 1.53 0 004.2-6.1c-.58 0-1.01.22-1.29.67-.27.44-.4 1-.4 1.65 0 .7.13 1.27.41 1.7.28.42.7.63 1.27.63zm0 0"/></symbol><symbol overflow="visible" id="o"><path d="M3.96-6.21c-.47 0-.83.14-1.08.43-.25.3-.42.69-.48 1.18H5.5c-.03-.53-.19-.93-.48-1.2a1.5 1.5 0 00-1.07-.41zm0-1.66c.63 0 1.21.12 1.72.36a3 3 0 011.27 1.13c.3.46.5.99.58 1.58.05.35.07.86.06 1.52H2.35c.02.77.27 1.31.72 1.62.28.2.61.29 1 .29.41 0 .75-.12 1-.35.15-.13.27-.3.38-.53H7.5c-.05.45-.3.92-.71 1.39A3.48 3.48 0 014.03.25a3.9 3.9 0 01-2.58-.94C.7-1.32.33-2.34.33-3.75c0-1.33.34-2.35 1.01-3.05a3.45 3.45 0 012.62-1.07zm0 0"/></symbol><symbol overflow="visible" id="p"><path d="M5.16-3.73a2.36 2.36 0 01-.91.34l-.45.08c-.42.07-.73.17-.9.27a.92.92 0 00-.47.85c0 .35.09.6.28.74.2.16.42.24.7.24.43 0 .82-.13 1.18-.39.37-.25.56-.71.57-1.38zm-1.21-.93c.37-.05.63-.1.79-.18.28-.12.43-.3.43-.57 0-.3-.11-.53-.33-.65a2.06 2.06 0 00-.96-.18c-.47 0-.8.12-1 .35-.15.18-.24.41-.29.7H.66c.04-.66.23-1.21.56-1.65.53-.67 1.44-1 2.73-1 .84 0 1.59.16 2.24.5.65.32.97.95.97 1.88v3.51c0 .25 0 .54.02.89.01.26.05.44.12.53.06.1.16.17.3.23V0H5.4c-.06-.16-.1-.3-.12-.44a5.9 5.9 0 01-.06-.46c-.28.3-.6.56-.96.77a2.9 2.9 0 01-1.46.37c-.7 0-1.26-.2-1.72-.6C.64-.75.41-1.3.41-2.04c0-.94.37-1.62 1.1-2.05.4-.23.98-.39 1.75-.49zm0 0"/></symbol><symbol overflow="visible" id="q"><path d="M.15-6.17v-1.42H1.2v-2.14H3.2v2.14h1.25v1.42H3.2v4.05c0 .32.04.51.12.6.08.07.32.1.73.1h.4V.06L3.5.11c-.95.03-1.6-.14-1.95-.5-.22-.23-.34-.58-.34-1.06v-4.72zm0 0"/></symbol><symbol overflow="visible" id="r"><path d="M5.16-7.86c.47 0 .9.08 1.29.25a2.25 2.25 0 011.34 1.63c.05.3.07.8.07 1.48V0H5.82v-4.66c0-.41-.07-.75-.21-1-.19-.36-.54-.54-1.05-.54-.52 0-.93.18-1.2.54-.28.35-.41.86-.41 1.51V0h-2v-10.33h2v3.67c.29-.45.62-.76 1-.94.39-.17.79-.26 1.21-.26zm0 0"/></symbol><symbol overflow="visible" id="s"><path d="M2.5-2.45c.04.36.13.61.27.76.25.27.7.4 1.38.4.4 0 .7-.05.94-.17.23-.12.34-.3.34-.53 0-.22-.09-.4-.28-.51-.19-.12-.88-.32-2.08-.6a4.33 4.33 0 01-1.84-.82C.88-4.23.7-4.7.7-5.29c0-.71.27-1.32.83-1.83.56-.5 1.34-.76 2.34-.76.96 0 1.74.19 2.34.57.6.38.95 1.04 1.04 1.98h-2c-.03-.26-.1-.46-.22-.61-.22-.27-.6-.4-1.13-.4-.44 0-.74.06-.93.2-.18.13-.28.29-.28.47 0 .23.1.4.3.5.2.11.9.3 2.09.56.8.18 1.4.47 1.8.85.38.38.58.86.58 1.44 0 .76-.28 1.38-.85 1.86C6.05.02 5.18.26 4 .26 2.8.26 1.9 0 1.32-.5a2.48 2.48 0 01-.86-1.95zm0 0"/></symbol><symbol overflow="visible" id="u"><path d="M6.21-3.83a3 3 0 00-.4-1.57c-.27-.46-.7-.68-1.31-.68-.73 0-1.23.34-1.5 1.03a3.9 3.9 0 00-.2 1.4c0 .88.23 1.5.7 1.87.28.21.62.32 1 .32.56 0 .98-.22 1.28-.65.29-.43.43-1 .43-1.72zm-1.13-4a3 3 0 012.27.99c.62.66.93 1.63.93 2.91 0 1.35-.3 2.38-.9 3.09-.61.7-1.4 1.06-2.35 1.06C4.42.22 3.9.07 3.5-.24a2.95 2.95 0 01-.65-.74v4H.88V-7.66H2.8v1.13a2.54 2.54 0 012.28-1.3zm0 0"/></symbol><symbol overflow="visible" id="v"><path d="M5.1-7.85h.1l.16.02v2.05l-.33-.03h-.24c-.81 0-1.35.26-1.63.78-.15.3-.23.75-.23 1.37V0H.91v-7.66h1.92v1.33c.3-.51.58-.86.8-1.04a2.2 2.2 0 011.47-.48zm0 0"/></symbol><symbol overflow="visible" id="w"><path d="M1-7.03V-8.4a8.4 8.4 0 001.33-.13c.4-.09.73-.27.98-.53.17-.19.3-.43.4-.74.05-.18.07-.32.07-.4h1.67V0H3.39v-7.03zm0 0"/></symbol><symbol overflow="visible" id="x"><path d="M2.5-5c0 1.17.1 2.07.29 2.7.19.61.58.92 1.17.92.6 0 .99-.3 1.18-.93.18-.62.27-1.52.27-2.69a9.9 9.9 0 00-.27-2.73c-.2-.59-.58-.88-1.18-.88-.59 0-.98.3-1.17.88-.2.6-.3 1.5-.3 2.73zm1.46-5.27c1.3 0 2.22.46 2.74 1.38.52.91.78 2.2.78 3.89a7.9 7.9 0 01-.78 3.9C6.17-.2 5.27.24 3.96.24c-1.3 0-2.2-.45-2.73-1.36A7.9 7.9 0 01.45-5c0-1.68.26-2.98.78-3.9.53-.9 1.44-1.37 2.73-1.37zm0 0"/></symbol><symbol overflow="visible" id="y"><path d="M3-8.58H.96v-1.85H3zm-2.04.92H3V0H.96zm0 0"/></symbol><symbol overflow="visible" id="z"><path d="M5.18-7.85c.8 0 1.44.2 1.95.63.5.41.75 1.1.75 2.06V0H5.83v-4.66c0-.4-.06-.71-.16-.93-.2-.4-.58-.59-1.13-.59-.68 0-1.15.29-1.4.86-.13.3-.2.7-.2 1.17V0h-2v-7.65h1.94v1.12c.26-.4.5-.68.73-.85.42-.31.94-.47 1.57-.47zm0 0"/></symbol><symbol overflow="visible" id="A"><path d="M.43-6.6c0-1.1.31-1.99.94-2.66a3.2 3.2 0 012.46-1.02c1.55 0 2.62.69 3.2 2.06a8 8 0 01.49 3.07 8.8 8.8 0 01-.47 3.1C6.45-.5 5.35.3 3.75.3 2.97.3 2.28.07 1.67-.38A2.68 2.68 0 01.63-2.36h2c.05.3.17.54.38.73.2.18.48.28.82.28.66 0 1.13-.36 1.4-1.1.14-.4.23-.99.27-1.76-.18.23-.38.4-.59.53a3.14 3.14 0 01-3.54-.5C.74-4.76.43-5.56.43-6.62zm3.53 1.62c.28 0 .54-.08.79-.24.45-.29.68-.8.68-1.51 0-.57-.14-1.03-.4-1.37-.28-.34-.64-.5-1.11-.5-.35 0-.64.09-.88.28-.39.3-.58.81-.58 1.53 0 .6.12 1.06.37 1.36.24.3.62.45 1.13.45zm0 0"/></symbol><symbol overflow="visible" id="B"><path d="M7.53-2.2H6.38V0H4.4v-2.2H.38v-1.75l3.75-6.18h2.25v6.37h1.15zM4.41-3.76v-4.4l-2.55 4.4zm0 0"/></symbol><symbol overflow="visible" id="C"><path d="M7.16-10.36h2.25L5.88 0H3.83L.33-10.36h2.31L4.9-2.5zm0 0"/></symbol><symbol overflow="visible" id="D"><path d="M4.23-1.64c.47 0 .86-.18 1.18-.54.33-.35.49-.91.49-1.69 0-.72-.15-1.28-.46-1.66A1.5 1.5 0 004.2-6.1c-.7 0-1.18.33-1.45 1-.14.35-.21.78-.21 1.3 0 .44.07.84.22 1.18.28.65.76.98 1.47.98zm-.5-6.2c.38 0 .72.05 1 .17.49.2.88.57 1.18 1.11v-1.1h1.95V-.4a4.1 4.1 0 01-.5 2.23c-.57.87-1.67 1.3-3.29 1.3-.98 0-1.78-.2-2.4-.58A2.12 2.12 0 01.65.84h2.18c.05.23.14.4.27.5.22.19.58.28 1.1.28.71 0 1.2-.25 1.44-.73.16-.3.24-.83.24-1.56v-.49c-.2.33-.4.57-.62.74-.4.3-.92.46-1.55.46C2.72.04 1.93-.31 1.35-1a4.2 4.2 0 01-.89-2.81c0-1.14.29-2.1.86-2.87a2.82 2.82 0 012.4-1.17zm0 0"/></symbol><symbol overflow="visible" id="E"><path d="M5.82-10.43h1.96v1.83H5.82zm0 2.8h2V0h-2zm-2-2.84c.11 0 .24 0 .36.02l.4.02v1.63H3.98c-.32 0-.5.08-.58.25-.07.18-.1.44-.09.82v.14h1.31v1.41h-1.3V0h-2v-6.18H.2v-1.41h1.1v-.5c0-.81.17-1.42.54-1.82.32-.37.98-.56 1.97-.56zm0 0"/></symbol><symbol overflow="visible" id="F"><path d="M5.08-7.83c1 0 1.8.36 2.36 1.09.57.72.86 1.66.86 2.81 0 1.2-.28 2.18-.85 2.96A2.74 2.74 0 015.1.2C4.46.2 3.96.08 3.57-.18a3 3 0 01-.74-.78V0H.86v-10.35h2v3.69a2.48 2.48 0 012.21-1.17zm-.52 6.38c.52 0 .92-.2 1.2-.62.3-.42.44-.97.44-1.65 0-.54-.08-1-.22-1.35a1.47 1.47 0 00-1.47-1.01A1.5 1.5 0 003-5.1c-.14.35-.21.8-.21 1.36 0 .66.15 1.2.43 1.64.3.43.74.64 1.33.64zm0 0"/></symbol><symbol overflow="visible" id="G"><path d="M1.25 1.47l.25.01c.2.01.38 0 .56-.02.18-.02.33-.07.45-.16.12-.08.22-.25.33-.5.1-.25.14-.4.12-.46l-2.81-8h2.23l1.67 5.65 1.58-5.65h2.13L5.13-.12c-.5 1.45-.9 2.35-1.2 2.7-.3.35-.89.52-1.77.52h-.43l-.48-.03zm0 0"/></symbol><symbol overflow="visible" id="H"><path d="M.83 1.67c.4-.12.7-.3.89-.56.19-.27.3-.64.33-1.11H.83v-2.1H3v1.82c0 .32-.05.65-.13 1s-.24.64-.47.9c-.25.27-.54.47-.88.61-.33.14-.56.21-.7.21zm0 0"/></symbol><symbol overflow="visible" id="I"><path d="M2.98 0h-2v-10.36h2zm0 0"/></symbol><symbol overflow="visible" id="J"><path d="M4.38-1.41c.58 0 1.03-.21 1.34-.63.32-.42.48-1.01.48-1.78s-.16-1.36-.48-1.77a1.59 1.59 0 00-1.34-.62c-.6 0-1.04.2-1.36.62-.32.41-.47 1-.47 1.77s.15 1.36.47 1.78c.32.42.77.63 1.35.63zm3.92-2.4c0 1.12-.33 2.08-.97 2.88-.65.8-1.63 1.2-2.95 1.2-1.32 0-2.3-.4-2.95-1.2a4.46 4.46 0 01-.97-2.89c0-1.1.33-2.06.97-2.88.65-.8 1.63-1.21 2.95-1.21 1.32 0 2.3.4 2.95 1.21.64.82.97 1.77.97 2.88zm0 0"/></symbol><symbol overflow="visible" id="K"><path d="M5.51-4.91a1.79 1.79 0 00-.29-.78c-.22-.3-.57-.46-1.04-.46-.68 0-1.14.33-1.39 1-.13.36-.2.83-.2 1.42 0 .57.07 1.02.2 1.36.24.64.69.96 1.35.96.47 0 .8-.13 1-.38.2-.26.32-.58.36-.99h2.04c-.04.61-.26 1.19-.66 1.73C6.25-.17 5.32.27 4.1.27S1.95-.1 1.37-.83A4.44 4.44 0 01.5-3.68c0-1.31.32-2.34.96-3.07a3.37 3.37 0 012.66-1.1c.96 0 1.75.22 2.36.65.61.43.97 1.2 1.09 2.29zm0 0"/></symbol></defs><path fill="#fff" d="M0 0h576v288H0z"/><path d="M0 244.11h576M0 141.26h576M0 209.83h576M0 106.97h576" fill="none" stroke-width="2.25" stroke-linecap="round" stroke-linejoin="round" stroke="#bebebe" stroke-dasharray="2.25 6.75" stroke-miterlimit="10"/><path d="M115.85 244.11a6.75 6.75 0 11-13.5 0 6.75 6.75 0 0113.5 0" fill="#3b99b1" stroke-width=".75" stroke-linecap="round" stroke-linejoin="round" stroke="#3b99b1" stroke-miterlimit="10"/><path d="M163.86 244.11a6.75 6.75 0 11-13.5 0 6.75 6.75 0 0113.5 0" fill="#7cba96" stroke-width=".75" stroke-linecap="round" stroke-linejoin="round" stroke="#7cba96" stroke-miterlimit="10"/><path d="M229.86 244.11a6.75 6.75 0 11-13.49.01 6.75 6.75 0 0113.5 0" fill="#eacb2b" stroke-width=".75" stroke-linecap="round" stroke-linejoin="round" stroke="#eacb2b" stroke-miterlimit="10"/><path d="M335.63 244.11a6.75 6.75 0 11-13.5 0 6.75 6.75 0 0113.5 0" fill="#e78f0a" stroke-width=".75" stroke-linecap="round" stroke-linejoin="round" stroke="#e78f0a" stroke-miterlimit="10"/><path d="M523.16 244.11a6.75 6.75 0 11-13.5 0 6.75 6.75 0 0113.5 0" fill="#f5191c" stroke-width=".75" stroke-linecap="round" stroke-linejoin="round" stroke="#f5191c" stroke-miterlimit="10"/><path d="M93.34 141.26a6.75 6.75 0 11-13.5 0 6.75 6.75 0 0113.5 0" fill="#3b99b1" stroke-width=".75" stroke-linecap="round" stroke-linejoin="round" stroke="#3b99b1" stroke-miterlimit="10"/><path d="M115.85 141.26a6.75 6.75 0 11-13.5 0 6.75 6.75 0 0113.5 0" fill="#7cba96" stroke-width=".75" stroke-linecap="round" stroke-linejoin="round" stroke="#7cba96" stroke-miterlimit="10"/><path d="M180.36 141.26a6.75 6.75 0 11-13.5 0 6.75 6.75 0 0113.5 0" fill="#eacb2b" stroke-width=".75" stroke-linecap="round" stroke-linejoin="round" stroke="#eacb2b" stroke-miterlimit="10"/><path d="M259.87 141.26a6.75 6.75 0 11-13.5 0 6.75 6.75 0 0113.5 0" fill="#e78f0a" stroke-width=".75" stroke-linecap="round" stroke-linejoin="round" stroke="#e78f0a" stroke-miterlimit="10"/><path d="M435.4 141.26a6.75 6.75 0 11-13.5 0 6.75 6.75 0 0113.5 0" fill="#f5191c" stroke-width=".75" stroke-linecap="round" stroke-linejoin="round" stroke="#f5191c" stroke-miterlimit="10"/><path d="M143.6 209.83a6.75 6.75 0 11-13.5 0 6.75 6.75 0 0113.5 0" fill="#3b99b1" stroke-width=".75" stroke-linecap="round" stroke-linejoin="round" stroke="#3b99b1" stroke-miterlimit="10"/><path d="M210.36 209.83a6.75 6.75 0 11-13.5 0 6.75 6.75 0 0113.5 0" fill="#7cba96" stroke-width=".75" stroke-linecap="round" stroke-linejoin="round" stroke="#7cba96" stroke-miterlimit="10"/><path d="M305.63 209.83a6.75 6.75 0 11-13.5 0 6.75 6.75 0 0113.5 0" fill="#eacb2b" stroke-width=".75" stroke-linecap="round" stroke-linejoin="round" stroke="#eacb2b" stroke-miterlimit="10"/><path d="M437.65 209.83a6.75 6.75 0 11-13.5 0 6.75 6.75 0 0113.5 0" fill="#e78f0a" stroke-width=".75" stroke-linecap="round" stroke-linejoin="round" stroke="#e78f0a" stroke-miterlimit="10"/><path d="M561.42 209.83a6.75 6.75 0 11-13.5 0 6.75 6.75 0 0113.5 0" fill="#f5191c" stroke-width=".75" stroke-linecap="round" stroke-linejoin="round" stroke="#f5191c" stroke-miterlimit="10"/><path d="M91.1 106.97a6.75 6.75 0 11-13.51 0 6.75 6.75 0 0113.5 0" fill="#3b99b1" stroke-width=".75" stroke-linecap="round" stroke-linejoin="round" stroke="#3b99b1" stroke-miterlimit="10"/><path d="M130.1 106.97a6.75 6.75 0 11-13.5 0 6.75 6.75 0 0113.5 0" fill="#7cba96" stroke-width=".75" stroke-linecap="round" stroke-linejoin="round" stroke="#7cba96" stroke-miterlimit="10"/><path d="M172.86 106.97a6.75 6.75 0 11-13.5 0 6.75 6.75 0 0113.5 0" fill="#eacb2b" stroke-width=".75" stroke-linecap="round" stroke-linejoin="round" stroke="#eacb2b" stroke-miterlimit="10"/><path d="M291.38 106.97a6.75 6.75 0 11-13.5 0 6.75 6.75 0 0113.5 0" fill="#e78f0a" stroke-width=".75" stroke-linecap="round" stroke-linejoin="round" stroke="#e78f0a" stroke-miterlimit="10"/><path d="M403.14 106.97a6.75 6.75 0 11-13.5 0 6.75 6.75 0 0113.5 0" fill="#f5191c" stroke-width=".75" stroke-linecap="round" stroke-linejoin="round" stroke="#f5191c" stroke-miterlimit="10"/><g fill="#789"><use xlink:href="#a" x="6.58" y="234.35"/><use xlink:href="#b" x="15.25" y="234.35"/><use xlink:href="#c" x="21.92" y="234.35"/><use xlink:href="#d" x="25.92" y="234.35"/><use xlink:href="#e" x="32.59" y="234.35"/><use xlink:href="#f" x="35.26" y="234.35"/><use xlink:href="#g" x="38.59" y="234.35"/><use xlink:href="#d" x="48.59" y="234.35"/><use xlink:href="#e" x="55.26" y="234.35"/><use xlink:href="#h" x="57.93" y="234.35"/></g><g fill="#789"><use xlink:href="#a" x="3.08" y="131.5"/><use xlink:href="#b" x="11.75" y="131.5"/><use xlink:href="#c" x="18.42" y="131.5"/><use xlink:href="#d" x="22.42" y="131.5"/><use xlink:href="#e" x="29.09" y="131.5"/><use xlink:href="#f" x="31.76" y="131.5"/><use xlink:href="#i" x="35.09" y="131.5"/><use xlink:href="#h" x="42.42" y="131.5"/><use xlink:href="#j" x="49.1" y="131.5"/><use xlink:href="#d" x="59.09" y="131.5"/><use xlink:href="#e" x="65.77" y="131.5"/><use xlink:href="#h" x="68.43" y="131.5"/></g><g fill="#789"><use xlink:href="#k" x="5.58" y="200.07"/><use xlink:href="#c" x="14.25" y="200.07"/><use xlink:href="#l" x="18.24" y="200.07"/><use xlink:href="#d" x="24.92" y="200.07"/><use xlink:href="#m" x="31.59" y="200.07"/><use xlink:href="#f" x="38.27" y="200.07"/><use xlink:href="#g" x="41.6" y="200.07"/><use xlink:href="#d" x="51.6" y="200.07"/><use xlink:href="#e" x="58.27" y="200.07"/><use xlink:href="#h" x="60.94" y="200.07"/></g><g fill="#789"><use xlink:href="#k" x="2.08" y="97.21"/><use xlink:href="#c" x="10.75" y="97.21"/><use xlink:href="#l" x="14.74" y="97.21"/><use xlink:href="#d" x="21.42" y="97.21"/><use xlink:href="#m" x="28.09" y="97.21"/><use xlink:href="#f" x="34.77" y="97.21"/><use xlink:href="#i" x="38.1" y="97.21"/><use xlink:href="#h" x="45.43" y="97.21"/><use xlink:href="#j" x="52.1" y="97.21"/><use xlink:href="#d" x="62.1" y="97.21"/><use xlink:href="#e" x="68.77" y="97.21"/><use xlink:href="#h" x="71.44" y="97.21"/></g><use xlink:href="#n" x="47" y="18.99"/><use xlink:href="#o" x="55.8" y="18.99"/><use xlink:href="#p" x="63.8" y="18.99"/><use xlink:href="#q" x="71.81" y="18.99"/><use xlink:href="#r" x="76.61" y="18.99"/><use xlink:href="#s" x="85.4" y="18.99"/><use xlink:href="#t" x="93.41" y="18.99"/><use xlink:href="#u" x="97.41" y="18.99"/><use xlink:href="#o" x="106.21" y="18.99"/><use xlink:href="#v" x="114.21" y="18.99"/><use xlink:href="#t" x="119.82" y="18.99"/><use xlink:href="#w" x="123.82" y="18.99"/><use xlink:href="#x" x="131.83" y="18.99"/><use xlink:href="#x" x="139.83" y="18.99"/><use xlink:href="#x" x="147.84" y="18.99"/><use xlink:href="#t" x="155.85" y="18.99"/><use xlink:href="#y" x="159.85" y="18.99"/><use xlink:href="#z" x="163.85" y="18.99"/><use xlink:href="#t" x="172.65" y="18.99"/><use xlink:href="#w" x="176.65" y="18.99"/><use xlink:href="#A" x="184.66" y="18.99"/><use xlink:href="#B" x="192.67" y="18.99"/><use xlink:href="#x" x="200.67" y="18.99"/><use xlink:href="#t" x="208.68" y="18.99"/><use xlink:href="#C" x="212.68" y="18.99"/><use xlink:href="#y" x="222.29" y="18.99"/><use xlink:href="#v" x="226.29" y="18.99"/><use xlink:href="#D" x="231.89" y="18.99"/><use xlink:href="#y" x="240.69" y="18.99"/><use xlink:href="#z" x="244.69" y="18.99"/><use xlink:href="#y" x="253.48" y="18.99"/><use xlink:href="#p" x="257.48" y="18.99"/><use xlink:href="#t" x="265.49" y="18.99"/><use xlink:href="#s" x="269.49" y="18.99"/><use xlink:href="#q" x="277.5" y="18.99"/><use xlink:href="#v" x="282.3" y="18.99"/><use xlink:href="#p" x="287.9" y="18.99"/><use xlink:href="#q" x="295.91" y="18.99"/><use xlink:href="#y" x="300.7" y="18.99"/><use xlink:href="#E" x="304.7" y="18.99"/><use xlink:href="#o" x="313.5" y="18.99"/><use xlink:href="#n" x="321.51" y="18.99"/><use xlink:href="#t" x="330.3" y="18.99"/><use xlink:href="#F" x="334.3" y="18.99"/><use xlink:href="#G" x="343.1" y="18.99"/><use xlink:href="#t" x="351.11" y="18.99"/><use xlink:href="#p" x="355.11" y="18.99"/><use xlink:href="#D" x="363.12" y="18.99"/><use xlink:href="#o" x="371.91" y="18.99"/><use xlink:href="#H" x="379.92" y="18.99"/><use xlink:href="#t" x="383.92" y="18.99"/><use xlink:href="#D" x="387.92" y="18.99"/><use xlink:href="#o" x="396.72" y="18.99"/><use xlink:href="#z" x="404.73" y="18.99"/><use xlink:href="#n" x="413.52" y="18.99"/><use xlink:href="#o" x="422.32" y="18.99"/><use xlink:href="#v" x="430.33" y="18.99"/><use xlink:href="#H" x="435.93" y="18.99"/><use xlink:href="#t" x="439.93" y="18.99"/><use xlink:href="#p" x="443.93" y="18.99"/><use xlink:href="#z" x="451.94" y="18.99"/><use xlink:href="#n" x="460.73" y="18.99"/><use xlink:href="#t" x="469.53" y="18.99"/><use xlink:href="#I" x="473.53" y="18.99"/><use xlink:href="#J" x="477.53" y="18.99"/><use xlink:href="#K" x="486.33" y="18.99"/><use xlink:href="#p" x="494.34" y="18.99"/><use xlink:href="#q" x="502.34" y="18.99"/><use xlink:href="#y" x="507.14" y="18.99"/><use xlink:href="#J" x="511.14" y="18.99"/><use xlink:href="#z" x="519.94" y="18.99"/><path d="M167.3 57.6c0 3.6-5.4 3.6-5.4 0s5.4-3.6 5.4 0" fill="#3b99b1" stroke-width=".75" stroke-linecap="round" stroke-linejoin="round" stroke="#3b99b1" stroke-miterlimit="10"/><path d="M219.9 57.6c0 3.6-5.4 3.6-5.4 0s5.4-3.6 5.4 0" fill="#7cba96" stroke-width=".75" stroke-linecap="round" stroke-linejoin="round" stroke="#7cba96" stroke-miterlimit="10"/><path d="M272.5 57.6c0 3.6-5.4 3.6-5.4 0s5.4-3.6 5.4 0" fill="#eacb2b" stroke-width=".75" stroke-linecap="round" stroke-linejoin="round" stroke="#eacb2b" stroke-miterlimit="10"/><path d="M325.1 57.6c0 3.6-5.4 3.6-5.4 0s5.4-3.6 5.4 0" fill="#e78f0a" stroke-width=".75" stroke-linecap="round" stroke-linejoin="round" stroke="#e78f0a" stroke-miterlimit="10"/><path d="M377.7 57.6c0 3.6-5.4 3.6-5.4 0s5.4-3.6 5.4 0" fill="#f5191c" stroke-width=".75" stroke-linecap="round" stroke-linejoin="round" stroke="#f5191c" stroke-miterlimit="10"/><g><use xlink:href="#d" x="265" y="42.44"/><use xlink:href="#L" x="271.67" y="42.44"/><use xlink:href="#h" x="278.35" y="42.44"/><use xlink:href="#f" x="285.02" y="42.44"/><use xlink:href="#l" x="288.36" y="42.44"/><use xlink:href="#M" x="295.03" y="42.44"/><use xlink:href="#m" x="297.7" y="42.44"/><use xlink:href="#N" x="304.37" y="42.44"/></g><g><use xlink:href="#O" x="175.4" y="61.34"/><use xlink:href="#P" x="182.07" y="61.34"/><use xlink:href="#Q" x="188.75" y="61.34"/><use xlink:href="#O" x="192.74" y="61.34"/><use xlink:href="#R" x="199.42" y="61.34"/></g><g><use xlink:href="#O" x="228" y="61.34"/><use xlink:href="#O" x="234.67" y="61.34"/><use xlink:href="#Q" x="241.35" y="61.34"/><use xlink:href="#O" x="245.34" y="61.34"/><use xlink:href="#S" x="252.02" y="61.34"/></g><g><use xlink:href="#T" x="280.6" y="61.34"/><use xlink:href="#P" x="287.28" y="61.34"/><use xlink:href="#Q" x="293.95" y="61.34"/><use xlink:href="#T" x="297.95" y="61.34"/><use xlink:href="#R" x="304.62" y="61.34"/></g><g><use xlink:href="#T" x="333.2" y="61.34"/><use xlink:href="#O" x="339.87" y="61.34"/><use xlink:href="#Q" x="346.55" y="61.34"/><use xlink:href="#T" x="350.54" y="61.34"/><use xlink:href="#S" x="357.22" y="61.34"/></g><g><use xlink:href="#U" x="385.8" y="61.34"/><use xlink:href="#P" x="392.47" y="61.34"/><use xlink:href="#Q" x="399.15" y="61.34"/><use xlink:href="#U" x="403.14" y="61.34"/><use xlink:href="#R" x="409.82" y="61.34"/></g></svg>