<svg xmlns="http://www.w3.org/2000/svg" xmlns:xlink="http://www.w3.org/1999/xlink" width="960" height="384" viewBox="0 0 720 288"><defs><symbol overflow="visible" id="j"><path d="M3.25-8.4c1.08 0 1.87.45 2.35 1.35a6 6 0 01.56 2.84c0 1.14-.17 2.08-.5 2.83C5.16-.3 4.36.23 3.24.23c-1 0-1.76-.43-2.25-1.3a6 6 0 01-.61-2.94c0-.96.12-1.78.36-2.46.46-1.27 1.3-1.91 2.5-1.91zM3.23-.72c.55 0 .99-.25 1.3-.73.33-.49.5-1.38.5-2.7 0-.96-.12-1.74-.35-2.36-.24-.61-.7-.92-1.37-.92-.62 0-1.08.3-1.36.87a6.02 6.02 0 00-.43 2.59c0 .85.09 1.54.27 2.06.28.8.76 1.19 1.44 1.19zm0 0"/></symbol><symbol overflow="visible" id="k"><path d="M.38 0C.4-.72.55-1.35.81-1.89c.26-.53.77-1.02 1.52-1.45L3.47-4c.5-.29.86-.54 1.06-.75.32-.32.48-.7.48-1.1 0-.5-.15-.88-.44-1.17a1.6 1.6 0 00-1.17-.43c-.72 0-1.22.27-1.5.82-.15.29-.23.7-.25 1.22H.58c.01-.73.15-1.33.4-1.8.46-.8 1.27-1.21 2.43-1.21.96 0 1.66.26 2.1.78.44.52.67 1.1.67 1.73 0 .68-.24 1.25-.71 1.73-.27.27-.77.61-1.47 1l-.8.45c-.39.21-.7.41-.91.6-.4.34-.63.72-.74 1.13h4.58v1zm0 0"/></symbol><symbol overflow="visible" id="l"><path d="M3.97-2.97v-3.8l-2.7 3.8zM3.98 0v-2.05H.3v-1.03l3.85-5.33h.89v5.44h1.23v.92H5.04V0zm0 0"/></symbol><symbol overflow="visible" id="m"><path d="M3.5-8.43c.95 0 1.6.25 1.97.73.37.49.55.99.55 1.5H4.98a1.86 1.86 0 00-.3-.77c-.25-.35-.64-.53-1.15-.53a1.6 1.6 0 00-1.4.82 4.71 4.71 0 00-.6 2.34 2.32 2.32 0 012.05-1.04c.7 0 1.32.23 1.84.68.53.45.78 1.12.78 2.01 0 .76-.24 1.44-.74 2.03-.5.58-1.2.88-2.12.88-.79 0-1.46-.3-2.04-.9-.57-.6-.85-1.6-.85-3 0-1.05.13-1.93.38-2.66.49-1.39 1.38-2.09 2.68-2.09zM3.44-.72c.56 0 .97-.19 1.25-.56a2.25 2.25 0 00.04-2.55c-.24-.39-.69-.58-1.34-.58-.45 0-.85.15-1.2.45-.33.3-.5.75-.5 1.36a2 2 0 00.46 1.34c.31.36.74.54 1.3.54zm0 0"/></symbol><symbol overflow="visible" id="n"><path d="M3.27-4.88c.46 0 .82-.12 1.08-.39a1.22 1.22 0 00.02-1.79c-.25-.26-.63-.39-1.14-.39-.51 0-.88.13-1.1.4-.23.26-.34.57-.34.92 0 .4.14.7.44.92.29.22.64.33 1.04.33zm.06 4.16c.49 0 .9-.13 1.21-.4.33-.26.49-.65.49-1.18 0-.54-.17-.95-.5-1.23a1.91 1.91 0 00-1.28-.42c-.5 0-.91.14-1.23.43-.32.28-.48.68-.48 1.19 0 .44.15.81.44 1.13.29.32.74.48 1.35.48zm-1.5-3.75c-.3-.12-.53-.27-.69-.44-.3-.31-.46-.72-.46-1.22 0-.62.23-1.16.68-1.61.45-.45 1.1-.67 1.93-.67.8 0 1.43.2 1.89.63.46.42.69.92.69 1.49 0 .52-.14.95-.4 1.27-.15.18-.38.36-.7.54.35.16.63.34.82.55.37.4.56.9.56 1.52 0 .74-.24 1.37-.74 1.88-.5.51-1.2.77-2.1.77-.82 0-1.51-.22-2.08-.67C.67-.87.4-1.5.4-2.36c0-.5.12-.92.36-1.28s.6-.64 1.08-.83zm0 0"/></symbol><symbol overflow="visible" id="o"><path d="M1.68-2.78c.02.5.14.89.34 1.2.39.56 1.07.85 2.05.85.43 0 .83-.07 1.2-.2.69-.23 1.03-.66 1.03-1.29 0-.47-.14-.8-.43-1-.3-.2-.77-.37-1.4-.51L3.3-4a5.4 5.4 0 01-1.61-.56 1.8 1.8 0 01-.82-1.62c0-.77.26-1.4.8-1.9s1.3-.74 2.28-.74c.9 0 1.66.21 2.3.65.63.44.94 1.13.94 2.09h-1.1a2.13 2.13 0 00-.37-1.06c-.36-.45-.96-.68-1.81-.68-.7 0-1.18.15-1.48.44-.3.29-.45.62-.45 1 0 .43.17.74.52.93.23.13.75.28 1.57.47l1.2.28a3.7 3.7 0 011.35.54c.55.4.82.99.82 1.75 0 .96-.35 1.64-1.04 2.05-.7.4-1.5.61-2.42.61-1.07 0-1.9-.27-2.51-.82-.6-.54-.9-1.28-.9-2.2zm0 0"/></symbol><symbol overflow="visible" id="p"><path d="M3.39-6.41A2.82 2.82 0 015.64-5.3c.2.32.35.68.42 1.1.06.3.1.76.1 1.39h-4.6c.01.64.16 1.15.44 1.53.29.39.72.58 1.31.58a1.7 1.7 0 001.72-1.28h1.03A2.76 2.76 0 015.27-.5c-.32.32-.72.53-1.18.64-.26.06-.55.1-.87.1-.78 0-1.44-.3-1.99-.86a3.32 3.32 0 01-.8-2.39c0-1 .27-1.82.81-2.45a2.7 2.7 0 012.15-.94zm1.68 2.77a2.72 2.72 0 00-.3-1.1c-.29-.5-.77-.76-1.45-.76-.48 0-.89.18-1.22.53-.33.35-.5.79-.52 1.33zm0 0"/></symbol><symbol overflow="visible" id="q"><path d="M3.42-.71c.5 0 .9-.2 1.23-.62.33-.4.5-1.03.5-1.85 0-.5-.08-.93-.23-1.28-.27-.7-.77-1.04-1.5-1.04s-1.23.36-1.5 1.1a4.34 4.34 0 000 2.72c.28.65.78.97 1.5.97zM.7-6.25h1.03v.84c.21-.29.44-.51.69-.67.35-.23.77-.35 1.25-.35.71 0 1.32.27 1.81.82.5.54.75 1.32.75 2.34 0 1.36-.36 2.34-1.08 2.93C4.7.03 4.16.2 3.56.2 3.1.21 2.7.11 2.37-.1c-.18-.12-.4-.32-.62-.6v3.2H.69zm0 0"/></symbol><symbol overflow="visible" id="r"><path d="M1.58-1.67c0 .3.12.54.33.72.23.18.5.26.8.26.37 0 .73-.08 1.08-.26.58-.28.87-.75.87-1.4v-.85c-.12.09-.3.16-.5.21-.2.06-.4.1-.59.12l-.64.08a2.4 2.4 0 00-.86.24.94.94 0 00-.49.88zM4.14-3.8c.24-.04.4-.14.49-.3.04-.1.07-.24.07-.41 0-.36-.13-.62-.4-.78a2.03 2.03 0 00-1.09-.25c-.55 0-.94.15-1.17.45-.13.16-.21.4-.25.73H.8c.02-.77.27-1.31.75-1.61.49-.3 1.05-.46 1.68-.46.74 0 1.34.14 1.8.42.46.28.69.72.69 1.31v3.62c0 .11.02.2.07.27.04.06.14.1.28.1l.16-.01.18-.03v.78c-.16.05-.29.08-.37.09l-.35.01c-.37 0-.63-.12-.8-.38a1.44 1.44 0 01-.17-.58c-.22.28-.52.53-.93.73-.4.2-.84.31-1.33.31-.58 0-1.06-.17-1.42-.53-.38-.35-.56-.8-.56-1.33 0-.58.18-1.03.54-1.35.37-.32.85-.52 1.43-.6zm0 0"/></symbol><symbol overflow="visible" id="s"><path d="M.8-8.6h1.06V0H.8zm0 0"/></symbol><symbol overflow="visible" id="t"><path d="M1.02-1.28h1.23V0H1.02zm0 0"/></symbol><symbol overflow="visible" id="u"><path d="M.91-8.6h1.17v7.58h4.36V0H.9zm0 0"/></symbol><symbol overflow="visible" id="v"><path d="M.77-6.27h1v.89c.3-.37.62-.64.95-.8.33-.16.7-.23 1.1-.23.9 0 1.5.3 1.81.93.17.34.26.82.26 1.46V0H4.82v-3.95c0-.39-.06-.7-.17-.93-.19-.4-.53-.59-1.03-.59-.25 0-.45.03-.6.08-.3.09-.55.26-.77.51-.18.21-.29.43-.34.65-.05.22-.08.53-.08.94V0H.77zm0 0"/></symbol><symbol overflow="visible" id="w"><path d="M2.99-6.39c.49 0 .92.12 1.29.37.2.13.4.33.6.6v-.8h.98V-.5c0 .8-.12 1.42-.35 1.89-.44.85-1.27 1.28-2.48 1.28-.67 0-1.24-.16-1.7-.46C.85 1.9.6 1.42.54.78h1.07c.06.28.15.5.31.65.24.23.6.35 1.12.35.81 0 1.34-.28 1.6-.85.14-.34.2-.94.2-1.8-.22.32-.47.56-.76.71-.3.16-.7.24-1.18.24-.68 0-1.28-.24-1.79-.73-.5-.48-.76-1.28-.76-2.39 0-1.05.25-1.87.77-2.46a2.38 2.38 0 011.86-.89zm1.9 3.23c0-.78-.16-1.36-.48-1.73a1.54 1.54 0 00-1.23-.56 1.5 1.5 0 00-1.52 1.04 4.1 4.1 0 00-.22 1.46c0 .7.15 1.24.43 1.61.29.37.68.55 1.16.55.76 0 1.29-.33 1.6-1.02.17-.39.26-.84.26-1.35zm0 0"/></symbol><symbol overflow="visible" id="x"><path d="M.98-8.03h1.07v1.76h1v.86h-1v4.09c0 .22.08.37.22.44.09.04.22.07.41.07h.17l.2-.02V0a2.41 2.41 0 01-.8.1c-.5 0-.83-.13-1-.38a1.69 1.69 0 01-.27-.98V-5.4H.13v-.86h.85zm0 0"/></symbol><symbol overflow="visible" id="y"><path d="M.77-8.64h1.06v3.21c.25-.31.47-.53.67-.66.34-.23.77-.34 1.27-.34.91 0 1.53.32 1.85.96.18.34.27.83.27 1.45V0H4.8v-3.95c0-.46-.05-.8-.17-1.02-.2-.34-.55-.51-1.08-.51-.44 0-.83.14-1.2.45-.35.3-.52.87-.52 1.7V0H.77zm0 0"/></symbol><symbol overflow="visible" id="z"><path d="M1.48-8.6l1.63 7 1.94-7h1.27l1.94 7 1.62-7h1.28L8.9 0H7.68l-2-7.14L3.7 0H2.47L.22-8.6zm0 0"/></symbol><symbol overflow="visible" id="A"><path d="M.77-6.25h1.07V0H.77zm0-2.36h1.07v1.2H.77zm0 0"/></symbol><symbol overflow="visible" id="B"><path d="M1.44-3.06c0 .67.15 1.23.43 1.69.28.45.74.67 1.37.67.49 0 .89-.2 1.2-.63.32-.42.47-1.02.47-1.8 0-.8-.16-1.39-.48-1.76a1.52 1.52 0 00-1.2-.58c-.53 0-.96.2-1.3.61-.32.4-.49 1-.49 1.8zm1.6-3.33c.47 0 .87.1 1.2.3.18.13.4.33.63.62v-3.17H5.9V0h-.95v-.88c-.25.4-.54.67-.87.84A2.5 2.5 0 012.9.22c-.7 0-1.3-.29-1.82-.88a3.45 3.45 0 01-.76-2.35c0-.91.23-1.7.7-2.37a2.3 2.3 0 012-1zm0 0"/></symbol><symbol overflow="visible" id="C"><path d="M1.02-8.6H4.9c.76 0 1.38.2 1.85.64.47.43.7 1.04.7 1.82 0 .67-.2 1.26-.62 1.75-.42.5-1.06.75-1.93.75H2.2V0H1.01zm5.25 2.47c0-.64-.23-1.07-.7-1.3-.26-.11-.6-.18-1.06-.18H2.2v2.99h2.32c.53 0 .95-.11 1.28-.34.32-.22.48-.61.48-1.17zm0 0"/></symbol><symbol overflow="visible" id="D"><path d="M1.4-1.97c.03.35.12.62.26.81.27.34.73.51 1.39.51.39 0 .73-.08 1.03-.26.3-.16.44-.43.44-.79a.67.67 0 00-.36-.6 4.49 4.49 0 00-.9-.3l-.83-.22a4.09 4.09 0 01-1.19-.45 1.33 1.33 0 01-.68-1.18c0-.59.22-1.07.64-1.44.43-.37 1-.55 1.73-.55.94 0 1.62.28 2.05.83.26.35.38.74.38 1.14h-1c-.02-.24-.1-.46-.25-.65-.24-.28-.66-.42-1.26-.42-.4 0-.7.08-.9.23-.21.15-.32.36-.32.6 0 .28.14.5.4.66.17.1.4.18.7.26l.7.17c.76.18 1.27.36 1.52.53.41.27.62.7.62 1.27 0 .56-.21 1.05-.64 1.45-.42.4-1.07.61-1.94.61-.93 0-1.6-.21-1.98-.63A2.4 2.4 0 01.4-1.97zm0 0"/></symbol><symbol overflow="visible" id="E"><path d="M3.27-.68c.7 0 1.17-.27 1.43-.8a4 4 0 00.11-3.2c-.3-.57-.81-.86-1.54-.86-.64 0-1.1.25-1.4.74-.3.5-.44 1.09-.44 1.78a3 3 0 00.44 1.67c.29.45.75.67 1.4.67zm.03-5.78c.81 0 1.5.27 2.06.81.55.54.84 1.33.84 2.38 0 1.01-.25 1.85-.75 2.5-.49.67-1.25 1-2.29 1-.86 0-1.54-.3-2.05-.88A3.46 3.46 0 01.34-3c0-1.05.27-1.9.8-2.52a2.7 2.7 0 012.16-.94zm0 0"/></symbol><symbol overflow="visible" id="F"><path d="M1.29-6.27l1.67 5.1 1.76-5.1h1.15L3.5 0H2.38L.06-6.27zm0 0"/></symbol><symbol overflow="visible" id="G"><path d="M.8-6.27h1v1.08c.09-.21.29-.47.6-.77a1.56 1.56 0 011.22-.45l.24.02v1.12a1.63 1.63 0 00-.35-.03c-.53 0-.94.17-1.22.51-.29.34-.43.74-.43 1.18V0H.8zm0 0"/></symbol><symbol overflow="visible" id="H"><path d="M3.2-6.46c.7 0 1.28.17 1.72.52.44.34.7.93.8 1.78H4.7a1.9 1.9 0 00-.43-.97c-.23-.26-.58-.39-1.07-.39-.68 0-1.16.33-1.45.99-.19.42-.28.95-.28 1.58 0 .63.13 1.15.4 1.58.26.43.68.65 1.25.65.44 0 .79-.14 1.04-.4.26-.27.43-.64.54-1.1h1.02c-.12.83-.41 1.44-.88 1.83-.47.38-1.07.57-1.8.57a2.4 2.4 0 01-1.96-.9 3.44 3.44 0 01-.74-2.24c0-1.1.27-1.96.8-2.58a2.6 2.6 0 012.06-.92zm0 0"/></symbol><clipPath id="a"><path d="M28.8 253h676.8v1H28.8zm0 0"/></clipPath><clipPath id="b"><path d="M28.8 198h676.8v2H28.8zm0 0"/></clipPath><clipPath id="c"><path d="M28.8 143h676.8v2H28.8zm0 0"/></clipPath><clipPath id="d"><path d="M28.8 88h676.8v2H28.8zm0 0"/></clipPath><clipPath id="e"><path d="M28.8 34h676.8v1H28.8zm0 0"/></clipPath><clipPath id="f"><path d="M51 28.8h5v230.4h-5zm0 0"/></clipPath><clipPath id="g"><path d="M260 28.8h5v230.4h-5zm0 0"/></clipPath><clipPath id="h"><path d="M469 28.8h5v230.4h-5zm0 0"/></clipPath><clipPath id="i"><path d="M678 28.8h5v230.4h-5zm0 0"/></clipPath></defs><path fill="#fff" d="M0 0h720v288H0z"/><g clip-path="url(#a)"><path d="M28.8 253.4h676.8" fill="none" stroke-width=".75" stroke-linecap="round" stroke-linejoin="round" stroke="#d3d3d3" stroke-dasharray=".75 2.25" stroke-miterlimit="10"/></g><g clip-path="url(#b)"><path d="M28.8 198.7h676.8" fill="none" stroke-width=".75" stroke-linecap="round" stroke-linejoin="round" stroke="#d3d3d3" stroke-dasharray=".75 2.25" stroke-miterlimit="10"/></g><g clip-path="url(#c)"><path d="M28.8 144h676.8" fill="none" stroke-width=".75" stroke-linecap="round" stroke-linejoin="round" stroke="#d3d3d3" stroke-dasharray=".75 2.25" stroke-miterlimit="10"/></g><g clip-path="url(#d)"><path d="M28.8 89.3h676.8" fill="none" stroke-width=".75" stroke-linecap="round" stroke-linejoin="round" stroke="#d3d3d3" stroke-dasharray=".75 2.25" stroke-miterlimit="10"/></g><g clip-path="url(#e)"><path d="M28.8 34.6h676.8" fill="none" stroke-width=".75" stroke-linecap="round" stroke-linejoin="round" stroke="#d3d3d3" stroke-dasharray=".75 2.25" stroke-miterlimit="10"/></g><g clip-path="url(#f)"><path d="M53.87 259.2V28.8" fill="none" stroke-width="3.75" stroke-linecap="round" stroke-linejoin="round" stroke="#bebebe" stroke-dasharray="3.75 11.25" stroke-miterlimit="10"/></g><g clip-path="url(#g)"><path d="M262.75 259.2V28.8" fill="none" stroke-width="3.75" stroke-linecap="round" stroke-linejoin="round" stroke="#bebebe" stroke-dasharray="3.75 11.25" stroke-miterlimit="10"/></g><g clip-path="url(#h)"><path d="M471.64 259.2V28.8" fill="none" stroke-width="3.75" stroke-linecap="round" stroke-linejoin="round" stroke="#bebebe" stroke-dasharray="3.75 11.25" stroke-miterlimit="10"/></g><g clip-path="url(#i)"><path d="M680.54 259.2V28.8" fill="none" stroke-width="3.75" stroke-linecap="round" stroke-linejoin="round" stroke="#bebebe" stroke-dasharray="3.75 11.25" stroke-miterlimit="10"/></g><path d="M53.87 113.91l208.88 43.77 208.9 57.43 208.89 32.82" fill="none" stroke-width=".75" stroke-linecap="round" stroke-linejoin="round" stroke="#6495ed" stroke-miterlimit="10"/><path d="M53.87 119.38l208.88 51.97 208.9 43.76 208.89 32.82" fill="none" stroke-width=".75" stroke-linecap="round" stroke-linejoin="round" stroke="#6495ed" stroke-miterlimit="10"/><path d="M53.87 124.86l208.88 41.02 208.9 51.97 208.89 30.08" fill="none" stroke-width=".75" stroke-linecap="round" stroke-linejoin="round" stroke="#6495ed" stroke-miterlimit="10"/><path d="M53.87 127.59l208.88 41.03 208.9 43.75 208.89 35.56" fill="none" stroke-width=".75" stroke-linecap="round" stroke-linejoin="round" stroke="#6495ed" stroke-miterlimit="10"/><path d="M53.87 116.65l208.88 38.3 208.9 60.16 208.89 32.82" fill="none" stroke-width=".75" stroke-linecap="round" stroke-linejoin="round" stroke="#6495ed" stroke-miterlimit="10"/><path d="M53.87 105.71l208.88 41.02 208.9 60.18 208.89 35.55" fill="none" stroke-width=".75" stroke-linecap="round" stroke-linejoin="round" stroke="#6495ed" stroke-miterlimit="10"/><path d="M53.87 127.59l208.88 32.82 208.9 54.7 208.89 30.09" fill="none" stroke-width=".75" stroke-linecap="round" stroke-linejoin="round" stroke="#6495ed" stroke-miterlimit="10"/><path d="M53.87 116.65l208.88 43.76 208.9 51.97 208.89 35.55" fill="none" stroke-width=".75" stroke-linecap="round" stroke-linejoin="round" stroke="#6495ed" stroke-miterlimit="10"/><path d="M53.87 133.06l208.88 41.03 208.9 41.02 208.89 32.82" fill="none" stroke-width=".75" stroke-linecap="round" stroke-linejoin="round" stroke="#6495ed" stroke-miterlimit="10"/><path d="M53.87 119.38l208.88 49.24 208.9 43.75 208.89 38.3" fill="none" stroke-width=".75" stroke-linecap="round" stroke-linejoin="round" stroke="#6495ed" stroke-miterlimit="10"/><path d="M53.87 105.71l208.88 46.5 208.9 60.16 208.89 35.56" fill="none" stroke-width=".75" stroke-linecap="round" stroke-linejoin="round" stroke="#6495ed" stroke-miterlimit="10"/><path d="M53.87 122.12l208.88 38.29 208.9 49.23 208.89 38.29" fill="none" stroke-width=".75" stroke-linecap="round" stroke-linejoin="round" stroke="#6495ed" stroke-miterlimit="10"/><path d="M53.87 122.12l208.88 49.23 208.9 43.76 208.89 35.56" fill="none" stroke-width=".75" stroke-linecap="round" stroke-linejoin="round" stroke="#6495ed" stroke-miterlimit="10"/><path d="M53.87 135.8l208.88 35.55 208.9 51.97 208.89 27.35" fill="none" stroke-width=".75" stroke-linecap="round" stroke-linejoin="round" stroke="#6495ed" stroke-miterlimit="10"/><path d="M53.87 94.77L262.75 144l208.9 76.58 208.89 27.35" fill="none" stroke-width=".75" stroke-linecap="round" stroke-linejoin="round" stroke="#6495ed" stroke-miterlimit="10"/><path d="M53.87 97.5l208.88 35.56 208.9 79.31 208.89 30.1" fill="none" stroke-width=".75" stroke-linecap="round" stroke-linejoin="round" stroke="#6495ed" stroke-miterlimit="10"/><path d="M53.87 105.71l208.88 41.02 208.9 71.12 208.89 24.61" fill="none" stroke-width=".75" stroke-linecap="round" stroke-linejoin="round" stroke="#6495ed" stroke-miterlimit="10"/><path d="M53.87 113.91l208.88 43.77 208.9 57.43 208.89 30.09" fill="none" stroke-width=".75" stroke-linecap="round" stroke-linejoin="round" stroke="#6495ed" stroke-miterlimit="10"/><path d="M53.87 97.5l208.88 51.97 208.9 57.44 208.89 38.29" fill="none" stroke-width=".75" stroke-linecap="round" stroke-linejoin="round" stroke="#6495ed" stroke-miterlimit="10"/><path d="M53.87 113.91l208.88 35.56 208.9 62.9 208.89 32.83" fill="none" stroke-width=".75" stroke-linecap="round" stroke-linejoin="round" stroke="#6495ed" stroke-miterlimit="10"/><path d="M53.87 105.71l208.88 54.7 208.9 46.5 208.89 41.02" fill="none" stroke-width=".75" stroke-linecap="round" stroke-linejoin="round" stroke="#6495ed" stroke-miterlimit="10"/><path d="M53.87 113.91l208.88 38.3 208.9 60.16 208.89 30.1" fill="none" stroke-width=".75" stroke-linecap="round" stroke-linejoin="round" stroke="#6495ed" stroke-miterlimit="10"/><path d="M53.87 127.59l208.88 27.35 208.9 71.11 208.89 21.88" fill="none" stroke-width=".75" stroke-linecap="round" stroke-linejoin="round" stroke="#6495ed" stroke-miterlimit="10"/><path d="M53.87 113.91l208.88 49.23 208.9 43.77 208.89 32.82" fill="none" stroke-width=".75" stroke-linecap="round" stroke-linejoin="round" stroke="#6495ed" stroke-miterlimit="10"/><path d="M53.87 122.12l208.88 38.29 208.9 41.03 208.89 46.49" fill="none" stroke-width=".75" stroke-linecap="round" stroke-linejoin="round" stroke="#6495ed" stroke-miterlimit="10"/><path d="M53.87 116.65l208.88 54.7 417.79 76.58" fill="none" stroke-width=".75" stroke-linecap="round" stroke-linejoin="round" stroke="#6495ed" stroke-miterlimit="10"/><path d="M53.87 116.65l208.88 43.76 208.9 49.23 208.89 32.82" fill="none" stroke-width=".75" stroke-linecap="round" stroke-linejoin="round" stroke="#6495ed" stroke-miterlimit="10"/><path d="M53.87 111.18l208.88 46.5 208.9 54.7 208.89 35.55" fill="none" stroke-width=".75" stroke-linecap="round" stroke-linejoin="round" stroke="#6495ed" stroke-miterlimit="10"/><path d="M53.87 111.18l208.88 49.23 208.9 54.7 208.89 32.82" fill="none" stroke-width=".75" stroke-linecap="round" stroke-linejoin="round" stroke="#6495ed" stroke-miterlimit="10"/><path d="M53.87 124.86l208.88 41.02 208.9 43.76 208.89 38.29" fill="none" stroke-width=".75" stroke-linecap="round" stroke-linejoin="round" stroke="#6495ed" stroke-miterlimit="10"/><path d="M53.87 122.12l208.88 46.5 208.9 41.02 208.89 38.29" fill="none" stroke-width=".75" stroke-linecap="round" stroke-linejoin="round" stroke="#6495ed" stroke-miterlimit="10"/><path d="M53.87 105.71l208.88 54.7 208.9 51.97 208.89 30.08" fill="none" stroke-width=".75" stroke-linecap="round" stroke-linejoin="round" stroke="#6495ed" stroke-miterlimit="10"/><path d="M53.87 111.18l208.88 30.09 208.9 71.1 208.89 38.3" fill="none" stroke-width=".75" stroke-linecap="round" stroke-linejoin="round" stroke="#6495ed" stroke-miterlimit="10"/><path d="M53.87 102.97l208.88 35.56 208.9 76.58 208.89 32.82" fill="none" stroke-width=".75" stroke-linecap="round" stroke-linejoin="round" stroke="#6495ed" stroke-miterlimit="10"/><path d="M53.87 119.38l208.88 49.24 208.9 43.75 208.89 35.56" fill="none" stroke-width=".75" stroke-linecap="round" stroke-linejoin="round" stroke="#6495ed" stroke-miterlimit="10"/><path d="M53.87 116.65l208.88 49.23 208.9 54.7 208.89 27.35" fill="none" stroke-width=".75" stroke-linecap="round" stroke-linejoin="round" stroke="#6495ed" stroke-miterlimit="10"/><path d="M53.87 102.97l208.88 54.7 208.9 60.18 208.89 30.08" fill="none" stroke-width=".75" stroke-linecap="round" stroke-linejoin="round" stroke="#6495ed" stroke-miterlimit="10"/><path d="M53.87 119.38l208.88 35.56 208.9 60.17 208.89 35.56" fill="none" stroke-width=".75" stroke-linecap="round" stroke-linejoin="round" stroke="#6495ed" stroke-miterlimit="10"/><path d="M53.87 133.06l208.88 38.3 208.9 46.49 208.89 30.08" fill="none" stroke-width=".75" stroke-linecap="round" stroke-linejoin="round" stroke="#6495ed" stroke-miterlimit="10"/><path d="M53.87 113.91l208.88 46.5 208.9 51.97 208.89 35.55" fill="none" stroke-width=".75" stroke-linecap="round" stroke-linejoin="round" stroke="#6495ed" stroke-miterlimit="10"/><path d="M53.87 116.65l208.88 41.03 208.9 60.17 208.89 27.35" fill="none" stroke-width=".75" stroke-linecap="round" stroke-linejoin="round" stroke="#6495ed" stroke-miterlimit="10"/><path d="M53.87 130.32l208.88 60.18 208.9 27.35 208.89 27.35" fill="none" stroke-width=".75" stroke-linecap="round" stroke-linejoin="round" stroke="#6495ed" stroke-miterlimit="10"/><path d="M53.87 133.06l208.88 32.82 208.9 51.97 208.89 30.08" fill="none" stroke-width=".75" stroke-linecap="round" stroke-linejoin="round" stroke="#6495ed" stroke-miterlimit="10"/><path d="M53.87 116.65l208.88 41.03 208.9 51.96L680.53 237" fill="none" stroke-width=".75" stroke-linecap="round" stroke-linejoin="round" stroke="#6495ed" stroke-miterlimit="10"/><path d="M53.87 113.91l208.88 35.56 208.9 51.97 208.89 41.02M53.87 122.12l208.88 49.23 208.9 43.76 208.89 30.09" fill="none" stroke-width=".75" stroke-linecap="round" stroke-linejoin="round" stroke="#6495ed" stroke-miterlimit="10"/><path d="M53.87 113.91l208.88 35.56 208.9 60.17 208.89 38.29" fill="none" stroke-width=".75" stroke-linecap="round" stroke-linejoin="round" stroke="#6495ed" stroke-miterlimit="10"/><path d="M53.87 127.59l208.88 38.29 208.9 49.23 208.89 32.82" fill="none" stroke-width=".75" stroke-linecap="round" stroke-linejoin="round" stroke="#6495ed" stroke-miterlimit="10"/><path d="M53.87 108.45l208.88 43.76 208.9 60.16 208.89 35.56" fill="none" stroke-width=".75" stroke-linecap="round" stroke-linejoin="round" stroke="#6495ed" stroke-miterlimit="10"/><path d="M53.87 116.65l208.88 46.5 208.9 51.96 208.89 32.82" fill="none" stroke-width=".75" stroke-linecap="round" stroke-linejoin="round" stroke="#6495ed" stroke-miterlimit="10"/><path d="M53.87 61.95l208.88 103.93 208.9-41.02 208.89 90.25" fill="none" stroke-width=".75" stroke-linecap="round" stroke-linejoin="round" stroke="#cd0000" stroke-miterlimit="10"/><path d="M53.87 78.36l208.88 87.52 208.9-35.56 208.89 82.06" fill="none" stroke-width=".75" stroke-linecap="round" stroke-linejoin="round" stroke="#cd0000" stroke-miterlimit="10"/><path d="M53.87 64.68l208.88 103.94 208.9-49.24 208.89 93" fill="none" stroke-width=".75" stroke-linecap="round" stroke-linejoin="round" stroke="#cd0000" stroke-miterlimit="10"/><path d="M53.87 102.97l208.88 87.53 208.9-46.5 208.89 73.85" fill="none" stroke-width=".75" stroke-linecap="round" stroke-linejoin="round" stroke="#cd0000" stroke-miterlimit="10"/><path d="M53.87 75.63l208.88 101.19 208.9-49.23 208.89 84.78" fill="none" stroke-width=".75" stroke-linecap="round" stroke-linejoin="round" stroke="#cd0000" stroke-miterlimit="10"/><path d="M53.87 97.5l208.88 79.32 208.9-46.5 208.89 87.53" fill="none" stroke-width=".75" stroke-linecap="round" stroke-linejoin="round" stroke="#cd0000" stroke-miterlimit="10"/><path d="M53.87 81.1l208.88 82.04 208.9-38.28 208.89 84.78" fill="none" stroke-width=".75" stroke-linecap="round" stroke-linejoin="round" stroke="#cd0000" stroke-miterlimit="10"/><path d="M53.87 119.38l208.88 68.38 208.9-24.62 208.89 62.91" fill="none" stroke-width=".75" stroke-linecap="round" stroke-linejoin="round" stroke="#cd0000" stroke-miterlimit="10"/><path d="M53.87 72.9l208.88 101.19 208.9-46.5 208.89 90.26" fill="none" stroke-width=".75" stroke-linecap="round" stroke-linejoin="round" stroke="#cd0000" stroke-miterlimit="10"/><path d="M53.87 111.18l208.88 68.37 208.9-32.82 208.89 68.38" fill="none" stroke-width=".75" stroke-linecap="round" stroke-linejoin="round" stroke="#cd0000" stroke-miterlimit="10"/><path d="M53.87 116.65l208.88 82.05 208.9-41.02 208.89 68.37" fill="none" stroke-width=".75" stroke-linecap="round" stroke-linejoin="round" stroke="#cd0000" stroke-miterlimit="10"/><path d="M53.87 92.04l208.88 79.31 208.9-32.82 208.89 73.84" fill="none" stroke-width=".75" stroke-linecap="round" stroke-linejoin="round" stroke="#cd0000" stroke-miterlimit="10"/><path d="M53.87 89.3l208.88 103.93L471.65 144l208.89 82.05" fill="none" stroke-width=".75" stroke-linecap="round" stroke-linejoin="round" stroke="#cd0000" stroke-miterlimit="10"/><path d="M53.87 86.56l208.88 87.53 208.9-49.23 208.89 90.25" fill="none" stroke-width=".75" stroke-linecap="round" stroke-linejoin="round" stroke="#cd0000" stroke-miterlimit="10"/><path d="M53.87 100.24l208.88 73.85 208.9-19.15 208.89 62.9" fill="none" stroke-width=".75" stroke-linecap="round" stroke-linejoin="round" stroke="#cd0000" stroke-miterlimit="10"/><path d="M53.87 70.15l208.88 98.47 208.9-35.56 208.89 82.05" fill="none" stroke-width=".75" stroke-linecap="round" stroke-linejoin="round" stroke="#cd0000" stroke-miterlimit="10"/><path d="M53.87 100.24l208.88 71.11 208.9-41.03 208.89 82.06" fill="none" stroke-width=".75" stroke-linecap="round" stroke-linejoin="round" stroke="#cd0000" stroke-miterlimit="10"/><path d="M53.87 94.77l208.88 84.78 208.9-38.28 208.89 84.78" fill="none" stroke-width=".75" stroke-linecap="round" stroke-linejoin="round" stroke="#cd0000" stroke-miterlimit="10"/><path d="M53.87 83.83l208.88 109.4 208.9-62.9 208.89 82.04" fill="none" stroke-width=".75" stroke-linecap="round" stroke-linejoin="round" stroke="#cd0000" stroke-miterlimit="10"/><path d="M53.87 100.24l208.88 84.79 208.9-38.3 208.89 76.59" fill="none" stroke-width=".75" stroke-linecap="round" stroke-linejoin="round" stroke="#cd0000" stroke-miterlimit="10"/><path d="M53.87 92.04l208.88 73.84 208.9-43.76 208.89 82.05" fill="none" stroke-width=".75" stroke-linecap="round" stroke-linejoin="round" stroke="#cd0000" stroke-miterlimit="10"/><path d="M53.87 86.56l208.88 90.26L471.65 144l208.89 73.85" fill="none" stroke-width=".75" stroke-linecap="round" stroke-linejoin="round" stroke="#cd0000" stroke-miterlimit="10"/><path d="M53.87 81.1l208.88 103.93 208.9-65.65 208.89 93" fill="none" stroke-width=".75" stroke-linecap="round" stroke-linejoin="round" stroke="#cd0000" stroke-miterlimit="10"/><path d="M53.87 86.56l208.88 90.26 208.9-51.96 208.89 95.72" fill="none" stroke-width=".75" stroke-linecap="round" stroke-linejoin="round" stroke="#cd0000" stroke-miterlimit="10"/><path d="M53.87 78.36l208.88 95.73 208.9-38.3 208.89 82.06" fill="none" stroke-width=".75" stroke-linecap="round" stroke-linejoin="round" stroke="#cd0000" stroke-miterlimit="10"/><path d="M53.87 72.9l208.88 98.45 208.9-38.3 208.89 82.06" fill="none" stroke-width=".75" stroke-linecap="round" stroke-linejoin="round" stroke="#cd0000" stroke-miterlimit="10"/><path d="M53.87 67.42l208.88 109.4 208.9-54.7 208.89 92.99" fill="none" stroke-width=".75" stroke-linecap="round" stroke-linejoin="round" stroke="#cd0000" stroke-miterlimit="10"/><path d="M53.87 70.15l208.88 101.2 208.9-54.7 208.89 90.26" fill="none" stroke-width=".75" stroke-linecap="round" stroke-linejoin="round" stroke="#cd0000" stroke-miterlimit="10"/><path d="M53.87 89.3l208.88 84.79 208.9-43.77 208.89 82.06" fill="none" stroke-width=".75" stroke-linecap="round" stroke-linejoin="round" stroke="#cd0000" stroke-miterlimit="10"/><path d="M53.87 97.5l208.88 84.79 208.9-24.61 208.89 68.37" fill="none" stroke-width=".75" stroke-linecap="round" stroke-linejoin="round" stroke="#cd0000" stroke-miterlimit="10"/><path d="M53.87 102.97l208.88 84.8 208.9-38.3 208.89 73.85" fill="none" stroke-width=".75" stroke-linecap="round" stroke-linejoin="round" stroke="#cd0000" stroke-miterlimit="10"/><path d="M53.87 102.97l208.88 84.8 208.9-35.56 208.89 73.84" fill="none" stroke-width=".75" stroke-linecap="round" stroke-linejoin="round" stroke="#cd0000" stroke-miterlimit="10"/><path d="M53.87 94.77l208.88 84.78 208.9-32.82 208.89 73.85" fill="none" stroke-width=".75" stroke-linecap="round" stroke-linejoin="round" stroke="#cd0000" stroke-miterlimit="10"/><path d="M53.87 89.3l208.88 90.25 208.9-65.64 208.89 95.73" fill="none" stroke-width=".75" stroke-linecap="round" stroke-linejoin="round" stroke="#cd0000" stroke-miterlimit="10"/><path d="M53.87 105.71l208.88 65.64 208.9-41.03 208.89 82.06" fill="none" stroke-width=".75" stroke-linecap="round" stroke-linejoin="round" stroke="#cd0000" stroke-miterlimit="10"/><path d="M53.87 89.3l208.88 71.11 208.9-30.09 208.89 79.32" fill="none" stroke-width=".75" stroke-linecap="round" stroke-linejoin="round" stroke="#cd0000" stroke-miterlimit="10"/><path d="M53.87 70.15l208.88 98.47 208.9-43.76 208.89 87.52" fill="none" stroke-width=".75" stroke-linecap="round" stroke-linejoin="round" stroke="#cd0000" stroke-miterlimit="10"/><path d="M53.87 81.1l208.88 109.4 208.9-57.44 208.89 84.79" fill="none" stroke-width=".75" stroke-linecap="round" stroke-linejoin="round" stroke="#cd0000" stroke-miterlimit="10"/><path d="M53.87 100.24l208.88 71.11 208.9-30.08 208.89 76.58" fill="none" stroke-width=".75" stroke-linecap="round" stroke-linejoin="round" stroke="#cd0000" stroke-miterlimit="10"/><path d="M53.87 102.97l208.88 82.06L471.65 144l208.89 73.85" fill="none" stroke-width=".75" stroke-linecap="round" stroke-linejoin="round" stroke="#cd0000" stroke-miterlimit="10"/><path d="M53.87 102.97l208.88 79.32 208.9-49.23 208.89 87.52" fill="none" stroke-width=".75" stroke-linecap="round" stroke-linejoin="round" stroke="#cd0000" stroke-miterlimit="10"/><path d="M53.87 86.56l208.88 84.8 208.9-43.77 208.89 87.52" fill="none" stroke-width=".75" stroke-linecap="round" stroke-linejoin="round" stroke="#cd0000" stroke-miterlimit="10"/><path d="M53.87 94.77l208.88 87.52L471.65 144l208.89 76.58" fill="none" stroke-width=".75" stroke-linecap="round" stroke-linejoin="round" stroke="#cd0000" stroke-miterlimit="10"/><path d="M53.87 116.65l208.88 73.85 208.9-27.36 208.89 62.91" fill="none" stroke-width=".75" stroke-linecap="round" stroke-linejoin="round" stroke="#cd0000" stroke-miterlimit="10"/><path d="M53.87 100.24l208.88 79.31 208.9-41.02 208.89 79.32" fill="none" stroke-width=".75" stroke-linecap="round" stroke-linejoin="round" stroke="#cd0000" stroke-miterlimit="10"/><path d="M53.87 97.5l208.88 73.85 208.9-32.82 208.89 82.05" fill="none" stroke-width=".75" stroke-linecap="round" stroke-linejoin="round" stroke="#cd0000" stroke-miterlimit="10"/><path d="M53.87 97.5l208.88 76.59 208.9-35.56 208.89 79.32" fill="none" stroke-width=".75" stroke-linecap="round" stroke-linejoin="round" stroke="#cd0000" stroke-miterlimit="10"/><path d="M53.87 83.83l208.88 90.26 208.9-38.3 208.89 82.06" fill="none" stroke-width=".75" stroke-linecap="round" stroke-linejoin="round" stroke="#cd0000" stroke-miterlimit="10"/><path d="M53.87 113.91l208.88 71.12 208.9-13.68 208.89 51.97" fill="none" stroke-width=".75" stroke-linecap="round" stroke-linejoin="round" stroke="#cd0000" stroke-miterlimit="10"/><path d="M53.87 97.5l208.88 79.32 208.9-35.55 208.89 76.58" fill="none" stroke-width=".75" stroke-linecap="round" stroke-linejoin="round" stroke="#cd0000" stroke-miterlimit="10"/><path d="M53.87 81.1l208.88 82.04 208.9-73.84 208.89 95.73" fill="none" stroke-width=".75" stroke-linecap="round" stroke-linejoin="round" stroke="orange" stroke-miterlimit="10"/><path d="M53.87 94.77l208.88 84.78 208.9-65.64 208.89 87.53" fill="none" stroke-width=".75" stroke-linecap="round" stroke-linejoin="round" stroke="orange" stroke-miterlimit="10"/><path d="M53.87 59.21l208.88 112.14 208.9-79.31 208.89 103.92" fill="none" stroke-width=".75" stroke-linecap="round" stroke-linejoin="round" stroke="orange" stroke-miterlimit="10"/><path d="M53.87 81.1l208.88 92.99 208.9-73.85 208.89 103.93" fill="none" stroke-width=".75" stroke-linecap="round" stroke-linejoin="round" stroke="orange" stroke-miterlimit="10"/><path d="M53.87 75.63l208.88 95.72 208.9-76.58 208.89 98.46" fill="none" stroke-width=".75" stroke-linecap="round" stroke-linejoin="round" stroke="orange" stroke-miterlimit="10"/><path d="M53.87 45.54l208.88 125.81 208.9-98.46 208.89 123.07" fill="none" stroke-width=".75" stroke-linecap="round" stroke-linejoin="round" stroke="orange" stroke-miterlimit="10"/><path d="M53.87 119.38l208.88 65.65 208.9-54.7 208.89 76.58" fill="none" stroke-width=".75" stroke-linecap="round" stroke-linejoin="round" stroke="orange" stroke-miterlimit="10"/><path d="M53.87 53.74L262.75 174.1l208.9-93 208.89 123.08" fill="none" stroke-width=".75" stroke-linecap="round" stroke-linejoin="round" stroke="orange" stroke-miterlimit="10"/><path d="M53.87 70.15l208.88 114.88 208.9-90.26 208.89 109.4" fill="none" stroke-width=".75" stroke-linecap="round" stroke-linejoin="round" stroke="orange" stroke-miterlimit="10"/><path d="M53.87 56.48l208.88 98.46 208.9-68.38 208.89 98.47" fill="none" stroke-width=".75" stroke-linecap="round" stroke-linejoin="round" stroke="orange" stroke-miterlimit="10"/><path d="M53.87 75.63l208.88 90.25 208.9-51.97 208.89 84.79" fill="none" stroke-width=".75" stroke-linecap="round" stroke-linejoin="round" stroke="orange" stroke-miterlimit="10"/><path d="M53.87 78.36l208.88 101.2 208.9-71.11 208.89 92.99" fill="none" stroke-width=".75" stroke-linecap="round" stroke-linejoin="round" stroke="orange" stroke-miterlimit="10"/><path d="M53.87 67.42l208.88 103.93 208.9-68.38 208.89 93" fill="none" stroke-width=".75" stroke-linecap="round" stroke-linejoin="round" stroke="orange" stroke-miterlimit="10"/><path d="M53.87 97.5l208.88 87.53 208.9-68.38 208.89 82.05" fill="none" stroke-width=".75" stroke-linecap="round" stroke-linejoin="round" stroke="orange" stroke-miterlimit="10"/><path d="M53.87 94.77l208.88 82.05 208.9-62.9 208.89 73.84" fill="none" stroke-width=".75" stroke-linecap="round" stroke-linejoin="round" stroke="orange" stroke-miterlimit="10"/><path d="M53.87 78.36l208.88 87.52 208.9-57.43 208.89 82.05" fill="none" stroke-width=".75" stroke-linecap="round" stroke-linejoin="round" stroke="orange" stroke-miterlimit="10"/><path d="M53.87 75.63l208.88 95.72 208.9-68.38 208.89 101.2" fill="none" stroke-width=".75" stroke-linecap="round" stroke-linejoin="round" stroke="orange" stroke-miterlimit="10"/><path d="M53.87 42.8l208.88 106.67 208.9-79.32 208.89 123.08" fill="none" stroke-width=".75" stroke-linecap="round" stroke-linejoin="round" stroke="orange" stroke-miterlimit="10"/><path d="M53.87 42.8L262.75 182.3l208.9-117.6 208.89 125.8" fill="none" stroke-width=".75" stroke-linecap="round" stroke-linejoin="round" stroke="orange" stroke-miterlimit="10"/><path d="M53.87 89.3l208.88 103.93 208.9-76.58 208.89 95.72" fill="none" stroke-width=".75" stroke-linecap="round" stroke-linejoin="round" stroke="orange" stroke-miterlimit="10"/><path d="M53.87 64.68l208.88 101.2 208.9-68.38 208.89 93" fill="none" stroke-width=".75" stroke-linecap="round" stroke-linejoin="round" stroke="orange" stroke-miterlimit="10"/><path d="M53.87 100.24l208.88 76.58 208.9-57.44 208.89 79.32" fill="none" stroke-width=".75" stroke-linecap="round" stroke-linejoin="round" stroke="orange" stroke-miterlimit="10"/><path d="M53.87 42.8l208.88 134.02 208.9-106.67L680.53 198.7" fill="none" stroke-width=".75" stroke-linecap="round" stroke-linejoin="round" stroke="orange" stroke-miterlimit="10"/><path d="M53.87 81.1l208.88 98.45 208.9-60.17 208.89 84.8" fill="none" stroke-width=".75" stroke-linecap="round" stroke-linejoin="round" stroke="orange" stroke-miterlimit="10"/><path d="M53.87 70.15l208.88 93 208.9-65.65 208.89 98.46" fill="none" stroke-width=".75" stroke-linecap="round" stroke-linejoin="round" stroke="orange" stroke-miterlimit="10"/><path d="M53.87 56.48l208.88 109.4 208.9-76.58 208.89 114.87" fill="none" stroke-width=".75" stroke-linecap="round" stroke-linejoin="round" stroke="orange" stroke-miterlimit="10"/><path d="M53.87 83.83l208.88 92.99 208.9-54.7 208.89 82.05" fill="none" stroke-width=".75" stroke-linecap="round" stroke-linejoin="round" stroke="orange" stroke-miterlimit="10"/><path d="M53.87 86.56l208.88 84.8 208.9-51.98 208.89 84.8" fill="none" stroke-width=".75" stroke-linecap="round" stroke-linejoin="round" stroke="orange" stroke-miterlimit="10"/><path d="M53.87 78.36l208.88 98.46 208.9-76.58 208.89 95.72" fill="none" stroke-width=".75" stroke-linecap="round" stroke-linejoin="round" stroke="orange" stroke-miterlimit="10"/><path d="M53.87 56.48l208.88 114.87 208.9-76.58 208.89 114.87" fill="none" stroke-width=".75" stroke-linecap="round" stroke-linejoin="round" stroke="orange" stroke-miterlimit="10"/><path d="M53.87 51l208.88 125.82 208.9-90.26 208.89 114.88" fill="none" stroke-width=".75" stroke-linecap="round" stroke-linejoin="round" stroke="orange" stroke-miterlimit="10"/><path d="M53.87 37.33l208.88 112.14 208.9-71.11L680.53 198.7" fill="none" stroke-width=".75" stroke-linecap="round" stroke-linejoin="round" stroke="orange" stroke-miterlimit="10"/><path d="M53.87 78.36l208.88 98.46 208.9-76.58 208.89 92.99" fill="none" stroke-width=".75" stroke-linecap="round" stroke-linejoin="round" stroke="orange" stroke-miterlimit="10"/><path d="M53.87 81.1l208.88 95.72 208.9-62.9 208.89 98.45" fill="none" stroke-width=".75" stroke-linecap="round" stroke-linejoin="round" stroke="orange" stroke-miterlimit="10"/><path d="M53.87 86.56l208.88 95.73 208.9-82.05L680.53 215.1" fill="none" stroke-width=".75" stroke-linecap="round" stroke-linejoin="round" stroke="orange" stroke-miterlimit="10"/><path d="M53.87 42.8l208.88 128.55 208.9-84.79L680.53 190.5" fill="none" stroke-width=".75" stroke-linecap="round" stroke-linejoin="round" stroke="orange" stroke-miterlimit="10"/><path d="M53.87 81.1l208.88 79.31 208.9-60.17 208.89 87.52" fill="none" stroke-width=".75" stroke-linecap="round" stroke-linejoin="round" stroke="orange" stroke-miterlimit="10"/><path d="M53.87 78.36l208.88 90.26 208.9-65.65 208.89 101.2" fill="none" stroke-width=".75" stroke-linecap="round" stroke-linejoin="round" stroke="orange" stroke-miterlimit="10"/><path d="M53.87 89.3l208.88 82.05 208.9-49.23 208.89 82.05" fill="none" stroke-width=".75" stroke-linecap="round" stroke-linejoin="round" stroke="orange" stroke-miterlimit="10"/><path d="M53.87 64.68l208.88 103.94 208.9-62.9 208.89 90.24" fill="none" stroke-width=".75" stroke-linecap="round" stroke-linejoin="round" stroke="orange" stroke-miterlimit="10"/><path d="M53.87 70.15l208.88 98.47 208.9-68.38 208.89 87.52" fill="none" stroke-width=".75" stroke-linecap="round" stroke-linejoin="round" stroke="orange" stroke-miterlimit="10"/><path d="M53.87 64.68l208.88 103.94 208.9-54.7 208.89 76.58" fill="none" stroke-width=".75" stroke-linecap="round" stroke-linejoin="round" stroke="orange" stroke-miterlimit="10"/><path d="M53.87 94.77l208.88 84.78 208.9-65.64 208.89 87.53" fill="none" stroke-width=".75" stroke-linecap="round" stroke-linejoin="round" stroke="orange" stroke-miterlimit="10"/><path d="M53.87 67.42l208.88 98.46 208.9-73.84 208.89 98.46" fill="none" stroke-width=".75" stroke-linecap="round" stroke-linejoin="round" stroke="orange" stroke-miterlimit="10"/><path d="M53.87 70.15l208.88 93 208.9-65.65 208.89 87.53" fill="none" stroke-width=".75" stroke-linecap="round" stroke-linejoin="round" stroke="orange" stroke-miterlimit="10"/><path d="M53.87 70.15l208.88 101.2 208.9-60.17 208.89 79.32" fill="none" stroke-width=".75" stroke-linecap="round" stroke-linejoin="round" stroke="orange" stroke-miterlimit="10"/><path d="M53.87 81.1l208.88 103.93 208.9-68.38 208.89 84.79" fill="none" stroke-width=".75" stroke-linecap="round" stroke-linejoin="round" stroke="orange" stroke-miterlimit="10"/><path d="M53.87 75.63l208.88 95.72 208.9-60.17 208.89 87.52" fill="none" stroke-width=".75" stroke-linecap="round" stroke-linejoin="round" stroke="orange" stroke-miterlimit="10"/><path d="M53.87 83.83l208.88 76.58 208.9-54.7 208.89 84.79" fill="none" stroke-width=".75" stroke-linecap="round" stroke-linejoin="round" stroke="orange" stroke-miterlimit="10"/><path d="M53.87 92.04l208.88 79.31 208.9-57.44 208.89 90.26" fill="none" stroke-width=".75" stroke-linecap="round" stroke-linejoin="round" stroke="orange" stroke-miterlimit="10"/><use xlink:href="#j" x="7.4" y="257.14"/><use xlink:href="#k" x="7.4" y="202.44"/><use xlink:href="#l" x="7.4" y="147.74"/><use xlink:href="#m" x="7.4" y="93.04"/><use xlink:href="#n" x="7.4" y="38.34"/><g fill="#a9a9a9"><use xlink:href="#o" x="18.37" y="10.76"/><use xlink:href="#p" x="26.37" y="10.76"/><use xlink:href="#q" x="33.04" y="10.76"/><use xlink:href="#r" x="39.72" y="10.76"/><use xlink:href="#s" x="46.39" y="10.76"/><use xlink:href="#t" x="49.06" y="10.76"/><use xlink:href="#u" x="52.39" y="10.76"/><use xlink:href="#p" x="59.07" y="10.76"/><use xlink:href="#v" x="65.74" y="10.76"/><use xlink:href="#w" x="72.41" y="10.76"/><use xlink:href="#x" x="79.09" y="10.76"/><use xlink:href="#y" x="82.42" y="10.76"/></g><g fill="#a9a9a9"><use xlink:href="#o" x="230.25" y="10.76"/><use xlink:href="#p" x="238.26" y="10.76"/><use xlink:href="#q" x="244.93" y="10.76"/><use xlink:href="#r" x="251.61" y="10.76"/><use xlink:href="#s" x="258.28" y="10.76"/><use xlink:href="#t" x="260.95" y="10.76"/><use xlink:href="#z" x="264.28" y="10.76"/><use xlink:href="#A" x="275.61" y="10.76"/><use xlink:href="#B" x="278.27" y="10.76"/><use xlink:href="#x" x="284.95" y="10.76"/><use xlink:href="#y" x="288.28" y="10.76"/></g><g fill="#a9a9a9"><use xlink:href="#C" x="437.64" y="10.76"/><use xlink:href="#p" x="445.65" y="10.76"/><use xlink:href="#x" x="452.32" y="10.76"/><use xlink:href="#r" x="455.66" y="10.76"/><use xlink:href="#s" x="462.33" y="10.76"/><use xlink:href="#t" x="465" y="10.76"/><use xlink:href="#u" x="468.33" y="10.76"/><use xlink:href="#p" x="475" y="10.76"/><use xlink:href="#v" x="481.68" y="10.76"/><use xlink:href="#w" x="488.35" y="10.76"/><use xlink:href="#x" x="495.03" y="10.76"/><use xlink:href="#y" x="498.36" y="10.76"/></g><g fill="#a9a9a9"><use xlink:href="#C" x="649.54" y="10.76"/><use xlink:href="#p" x="657.54" y="10.76"/><use xlink:href="#x" x="664.21" y="10.76"/><use xlink:href="#r" x="667.55" y="10.76"/><use xlink:href="#s" x="674.22" y="10.76"/><use xlink:href="#t" x="676.89" y="10.76"/><use xlink:href="#z" x="680.22" y="10.76"/><use xlink:href="#A" x="691.55" y="10.76"/><use xlink:href="#B" x="694.21" y="10.76"/><use xlink:href="#x" x="700.89" y="10.76"/><use xlink:href="#y" x="704.22" y="10.76"/></g><path d="M64.67 213.1h21.6" fill="none" stroke-width="2.25" stroke-linecap="round" stroke-linejoin="round" stroke="#6495ed" stroke-miterlimit="10"/><path d="M64.67 227.5h21.6" fill="none" stroke-width="2.25" stroke-linecap="round" stroke-linejoin="round" stroke="#cd0000" stroke-miterlimit="10"/><path d="M64.67 241.9h21.6" fill="none" stroke-width="2.25" stroke-linecap="round" stroke-linejoin="round" stroke="orange" stroke-miterlimit="10"/><use xlink:href="#D" x="97.07" y="216.84"/><use xlink:href="#p" x="103.07" y="216.84"/><use xlink:href="#x" x="109.74" y="216.84"/><use xlink:href="#E" x="113.07" y="216.84"/><use xlink:href="#D" x="119.75" y="216.84"/><use xlink:href="#r" x="125.75" y="216.84"/><g><use xlink:href="#F" x="97.07" y="231.24"/><use xlink:href="#p" x="103.07" y="231.24"/><use xlink:href="#G" x="109.74" y="231.24"/><use xlink:href="#D" x="113.74" y="231.24"/><use xlink:href="#A" x="119.74" y="231.24"/><use xlink:href="#H" x="122.4" y="231.24"/><use xlink:href="#E" x="128.4" y="231.24"/><use xlink:href="#s" x="135.08" y="231.24"/><use xlink:href="#E" x="137.74" y="231.24"/><use xlink:href="#G" x="144.42" y="231.24"/></g><g><use xlink:href="#F" x="97.07" y="245.64"/><use xlink:href="#A" x="103.07" y="245.64"/><use xlink:href="#G" x="105.73" y="245.64"/><use xlink:href="#w" x="109.73" y="245.64"/><use xlink:href="#A" x="116.4" y="245.64"/><use xlink:href="#v" x="119.07" y="245.64"/><use xlink:href="#A" x="125.74" y="245.64"/><use xlink:href="#H" x="128.41" y="245.64"/><use xlink:href="#r" x="134.41" y="245.64"/></g></svg>