<svg xmlns="http://www.w3.org/2000/svg" xmlns:xlink="http://www.w3.org/1999/xlink" width="480" height="480" viewBox="0 0 360 360"><defs><symbol overflow="visible" id="m"><path d="M2.08-4.16c0 .97.08 1.72.24 2.23.16.52.49.78.98.78.5 0 .83-.26.98-.78.15-.51.23-1.26.23-2.23 0-1.03-.08-1.79-.23-2.28-.16-.49-.48-.74-.98-.74s-.82.25-.98.74a7.9 7.9 0 00-.24 2.28zm1.22-4.4c1.09 0 1.84.39 2.28 1.15.44.76.65 1.84.65 3.25a6.6 6.6 0 01-.65 3.23C5.14-.17 4.38.21 3.3.21 2.22.21 1.46-.17 1.03-.93a6.6 6.6 0 01-.66-3.23c0-1.4.22-2.49.66-3.25.43-.77 1.2-1.14 2.27-1.14zm0 0"/></symbol><symbol overflow="visible" id="n"><path d="M.38 0c.01-.6.14-1.16.39-1.67.23-.57.8-1.17 1.68-1.8.77-.55 1.27-.94 1.5-1.18.35-.37.52-.78.52-1.22 0-.36-.1-.66-.3-.9-.2-.23-.48-.36-.85-.36-.51 0-.86.2-1.04.58-.1.21-.17.56-.19 1.03H.47c.03-.72.16-1.3.39-1.75.44-.84 1.24-1.27 2.37-1.27a3 3 0 012.15.75c.53.5.8 1.16.8 1.98 0 .63-.2 1.18-.57 1.67-.24.33-.65.69-1.21 1.09l-.67.47c-.41.3-.7.51-.85.65a1.8 1.8 0 00-.4.46H6.2V0zm0 0"/></symbol><symbol overflow="visible" id="o"><path d="M6.27-1.83h-.96V0H3.68v-1.83H.32v-1.46l3.12-5.16H5.3v5.32h.96zm-2.59-1.3V-6.8L1.55-3.13zm0 0"/></symbol><symbol overflow="visible" id="p"><path d="M2.05-2.69c0 .46.12.83.37 1.12.25.29.56.43.94.43.37 0 .66-.14.87-.41.22-.29.32-.65.32-1.1 0-.49-.12-.87-.36-1.13-.24-.27-.54-.4-.9-.4-.28 0-.53.09-.75.26-.33.25-.49.66-.49 1.23zM4.4-6.36a.84.84 0 00-.16-.45c-.18-.26-.45-.4-.81-.4-.54 0-.93.3-1.16.92-.13.33-.22.83-.26 1.49.2-.25.45-.43.72-.54.27-.12.59-.18.94-.18.75 0 1.37.26 1.85.77.48.52.73 1.17.73 1.97S6-1.28 5.54-.68c-.47.6-1.21.9-2.2.9A2.54 2.54 0 01.97-1.12c-.4-.7-.6-1.6-.6-2.7 0-.66.03-1.18.09-1.59.1-.72.28-1.32.56-1.8.25-.41.57-.74.96-1 .4-.24.86-.37 1.4-.37.8 0 1.42.2 1.9.6.46.41.73.95.78 1.62zm0 0"/></symbol><symbol overflow="visible" id="q"><path d="M2.05-2.47c0 .42.11.74.33.98.21.23.51.34.9.34.38 0 .68-.12.9-.34.21-.23.32-.56.32-.98 0-.43-.1-.76-.33-.98a1.19 1.19 0 00-.9-.34c-.37 0-.67.11-.89.34-.22.22-.33.55-.33.98zm-1.73.11c0-.47.1-.9.32-1.29s.54-.68.95-.87a2 2 0 01-.8-.89 2.54 2.54 0 01-.18-.9c0-.61.23-1.14.7-1.57a2.77 2.77 0 011.96-.66c.85 0 1.51.22 1.97.66.47.43.7.96.7 1.58 0 .27-.06.57-.18.89-.13.32-.4.6-.8.83.42.23.73.54.94.93.2.39.32.82.32 1.3 0 .7-.27 1.32-.8 1.82S4.16.22 3.2.22c-.95 0-1.66-.25-2.15-.75-.5-.5-.73-1.11-.73-1.83zM2.2-6.12c0 .31.1.57.29.76.19.2.45.29.78.29.34 0 .6-.1.8-.29.18-.2.27-.45.27-.76 0-.33-.09-.6-.28-.79-.18-.18-.44-.28-.79-.28-.33 0-.6.1-.78.28-.2.2-.29.46-.29.8zm0 0"/></symbol><symbol overflow="visible" id="r"><path d="M.83-5.86V-7c.53-.02.9-.05 1.1-.1.34-.08.62-.22.83-.45.14-.15.26-.35.33-.6.04-.16.06-.27.06-.35h1.39V0H2.83v-5.86zm0 0"/></symbol><symbol overflow="visible" id="s"><path d="M-4.16-2.08c.97 0 1.72-.08 2.23-.24.52-.16.78-.49.78-.98 0-.5-.26-.83-.78-.98a8.35 8.35 0 00-2.23-.23c-1.03 0-1.79.08-2.28.23-.49.16-.74.48-.74.98s.25.82.74.98c.5.16 1.25.24 2.28.24zm-4.4-1.22c0-1.09.39-1.84 1.15-2.28a6.64 6.64 0 013.25-.65c1.4 0 2.48.21 3.23.65.76.44 1.14 1.2 1.14 2.28 0 1.08-.38 1.84-1.14 2.27a6.6 6.6 0 01-3.23.66c-1.4 0-2.49-.22-3.25-.66-.77-.43-1.14-1.2-1.14-2.27zm0 0"/></symbol><symbol overflow="visible" id="t"><path d="M0-.38a4.02 4.02 0 01-1.67-.39 4.73 4.73 0 01-1.8-1.68c-.55-.77-.94-1.27-1.18-1.5a1.75 1.75 0 00-1.22-.52c-.36 0-.66.1-.9.3-.23.2-.36.48-.36.85 0 .51.2.86.58 1.04.21.1.56.17 1.03.19v1.62a4.1 4.1 0 01-1.75-.4C-8.1-1.3-8.54-2.1-8.54-3.22a3 3 0 01.75-2.15c.5-.53 1.16-.8 1.98-.8.63 0 1.18.2 1.67.57.33.24.7.65 1.09 1.21l.47.67c.3.41.51.7.65.85.13.16.29.29.46.4V-6.2H0zm0 0"/></symbol><symbol overflow="visible" id="u"><path d="M-1.83-6.27v.96H0v1.63h-1.83v3.36h-1.46l-5.16-3.12v-1.88h5.32v-.95zm-1.3 2.59H-6.8l3.67 2.13zm0 0"/></symbol><symbol overflow="visible" id="v"><path d="M-2.69-2.05c.46 0 .83-.12 1.12-.37.29-.25.43-.56.43-.94 0-.37-.14-.66-.41-.87a1.76 1.76 0 00-1.1-.32c-.49 0-.87.12-1.13.36-.27.24-.4.54-.4.89 0 .28.09.54.26.76.25.33.66.49 1.23.49zM-6.36-4.4a.84.84 0 00-.45.16c-.26.18-.4.45-.4.81 0 .54.3.93.92 1.16.33.13.83.21 1.49.26-.25-.2-.43-.45-.54-.72a2.43 2.43 0 01-.18-.94c0-.75.26-1.37.77-1.85a2.76 2.76 0 011.97-.73c.8 0 1.5.24 2.1.71.6.47.9 1.21.9 2.2 0 1.07-.44 1.86-1.34 2.37-.7.4-1.6.6-2.7.6-.66 0-1.18-.03-1.59-.09a4.81 4.81 0 01-1.8-.57 2.58 2.58 0 01-1.37-2.36c0-.79.2-1.41.6-1.88.41-.47.95-.74 1.62-.8zm0 0"/></symbol><symbol overflow="visible" id="w"><path d="M-2.47-2.05c.42 0 .75-.11.98-.33.23-.21.34-.51.34-.9 0-.38-.11-.68-.34-.9a1.37 1.37 0 00-.97-.32c-.44 0-.77.1-1 .33-.22.22-.33.52-.33.9 0 .37.11.67.34.89.22.22.55.33.98.33zm.11 1.73c-.47 0-.9-.1-1.29-.32a2.08 2.08 0 01-.87-.95 2 2 0 01-.89.8c-.32.12-.62.18-.9.18-.61 0-1.14-.23-1.57-.7a2.76 2.76 0 01-.66-1.97c0-.85.22-1.5.66-1.97.43-.46.96-.7 1.58-.7.27 0 .57.07.89.2.32.12.6.38.83.8.23-.42.54-.74.93-.95.39-.2.82-.32 1.3-.32.7 0 1.32.27 1.82.8S.22-4.16.22-3.2c0 .95-.25 1.66-.75 2.15-.5.5-1.11.73-1.83.73zM-6.12-2.2c.31 0 .57-.1.76-.29.2-.19.29-.45.29-.79s-.1-.6-.29-.78c-.2-.19-.45-.28-.76-.28-.33 0-.6.09-.79.28-.18.18-.28.44-.28.78s.1.6.28.8c.2.18.46.28.8.28zm0 0"/></symbol><symbol overflow="visible" id="x"><path d="M-5.86-.83H-7c-.02-.53-.05-.9-.1-1.11-.08-.34-.22-.61-.45-.82a1.47 1.47 0 00-.6-.33 1.37 1.37 0 00-.35-.06v-1.4l8.5.01v1.71h-5.86zm0 0"/></symbol><symbol overflow="visible" id="y"><path d="M.18-6.27h1.36l1.44 2.2 1.46-2.2 1.29.02L3.6-3.22 5.82 0H4.47L2.9-2.36 1.4 0H.06l2.21-3.22zm0 0"/></symbol><symbol overflow="visible" id="z"><path d="M.5-3.88h2.94v1.08H.5zm0 0"/></symbol><symbol overflow="visible" id="A"><path d="M1.58-1.67c0 .3.12.54.33.72.23.18.5.26.8.26.37 0 .73-.08 1.08-.26.58-.28.87-.75.87-1.4v-.85c-.12.09-.3.16-.5.21-.2.06-.4.1-.59.12l-.64.08a2.4 2.4 0 00-.86.24.94.94 0 00-.49.88zM4.14-3.8c.24-.04.4-.14.49-.3.04-.1.07-.24.07-.41 0-.36-.13-.62-.4-.78a2.03 2.03 0 00-1.09-.25c-.55 0-.94.15-1.17.45-.13.16-.21.4-.25.73H.8c.02-.77.27-1.31.75-1.61.49-.3 1.05-.46 1.68-.46.74 0 1.34.14 1.8.42.46.28.69.72.69 1.31v3.62c0 .11.02.2.07.27.04.06.14.1.28.1l.16-.01.18-.03v.78c-.16.05-.29.08-.37.09l-.35.01c-.37 0-.63-.12-.8-.38a1.44 1.44 0 01-.17-.58c-.22.28-.52.53-.93.73-.4.2-.84.31-1.33.31-.58 0-1.06-.17-1.42-.53-.38-.35-.56-.8-.56-1.33 0-.58.18-1.03.54-1.35.37-.32.85-.52 1.43-.6zm0 0"/></symbol><symbol overflow="visible" id="B"><path d="M.77-6.25h1.07V0H.77zm0-2.36h1.07v1.2H.77zm0 0"/></symbol><symbol overflow="visible" id="C"><path d="M1.4-1.97c.03.35.12.62.26.81.27.34.73.51 1.39.51.39 0 .73-.08 1.03-.26.3-.16.44-.43.44-.79a.67.67 0 00-.36-.6 4.49 4.49 0 00-.9-.3l-.83-.22a4.09 4.09 0 01-1.19-.45 1.33 1.33 0 01-.68-1.18c0-.59.22-1.07.64-1.44.43-.37 1-.55 1.73-.55.94 0 1.62.28 2.05.83.26.35.38.74.38 1.14h-1c-.02-.24-.1-.46-.25-.65-.24-.28-.66-.42-1.26-.42-.4 0-.7.08-.9.23-.21.15-.32.36-.32.6 0 .28.14.5.4.66.17.1.4.18.7.26l.7.17c.76.18 1.27.36 1.52.53.41.27.62.7.62 1.27 0 .56-.21 1.05-.64 1.45-.42.4-1.07.61-1.94.61-.93 0-1.6-.21-1.98-.63A2.4 2.4 0 01.4-1.97zm0 0"/></symbol><symbol overflow="visible" id="D"><path d="M-6.27-4.7v-1.16l2.75 1 2.64.95c1.6.61 2.58 1.04 2.93 1.3.35.24.52.67.52 1.28a2.53 2.53 0 01-.08.64h-.96a4.9 4.9 0 00.11-.61c0-.2-.03-.34-.1-.44a.88.88 0 00-.23-.23l-.48-.21-.65-.27-6.45 2.33v-1.2L-1.17-3zm0 0"/></symbol><symbol overflow="visible" id="E"><path d="M-3.88-.5v-2.94h1.08V-.5zm0 0"/></symbol><symbol overflow="visible" id="F"><path d="M-1.67-1.58c.3 0 .54-.12.72-.33.18-.23.27-.5.27-.8 0-.37-.09-.73-.26-1.08a1.45 1.45 0 00-1.4-.87h-.85c.08.12.15.3.2.5.06.2.1.4.12.59l.08.64c.05.38.13.67.24.86.19.32.48.49.88.49zM-3.8-4.14c-.03-.24-.14-.4-.3-.49a.92.92 0 00-.41-.07c-.36 0-.62.13-.78.4-.17.25-.25.61-.25 1.09 0 .55.15.94.45 1.17.16.13.4.21.73.25v.99c-.77-.02-1.31-.27-1.61-.75a3.08 3.08 0 01-.46-1.68c0-.74.14-1.34.42-1.8.28-.46.72-.69 1.31-.69h3.62c.11 0 .2-.02.27-.07.06-.04.1-.14.1-.28l-.01-.16-.03-.18h.78c.05.16.08.29.09.37l.02.35c0 .37-.13.63-.39.8-.14.08-.33.14-.58.17.28.22.53.52.73.93.2.4.31.84.31 1.33 0 .58-.17 1.06-.53 1.42-.35.38-.8.56-1.33.56A1.7 1.7 0 01-3-1.03a2.62 2.62 0 01-.6-1.42zm0 0"/></symbol><symbol overflow="visible" id="G"><path d="M-6.27-.18v-1.36l2.2-1.44-2.2-1.46.02-1.29 3.03 2.12L0-5.82v1.35L-2.36-2.9 0-1.4v1.34l-3.22-2.21zm0 0"/></symbol><symbol overflow="visible" id="H"><path d="M-6.25-.77v-1.08H0v1.08zm-2.36 0v-1.08h1.2v1.08zm0 0"/></symbol><symbol overflow="visible" id="I"><path d="M-1.97-1.4c.35-.03.62-.12.81-.26.34-.27.51-.73.51-1.39 0-.39-.08-.73-.26-1.03a.84.84 0 00-.78-.44.67.67 0 00-.62.36c-.08.15-.18.45-.3.9l-.21.83c-.13.54-.28.93-.45 1.19-.28.45-.68.68-1.18.68-.59 0-1.07-.22-1.44-.64-.37-.43-.55-1-.55-1.73 0-.94.28-1.62.83-2.05.35-.26.74-.38 1.14-.38v1c-.24.02-.46.1-.65.25-.28.24-.42.66-.42 1.26 0 .4.08.7.23.9.15.21.36.31.6.31.28 0 .5-.13.66-.4.1-.16.18-.39.26-.69l.17-.7c.18-.76.36-1.27.53-1.52.27-.41.7-.62 1.27-.62.56 0 1.05.21 1.45.64.4.42.61 1.07.61 1.94 0 .93-.21 1.6-.63 1.98-.43.39-.95.6-1.58.62zm0 0"/></symbol><symbol overflow="visible" id="J"><path d="M9.5-7.83c.34 0 .67.06 1 .2a2.27 2.27 0 011.32 1.67c.05.26.07.63.07 1.13V0H9.82v-4.88c0-.29-.05-.53-.14-.72-.18-.35-.5-.53-.99-.53-.55 0-.93.23-1.14.69-.11.24-.16.53-.16.88V0H5.38v-4.56c0-.46-.05-.79-.14-1-.17-.37-.5-.55-1-.55-.56 0-.95.18-1.15.56-.1.2-.16.52-.16.94V0H.9v-7.65h1.95v1.12c.25-.4.48-.68.7-.85.4-.3.9-.45 1.51-.45.59 0 1.06.13 1.42.38.3.24.51.55.66.93.27-.45.59-.78.98-1 .42-.2.87-.31 1.38-.31zm0 0"/></symbol><symbol overflow="visible" id="K"><path d="M1.25 1.47l.25.01c.2.01.38 0 .56-.02.18-.02.33-.07.45-.16.12-.08.22-.25.33-.5.1-.25.14-.4.12-.46l-2.81-8h2.23l1.67 5.65 1.58-5.65h2.13L5.13-.12c-.5 1.45-.9 2.35-1.2 2.7-.3.35-.89.52-1.77.52h-.43l-.48-.03zm0 0"/></symbol><symbol overflow="visible" id="M"><path d="M6.21-3.83a3 3 0 00-.4-1.57c-.27-.46-.7-.68-1.31-.68-.73 0-1.23.34-1.5 1.03a3.9 3.9 0 00-.2 1.4c0 .88.23 1.5.7 1.87.28.21.62.32 1 .32.56 0 .98-.22 1.28-.65.29-.43.43-1 .43-1.72zm-1.13-4a3 3 0 012.27.99c.62.66.93 1.63.93 2.91 0 1.35-.3 2.38-.9 3.09-.61.7-1.4 1.06-2.35 1.06C4.42.22 3.9.07 3.5-.24a2.95 2.95 0 01-.65-.74v4H.88V-7.66H2.8v1.13a2.54 2.54 0 012.28-1.3zm0 0"/></symbol><symbol overflow="visible" id="N"><path d="M2.98 0h-2v-10.36h2zm0 0"/></symbol><symbol overflow="visible" id="O"><path d="M4.38-1.41c.58 0 1.03-.21 1.34-.63.32-.42.48-1.01.48-1.78s-.16-1.36-.48-1.77a1.59 1.59 0 00-1.34-.62c-.6 0-1.04.2-1.36.62-.32.41-.47 1-.47 1.77s.15 1.36.47 1.78c.32.42.77.63 1.35.63zm3.92-2.4c0 1.12-.33 2.08-.97 2.88-.65.8-1.63 1.2-2.95 1.2-1.32 0-2.3-.4-2.95-1.2a4.46 4.46 0 01-.97-2.89c0-1.1.33-2.06.97-2.88.65-.8 1.63-1.21 2.95-1.21 1.32 0 2.3.4 2.95 1.21.64.82.97 1.77.97 2.88zm0 0"/></symbol><symbol overflow="visible" id="P"><path d="M.15-6.17v-1.42H1.2v-2.14H3.2v2.14h1.25v1.42H3.2v4.05c0 .32.04.51.12.6.08.07.32.1.73.1h.4V.06L3.5.11c-.95.03-1.6-.14-1.95-.5-.22-.23-.34-.58-.34-1.06v-4.72zm0 0"/></symbol><clipPath id="a"><path d="M68 59.04h2v227.52h-2zm0 0"/></clipPath><clipPath id="b"><path d="M118 59.04h2v227.52h-2zm0 0"/></clipPath><clipPath id="c"><path d="M168 59.04h2v227.52h-2zm0 0"/></clipPath><clipPath id="d"><path d="M219 59.04h1v227.52h-1zm0 0"/></clipPath><clipPath id="e"><path d="M269 59.04h1v227.52h-1zm0 0"/></clipPath><clipPath id="f"><path d="M319 59.04h2v227.52h-2zm0 0"/></clipPath><clipPath id="g"><path d="M59.04 277h270.72v2H59.04zm0 0"/></clipPath><clipPath id="h"><path d="M59.04 235h270.72v2H59.04zm0 0"/></clipPath><clipPath id="i"><path d="M59.04 193h270.72v2H59.04zm0 0"/></clipPath><clipPath id="j"><path d="M59.04 151h270.72v2H59.04zm0 0"/></clipPath><clipPath id="k"><path d="M59.04 109h270.72v1H59.04zm0 0"/></clipPath><clipPath id="l"><path d="M59.04 67h270.72v1H59.04zm0 0"/></clipPath></defs><path fill="#fff" d="M0 0h360v360H0z"/><g clip-path="url(#a)"><path d="M69.07 286.56V59.04" fill="none" stroke-width=".75" stroke-linecap="round" stroke-linejoin="round" stroke="#d3d3d3" stroke-dasharray=".75 2.25" stroke-miterlimit="10"/></g><g clip-path="url(#b)"><path d="M119.2 286.56V59.04" fill="none" stroke-width=".75" stroke-linecap="round" stroke-linejoin="round" stroke="#d3d3d3" stroke-dasharray=".75 2.25" stroke-miterlimit="10"/></g><g clip-path="url(#c)"><path d="M169.33 286.56V59.04" fill="none" stroke-width=".75" stroke-linecap="round" stroke-linejoin="round" stroke="#d3d3d3" stroke-dasharray=".75 2.25" stroke-miterlimit="10"/></g><g clip-path="url(#d)"><path d="M219.46 286.56V59.04" fill="none" stroke-width=".75" stroke-linecap="round" stroke-linejoin="round" stroke="#d3d3d3" stroke-dasharray=".75 2.25" stroke-miterlimit="10"/></g><g clip-path="url(#e)"><path d="M269.6 286.56V59.04" fill="none" stroke-width=".75" stroke-linecap="round" stroke-linejoin="round" stroke="#d3d3d3" stroke-dasharray=".75 2.25" stroke-miterlimit="10"/></g><g clip-path="url(#f)"><path d="M319.73 286.56V59.04" fill="none" stroke-width=".75" stroke-linecap="round" stroke-linejoin="round" stroke="#d3d3d3" stroke-dasharray=".75 2.25" stroke-miterlimit="10"/></g><g clip-path="url(#g)"><path d="M59.04 278.13h270.72" fill="none" stroke-width=".75" stroke-linecap="round" stroke-linejoin="round" stroke="#d3d3d3" stroke-dasharray=".75 2.25" stroke-miterlimit="10"/></g><g clip-path="url(#h)"><path d="M59.04 236h270.72" fill="none" stroke-width=".75" stroke-linecap="round" stroke-linejoin="round" stroke="#d3d3d3" stroke-dasharray=".75 2.25" stroke-miterlimit="10"/></g><g clip-path="url(#i)"><path d="M59.04 193.87h270.72" fill="none" stroke-width=".75" stroke-linecap="round" stroke-linejoin="round" stroke="#d3d3d3" stroke-dasharray=".75 2.25" stroke-miterlimit="10"/></g><g clip-path="url(#j)"><path d="M59.04 151.73h270.72" fill="none" stroke-width=".75" stroke-linecap="round" stroke-linejoin="round" stroke="#d3d3d3" stroke-dasharray=".75 2.25" stroke-miterlimit="10"/></g><g clip-path="url(#k)"><path d="M59.04 109.6h270.72" fill="none" stroke-width=".75" stroke-linecap="round" stroke-linejoin="round" stroke="#d3d3d3" stroke-dasharray=".75 2.25" stroke-miterlimit="10"/></g><g clip-path="url(#l)"><path d="M59.04 67.46h270.72" fill="none" stroke-width=".75" stroke-linecap="round" stroke-linejoin="round" stroke="#d3d3d3" stroke-dasharray=".75 2.25" stroke-miterlimit="10"/></g><path d="M71.77 278.13c0 3.6-5.4 3.6-5.4 0s5.4-3.6 5.4 0M96.83 257.07c0 3.6-5.4 3.6-5.4 0s5.4-3.6 5.4 0M121.9 236c0 3.6-5.4 3.6-5.4 0s5.4-3.6 5.4 0M146.96 214.93c0 3.6-5.4 3.6-5.4 0s5.4-3.6 5.4 0M172.04 193.87c0 3.6-5.4 3.6-5.4 0s5.4-3.6 5.4 0M197.1 172.8c0 3.6-5.4 3.6-5.4 0s5.4-3.6 5.4 0M222.17 151.73c0 3.6-5.4 3.6-5.4 0s5.4-3.6 5.4 0M247.23 130.67c0 3.6-5.4 3.6-5.4 0s5.4-3.6 5.4 0M272.3 109.6c0 3.6-5.4 3.6-5.4 0s5.4-3.6 5.4 0M297.37 88.54c0 3.6-5.4 3.6-5.4 0s5.4-3.6 5.4 0M322.43 67.46c0 3.6-5.4 3.6-5.4 0s5.4-3.6 5.4 0" fill="none" stroke-width=".75" stroke-linecap="round" stroke-linejoin="round" stroke="#000" stroke-miterlimit="10"/><use xlink:href="#m" x="65.57" y="311.72"/><use xlink:href="#n" x="115.7" y="311.72"/><use xlink:href="#o" x="165.83" y="311.72"/><use xlink:href="#p" x="215.96" y="311.72"/><use xlink:href="#q" x="266.1" y="311.72"/><use xlink:href="#r" x="312.73" y="311.72"/><use xlink:href="#m" x="319.41" y="311.72"/><use xlink:href="#s" x="41" y="281.63"/><use xlink:href="#t" x="41" y="239.5"/><use xlink:href="#u" x="41" y="197.37"/><use xlink:href="#v" x="41" y="155.23"/><use xlink:href="#w" x="41" y="113.1"/><use xlink:href="#x" x="41" y="74.46"/><use xlink:href="#s" x="41" y="67.79"/><g fill="#cd0000"><use xlink:href="#y" x="178.4" y="340.52"/><use xlink:href="#z" x="184.4" y="340.52"/><use xlink:href="#A" x="188.39" y="340.52"/><use xlink:href="#y" x="195.07" y="340.52"/><use xlink:href="#B" x="201.07" y="340.52"/><use xlink:href="#C" x="203.73" y="340.52"/></g><g fill="#cd0000"><use xlink:href="#D" x="12.2" y="188.8"/><use xlink:href="#E" x="12.2" y="182.8"/><use xlink:href="#F" x="12.2" y="178.8"/><use xlink:href="#G" x="12.2" y="172.13"/><use xlink:href="#H" x="12.2" y="166.13"/><use xlink:href="#I" x="12.2" y="163.46"/></g><g fill="#cd0000"><use xlink:href="#J" x="59.04" y="34.11"/><use xlink:href="#K" x="71.84" y="34.11"/><use xlink:href="#L" x="79.85" y="34.11"/><use xlink:href="#M" x="83.85" y="34.11"/><use xlink:href="#N" x="92.65" y="34.11"/><use xlink:href="#O" x="96.65" y="34.11"/><use xlink:href="#P" x="105.44" y="34.11"/></g></svg>