<svg xmlns="http://www.w3.org/2000/svg" xmlns:xlink="http://www.w3.org/1999/xlink" width="480" height="480" viewBox="0 0 360 360"><defs><symbol overflow="visible" id="a"><path d="M3.25-8.4c1.08 0 1.87.45 2.35 1.35a6 6 0 01.56 2.84c0 1.14-.17 2.08-.5 2.83C5.16-.3 4.36.23 3.24.23c-1 0-1.76-.43-2.25-1.3a6 6 0 01-.61-2.94c0-.96.12-1.78.36-2.46.46-1.27 1.3-1.91 2.5-1.91zM3.23-.72c.55 0 .99-.25 1.3-.73.33-.49.5-1.38.5-2.7 0-.96-.12-1.74-.35-2.36-.24-.61-.7-.92-1.37-.92-.62 0-1.08.3-1.36.87a6.02 6.02 0 00-.43 2.59c0 .85.09 1.54.27 2.06.28.8.76 1.19 1.44 1.19zm0 0"/></symbol><symbol overflow="visible" id="b"><path d="M.38 0C.4-.72.55-1.35.81-1.89c.26-.53.77-1.02 1.52-1.45L3.47-4c.5-.29.86-.54 1.06-.75.32-.32.48-.7.48-1.1 0-.5-.15-.88-.44-1.17a1.6 1.6 0 00-1.17-.43c-.72 0-1.22.27-1.5.82-.15.29-.23.7-.25 1.22H.58c.01-.73.15-1.33.4-1.8.46-.8 1.27-1.21 2.43-1.21.96 0 1.66.26 2.1.78.44.52.67 1.1.67 1.73 0 .68-.24 1.25-.71 1.73-.27.27-.77.61-1.47 1l-.8.45c-.39.21-.7.41-.91.6-.4.34-.63.72-.74 1.13h4.58v1zm0 0"/></symbol><symbol overflow="visible" id="c"><path d="M3.97-2.97v-3.8l-2.7 3.8zM3.98 0v-2.05H.3v-1.03l3.85-5.33h.89v5.44h1.23v.92H5.04V0zm0 0"/></symbol><symbol overflow="visible" id="d"><path d="M3.5-8.43c.95 0 1.6.25 1.97.73.37.49.55.99.55 1.5H4.98a1.86 1.86 0 00-.3-.77c-.25-.35-.64-.53-1.15-.53a1.6 1.6 0 00-1.4.82 4.71 4.71 0 00-.6 2.34 2.32 2.32 0 012.05-1.04c.7 0 1.32.23 1.84.68.53.45.78 1.12.78 2.01 0 .76-.24 1.44-.74 2.03-.5.58-1.2.88-2.12.88-.79 0-1.46-.3-2.04-.9-.57-.6-.85-1.6-.85-3 0-1.05.13-1.93.38-2.66.49-1.39 1.38-2.09 2.68-2.09zM3.44-.72c.56 0 .97-.19 1.25-.56a2.25 2.25 0 00.04-2.55c-.24-.39-.69-.58-1.34-.58-.45 0-.85.15-1.2.45-.33.3-.5.75-.5 1.36a2 2 0 00.46 1.34c.31.36.74.54 1.3.54zm0 0"/></symbol><symbol overflow="visible" id="e"><path d="M3.27-4.88c.46 0 .82-.12 1.08-.39a1.22 1.22 0 00.02-1.79c-.25-.26-.63-.39-1.14-.39-.51 0-.88.13-1.1.4-.23.26-.34.57-.34.92 0 .4.14.7.44.92.29.22.64.33 1.04.33zm.06 4.16c.49 0 .9-.13 1.21-.4.33-.26.49-.65.49-1.18 0-.54-.17-.95-.5-1.23a1.91 1.91 0 00-1.28-.42c-.5 0-.91.14-1.23.43-.32.28-.48.68-.48 1.19 0 .44.15.81.44 1.13.29.32.74.48 1.35.48zm-1.5-3.75c-.3-.12-.53-.27-.69-.44-.3-.31-.46-.72-.46-1.22 0-.62.23-1.16.68-1.61.45-.45 1.1-.67 1.93-.67.8 0 1.43.2 1.89.63.46.42.69.92.69 1.49 0 .52-.14.95-.4 1.27-.15.18-.38.36-.7.54.35.16.63.34.82.55.37.4.56.9.56 1.52 0 .74-.24 1.37-.74 1.88-.5.51-1.2.77-2.1.77-.82 0-1.51-.22-2.08-.67C.67-.87.4-1.5.4-2.36c0-.5.12-.92.36-1.28s.6-.64 1.08-.83zm0 0"/></symbol><symbol overflow="visible" id="f"><path d="M1.15-5.94v-.81c.76-.07 1.3-.2 1.6-.37.3-.18.52-.59.66-1.24h.84V0H3.12v-5.94zm0 0"/></symbol><symbol overflow="visible" id="t"><path d="M.18-6.27h1.36l1.44 2.2 1.46-2.2 1.29.02L3.6-3.22 5.82 0H4.47L2.9-2.36 1.4 0H.06l2.21-3.22zm0 0"/></symbol><symbol overflow="visible" id="u"><path d="M.5-3.88h2.94v1.08H.5zm0 0"/></symbol><symbol overflow="visible" id="v"><path d="M1.58-1.67c0 .3.12.54.33.72.23.18.5.26.8.26.37 0 .73-.08 1.08-.26.58-.28.87-.75.87-1.4v-.85c-.12.09-.3.16-.5.21-.2.06-.4.1-.59.12l-.64.08a2.4 2.4 0 00-.86.24.94.94 0 00-.49.88zM4.14-3.8c.24-.04.4-.14.49-.3.04-.1.07-.24.07-.41 0-.36-.13-.62-.4-.78a2.03 2.03 0 00-1.09-.25c-.55 0-.94.15-1.17.45-.13.16-.21.4-.25.73H.8c.02-.77.27-1.31.75-1.61.49-.3 1.05-.46 1.68-.46.74 0 1.34.14 1.8.42.46.28.69.72.69 1.31v3.62c0 .11.02.2.07.27.04.06.14.1.28.1l.16-.01.18-.03v.78c-.16.05-.29.08-.37.09l-.35.01c-.37 0-.63-.12-.8-.38a1.44 1.44 0 01-.17-.58c-.22.28-.52.53-.93.73-.4.2-.84.31-1.33.31-.58 0-1.06-.17-1.42-.53-.38-.35-.56-.8-.56-1.33 0-.58.18-1.03.54-1.35.37-.32.85-.52 1.43-.6zm0 0"/></symbol><symbol overflow="visible" id="w"><path d="M.77-6.25h1.07V0H.77zm0-2.36h1.07v1.2H.77zm0 0"/></symbol><symbol overflow="visible" id="x"><path d="M1.4-1.97c.03.35.12.62.26.81.27.34.73.51 1.39.51.39 0 .73-.08 1.03-.26.3-.16.44-.43.44-.79a.67.67 0 00-.36-.6 4.49 4.49 0 00-.9-.3l-.83-.22a4.09 4.09 0 01-1.19-.45 1.33 1.33 0 01-.68-1.18c0-.59.22-1.07.64-1.44.43-.37 1-.55 1.73-.55.94 0 1.62.28 2.05.83.26.35.38.74.38 1.14h-1c-.02-.24-.1-.46-.25-.65-.24-.28-.66-.42-1.26-.42-.4 0-.7.08-.9.23-.21.15-.32.36-.32.6 0 .28.14.5.4.66.17.1.4.18.7.26l.7.17c.76.18 1.27.36 1.52.53.41.27.62.7.62 1.27 0 .56-.21 1.05-.64 1.45-.42.4-1.07.61-1.94.61-.93 0-1.6-.21-1.98-.63A2.4 2.4 0 01.4-1.97zm0 0"/></symbol><symbol overflow="visible" id="g"><path d="M-8.4-3.25c0-1.08.45-1.87 1.35-2.35a6 6 0 012.84-.56c1.14 0 2.09.17 2.83.5C-.3-5.16.24-4.36.24-3.24c0 1-.44 1.76-1.32 2.25a6 6 0 01-2.93.61c-.96 0-1.78-.12-2.46-.37-1.27-.46-1.91-1.29-1.91-2.5zm7.67.02c0-.55-.24-.99-.73-1.3-.48-.33-1.38-.5-2.7-.5-.96 0-1.74.12-2.36.35-.61.24-.92.7-.92 1.37 0 .62.3 1.08.87 1.36.59.29 1.45.43 2.59.43.85 0 1.54-.09 2.06-.27.8-.28 1.19-.76 1.19-1.44zm0 0"/></symbol><symbol overflow="visible" id="h"><path d="M0-.38a4.86 4.86 0 01-1.89-.44 3.61 3.61 0 01-1.45-1.52L-4-3.47c-.29-.5-.54-.86-.75-1.06-.32-.32-.7-.48-1.1-.48-.5 0-.88.15-1.17.44-.29.3-.43.68-.43 1.17 0 .72.27 1.22.82 1.5.29.15.7.23 1.22.25v1.07a3.78 3.78 0 01-1.8-.4c-.8-.46-1.21-1.27-1.21-2.43 0-.96.26-1.66.78-2.1.52-.44 1.1-.67 1.73-.67.68 0 1.25.24 1.73.71.27.27.61.77 1 1.47l.45.8c.21.39.41.7.6.91.34.4.72.63 1.13.74v-4.58h1zm0 0"/></symbol><symbol overflow="visible" id="i"><path d="M-2.97-3.97h-3.8l3.8 2.7zM0-3.98h-2.05V-.3h-1.03l-5.33-3.85v-.89h5.44v-1.23h.92v1.23H0zm0 0"/></symbol><symbol overflow="visible" id="j"><path d="M-8.43-3.51c0-.94.25-1.6.73-1.96.49-.37.99-.55 1.5-.55v1.04c-.33.06-.59.16-.77.3-.35.25-.53.64-.53 1.15 0 .6.27 1.06.82 1.4.54.36 1.32.55 2.34.59a2.32 2.32 0 01-1.04-2.04c0-.7.23-1.32.68-1.84.45-.53 1.12-.78 2.01-.78.76 0 1.44.24 2.03.74.58.5.88 1.2.88 2.12 0 .79-.3 1.46-.9 2.04-.6.57-1.6.85-3 .85a8.09 8.09 0 01-2.66-.38c-1.39-.49-2.09-1.38-2.09-2.68zm7.71.08c0-.56-.19-.97-.56-1.25a2.25 2.25 0 00-2.55-.04c-.39.24-.58.69-.58 1.34 0 .45.15.85.45 1.2.3.33.75.5 1.36.5a2 2 0 001.34-.46c.36-.31.54-.74.54-1.3zm0 0"/></symbol><symbol overflow="visible" id="k"><path d="M-4.88-3.27c0-.46-.12-.82-.39-1.08a1.22 1.22 0 00-1.79-.02c-.26.25-.39.63-.39 1.14 0 .5.13.87.4 1.1.26.23.57.34.92.34.4 0 .7-.14.92-.44.22-.29.33-.64.33-1.04zm4.16-.06c0-.49-.13-.9-.4-1.21-.26-.33-.65-.49-1.18-.49-.54 0-.95.17-1.23.5a1.9 1.9 0 00-.42 1.28c0 .5.14.91.43 1.23.28.32.68.48 1.19.48.44 0 .81-.15 1.13-.44.32-.29.48-.74.48-1.35zm-3.75 1.5c-.12.3-.27.52-.44.69-.31.3-.72.46-1.22.46a2.2 2.2 0 01-1.61-.68c-.45-.45-.67-1.1-.67-1.93 0-.8.2-1.43.63-1.89.42-.46.92-.69 1.49-.69.52 0 .95.14 1.27.4.18.15.36.38.54.7.16-.35.34-.63.55-.82.4-.37.9-.56 1.52-.56.74 0 1.37.24 1.88.74.51.5.77 1.2.77 2.1 0 .82-.22 1.51-.67 2.08-.44.56-1.08.84-1.93.84-.5 0-.92-.12-1.28-.36s-.64-.6-.83-1.08zm0 0"/></symbol><symbol overflow="visible" id="l"><path d="M-5.94-1.15h-.81c-.07-.76-.2-1.3-.37-1.6-.18-.3-.59-.52-1.24-.67v-.83H0v1.13h-5.94zm0 0"/></symbol><symbol overflow="visible" id="y"><path d="M-6.27-4.7v-1.16l2.75 1 2.64.95c1.6.61 2.58 1.04 2.93 1.3.35.24.52.67.52 1.28a2.53 2.53 0 01-.08.64h-.96a4.9 4.9 0 00.11-.61c0-.2-.03-.34-.1-.44a.88.88 0 00-.23-.23l-.48-.21-.65-.27-6.45 2.33v-1.2L-1.17-3zm0 0"/></symbol><symbol overflow="visible" id="z"><path d="M-3.88-.5v-2.94h1.08V-.5zm0 0"/></symbol><symbol overflow="visible" id="A"><path d="M-1.67-1.58c.3 0 .54-.12.72-.33.18-.23.27-.5.27-.8 0-.37-.09-.73-.26-1.08a1.45 1.45 0 00-1.4-.87h-.85c.08.12.15.3.2.5.06.2.1.4.12.59l.08.64c.05.38.13.67.24.86.19.32.48.49.88.49zM-3.8-4.14c-.03-.24-.14-.4-.3-.49a.92.92 0 00-.41-.07c-.36 0-.62.13-.78.4-.17.25-.25.61-.25 1.09 0 .55.15.94.45 1.17.16.13.4.21.73.25v.99c-.77-.02-1.31-.27-1.61-.75a3.08 3.08 0 01-.46-1.68c0-.74.14-1.34.42-1.8.28-.46.72-.69 1.31-.69h3.62c.11 0 .2-.02.27-.07.06-.04.1-.14.1-.28l-.01-.16-.03-.18h.78c.05.16.08.29.09.37l.02.35c0 .37-.13.63-.39.8-.14.08-.33.14-.58.17.28.22.53.52.73.93.2.4.31.84.31 1.33 0 .58-.17 1.06-.53 1.42-.35.38-.8.56-1.33.56A1.7 1.7 0 01-3-1.03a2.62 2.62 0 01-.6-1.42zm0 0"/></symbol><symbol overflow="visible" id="B"><path d="M-6.27-.18v-1.36l2.2-1.44-2.2-1.46.02-1.29 3.03 2.12L0-5.82v1.35L-2.36-2.9 0-1.4v1.34l-3.22-2.21zm0 0"/></symbol><symbol overflow="visible" id="C"><path d="M-6.25-.77v-1.08H0v1.08zm-2.36 0v-1.08h1.2v1.08zm0 0"/></symbol><symbol overflow="visible" id="D"><path d="M-1.97-1.4c.35-.03.62-.12.81-.26.34-.27.51-.73.51-1.39 0-.39-.08-.73-.26-1.03a.84.84 0 00-.78-.44.67.67 0 00-.62.36c-.08.15-.18.45-.3.9l-.21.83c-.13.54-.28.93-.45 1.19-.28.45-.68.68-1.18.68-.59 0-1.07-.22-1.44-.64-.37-.43-.55-1-.55-1.73 0-.94.28-1.62.83-2.05.35-.26.74-.38 1.14-.38v1c-.24.02-.46.1-.65.25-.28.24-.42.66-.42 1.26 0 .4.08.7.23.9.15.21.36.31.6.31.28 0 .5-.13.66-.4.1-.16.18-.39.26-.69l.17-.7c.18-.76.36-1.27.53-1.52.27-.41.7-.62 1.27-.62.56 0 1.05.21 1.45.64.4.42.61 1.07.61 1.94 0 .93-.21 1.6-.63 1.98-.43.39-.95.6-1.58.62zm0 0"/></symbol><symbol overflow="visible" id="m"><path d="M9.5-7.83c.34 0 .67.06 1 .2a2.27 2.27 0 011.32 1.67c.05.26.07.63.07 1.13V0H9.82v-4.88c0-.29-.05-.53-.14-.72-.18-.35-.5-.53-.99-.53-.55 0-.93.23-1.14.69-.11.24-.16.53-.16.88V0H5.38v-4.56c0-.46-.05-.79-.14-1-.17-.37-.5-.55-1-.55-.56 0-.95.18-1.15.56-.1.2-.16.52-.16.94V0H.9v-7.65h1.95v1.12c.25-.4.48-.68.7-.85.4-.3.9-.45 1.51-.45.59 0 1.06.13 1.42.38.3.24.51.55.66.93.27-.45.59-.78.98-1 .42-.2.87-.31 1.38-.31zm0 0"/></symbol><symbol overflow="visible" id="n"><path d="M1.25 1.47l.25.01c.2.01.38 0 .56-.02.18-.02.33-.07.45-.16.12-.08.22-.25.33-.5.1-.25.14-.4.12-.46l-2.81-8h2.23l1.67 5.65 1.58-5.65h2.13L5.13-.12c-.5 1.45-.9 2.35-1.2 2.7-.3.35-.89.52-1.77.52h-.43l-.48-.03zm0 0"/></symbol><symbol overflow="visible" id="p"><path d="M6.21-3.83a3 3 0 00-.4-1.57c-.27-.46-.7-.68-1.31-.68-.73 0-1.23.34-1.5 1.03a3.9 3.9 0 00-.2 1.4c0 .88.23 1.5.7 1.87.28.21.62.32 1 .32.56 0 .98-.22 1.28-.65.29-.43.43-1 .43-1.72zm-1.13-4a3 3 0 012.27.99c.62.66.93 1.63.93 2.91 0 1.35-.3 2.38-.9 3.09-.61.7-1.4 1.06-2.35 1.06C4.42.22 3.9.07 3.5-.24a2.95 2.95 0 01-.65-.74v4H.88V-7.66H2.8v1.13a2.54 2.54 0 012.28-1.3zm0 0"/></symbol><symbol overflow="visible" id="q"><path d="M2.98 0h-2v-10.36h2zm0 0"/></symbol><symbol overflow="visible" id="r"><path d="M4.38-1.41c.58 0 1.03-.21 1.34-.63.32-.42.48-1.01.48-1.78s-.16-1.36-.48-1.77a1.59 1.59 0 00-1.34-.62c-.6 0-1.04.2-1.36.62-.32.41-.47 1-.47 1.77s.15 1.36.47 1.78c.32.42.77.63 1.35.63zm3.92-2.4c0 1.12-.33 2.08-.97 2.88-.65.8-1.63 1.2-2.95 1.2-1.32 0-2.3-.4-2.95-1.2a4.46 4.46 0 01-.97-2.89c0-1.1.33-2.06.97-2.88.65-.8 1.63-1.21 2.95-1.21 1.32 0 2.3.4 2.95 1.21.64.82.97 1.77.97 2.88zm0 0"/></symbol><symbol overflow="visible" id="s"><path d="M.15-6.17v-1.42H1.2v-2.14H3.2v2.14h1.25v1.42H3.2v4.05c0 .32.04.51.12.6.08.07.32.1.73.1h.4V.06L3.5.11c-.95.03-1.6-.14-1.95-.5-.22-.23-.34-.58-.34-1.06v-4.72zm0 0"/></symbol></defs><path fill="#fff" d="M0 0h360v360H0z"/><path d="M71.77 278.13c0 3.6-5.4 3.6-5.4 0s5.4-3.6 5.4 0M96.83 257.07c0 3.6-5.4 3.6-5.4 0s5.4-3.6 5.4 0M121.9 236c0 3.6-5.4 3.6-5.4 0s5.4-3.6 5.4 0M146.96 214.93c0 3.6-5.4 3.6-5.4 0s5.4-3.6 5.4 0M172.04 193.87c0 3.6-5.4 3.6-5.4 0s5.4-3.6 5.4 0M197.1 172.8c0 3.6-5.4 3.6-5.4 0s5.4-3.6 5.4 0M222.17 151.73c0 3.6-5.4 3.6-5.4 0s5.4-3.6 5.4 0M247.23 130.67c0 3.6-5.4 3.6-5.4 0s5.4-3.6 5.4 0M272.3 109.6c0 3.6-5.4 3.6-5.4 0s5.4-3.6 5.4 0M297.37 88.54c0 3.6-5.4 3.6-5.4 0s5.4-3.6 5.4 0M322.43 67.46c0 3.6-5.4 3.6-5.4 0s5.4-3.6 5.4 0M69.07 286.56h250.66M69.07 286.56v7.2M119.2 286.56v7.2M169.33 286.56v7.2M219.46 286.56v7.2M269.6 286.56v7.2M319.73 286.56v7.2" fill="none" stroke-width=".75" stroke-linecap="round" stroke-linejoin="round" stroke="#000" stroke-miterlimit="10"/><use xlink:href="#a" x="65.57" y="311.72"/><use xlink:href="#b" x="115.7" y="311.72"/><use xlink:href="#c" x="165.83" y="311.72"/><use xlink:href="#d" x="215.96" y="311.72"/><use xlink:href="#e" x="266.1" y="311.72"/><use xlink:href="#f" x="312.73" y="311.72"/><use xlink:href="#a" x="319.41" y="311.72"/><path d="M59.04 278.13V67.46M59.04 278.13h-7.2M59.04 236h-7.2M59.04 193.87h-7.2M59.04 151.73h-7.2M59.04 109.6h-7.2M59.04 67.46h-7.2" fill="none" stroke-width=".75" stroke-linecap="round" stroke-linejoin="round" stroke="#000" stroke-miterlimit="10"/><use xlink:href="#g" x="41" y="281.63"/><use xlink:href="#h" x="41" y="239.5"/><use xlink:href="#i" x="41" y="197.37"/><use xlink:href="#j" x="41" y="155.23"/><use xlink:href="#k" x="41" y="113.1"/><use xlink:href="#l" x="41" y="74.46"/><use xlink:href="#g" x="41" y="67.79"/><path d="M59.04 286.56h270.72V59.04H59.04v227.52" fill="none" stroke-width=".75" stroke-linecap="round" stroke-linejoin="round" stroke="#000" stroke-miterlimit="10"/><use xlink:href="#m" x="168.4" y="34.11"/><use xlink:href="#n" x="181.2" y="34.11"/><use xlink:href="#o" x="189.21" y="34.11"/><use xlink:href="#p" x="193.21" y="34.11"/><use xlink:href="#q" x="202.01" y="34.11"/><use xlink:href="#r" x="206.01" y="34.11"/><use xlink:href="#s" x="214.8" y="34.11"/><g><use xlink:href="#t" x="178.4" y="340.52"/><use xlink:href="#u" x="184.4" y="340.52"/><use xlink:href="#v" x="188.39" y="340.52"/><use xlink:href="#t" x="195.07" y="340.52"/><use xlink:href="#w" x="201.07" y="340.52"/><use xlink:href="#x" x="203.73" y="340.52"/></g><g><use xlink:href="#y" x="12.2" y="188.8"/><use xlink:href="#z" x="12.2" y="182.8"/><use xlink:href="#A" x="12.2" y="178.8"/><use xlink:href="#B" x="12.2" y="172.13"/><use xlink:href="#C" x="12.2" y="166.13"/><use xlink:href="#D" x="12.2" y="163.46"/></g></svg>