<svg xmlns="http://www.w3.org/2000/svg" xmlns:xlink="http://www.w3.org/1999/xlink" width="480" height="480" viewBox="0 0 360 360"><defs><symbol overflow="visible" id="a"><path d="M1.15-5.94v-.81c.76-.07 1.3-.2 1.6-.37.3-.18.52-.59.66-1.24h.84V0H3.12v-5.94zm0 0"/></symbol><symbol overflow="visible" id="c"><path d="M3.12.23C2.12.23 1.4-.04.96-.6a3.04 3.04 0 01-.67-1.99h1.1c.05.54.15.94.3 1.19.28.44.77.66 1.49.66.55 0 1-.15 1.33-.45.34-.3.5-.68.5-1.15 0-.58-.17-.98-.53-1.2a2.68 2.68 0 00-1.47-.35h-.43v-.92a5.58 5.58 0 00.51.03c.4 0 .72-.07.98-.2.44-.21.66-.6.66-1.16 0-.42-.14-.75-.44-.97-.3-.23-.64-.34-1.04-.34-.7 0-1.19.23-1.46.7-.15.26-.23.63-.25 1.1H.5c0-.62.13-1.15.38-1.59.42-.78 1.18-1.17 2.26-1.17.86 0 1.52.19 1.98.57.47.38.7.93.7 1.65 0 .52-.13.94-.4 1.26-.18.2-.4.35-.67.47.44.12.78.35 1.03.7.25.34.37.77.37 1.27 0 .8-.26 1.45-.8 1.95-.52.5-1.26.76-2.23.76zm0 0"/></symbol><symbol overflow="visible" id="b"><path d="M0-.38a4.86 4.86 0 01-1.89-.44 3.61 3.61 0 01-1.45-1.52L-4-3.47c-.29-.5-.54-.86-.75-1.06-.32-.32-.7-.48-1.1-.48-.5 0-.88.15-1.17.44-.29.3-.43.68-.43 1.17 0 .72.27 1.22.82 1.5.29.15.7.23 1.22.25v1.07a3.78 3.78 0 01-1.8-.4c-.8-.46-1.21-1.27-1.21-2.43 0-.96.26-1.66.78-2.1.52-.44 1.1-.67 1.73-.67.68 0 1.25.24 1.73.71.27.27.61.77 1 1.47l.45.8c.21.39.41.7.6.91.34.4.72.63 1.13.74v-4.58h1zm0 0"/></symbol><symbol overflow="visible" id="d"><path d="M-2.97-3.97h-3.8l3.8 2.7zM0-3.98h-2.05V-.3h-1.03l-5.33-3.85v-.89h5.44v-1.23h.92v1.23H0zm0 0"/></symbol></defs><path fill="#fff" d="M0 0h360v360H0z"/><path d="M59.04 286.56h270.72V59.04H59.04v227.52" fill="none" stroke-width=".75" stroke-linecap="round" stroke-linejoin="round" stroke="#000" stroke-miterlimit="10"/><use xlink:href="#a" x="190.9" y="297.32" fill="#cd0000"/><use xlink:href="#b" x="55.4" y="176.3" fill="#cd0000"/><use xlink:href="#c" x="190.9" y="55.4" fill="#cd0000"/><use xlink:href="#d" x="340.52" y="176.3" fill="#cd0000"/></svg>