<svg xmlns="http://www.w3.org/2000/svg" xmlns:xlink="http://www.w3.org/1999/xlink" width="768" height="576" viewBox="0 0 576 432"><defs><symbol overflow="visible" id="g"><path d="M1.15-5.94v-.81c.76-.07 1.3-.2 1.6-.37.3-.18.52-.59.66-1.24h.84V0H3.12v-5.94zm0 0"/></symbol><symbol overflow="visible" id="h"><path d="M3.25-8.4c1.08 0 1.87.45 2.35 1.35a6 6 0 01.56 2.84c0 1.14-.17 2.08-.5 2.83C5.16-.3 4.36.23 3.24.23c-1 0-1.76-.43-2.25-1.3a6 6 0 01-.61-2.94c0-.96.12-1.78.36-2.46.46-1.27 1.3-1.91 2.5-1.91zM3.23-.72c.55 0 .99-.25 1.3-.73.33-.49.5-1.38.5-2.7 0-.96-.12-1.74-.35-2.36-.24-.61-.7-.92-1.37-.92-.62 0-1.08.3-1.36.87a6.02 6.02 0 00-.43 2.59c0 .85.09 1.54.27 2.06.28.8.76 1.19 1.44 1.19zm0 0"/></symbol><symbol overflow="visible" id="i"><path d="M.38 0C.4-.72.55-1.35.81-1.89c.26-.53.77-1.02 1.52-1.45L3.47-4c.5-.29.86-.54 1.06-.75.32-.32.48-.7.48-1.1 0-.5-.15-.88-.44-1.17a1.6 1.6 0 00-1.17-.43c-.72 0-1.22.27-1.5.82-.15.29-.23.7-.25 1.22H.58c.01-.73.15-1.33.4-1.8.46-.8 1.27-1.21 2.43-1.21.96 0 1.66.26 2.1.78.44.52.67 1.1.67 1.73 0 .68-.24 1.25-.71 1.73-.27.27-.77.61-1.47 1l-.8.45c-.39.21-.7.41-.91.6-.4.34-.63.72-.74 1.13h4.58v1zm0 0"/></symbol><symbol overflow="visible" id="j"><path d="M3.12.23C2.12.23 1.4-.04.96-.6a3.04 3.04 0 01-.67-1.99h1.1c.05.54.15.94.3 1.19.28.44.77.66 1.49.66.55 0 1-.15 1.33-.45.34-.3.5-.68.5-1.15 0-.58-.17-.98-.53-1.2a2.68 2.68 0 00-1.47-.35h-.43v-.92a5.58 5.58 0 00.51.03c.4 0 .72-.07.98-.2.44-.21.66-.6.66-1.16 0-.42-.14-.75-.44-.97-.3-.23-.64-.34-1.04-.34-.7 0-1.19.23-1.46.7-.15.26-.23.63-.25 1.1H.5c0-.62.13-1.15.38-1.59.42-.78 1.18-1.17 2.26-1.17.86 0 1.52.19 1.98.57.47.38.7.93.7 1.65 0 .52-.13.94-.4 1.26-.18.2-.4.35-.67.47.44.12.78.35 1.03.7.25.34.37.77.37 1.27 0 .8-.26 1.45-.8 1.95-.52.5-1.26.76-2.23.76zm0 0"/></symbol><symbol overflow="visible" id="k"><path d="M3.97-2.97v-3.8l-2.7 3.8zM3.98 0v-2.05H.3v-1.03l3.85-5.33h.89v5.44h1.23v.92H5.04V0zm0 0"/></symbol><symbol overflow="visible" id="l"><path d="M1.48-2.14c.07.6.35 1.02.84 1.25.25.12.54.18.87.18.62 0 1.08-.2 1.39-.6.3-.4.45-.84.45-1.33 0-.58-.18-1.04-.54-1.36a1.87 1.87 0 00-1.29-.48c-.36 0-.67.07-.93.21-.26.14-.48.34-.66.59l-.92-.05.64-4.52h4.36v1.02H2.12L1.77-4.9c.2-.15.37-.26.55-.33.31-.13.67-.2 1.09-.2.77 0 1.42.25 1.95.75s.8 1.13.8 1.88c0 .8-.24 1.5-.73 2.1-.5.61-1.27.91-2.35.91C2.4.21 1.8.02 1.27-.37.74-.75.45-1.34.39-2.14zm0 0"/></symbol><symbol overflow="visible" id="m"><path d="M3.2-6.46c.7 0 1.28.17 1.72.52.44.34.7.93.8 1.78H4.7a1.9 1.9 0 00-.43-.97c-.23-.26-.58-.39-1.07-.39-.68 0-1.16.33-1.45.99-.19.42-.28.95-.28 1.58 0 .63.13 1.15.4 1.58.26.43.68.65 1.25.65.44 0 .79-.14 1.04-.4.26-.27.43-.64.54-1.1h1.02c-.12.83-.41 1.44-.88 1.83-.47.38-1.07.57-1.8.57a2.4 2.4 0 01-1.96-.9 3.44 3.44 0 01-.74-2.24c0-1.1.27-1.96.8-2.58a2.6 2.6 0 012.06-.92zm0 0"/></symbol><symbol overflow="visible" id="n"><path d="M1.58-1.67c0 .3.12.54.33.72.23.18.5.26.8.26.37 0 .73-.08 1.08-.26.58-.28.87-.75.87-1.4v-.85c-.12.09-.3.16-.5.21-.2.06-.4.1-.59.12l-.64.08a2.4 2.4 0 00-.86.24.94.94 0 00-.49.88zM4.14-3.8c.24-.04.4-.14.49-.3.04-.1.07-.24.07-.41 0-.36-.13-.62-.4-.78a2.03 2.03 0 00-1.09-.25c-.55 0-.94.15-1.17.45-.13.16-.21.4-.25.73H.8c.02-.77.27-1.31.75-1.61.49-.3 1.05-.46 1.68-.46.74 0 1.34.14 1.8.42.46.28.69.72.69 1.31v3.62c0 .11.02.2.07.27.04.06.14.1.28.1l.16-.01.18-.03v.78c-.16.05-.29.08-.37.09l-.35.01c-.37 0-.63-.12-.8-.38a1.44 1.44 0 01-.17-.58c-.22.28-.52.53-.93.73-.4.2-.84.31-1.33.31-.58 0-1.06-.17-1.42-.53-.38-.35-.56-.8-.56-1.33 0-.58.18-1.03.54-1.35.37-.32.85-.52 1.43-.6zm0 0"/></symbol><symbol overflow="visible" id="o"><path d="M1.4-1.97c.03.35.12.62.26.81.27.34.73.51 1.39.51.39 0 .73-.08 1.03-.26.3-.16.44-.43.44-.79a.67.67 0 00-.36-.6 4.49 4.49 0 00-.9-.3l-.83-.22a4.09 4.09 0 01-1.19-.45 1.33 1.33 0 01-.68-1.18c0-.59.22-1.07.64-1.44.43-.37 1-.55 1.73-.55.94 0 1.62.28 2.05.83.26.35.38.74.38 1.14h-1c-.02-.24-.1-.46-.25-.65-.24-.28-.66-.42-1.26-.42-.4 0-.7.08-.9.23-.21.15-.32.36-.32.6 0 .28.14.5.4.66.17.1.4.18.7.26l.7.17c.76.18 1.27.36 1.52.53.41.27.62.7.62 1.27 0 .56-.21 1.05-.64 1.45-.42.4-1.07.61-1.94.61-.93 0-1.6-.21-1.98-.63A2.4 2.4 0 01.4-1.97zm0 0"/></symbol><symbol overflow="visible" id="p"><path d="M3.39-6.41A2.82 2.82 0 015.64-5.3c.2.32.35.68.42 1.1.06.3.1.76.1 1.39h-4.6c.01.64.16 1.15.44 1.53.29.39.72.58 1.31.58a1.7 1.7 0 001.72-1.28h1.03A2.76 2.76 0 015.27-.5c-.32.32-.72.53-1.18.64-.26.06-.55.1-.87.1-.78 0-1.44-.3-1.99-.86a3.32 3.32 0 01-.8-2.39c0-1 .27-1.82.81-2.45a2.7 2.7 0 012.15-.94zm1.68 2.77a2.72 2.72 0 00-.3-1.1c-.29-.5-.77-.76-1.45-.76-.48 0-.89.18-1.22.53-.33.35-.5.79-.52 1.33zm0 0"/></symbol><symbol overflow="visible" id="q"><path d="M.77-6.25h1.07V0H.77zm0-2.36h1.07v1.2H.77zm0 0"/></symbol><symbol overflow="visible" id="r"><path d="M.77-6.27h1v.89c.3-.37.62-.64.95-.8.33-.16.7-.23 1.1-.23.9 0 1.5.3 1.81.93.17.34.26.82.26 1.46V0H4.82v-3.95c0-.39-.06-.7-.17-.93-.19-.4-.53-.59-1.03-.59-.25 0-.45.03-.6.08-.3.09-.55.26-.77.51-.18.21-.29.43-.34.65-.05.22-.08.53-.08.94V0H.77zm0 0"/></symbol><symbol overflow="visible" id="s"><path d="M.77-8.64h1.06v3.21c.25-.31.47-.53.67-.66.34-.23.77-.34 1.27-.34.91 0 1.53.32 1.85.96.18.34.27.83.27 1.45V0H4.8v-3.95c0-.46-.05-.8-.17-1.02-.2-.34-.55-.51-1.08-.51-.44 0-.83.14-1.2.45-.35.3-.52.87-.52 1.7V0H.77zm0 0"/></symbol><symbol overflow="visible" id="t"><path d="M3.27-.68c.7 0 1.17-.27 1.43-.8a4 4 0 00.11-3.2c-.3-.57-.81-.86-1.54-.86-.64 0-1.1.25-1.4.74-.3.5-.44 1.09-.44 1.78a3 3 0 00.44 1.67c.29.45.75.67 1.4.67zm.03-5.78c.81 0 1.5.27 2.06.81.55.54.84 1.33.84 2.38 0 1.01-.25 1.85-.75 2.5-.49.67-1.25 1-2.29 1-.86 0-1.54-.3-2.05-.88A3.46 3.46 0 01.34-3c0-1.05.27-1.9.8-2.52a2.7 2.7 0 012.16-.94zm0 0"/></symbol><symbol overflow="visible" id="u"><path d="M.8-6.27h1v1.08c.09-.21.29-.47.6-.77a1.56 1.56 0 011.22-.45l.24.02v1.12a1.63 1.63 0 00-.35-.03c-.53 0-.94.17-1.22.51-.29.34-.43.74-.43 1.18V0H.8zm0 0"/></symbol><symbol overflow="visible" id="v"><path d="M.7-8.64h1.02v3.12c.23-.3.5-.52.82-.68.32-.16.67-.24 1.05-.24.78 0 1.41.27 1.9.8.48.54.73 1.34.73 2.38 0 1-.24 1.82-.72 2.47-.48.66-1.15.99-2 .99-.48 0-.88-.11-1.21-.35-.2-.14-.4-.35-.63-.65V0H.7zm2.73 7.9c.57 0 1-.22 1.28-.67.29-.46.43-1.05.43-1.8 0-.65-.14-1.2-.43-1.63a1.4 1.4 0 00-1.25-.66c-.48 0-.9.18-1.26.54-.36.35-.54.94-.54 1.76 0 .59.07 1.06.22 1.43.28.7.8 1.04 1.55 1.04zm0 0"/></symbol><symbol overflow="visible" id="w"><path d="M.8-8.6h1.06V0H.8zm0 0"/></symbol><symbol overflow="visible" id="x"><path d="M1.44-3.06c0 .67.15 1.23.43 1.69.28.45.74.67 1.37.67.49 0 .89-.2 1.2-.63.32-.42.47-1.02.47-1.8 0-.8-.16-1.39-.48-1.76a1.52 1.52 0 00-1.2-.58c-.53 0-.96.2-1.3.61-.32.4-.49 1-.49 1.8zm1.6-3.33c.47 0 .87.1 1.2.3.18.13.4.33.63.62v-3.17H5.9V0h-.95v-.88c-.25.4-.54.67-.87.84A2.5 2.5 0 012.9.22c-.7 0-1.3-.29-1.82-.88a3.45 3.45 0 01-.76-2.35c0-.91.23-1.7.7-2.37a2.3 2.3 0 012-1zm0 0"/></symbol><symbol overflow="visible" id="y"><path d="M.77-6.27h1.05v.89c.25-.31.47-.54.68-.68.34-.24.74-.35 1.18-.35.5 0 .9.12 1.2.36.18.14.33.35.48.62.23-.33.5-.58.82-.74.32-.17.67-.24 1.07-.24.84 0 1.41.3 1.72.91.16.33.25.77.25 1.32V0h-1.1v-4.36c0-.42-.1-.7-.31-.86a1.25 1.25 0 00-.77-.23c-.41 0-.77.13-1.07.41-.3.28-.45.74-.45 1.4V0H4.45v-4.1c0-.42-.05-.73-.15-.93-.16-.29-.46-.44-.9-.44-.4 0-.76.16-1.08.47-.33.3-.5.86-.5 1.67V0H.78zm0 0"/></symbol><symbol overflow="visible" id="z"><path d="M.98-8.03h1.07v1.76h1v.86h-1v4.09c0 .22.08.37.22.44.09.04.22.07.41.07h.17l.2-.02V0a2.41 2.41 0 01-.8.1c-.5 0-.83-.13-1-.38a1.69 1.69 0 01-.27-.98V-5.4H.13v-.86h.85zm0 0"/></symbol><symbol overflow="visible" id="A"><path d="M4.7-6.27h1.16l-1 2.75-.95 2.64C3.3.72 2.87 1.7 2.6 2.05c-.24.35-.67.52-1.28.52a2.53 2.53 0 01-.64-.08v-.96a4.9 4.9 0 00.61.11c.2 0 .34-.03.44-.1a.9.9 0 00.23-.24l.21-.47.27-.65L.12-6.27h1.2L3-1.17zm0 0"/></symbol><symbol overflow="visible" id="B"><path d="M1.83-6.27v4.16c0 .32.05.58.15.79.19.37.54.56 1.05.56.74 0 1.24-.33 1.5-.99.15-.35.22-.83.22-1.45v-3.07H5.8V0h-1l.02-.93A2.24 2.24 0 012.85.17c-.9 0-1.51-.3-1.83-.9A2.67 2.67 0 01.75-2v-4.26zm0 0"/></symbol><symbol overflow="visible" id="C"><path d="M5.18 0H4.13v-8.6h1.05zm-3.1 0H1.04v-5.41H.16v-.84h.88v-1.1c0-.47.14-.82.43-1.04.28-.23.67-.34 1.15-.34a5.06 5.06 0 01.51.04v.94l-.23-.01h-.14c-.3 0-.5.08-.6.25a.98.98 0 00-.08.49v.77h1.05v.84H2.08zm0 0"/></symbol><symbol overflow="visible" id="D"><path d="M1.26-6.27l1.2 4.94L3.7-6.27h1.19L6.1-1.36l1.28-4.91h1.06L6.62 0h-1.1L4.25-4.86 3.01 0h-1.1L.11-6.27zm0 0"/></symbol><symbol overflow="visible" id="E"><path d="M.65-5.1c0-1.8.48-3.2 1.45-4.18a4.34 4.34 0 013.22-1.28c1.75 0 3.02.57 3.83 1.72.44.64.68 1.28.71 1.93H7.7c-.14-.5-.32-.88-.54-1.13-.4-.44-.98-.67-1.75-.67-.79 0-1.41.32-1.87.95a4.58 4.58 0 00-.68 2.7c0 1.16.24 2.03.72 2.61.48.58 1.1.87 1.83.87.76 0 1.34-.25 1.74-.75.22-.26.4-.67.55-1.2h2.14A4.66 4.66 0 018.41-.77 4.22 4.22 0 015.44.29a4.49 4.49 0 01-3.51-1.43A5.76 5.76 0 01.65-5.1zm0 0"/></symbol><symbol overflow="visible" id="F"><path d="M5.16-7.86c.47 0 .9.08 1.29.25a2.25 2.25 0 011.34 1.63c.05.3.07.8.07 1.48V0H5.82v-4.66c0-.41-.07-.75-.21-1-.19-.36-.54-.54-1.05-.54-.52 0-.93.18-1.2.54-.28.35-.41.86-.41 1.51V0h-2v-10.33h2v3.67c.29-.45.62-.76 1-.94.39-.17.79-.26 1.21-.26zm0 0"/></symbol><symbol overflow="visible" id="G"><path d="M3-8.58H.96v-1.85H3zm-2.04.92H3V0H.96zm0 0"/></symbol><symbol overflow="visible" id="H"><path d="M5.51-4.91a1.79 1.79 0 00-.29-.78c-.22-.3-.57-.46-1.04-.46-.68 0-1.14.33-1.39 1-.13.36-.2.83-.2 1.42 0 .57.07 1.02.2 1.36.24.64.69.96 1.35.96.47 0 .8-.13 1-.38.2-.26.32-.58.36-.99h2.04c-.04.61-.26 1.19-.66 1.73C6.25-.17 5.32.27 4.1.27S1.95-.1 1.37-.83A4.44 4.44 0 01.5-3.68c0-1.31.32-2.34.96-3.07a3.37 3.37 0 012.66-1.1c.96 0 1.75.22 2.36.65.61.43.97 1.2 1.09 2.29zm0 0"/></symbol><symbol overflow="visible" id="I"><path d="M.91-10.33h1.97v5.58l2.5-2.88h2.48L5.18-4.7 7.96 0H5.55L3.7-3.28l-.83.87V0H.91zm0 0"/></symbol><symbol overflow="visible" id="J"><path d="M3.96-6.21c-.47 0-.83.14-1.08.43-.25.3-.42.69-.48 1.18H5.5c-.03-.53-.19-.93-.48-1.2a1.5 1.5 0 00-1.07-.41zm0-1.66c.63 0 1.21.12 1.72.36a3 3 0 011.27 1.13c.3.46.5.99.58 1.58.05.35.07.86.06 1.52H2.35c.02.77.27 1.31.72 1.62.28.2.61.29 1 .29.41 0 .75-.12 1-.35.15-.13.27-.3.38-.53H7.5c-.05.45-.3.92-.71 1.39A3.48 3.48 0 014.03.25a3.9 3.9 0 01-2.58-.94C.7-1.32.33-2.34.33-3.75c0-1.33.34-2.35 1.01-3.05a3.45 3.45 0 012.62-1.07zm0 0"/></symbol><symbol overflow="visible" id="K"><path d="M5.18-7.85c.8 0 1.44.2 1.95.63.5.41.75 1.1.75 2.06V0H5.83v-4.66c0-.4-.06-.71-.16-.93-.2-.4-.58-.59-1.13-.59-.68 0-1.15.29-1.4.86-.13.3-.2.7-.2 1.17V0h-2v-7.65h1.94v1.12c.26-.4.5-.68.73-.85.42-.31.94-.47 1.57-.47zm0 0"/></symbol><symbol overflow="visible" id="M"><path d="M4.55-7.66h2.03l1.17 5.52 1.2-5.52h2.08L8.81 0H6.75l-1.2-5.58L4.33 0H2.25L.1-7.66h2.15l1.2 5.5zm0 0"/></symbol><symbol overflow="visible" id="N"><path d="M4.23-1.64c.47 0 .86-.18 1.18-.54.33-.35.49-.91.49-1.69 0-.72-.15-1.28-.46-1.66A1.5 1.5 0 004.2-6.1c-.7 0-1.18.33-1.45 1-.14.35-.21.78-.21 1.3 0 .44.07.84.22 1.18.28.65.76.98 1.47.98zm-.5-6.2c.38 0 .72.05 1 .17.49.2.88.57 1.18 1.11v-1.1h1.95V-.4a4.1 4.1 0 01-.5 2.23c-.57.87-1.67 1.3-3.29 1.3-.98 0-1.78-.2-2.4-.58A2.12 2.12 0 01.65.84h2.18c.05.23.14.4.27.5.22.19.58.28 1.1.28.71 0 1.2-.25 1.44-.73.16-.3.24-.83.24-1.56v-.49c-.2.33-.4.57-.62.74-.4.3-.92.46-1.55.46C2.72.04 1.93-.31 1.35-1a4.2 4.2 0 01-.89-2.81c0-1.14.29-2.1.86-2.87a2.82 2.82 0 012.4-1.17zm0 0"/></symbol><symbol overflow="visible" id="O"><path d="M.15-6.17v-1.42H1.2v-2.14H3.2v2.14h1.25v1.42H3.2v4.05c0 .32.04.51.12.6.08.07.32.1.73.1h.4V.06L3.5.11c-.95.03-1.6-.14-1.95-.5-.22-.23-.34-.58-.34-1.06v-4.72zm0 0"/></symbol><symbol overflow="visible" id="P"><path d="M2.5-2.45c.04.36.13.61.27.76.25.27.7.4 1.38.4.4 0 .7-.05.94-.17.23-.12.34-.3.34-.53 0-.22-.09-.4-.28-.51-.19-.12-.88-.32-2.08-.6a4.33 4.33 0 01-1.84-.82C.88-4.23.7-4.7.7-5.29c0-.71.27-1.32.83-1.83.56-.5 1.34-.76 2.34-.76.96 0 1.74.19 2.34.57.6.38.95 1.04 1.04 1.98h-2c-.03-.26-.1-.46-.22-.61-.22-.27-.6-.4-1.13-.4-.44 0-.74.06-.93.2-.18.13-.28.29-.28.47 0 .23.1.4.3.5.2.11.9.3 2.09.56.8.18 1.4.47 1.8.85.38.38.58.86.58 1.44 0 .76-.28 1.38-.85 1.86C6.05.02 5.18.26 4 .26 2.8.26 1.9 0 1.32-.5a2.48 2.48 0 01-.86-1.95zm0 0"/></symbol><clipPath id="a"><path d="M59.04 133h486.72v2H59.04zm0 0"/></clipPath><clipPath id="b"><path d="M59.04 176h486.72v2H59.04zm0 0"/></clipPath><clipPath id="c"><path d="M59.04 219h486.72v1H59.04zm0 0"/></clipPath><clipPath id="d"><path d="M59.04 261h486.72v2H59.04zm0 0"/></clipPath><clipPath id="e"><path d="M59.04 304h486.72v2H59.04zm0 0"/></clipPath><clipPath id="f"><path d="M59.04 347h486.72v1H59.04zm0 0"/></clipPath></defs><path fill="#fff" d="M0 0h576v432H0z"/><g clip-path="url(#a)"><path d="M59.04 134.13h486.72" fill="none" stroke-width=".75" stroke-linecap="round" stroke-linejoin="round" stroke="#bebebe" stroke-miterlimit="10"/></g><g clip-path="url(#b)"><path d="M59.04 176.8h486.72" fill="none" stroke-width=".75" stroke-linecap="round" stroke-linejoin="round" stroke="#bebebe" stroke-miterlimit="10"/></g><g clip-path="url(#c)"><path d="M59.04 219.46h486.72" fill="none" stroke-width=".75" stroke-linecap="round" stroke-linejoin="round" stroke="#bebebe" stroke-miterlimit="10"/></g><g clip-path="url(#d)"><path d="M59.04 262.13h486.72" fill="none" stroke-width=".75" stroke-linecap="round" stroke-linejoin="round" stroke="#bebebe" stroke-miterlimit="10"/></g><g clip-path="url(#e)"><path d="M59.04 304.8h486.72" fill="none" stroke-width=".75" stroke-linecap="round" stroke-linejoin="round" stroke="#bebebe" stroke-miterlimit="10"/></g><g clip-path="url(#f)"><path d="M59.04 347.46h486.72" fill="none" stroke-width=".75" stroke-linecap="round" stroke-linejoin="round" stroke="#bebebe" stroke-miterlimit="10"/></g><path d="M131.55 134.11l.77-.01.78-.01.78-.02.77-.02.78-.01.77-.02.78-.02.77-.02.78-.02.77-.02.78-.02.78-.03.77-.02.77-.03.78-.03.77-.02.78-.04.77-.03.78-.04.77-.03.78-.04.78-.04.77-.04.78-.05.77-.05.78-.04.77-.06.78-.05.78-.06.77-.06.78-.06.77-.06.78-.07.77-.07.78-.08.77-.07.78-.09.77-.08.78-.08.77-.1.78-.09.77-.1.78-.1.77-.1.78-.11.77-.12.78-.12.78-.12.77-.12.78-.13.77-.14.78-.14.77-.14.78-.15.77-.15.78-.16.77-.17.78-.17.77-.17.78-.18.77-.18.78-.19.77-.2.78-.19.78-.2.77-.21.78-.21.77-.23.78-.22.77-.23.78-.23.77-.24.78-.25.77-.25.78-.25.77-.26.78-.27.77-.27.78-.27.77-.28.78-.28.78-.29.77-.29.78-.3.77-.3 1.55-.6.78-.32.77-.32.78-.31.77-.32.78-.33.77-.32.78-.34.77-.33.78-.33.77-.34.78-.34.77-.34.78-.34.78-.34.77-.35.78-.34.77-.34.78-.35.77-.35.78-.34.78-.35.77-.34.78-.35.77-.34.77-.34.78-.34.77-.33.78-.34.77-.33.78-.33.78-.33.77-.33.78-.32.77-.32.78-.32.77-.31.78-.3.77-.31.78-.3.78-.3.77-.29.78-.29.77-.28.78-.27.77-.28.78-.26.77-.27.77-.25.78-.25.78-.25.77-.24.78-.23.77-.23.78-.22.77-.22.78-.2.78-.21.77-.2.78-.2.77-.19.78-.18.77-.17.78-.17.77-.17.78-.16.77-.15.78-.15.77-.14.78-.14.77-.13.78-.13.77-.12.78-.12.78-.1.77-.12.78-.1.77-.1.78-.1.77-.08.78-.1.77-.08.78-.07.77-.08.78-.08.77-.07.78-.06.77-.07.78-.06.77-.06.78-.06.77-.06.78-.05.78-.05.77-.05.78-.06.77-.05.78-.04.77-.05.78-.05.77-.05.78-.04.77-.05.78-.05.77-.05.78-.05.77-.05.78-.05.77-.05.78-.06.78-.06.77-.05.78-.06.77-.07.78-.06.77-.06.78-.07.77-.08.78-.07.78-.08.77-.08.77-.09.78-.09.77-.1.78-.09.77-.1.78-.1.77-.12.78-.11.78-.12.77-.12.78-.13.77-.13.78-.14.77-.15.78-.15.78-.15.77-.16.78-.17.77-.17.78-.18.77-.18.78-.19.77-.2.78-.2.77-.2.78-.21.77-.22.78-.23.77-.23.78-.24.77-.24.78-.25.77-.26.78-.25.78-.28.77-.27.78-.28.77-.29.78-.29.77-.3.78-.3.77-.31.78-.32.77-.32.78-.33.77-.32.78-.34 1.55-.69.77-.35.78-.35.78-.36.77-.37.78-.37.77-.37.78-.37.77-.38.78-.38.77-.39.78-.38.77-.4.78-.38.77-.4.78-.39.77-.4.78-.39.77-.4.78-.39.78-.4.77-.4.78-.39.77-.4 1.55-.77.78-.4.77-.38.78-.38.77-.38.78-.38.77-.37.78-.37.77-.36.78-.36.77-.35.78-.35.77-.33.78-.34.78-.32.77-.32.78-.31.77-.3.78-.3.77-.29.78-.27.78-.27.77-.25.78-.25.77-.23.77-.23.78-.21.77-.2.78-.2.77-.17.78-.17.78-.15.77-.13.78-.13.77-.1.78-.11.77-.08.78-.07.77-.05.78-.04.78-.03h1.55l.77.02.78.04.77.05.78.07.77.08.77.1.78.12.78.13.77.15.78.16.77.19.78.2.77.2.78.24.78.24.77.26.78.27.77.3.78.31.77.32.78.34.77.35.78.37.77.39.78.4.77.4.78.43.77.44.78.45.77.47.78.48.78.5.77.5.78.51.77.53.78.54.77.55.78.56.77.57.78.59.77.58.78.6.77.61.78.62.77.62.78.63.77.64.78.64.77.65.78.66.78.66.77.67 1.55 1.34.78.68.77.68.78.68.77.68.78.69.77.69.78.68.77.7.78.68.77.69.78.68.77.69.78.68.78.68.77.68.78.68.77.67.78.67.77.66.78.66.77.66.78.65.78.64.77.64.77.64.78.63.77.61.78.62.77.6.78.6.77.6.78.58.78.58.77.57.78.56.77.55.78.54.77.54.78.52.78.52.77.51.78.5.77.5.78.47.77.47.78.46.77.46.78.44.77.43.78.43.77.41.78.4.77.4.78.39.77.38.78.36.78.36.77.35.78.34.77.33.78.32.77.32.78.3.77.3.78.28.77.28.78.27.77.26.78.25.77.25.78.24.77.23.78.22.77.22.78.2.78.2.77.2.78.19.77.18.78.17.77.17.78.16.77.16.78.15.77.14.78.14.77.13.78.13.77.12.78.12.77.11.78.1.78.11.77.1.78.1.77.09.78.08.77.09.78.07.77.08.78.07.77.07.78.07.77.06.78.06.77.06.78.05.77.05.78.05.77.05.78.04.78.04.77.04.78.04.77.03.78.04.77.03.78.03.78.03.77.02.78.03 1.54.05.78.02.77.02.78.02.77.02.78.01.78.02.77.01.78.02h.77l.78.02.77.01zm0 0" fill="#3b99b1" fill-opacity=".8" stroke-width=".75" stroke-linecap="round" stroke-linejoin="round" stroke="#000" stroke-miterlimit="10"/><path d="M79.94 176.8l.43-.01.42-.02.42-.01.43-.02.43-.02.42-.02.85-.04.42-.02.43-.02.42-.03.43-.03.42-.02.43-.04.42-.03.42-.03.43-.04.42-.04.43-.04.42-.04.43-.05.85-.1.42-.06.42-.05.43-.07.42-.06.43-.07.42-.07.43-.07.42-.08.42-.08.43-.09.42-.09.43-.1.42-.1.43-.1.42-.1.43-.12.42-.11.42-.12.43-.13.43-.14.42-.14.42-.14.43-.15.42-.16.43-.16.42-.17.42-.17.43-.18.43-.2.42-.19.42-.2.43-.2.42-.22.43-.22.42-.23.42-.23.43-.24.42-.25.43-.26.42-.26.43-.27.42-.28.43-.29.42-.3.42-.3.43-.3.42-.31.43-.33.42-.33.43-.34.42-.34.43-.35.42-.36.42-.37.43-.37.42-.38.85-.79.43-.4.42-.4.43-.43.42-.42.43-.43.42-.43.42-.44.43-.45.42-.46.43-.46.42-.46.42-.47.43-.48.43-.49.42-.48.42-.5.43-.5.42-.5.43-.5.42-.52.42-.52.43-.52.43-.53.42-.53.42-.54.43-.53.42-.55.43-.54.42-.56.42-.55.86-1.12.42-.56.42-.57.43-.57.42-.57.43-.58.42-.58.43-.57.42-.59.42-.58.43-.59.42-.58.43-.6.85-1.17.42-.6.85-1.19.42-.59.43-.6.42-.6.43-.58.85-1.2.42-.59.85-1.18.42-.59.43-.58.42-.58.43-.59.42-.57.43-.58.42-.57.43-.57.42-.56.42-.56.43-.55.42-.55.43-.55.42-.53.42-.53.43-.53.43-.51.42-.51.42-.5.43-.5.42-.48.43-.47.42-.47.43-.45.42-.44.43-.44.42-.42.42-.41.43-.4.42-.4.43-.37.42-.36.43-.35.42-.34.43-.32.42-.3.42-.3.43-.28.42-.27.43-.26.42-.23.43-.23.42-.21.42-.2.43-.18.42-.16.43-.15.42-.13.43-.12.42-.1.43-.1.42-.07.42-.07.43-.04.43-.04.42-.02h.85l.42.03.43.03.42.05.42.06.43.07.43.08.42.1.42.1.43.12.42.13.43.13.42.15.42.16.43.17.42.17.43.19.42.19.43.2.42.2.43.22.42.22.42.23.43.24.42.24.43.25.42.26.43.25.42.27.43.27.42.28.85.56.42.3.43.28.42.3.43.3.42.31.43.31.42.32.43.32.42.32.42.33.43.33.42.34.43.34.42.35.42.34.43.36.43.36.42.36.42.37.43.37.42.38.43.38.42.39.42.39.43.4.43.4.42.4.42.41.43.42.85.85.42.43.42.44.43.44.43.44.42.46.42.45.43.46.42.47.43.46.42.48.42.47.43.48.43.49.42.48.42.5.43.48.85 1 .42.5.85 1 .42.5.85 1 .43.49.42.5.43.49.42.5.85.97.42.48.43.48.42.48.43.46.42.47.43.45.42.45.43.44.42.44.42.42.43.42.43.4.42.4.42.39.43.37.42.37.43.35.42.34.42.33.43.31.42.3.43.3.42.27.42.26.43.24.43.23.42.22.42.2.43.19.42.17.43.15.42.14.43.13.42.1.43.1.42.08.42.07.43.04.42.04.43.02h.85l.42-.02.43-.04.42-.04.42-.06.43-.07.42-.08.43-.1.42-.1.43-.12.42-.13.42-.13.43-.14.43-.15.42-.16.42-.16.43-.17.42-.17.43-.18.42-.18.42-.18.86-.38.42-.2.85-.37.42-.18.43-.2.42-.17.42-.18.43-.18.43-.16.42-.17.42-.16.43-.15.42-.15.43-.13.42-.13.42-.11.43-.11.42-.1.43-.1.42-.07.43-.07.42-.05.43-.04.42-.03.42-.02h.43l.42.01.43.02.42.04.43.05.42.06.43.09.42.09.43.1.42.13.42.13.43.15.42.16.43.17.42.2.43.2.42.2.43.24.42.23.42.26.43.26.42.27.43.29.42.3.42.3.43.32.43.32.42.33.42.35.43.34.42.36.43.36.42.37.42.38.43.38.43.38.42.4.42.38.43.4.42.4.85.8.42.4.43.41.43.4.42.41.85.8.42.4.43.4.42.4.43.39.42.39.42.38.85.76.43.37.85.74.42.35.43.35.42.35.42.34.43.33.42.32.43.32.42.32.43.3.42.3.43.3.42.28.42.28.43.27.42.26.43.26.42.24.43.25.42.23.43.23.42.21.42.22.43.2.42.2.85.38.42.17.43.17.43.17.42.16.42.15.43.15.42.14.43.13.42.13.43.12.42.12.43.11.42.11.42.1.43.1.42.1.85.17.43.08.85.15.42.07.85.13.42.06.85.1.43.05.42.05.42.05.43.03.42.05.43.03.42.04.43.03.42.03.85.06.42.02.86.05.42.02.85.04.42.01.85.04zm0 0" fill="#65b59a" fill-opacity=".8" stroke-width=".75" stroke-linecap="round" stroke-linejoin="round" stroke="#000" stroke-miterlimit="10"/><path d="M77.07 219.4l.66-.01.65-.02.66-.02.66-.01.66-.02.66-.02.66-.03.66-.02.66-.02.66-.03.65-.03.66-.03.66-.03 1.32-.07.66-.03.66-.04.66-.04.65-.05.66-.04.66-.05.66-.05 1.32-.11.66-.06.66-.06.66-.07.65-.07.66-.07.66-.08.66-.08.66-.08.65-.09.66-.09.67-.1.65-.1.66-.1.66-.11.66-.11.66-.12.66-.13.65-.13.66-.13.66-.14.66-.15.66-.15.66-.16 1.32-.33.65-.18.66-.18.66-.19.66-.2.66-.2.66-.21.66-.22.66-.22.66-.23.65-.24.66-.25.66-.25.66-.26.66-.27.66-.28.66-.29.66-.29.65-.3 1.32-.62.66-.33.66-.33.66-.34.66-.35.66-.35.66-.37.65-.37.66-.38.66-.38.66-.4.66-.4.66-.41.66-.42.66-.42.65-.43.66-.44.66-.44.66-.45 1.32-.92.66-.47.66-.48.66-.48.65-.48.66-.5.66-.5.66-.5.66-.5.66-.5.66-.52.66-.52.65-.52.66-.51.66-.53.66-.53.66-.52.66-.53.65-.54 1.32-1.06.66-.53.66-.53.66-.54.66-.53.66-.53.65-.53.66-.53.66-.52.66-.52.66-.53.66-.51.66-.51.66-.52.66-.5.65-.5 1.32-1 .66-.48 1.32-.97.66-.46.66-.47.65-.46.66-.45.66-.45.66-.44.66-.43.66-.43.66-.42.66-.4.66-.41.65-.4.66-.38.66-.39.66-.37.66-.37.66-.36.66-.34.66-.34.65-.34.66-.32.66-.32.66-.31.66-.3.66-.3.66-.28.66-.29.66-.27.65-.26.66-.26.66-.25.66-.25.66-.23.66-.23.66-.23.66-.21.65-.22.66-.2.66-.2.66-.19.66-.19.66-.18.66-.18.66-.17.66-.17.65-.16.66-.16.66-.15.66-.16 1.32-.28.65-.15.66-.13.66-.14 1.32-.26.66-.13.66-.12.66-.12.65-.12 1.32-.24.66-.12.66-.12.66-.11.66-.12.66-.11.66-.12.65-.1.66-.13.66-.11.66-.11.66-.12.66-.11 1.32-.24.65-.12.66-.11.66-.12.66-.12.66-.13.66-.12.66-.13.66-.12.66-.13.65-.13.66-.13.66-.13 1.32-.27.66-.13 1.32-.28.65-.14.66-.15.66-.14.66-.14 1.32-.3.66-.15 1.32-.3.65-.16.66-.15.66-.16 1.32-.31.66-.16.66-.16.66-.15.65-.16.66-.16.66-.16.66-.16 1.32-.31.66-.16.66-.16.66-.15.65-.15.66-.16.66-.15.66-.15.66-.14.65-.15.66-.14.66-.13.66-.14.66-.13.66-.13.66-.12.66-.12.66-.12.65-.11.66-.1.66-.1.66-.1.66-.1.66-.08.66-.07.66-.07.65-.06.66-.06.66-.05.66-.04.66-.03.66-.03.66-.01.66-.02.66.01.65.01.66.02.66.03.66.04.66.06.66.05.66.08.66.08.65.09.66.1.66.12.66.13.66.14.66.15.66.16.66.18.66.18.65.2.66.21.66.22.66.24.66.24.66.26.66.27.66.28.65.3.66.3.66.32.66.32 1.32.7.66.36.66.37.66.38.65.4.66.4.66.41.66.42.66.43.65.45.67.44.66.46.65.47.66.47.66.48.66.49.66.5.66.5.65.5.66.51.66.52.66.53.66.52.66.54.66.53.66.54.65.54.66.55.66.54.66.55 1.32 1.1.66.56 1.32 1.11.65.55 1.32 1.11.66.55 1.32 1.1.66.55.66.55.65.54.66.54.66.54.66.54 1.32 1.06.66.53.66.52.66.51.65.52.66.51.66.51.66.5 1.32 1 .66.49.66.48.65.48.66.48.66.47.66.47 1.32.92.66.46.66.45.66.44.65.44.66.44.66.43.66.43 1.32.83.66.41.66.41.65.4.66.4.66.4.66.4.66.38.66.38.65.38.67.37.66.38.65.36.66.36.66.36.66.35.66.35.66.35.65.34.66.34.66.33 1.32.66.66.32.66.32.66.31.65.32 1.32.6.66.3.66.3.66.29.66.29.66.28.66.28.65.27.66.28.66.26.66.27.66.26.66.25.66.25.66.25.65.24 1.32.47.66.23.66.23.66.22.66.22.66.21.66.2.65.21.66.2.66.2.66.19.66.19.66.18.66.18.66.18.65.17 1.32.33.66.16 1.32.3.66.15.66.14.66.14.65.13.66.13.66.13.66.12.66.12.66.12.66.11.66.1.65.11.66.1.66.1.66.1 1.32.17.65.09.67.08.66.08.65.07.66.08.66.07.66.07.66.06.65.06 1.32.12.66.06 1.32.1.66.04.66.05.66.04.65.05 1.32.08.66.03 1.32.07.66.03.66.03.65.03.66.03.66.02.66.02 1.32.05.66.02 1.32.04.65.02.66.02.66.01.66.01.66.02.66.01.66.02h.66l.65.02h.66l.66.01zm0 0" fill="#b6c68f" fill-opacity=".8" stroke-width=".75" stroke-linecap="round" stroke-linejoin="round" stroke="#000" stroke-miterlimit="10"/><path d="M86.84 262.13h.78l.79-.02 2.34-.05 2.35-.06 1.56-.05 2.34-.08 1.57-.06.78-.04.78-.04 1.57-.07.78-.05 1.56-.09.78-.06.78-.05 1.56-.11.79-.07.78-.06.78-.07.78-.08.78-.07 1.57-.16 1.56-.18 1.56-.2.78-.1.78-.11.79-.11.78-.12.78-.12.78-.13.78-.13.78-.13.79-.14.78-.14.78-.15.78-.15 1.56-.33.78-.16 1.57-.35.78-.18 1.56-.38.78-.2.78-.2.78-.2.79-.2.78-.22.78-.21.78-.22.78-.22.79-.23 1.56-.46.78-.23 1.56-.48.78-.24 2.35-.74.78-.25.78-.25.78-.25.79-.25 3.9-1.25 2.35-.74.78-.24 1.56-.48.78-.24 1.57-.46.78-.22.78-.23.78-.21.78-.22.78-.21.78-.2.79-.21.78-.2.78-.2 1.56-.37.78-.18.79-.18.78-.17 1.56-.33 1.56-.3.78-.16.79-.14.78-.14 1.56-.28.78-.12 1.56-.25.78-.13.79-.11.78-.12 1.56-.23 3.13-.43.78-.1 3.13-.45.78-.11.78-.12.78-.11.78-.12 1.57-.25 1.56-.27.78-.14.78-.14.78-.15.78-.16.79-.16.78-.16.78-.18.78-.18.78-.19.79-.2.78-.2.78-.21.78-.22.78-.23.78-.24.78-.24.78-.26.79-.27.78-.27.78-.29.78-.3.78-.3.78-.31.78-.33.79-.33.78-.36.78-.35.78-.37.78-.38.78-.4.79-.4.78-.4.78-.43.78-.44.78-.44.78-.46.78-.47.78-.48.79-.48.78-.5.78-.51.78-.53.78-.52.79-.54.78-.55.78-.55.78-.57.78-.57.78-.59.78-.59.78-.59.79-.6.78-.61.78-.62.78-.62.78-.62.79-.63.78-.64 1.56-1.27 3.12-2.56.79-.64.78-.64 1.56-1.26.78-.63.79-.62.78-.62.78-.61.78-.6.78-.6.78-.59.78-.57.78-.57.79-.56.78-.54.78-.53.78-.52.78-.5.78-.5.79-.46.78-.47.78-.44.78-.42.78-.4.78-.4.79-.38.78-.35.78-.33.78-.32.78-.3.78-.27.78-.26.78-.24.79-.22.78-.2.78-.18.78-.16.78-.14.79-.12.78-.1.78-.09.78-.07.78-.05.78-.03.78-.02h.78l.79.02.78.03.78.05.78.05.78.07.79.09.78.09.78.1.78.12.78.12.78.13.78.14.78.14.79.15 1.56.31 1.56.33.79.17.78.16 2.34.5 1.56.33 1.57.32 1.56.3 1.56.3.78.14.78.13.79.13 1.56.24.78.11.78.1 1.57.21 1.56.18.78.09 1.56.15.78.08 1.57.14.78.06.78.07 1.56.13.79.06.78.06 1.56.14.78.07 1.56.15 1.57.16.78.09.78.1.78.1.78.1.79.12.78.12.78.13.78.14.78.15.78.15.78.17.78.17.79.19.78.2.78.2.78.22.78.22.79.24.78.25.78.26.78.27.78.28.78.3.78.3.78.32.79.32.78.34.78.34.78.36.78.36.78.38.79.38.78.39.78.4.78.41.78.42.78.42.79.43.78.44.78.44.78.45 1.56.92.78.46 1.56.95.79.47 1.56.97.78.48 1.57.98.78.49.78.49.78.49.78.5 3.9 2.46.8.48 2.34 1.47 1.56.97 1.56.96 1.56.95 1.57.95 1.56.94.78.46.79.46 1.56.92.78.46.78.45.78.46.78.45 2.35 1.33.78.44 2.34 1.32.78.43.79.43.78.43 1.56.85 1.56.84.79.42 2.34 1.24 2.34 1.22 1.57.8.78.4.78.39 1.56.77.79.38.78.38.78.38 1.56.74.78.36.78.36.78.36.79.35.78.35.78.34.78.34.78.33.79.33 1.56.64 1.56.62.78.3.78.3.78.28 1.57.56.78.27.78.27.78.26.79.26.78.24.78.24.78.24.78.23.78.23.78.21.78.21.79.2.78.2.78.2.78.18 1.56.36.78.17.79.16.78.16 1.56.3.78.14.79.13.78.13.78.13.78.12.78.12.78.1.78.11.78.1 1.57.19.78.09 1.56.16 1.57.15.78.07.78.07.78.06.78.06 1.56.11.79.05 1.56.1.78.03.78.05 2.35.1 1.56.06.78.03.78.03.78.02.79.03 2.34.05.78.02.79.02.78.02h.78l.78.02zm0 0" fill="#e9b31f" fill-opacity=".8" stroke-width=".75" stroke-linecap="round" stroke-linejoin="round" stroke="#000" stroke-miterlimit="10"/><path d="M104.45 304.8l.62-.01 1.25-.02.62-.02.63-.01.62-.02.62-.01.62-.02 1.25-.04.62-.02.63-.02.62-.02.63-.03.62-.02.62-.03.63-.03.62-.03.62-.04.62-.03 1.25-.08.63-.04.62-.05.62-.04 1.25-.1.62-.06.63-.06.62-.06.62-.06.63-.07.62-.07.62-.07.63-.08.62-.08.62-.08.63-.1.62-.08.62-.1.63-.1.62-.1 1.25-.23.62-.12.63-.12.62-.13.62-.14.62-.14.63-.14.62-.15.62-.16.63-.16.62-.17.62-.17.63-.18.62-.18.63-.19.62-.2.62-.2.63-.21.62-.21.62-.23.62-.22.63-.24.62-.24 1.25-.5.62-.26.63-.26.62-.27.62-.28.63-.29.62-.29.62-.3.62-.3.63-.3.62-.32.63-.31.62-.33.62-.33.63-.34.62-.34.62-.34.63-.36.62-.35.62-.36.62-.36.63-.37.62-.38.63-.37.62-.38.62-.38.63-.39.62-.39.62-.39.63-.4.62-.39.62-.39.63-.4.62-.4.63-.4.62-.4.62-.4.62-.4.63-.4.62-.4 1.25-.8.62-.4.62-.4.63-.4.62-.39.63-.38.62-.4.62-.38.62-.38.63-.37.62-.38.62-.37.63-.36.62-.37.63-.36.62-.35.62-.35.63-.34.62-.33.62-.34.62-.32.63-.33.62-.31.62-.3.63-.31.62-.3.63-.3.62-.28 1.25-.54.62-.27.62-.26.62-.25.63-.25.62-.23.62-.24.63-.23.62-.21.63-.22.62-.2.62-.2.63-.2.62-.2.62-.18.62-.18.63-.18.62-.16.63-.17.62-.16.62-.15.63-.16.62-.14.62-.14.63-.15.62-.13.62-.14.62-.13 1.25-.26.63-.12.62-.13.62-.12.63-.13.62-.12.62-.12.63-.13.62-.13.62-.12.63-.13.62-.13.63-.14.62-.14.62-.14.62-.14.63-.15.62-.16.62-.16.63-.16.62-.18.62-.17.63-.19.62-.19.63-.2.62-.2.62-.21.62-.22.63-.23.62-.24.62-.25.63-.25.62-.26 1.25-.56.62-.3.63-.3.62-.3.62-.33.63-.33.62-.34.62-.34.62-.36.63-.37.62-.38.63-.38.62-.4.62-.4.63-.4.62-.42.62-.42.63-.43.62-.43.62-.45.62-.44.63-.45.62-.46.63-.46.62-.46.62-.46.63-.47.62-.46 1.25-.93.62-.47.62-.46.63-.46 1.25-.9.62-.45.62-.44.62-.43.63-.42.62-.42.62-.4.63-.4.62-.39.62-.37.63-.36.62-.34.63-.34.62-.32.62-.3.62-.29.63-.26.62-.25.62-.24.63-.21.62-.2.63-.17.62-.15.62-.15.63-.1.62-.1.62-.07.62-.04.63-.03h.62l.62.02.63.04.62.07.63.09.62.1.62.15.63.15.62.18.62.2.62.22.63.25.62.27.63.29.62.3.62.33.63.35.62.37.62.39.63.4.62.42.62.44.62.45.63.47.62.48.63.5.62.5.62.53.63.53.62.54.62.55.63.56.62.57.62.57.62.58.63.58.62.6.63.58.62.6.62.58.63.6.62.59.62.58.63.6.62.57.62.58.63.58 1.25 1.12.62.55.62.54.62.54.63.52.62.51.62.5.63.5.62.47.62.47.63.45.62.44.63.42.62.41.62.4.62.38.63.37.62.34.62.34.63.32.62.3.63.29.62.27.62.25.63.25.62.22.62.21.62.2.63.18.62.17.62.15.63.14.62.13.63.11.62.1.62.1.63.07.62.08.62.06.62.05.63.04.62.03.63.03.62.02.62.02.63.01h4.36l.62-.01h2.5l.62.02.62.01.63.03.62.02 1.25.08.62.05.62.06.63.06.62.08.62.08.63.1.62.1.62.12.63.13.62.13.62.15.63.16.62.17.63.19.62.2.62.2.63.23.62.22.62.25.62.25.63.26.62.28.62.3.63.29.62.31.63.32.62.33.62.34.63.35.62.36.62.37.62.37.63.38.62.4.63.4.62.4.62.4.63.42.62.42.62.43.63.43.62.43.62.43.62.44.63.44.62.44.63.45.62.44.62.44.63.44.62.44.62.44.63.44.62.44.62.43.63.43.62.43.63.42.62.42.62.41.62.41.63.4.62.4.62.4.63.38.62.38.62.38.63.36.62.36.63.35.62.35.62.34.62.33.63.32.62.32.62.3.63.3.62.3.62.28.63.28.62.27.63.25.62.26.62.25.62.23.63.23.62.22.62.22.63.2.62.2.63.2.62.18.62.18.63.17.62.16.62.16.62.16.63.14.62.14.62.13.63.13.62.13 1.25.23.62.1.63.1.62.1.62.1.62.08.63.09.62.07.63.08.62.07.62.07 1.25.12.62.06.63.05.62.05.62.05.62.05.63.04.62.04.63.04.62.04.62.03 1.25.07.62.02.63.03.62.02.62.03.63.02.62.02.63.02.62.01zm0 0" fill="#e78100" fill-opacity=".8" stroke-width=".75" stroke-linecap="round" stroke-linejoin="round" stroke="#000" stroke-miterlimit="10"/><path d="M212.96 347.46l.51-.01.52-.03.51-.03 1.02-.06.52-.04.51-.04.51-.04.52-.06.51-.05.51-.06.52-.08.5-.07.52-.09.52-.09.5-.1.52-.1.51-.12.52-.12.5-.14.52-.15.52-.16.5-.16.52-.18.52-.2.5-.2.52-.2.51-.24.52-.24.5-.25.52-.26.51-.28.52-.28.5-.3.52-.3.52-.32.5-.33.52-.33.51-.34.52-.34.51-.35 1.03-.71.51-.36.51-.35.51-.35.52-.35.51-.34.51-.34.52-.33.51-.3.51-.31.51-.29.52-.27.51-.26.51-.23.52-.22.51-.2.51-.16.52-.15.51-.12.51-.1.51-.07.52-.04.51-.02h.51l.52.04.51.07.51.09.52.11.5.14.52.17.52.19.5.2.52.23.52.25.5.27.52.28.51.3.52.31.5.32.52.34.52.34.5.34.52.36.51.35 1.03.71.51.36.51.35.52.34.5.34.52.34.52.33.5.31.52.31.51.3.52.3.51.27.51.26.52.26.51.24.51.23.51.22.52.2.51.2.51.18.52.17.51.16.51.15.51.14.52.13.51.12.51.1.52.1.51.1.51.08.52.08.51.06.51.06.52.06.5.04.52.04.51.04.52.03.51.02.51.02h.52l.5.02h1.04l.5-.01.52-.01.52-.02.5-.03.52-.03.51-.04.52-.04.5-.06.52-.06.52-.06.5-.08.52-.1.51-.09.52-.1.5-.13.52-.14.51-.14.52-.16.51-.18.51-.2.52-.21.5-.23.52-.25.51-.27.52-.29.51-.3.51-.34.52-.36.51-.38.51-.4.51-.43.52-.45.51-.48.51-.5.52-.52.51-.55.51-.57.51-.6.52-.62.51-.64.51-.65.52-.68.51-.7.51-.7.52-.72.51-.74.51-.74.52-.75.5-.75.52-.76.51-.76.52-.75.51-.75.51-.74.52-.72.5-.72.52-.7.52-.69.5-.66.52-.65.52-.62.5-.6.52-.57.51-.56.52-.52.5-.5.52-.47.52-.45.5-.43.52-.4.51-.37.52-.36.5-.35.52-.32.51-.31.52-.3.51-.3 1.54-.85.51-.3.51-.29.52-.3.51-.32.51-.34.52-.35.51-.37.51-.39.51-.41.52-.44.51-.47.51-.5.52-.5.51-.56.51-.57.51-.6.52-.62.51-.66.51-.67.52-.7.51-.7.51-.74.52-.75.51-.76.51-.77.52-.78.5-.79 1.03-1.58.52-.78.51-.78.51-.78.52-.77.5-.75.52-.75.52-.72.5-.72.52-.68.52-.68.5-.65.52-.64.51-.6.52-.58.5-.56.52-.53.52-.5.5-.48.52-.44.51-.42.52-.38.5-.35.52-.31.51-.28.52-.24.51-.2.51-.16.52-.12.51-.07.51-.03.51.02.52.08.51.13.51.18.52.23.51.3.51.36.51.41.52.47.51.55.51.6.52.67.51.73.51.8.51.87.52.92.51.97.51 1.05.52 1.1.51 1.15.51 1.2.52 1.26.51 1.3.51 1.34.52 1.37.5 1.42.52 1.44.52 1.46.5 1.47.52 1.5.51 1.5.52 1.51.5 1.5.52 1.51.52 1.5.5 1.47.52 1.47.52 1.43.5 1.41.52 1.39.51 1.35.52 1.3.5 1.28.52 1.23.52 1.2.5 1.14.52 1.1.51 1.05.52 1 .5.94.52.9.51.87.52.8.51.74.51.7.52.67.51.6.51.56.51.52.52.47.51.42.51.39.52.34.51.3.51.27.51.23.52.19.51.16.51.12.52.1.51.06.51.04h.52l.51-.03.51-.05.51-.07.52-.1.51-.13.51-.15.52-.16.51-.2.51-.2.52-.23.5-.24.52-.26.52-.27.5-.29.52-.3.51-.31.52-.33.5-.33.52-.33.52-.35 1.02-.69.52-.35.5-.35.52-.34.51-.34.52-.34.5-.32.52-.32.52-.3.5-.3.52-.27.51-.25.52-.25.5-.22.52-.2.51-.19.52-.16.51-.14.51-.11.52-.1.51-.07.51-.05.51-.02h.52l.51.02.51.04.52.07.51.07.51.1.51.12.52.12.51.14.51.16.52.16.51.17.51.17.52.17.51.18 1.02.34.52.17.51.15.51.15.52.14.51.13.51.1.52.1.5.08.52.06.52.05.5.02h1.04l.5-.03.52-.05.51-.06.52-.09.5-.1.52-.11.52-.13.5-.13.52-.15.51-.16.52-.17.5-.17.52-.18.52-.17.5-.17.52-.18.51-.16.52-.16.5-.15.52-.14.51-.12.52-.11.51-.1.51-.08.52-.05.51-.04.51-.02h.51l.52.04.51.05.51.07.52.1.51.12.51.14.51.17.52.19.51.2.51.24.52.24.51.27.51.28.52.3.51.3.51.32.52.33.5.34.52.35.51.35.52.36.51.35.51.36.52.36.5.35.52.35.52.35.5.34.52.33.52.33.5.31.52.31.51.3.52.28.5.28.52.26.52.25.5.24.52.23.51.21.52.2.5.2.52.18.52.16.5.16.52.15.51.14.52.12.5.12.52.1.51.1.52.1.51.08.51.07.52.08.51.06 1.02.1.52.05 1.02.08.52.03.51.03.51.03.51.03.52.01zm0 0" fill="#f5191c" fill-opacity=".8" stroke-width=".75" stroke-linecap="round" stroke-linejoin="round" stroke="#000" stroke-miterlimit="10"/><path d="M121.48 358.56h396.5M121.48 358.56v3M220.6 358.56v3M319.73 358.56v3M418.86 358.56v3M517.98 358.56v3" fill="none" stroke-width=".75" stroke-linecap="round" stroke-linejoin="round" stroke="#000" stroke-miterlimit="10"/><use xlink:href="#g" x="110.98" y="383.72"/><use xlink:href="#h" x="117.65" y="383.72"/><use xlink:href="#h" x="124.32" y="383.72"/><use xlink:href="#i" x="210.1" y="383.72"/><use xlink:href="#h" x="216.78" y="383.72"/><use xlink:href="#h" x="223.45" y="383.72"/><use xlink:href="#j" x="309.23" y="383.72"/><use xlink:href="#h" x="315.9" y="383.72"/><use xlink:href="#h" x="322.58" y="383.72"/><use xlink:href="#k" x="408.36" y="383.72"/><use xlink:href="#h" x="415.03" y="383.72"/><use xlink:href="#h" x="421.7" y="383.72"/><g><use xlink:href="#l" x="507.48" y="383.72"/><use xlink:href="#h" x="514.15" y="383.72"/><use xlink:href="#h" x="520.83" y="383.72"/></g><g><use xlink:href="#m" x="24.04" y="133.37"/><use xlink:href="#n" x="30.04" y="133.37"/><use xlink:href="#o" x="36.71" y="133.37"/><use xlink:href="#p" x="42.71" y="133.37"/><use xlink:href="#q" x="49.39" y="133.37"/><use xlink:href="#r" x="52.05" y="133.37"/></g><g><use xlink:href="#s" x="2.04" y="176.04"/><use xlink:href="#t" x="8.71" y="176.04"/><use xlink:href="#u" x="15.39" y="176.04"/><use xlink:href="#o" x="19.38" y="176.04"/><use xlink:href="#p" x="25.38" y="176.04"/><use xlink:href="#v" x="32.06" y="176.04"/><use xlink:href="#p" x="38.73" y="176.04"/><use xlink:href="#n" x="45.4" y="176.04"/><use xlink:href="#r" x="52.08" y="176.04"/></g><g><use xlink:href="#w" x="20.04" y="218.71"/><use xlink:href="#q" x="22.71" y="218.71"/><use xlink:href="#r" x="25.37" y="218.71"/><use xlink:href="#o" x="32.04" y="218.71"/><use xlink:href="#p" x="38.04" y="218.71"/><use xlink:href="#p" x="44.72" y="218.71"/><use xlink:href="#x" x="51.39" y="218.71"/></g><g><use xlink:href="#y" x="6.04" y="261.37"/><use xlink:href="#p" x="16.04" y="261.37"/><use xlink:href="#n" x="22.71" y="261.37"/><use xlink:href="#z" x="29.38" y="261.37"/><use xlink:href="#y" x="32.72" y="261.37"/><use xlink:href="#p" x="42.71" y="261.37"/><use xlink:href="#n" x="49.39" y="261.37"/><use xlink:href="#w" x="56.06" y="261.37"/></g><g><use xlink:href="#o" x="13.04" y="304.04"/><use xlink:href="#t" x="19.04" y="304.04"/><use xlink:href="#A" x="25.71" y="304.04"/><use xlink:href="#v" x="31.71" y="304.04"/><use xlink:href="#p" x="38.39" y="304.04"/><use xlink:href="#n" x="45.06" y="304.04"/><use xlink:href="#r" x="51.73" y="304.04"/></g><g><use xlink:href="#o" x="7.04" y="346.71"/><use xlink:href="#B" x="13.04" y="346.71"/><use xlink:href="#r" x="19.71" y="346.71"/><use xlink:href="#C" x="26.39" y="346.71"/><use xlink:href="#t" x="32.39" y="346.71"/><use xlink:href="#D" x="39.06" y="346.71"/><use xlink:href="#p" x="47.73" y="346.71"/><use xlink:href="#u" x="54.4" y="346.71"/></g><g><use xlink:href="#E" x="59.04" y="34.11"/><use xlink:href="#F" x="69.44" y="34.11"/><use xlink:href="#G" x="78.23" y="34.11"/><use xlink:href="#H" x="82.23" y="34.11"/><use xlink:href="#I" x="90.24" y="34.11"/><use xlink:href="#J" x="98.25" y="34.11"/><use xlink:href="#K" x="106.26" y="34.11"/><use xlink:href="#L" x="115.05" y="34.11"/><use xlink:href="#M" x="119.05" y="34.11"/><use xlink:href="#J" x="130.25" y="34.11"/><use xlink:href="#G" x="138.26" y="34.11"/><use xlink:href="#N" x="142.26" y="34.11"/><use xlink:href="#F" x="151.06" y="34.11"/><use xlink:href="#O" x="159.86" y="34.11"/><use xlink:href="#P" x="164.65" y="34.11"/></g></svg>