<svg xmlns="http://www.w3.org/2000/svg" xmlns:xlink="http://www.w3.org/1999/xlink" width="480" height="480" viewBox="0 0 360 360"><defs><symbol overflow="visible" id="a"><path d="M1.15-5.94v-.81c.76-.07 1.3-.2 1.6-.37.3-.18.52-.59.66-1.24h.84V0H3.12v-5.94zm0 0"/></symbol><symbol overflow="visible" id="b"><path d="M3.25-8.4c1.08 0 1.87.45 2.35 1.35a6 6 0 01.56 2.84c0 1.14-.17 2.08-.5 2.83C5.16-.3 4.36.23 3.24.23c-1 0-1.76-.43-2.25-1.3a6 6 0 01-.61-2.94c0-.96.12-1.78.36-2.46.46-1.27 1.3-1.91 2.5-1.91zM3.23-.72c.55 0 .99-.25 1.3-.73.33-.49.5-1.38.5-2.7 0-.96-.12-1.74-.35-2.36-.24-.61-.7-.92-1.37-.92-.62 0-1.08.3-1.36.87a6.02 6.02 0 00-.43 2.59c0 .85.09 1.54.27 2.06.28.8.76 1.19 1.44 1.19zm0 0"/></symbol><symbol overflow="visible" id="c"><path d="M1.48-2.14c.07.6.35 1.02.84 1.25.25.12.54.18.87.18.62 0 1.08-.2 1.39-.6.3-.4.45-.84.45-1.33 0-.58-.18-1.04-.54-1.36a1.87 1.87 0 00-1.29-.48c-.36 0-.67.07-.93.21-.26.14-.48.34-.66.59l-.92-.05.64-4.52h4.36v1.02H2.12L1.77-4.9c.2-.15.37-.26.55-.33.31-.13.67-.2 1.09-.2.77 0 1.42.25 1.95.75s.8 1.13.8 1.88c0 .8-.24 1.5-.73 2.1-.5.61-1.27.91-2.35.91C2.4.21 1.8.02 1.27-.37.74-.75.45-1.34.39-2.14zm0 0"/></symbol><symbol overflow="visible" id="d"><path d="M.38 0C.4-.72.55-1.35.81-1.89c.26-.53.77-1.02 1.52-1.45L3.47-4c.5-.29.86-.54 1.06-.75.32-.32.48-.7.48-1.1 0-.5-.15-.88-.44-1.17a1.6 1.6 0 00-1.17-.43c-.72 0-1.22.27-1.5.82-.15.29-.23.7-.25 1.22H.58c.01-.73.15-1.33.4-1.8.46-.8 1.27-1.21 2.43-1.21.96 0 1.66.26 2.1.78.44.52.67 1.1.67 1.73 0 .68-.24 1.25-.71 1.73-.27.27-.77.61-1.47 1l-.8.45c-.39.21-.7.41-.91.6-.4.34-.63.72-.74 1.13h4.58v1zm0 0"/></symbol><symbol overflow="visible" id="e"><path d="M3.12.23C2.12.23 1.4-.04.96-.6a3.04 3.04 0 01-.67-1.99h1.1c.05.54.15.94.3 1.19.28.44.77.66 1.49.66.55 0 1-.15 1.33-.45.34-.3.5-.68.5-1.15 0-.58-.17-.98-.53-1.2a2.68 2.68 0 00-1.47-.35h-.43v-.92a5.58 5.58 0 00.51.03c.4 0 .72-.07.98-.2.44-.21.66-.6.66-1.16 0-.42-.14-.75-.44-.97-.3-.23-.64-.34-1.04-.34-.7 0-1.19.23-1.46.7-.15.26-.23.63-.25 1.1H.5c0-.62.13-1.15.38-1.59.42-.78 1.18-1.17 2.26-1.17.86 0 1.52.19 1.98.57.47.38.7.93.7 1.65 0 .52-.13.94-.4 1.26-.18.2-.4.35-.67.47.44.12.78.35 1.03.7.25.34.37.77.37 1.27 0 .8-.26 1.45-.8 1.95-.52.5-1.26.76-2.23.76zm0 0"/></symbol><symbol overflow="visible" id="t"><path d="M3.97-2.97v-3.8l-2.7 3.8zM3.98 0v-2.05H.3v-1.03l3.85-5.33h.89v5.44h1.23v.92H5.04V0zm0 0"/></symbol><symbol overflow="visible" id="u"><path d="M1.44-3.06c0 .67.15 1.23.43 1.69.28.45.74.67 1.37.67.49 0 .89-.2 1.2-.63.32-.42.47-1.02.47-1.8 0-.8-.16-1.39-.48-1.76a1.52 1.52 0 00-1.2-.58c-.53 0-.96.2-1.3.61-.32.4-.49 1-.49 1.8zm1.6-3.33c.47 0 .87.1 1.2.3.18.13.4.33.63.62v-3.17H5.9V0h-.95v-.88c-.25.4-.54.67-.87.84A2.5 2.5 0 012.9.22c-.7 0-1.3-.29-1.82-.88a3.45 3.45 0 01-.76-2.35c0-.91.23-1.7.7-2.37a2.3 2.3 0 012-1zm0 0"/></symbol><symbol overflow="visible" id="v"><path d="M.77-6.25h1.07V0H.77zm0-2.36h1.07v1.2H.77zm0 0"/></symbol><symbol overflow="visible" id="w"><path d="M1.4-1.97c.03.35.12.62.26.81.27.34.73.51 1.39.51.39 0 .73-.08 1.03-.26.3-.16.44-.43.44-.79a.67.67 0 00-.36-.6 4.49 4.49 0 00-.9-.3l-.83-.22a4.09 4.09 0 01-1.19-.45 1.33 1.33 0 01-.68-1.18c0-.59.22-1.07.64-1.44.43-.37 1-.55 1.73-.55.94 0 1.62.28 2.05.83.26.35.38.74.38 1.14h-1c-.02-.24-.1-.46-.25-.65-.24-.28-.66-.42-1.26-.42-.4 0-.7.08-.9.23-.21.15-.32.36-.32.6 0 .28.14.5.4.66.17.1.4.18.7.26l.7.17c.76.18 1.27.36 1.52.53.41.27.62.7.62 1.27 0 .56-.21 1.05-.64 1.45-.42.4-1.07.61-1.94.61-.93 0-1.6-.21-1.98-.63A2.4 2.4 0 01.4-1.97zm0 0"/></symbol><symbol overflow="visible" id="x"><path d="M3.42-.71c.5 0 .9-.2 1.23-.62.33-.4.5-1.03.5-1.85 0-.5-.08-.93-.23-1.28-.27-.7-.77-1.04-1.5-1.04s-1.23.36-1.5 1.1a4.34 4.34 0 000 2.72c.28.65.78.97 1.5.97zM.7-6.25h1.03v.84c.21-.29.44-.51.69-.67.35-.23.77-.35 1.25-.35.71 0 1.32.27 1.81.82.5.54.75 1.32.75 2.34 0 1.36-.36 2.34-1.08 2.93C4.7.03 4.16.2 3.56.2 3.1.21 2.7.11 2.37-.1c-.18-.12-.4-.32-.62-.6v3.2H.69zm0 0"/></symbol><symbol overflow="visible" id="y"><path d="M.8-8.6h1.06V0H.8zm0 0"/></symbol><symbol overflow="visible" id="z"><path d="M1.58-1.67c0 .3.12.54.33.72.23.18.5.26.8.26.37 0 .73-.08 1.08-.26.58-.28.87-.75.87-1.4v-.85c-.12.09-.3.16-.5.21-.2.06-.4.1-.59.12l-.64.08a2.4 2.4 0 00-.86.24.94.94 0 00-.49.88zM4.14-3.8c.24-.04.4-.14.49-.3.04-.1.07-.24.07-.41 0-.36-.13-.62-.4-.78a2.03 2.03 0 00-1.09-.25c-.55 0-.94.15-1.17.45-.13.16-.21.4-.25.73H.8c.02-.77.27-1.31.75-1.61.49-.3 1.05-.46 1.68-.46.74 0 1.34.14 1.8.42.46.28.69.72.69 1.31v3.62c0 .11.02.2.07.27.04.06.14.1.28.1l.16-.01.18-.03v.78c-.16.05-.29.08-.37.09l-.35.01c-.37 0-.63-.12-.8-.38a1.44 1.44 0 01-.17-.58c-.22.28-.52.53-.93.73-.4.2-.84.31-1.33.31-.58 0-1.06-.17-1.42-.53-.38-.35-.56-.8-.56-1.33 0-.58.18-1.03.54-1.35.37-.32.85-.52 1.43-.6zm0 0"/></symbol><symbol overflow="visible" id="A"><path d="M3.2-6.46c.7 0 1.28.17 1.72.52.44.34.7.93.8 1.78H4.7a1.9 1.9 0 00-.43-.97c-.23-.26-.58-.39-1.07-.39-.68 0-1.16.33-1.45.99-.19.42-.28.95-.28 1.58 0 .63.13 1.15.4 1.58.26.43.68.65 1.25.65.44 0 .79-.14 1.04-.4.26-.27.43-.64.54-1.1h1.02c-.12.83-.41 1.44-.88 1.83-.47.38-1.07.57-1.8.57a2.4 2.4 0 01-1.96-.9 3.44 3.44 0 01-.74-2.24c0-1.1.27-1.96.8-2.58a2.6 2.6 0 012.06-.92zm0 0"/></symbol><symbol overflow="visible" id="B"><path d="M3.39-6.41A2.82 2.82 0 015.64-5.3c.2.32.35.68.42 1.1.06.3.1.76.1 1.39h-4.6c.01.64.16 1.15.44 1.53.29.39.72.58 1.31.58a1.7 1.7 0 001.72-1.28h1.03A2.76 2.76 0 015.27-.5c-.32.32-.72.53-1.18.64-.26.06-.55.1-.87.1-.78 0-1.44-.3-1.99-.86a3.32 3.32 0 01-.8-2.39c0-1 .27-1.82.81-2.45a2.7 2.7 0 012.15-.94zm1.68 2.77a2.72 2.72 0 00-.3-1.1c-.29-.5-.77-.76-1.45-.76-.48 0-.89.18-1.22.53-.33.35-.5.79-.52 1.33zm0 0"/></symbol><symbol overflow="visible" id="C"><path d="M.77-6.27h1.05v.89c.25-.31.47-.54.68-.68.34-.24.74-.35 1.18-.35.5 0 .9.12 1.2.36.18.14.33.35.48.62.23-.33.5-.58.82-.74.32-.17.67-.24 1.07-.24.84 0 1.41.3 1.72.91.16.33.25.77.25 1.32V0h-1.1v-4.36c0-.42-.1-.7-.31-.86a1.25 1.25 0 00-.77-.23c-.41 0-.77.13-1.07.41-.3.28-.45.74-.45 1.4V0H4.45v-4.1c0-.42-.05-.73-.15-.93-.16-.29-.46-.44-.9-.44-.4 0-.76.16-1.08.47-.33.3-.5.86-.5 1.67V0H.78zm0 0"/></symbol><symbol overflow="visible" id="D"><path d="M.77-6.27h1v.89c.3-.37.62-.64.95-.8.33-.16.7-.23 1.1-.23.9 0 1.5.3 1.81.93.17.34.26.82.26 1.46V0H4.82v-3.95c0-.39-.06-.7-.17-.93-.19-.4-.53-.59-1.03-.59-.25 0-.45.03-.6.08-.3.09-.55.26-.77.51-.18.21-.29.43-.34.65-.05.22-.08.53-.08.94V0H.77zm0 0"/></symbol><symbol overflow="visible" id="E"><path d="M.98-8.03h1.07v1.76h1v.86h-1v4.09c0 .22.08.37.22.44.09.04.22.07.41.07h.17l.2-.02V0a2.41 2.41 0 01-.8.1c-.5 0-.83-.13-1-.38a1.69 1.69 0 01-.27-.98V-5.4H.13v-.86h.85zm0 0"/></symbol><symbol overflow="visible" id="f"><path d="M-6.53-7.91c0-.29.06-.57.17-.84a1.85 1.85 0 011.4-1.1c.2-.04.52-.06.94-.06H0v1.72h-4.07c-.24 0-.44.04-.6.12-.3.14-.44.42-.44.82 0 .46.2.77.57.95.2.1.45.14.74.14H0v1.68h-3.8c-.38 0-.66.03-.83.11-.3.14-.46.42-.46.83 0 .48.15.8.46.96.18.1.44.13.79.13H0v1.7h-6.38v-1.63h.93c-.33-.2-.56-.4-.7-.58a2 2 0 01-.38-1.26c0-.49.1-.88.33-1.18.2-.24.45-.43.76-.55-.37-.22-.65-.5-.83-.82a2.48 2.48 0 01-.26-1.14zm0 0"/></symbol><symbol overflow="visible" id="g"><path d="M-7.15-2.5v1.7h-1.54v-1.7zm.76 1.7v-1.7H0v1.7zm0 0"/></symbol><symbol overflow="visible" id="h"><path d="M0-2.48v1.67h-8.64v-1.67zm0 0"/></symbol><symbol overflow="visible" id="i"><path d="M-5.18-3.3c0 .39.12.69.36.9.25.21.57.35.99.4v-2.6c-.44.03-.78.17-1 .4-.24.25-.35.54-.35.9zm-1.37 0c0-.53.1-1 .3-1.43.2-.43.5-.78.94-1.06.38-.25.81-.41 1.31-.48.3-.05.72-.07 1.27-.06v4.37c.64-.02 1.09-.22 1.35-.6.16-.23.24-.51.24-.83 0-.34-.1-.63-.3-.84-.1-.12-.25-.22-.44-.3v-1.72c.38.05.77.24 1.16.6.62.54.93 1.3.93 2.3 0 .8-.26 1.52-.78 2.14-.53.62-1.38.93-2.56.93-1.1 0-1.95-.27-2.54-.84a2.87 2.87 0 01-.88-2.18zm0 0"/></symbol><symbol overflow="visible" id="j"><path d="M-2.04-2.08c.3-.03.5-.11.63-.23.23-.2.34-.59.34-1.15 0-.33-.05-.59-.15-.78-.1-.2-.24-.3-.44-.3a.48.48 0 00-.43.24c-.1.16-.26.74-.5 1.75-.18.72-.4 1.23-.68 1.52-.26.3-.64.45-1.14.45a2 2 0 01-1.52-.7 2.8 2.8 0 01-.64-1.95c0-.8.16-1.45.48-1.95.32-.5.87-.79 1.65-.86v1.67a.96.96 0 00-.51.18c-.23.19-.34.5-.34.94 0 .36.06.62.17.77.11.16.25.23.4.23.19 0 .33-.08.42-.24.09-.17.24-.74.46-1.74.15-.66.4-1.16.7-1.5.33-.32.73-.49 1.2-.49.64 0 1.15.24 1.56.7.4.48.6 1.2.6 2.2 0 1-.22 1.74-.64 2.21-.42.49-.96.72-1.62.72zm0 0"/></symbol><symbol overflow="visible" id="l"><path d="M-3.2-5.18c-.48 0-.92.11-1.3.34-.38.22-.57.59-.57 1.09 0 .6.29 1.02.86 1.25.3.11.7.17 1.16.17.75 0 1.27-.2 1.57-.59.18-.23.26-.51.26-.83 0-.46-.18-.82-.54-1.06a2.5 2.5 0 00-1.43-.37zm-3.33.95c0-.75.28-1.38.83-1.9.55-.51 1.36-.77 2.43-.77 1.12 0 1.98.25 2.57.76.59.5.88 1.16.88 1.95 0 .51-.13.93-.38 1.27-.14.18-.34.36-.61.54h3.33v1.65h-8.9v-1.6h.93c-.27-.18-.49-.37-.65-.58a2.1 2.1 0 01-.43-1.32zm0 0"/></symbol><symbol overflow="visible" id="m"><path d="M-6.54-4.25v-.08l.01-.14h1.71l-.02.28v.2c0 .67.21 1.12.65 1.35.25.13.63.2 1.14.2H0v1.68h-6.39v-1.6h1.12a3.55 3.55 0 01-.88-.67c-.26-.31-.39-.72-.39-1.22zm0 0"/></symbol><symbol overflow="visible" id="n"><path d="M-1.37-3.52c0-.4-.15-.72-.44-1-.3-.26-.77-.4-1.41-.4-.6 0-1.07.13-1.39.39-.31.25-.47.6-.47 1.03 0 .58.28.98.83 1.2.29.12.65.18 1.08.18.37 0 .7-.06.99-.18.54-.23.8-.64.8-1.22zm-5.17.41c0-.32.05-.6.15-.84.17-.4.48-.73.92-.98h-.92v-1.62h6.06c.83 0 1.45.14 1.87.42.71.47 1.07 1.39 1.07 2.74 0 .82-.16 1.48-.48 2-.32.51-.8.8-1.43.85v-1.82c.2-.04.34-.12.42-.23.15-.18.23-.48.23-.9 0-.6-.2-1-.6-1.2-.26-.14-.7-.2-1.3-.2h-.41c.27.15.47.32.6.5.26.34.4.77.4 1.3 0 .82-.3 1.48-.88 1.97a3.5 3.5 0 01-2.34.73c-.94 0-1.74-.23-2.39-.7a2.34 2.34 0 01-.97-2.02zm0 0"/></symbol><symbol overflow="visible" id="o"><path d="M-3.1-4.3a2.76 2.76 0 01.28.76l.06.38c.06.35.14.6.23.75.15.26.39.39.71.39.28 0 .49-.08.62-.24.12-.16.19-.35.19-.58 0-.36-.1-.69-.32-.99-.2-.3-.6-.46-1.15-.47zm-.78 1.01c-.04-.3-.1-.53-.15-.66-.1-.24-.26-.35-.48-.35-.26 0-.44.09-.54.26-.1.19-.15.45-.15.8 0 .4.1.68.3.84.14.12.34.2.58.24v1.6a2.44 2.44 0 01-1.38-.46c-.56-.44-.84-1.2-.84-2.27 0-.7.14-1.32.42-1.87.27-.54.8-.8 1.57-.8h2.93l.74-.02c.22-.02.36-.05.44-.1a.6.6 0 00.2-.25H0v1.82c-.13.05-.25.08-.36.1l-.39.05c.25.23.46.5.64.8.2.36.3.76.3 1.22A2.1 2.1 0 01-.3-.91c-.33.37-.8.56-1.4.56-.78 0-1.35-.3-1.7-.9-.2-.34-.33-.82-.41-1.47zm0 0"/></symbol><symbol overflow="visible" id="p"><path d="M-1.18-3.64c0-.5-.17-.87-.52-1.13-.35-.26-.84-.4-1.48-.4s-1.14.14-1.48.4c-.35.26-.52.64-.52 1.13 0 .48.17.86.52 1.12.34.27.84.4 1.48.4s1.13-.13 1.48-.4c.35-.26.52-.64.52-1.12zm-2-3.27c.94 0 1.74.27 2.4.8.67.54 1 1.36 1 2.46 0 1.1-.33 1.92-1 2.45a3.7 3.7 0 01-2.4.81c-.92 0-1.72-.27-2.4-.8-.67-.54-1.01-1.36-1.01-2.46 0-1.1.34-1.92 1.01-2.46.68-.53 1.48-.8 2.4-.8zm0 0"/></symbol><symbol overflow="visible" id="q"><path d="M-6.54-4.32c0-.66.17-1.2.52-1.62.34-.42.92-.63 1.72-.63H0v1.71h-3.88c-.34 0-.6.05-.78.14-.32.16-.49.47-.49.93 0 .57.24.96.72 1.17.25.1.58.16.97.17H0V-.8h-6.38V-2.4h.93a2.82 2.82 0 01-.7-.61 2.12 2.12 0 01-.39-1.31zm0 0"/></symbol><symbol overflow="visible" id="r"><path d="M-6.55-4.3c0-.4.07-.75.2-1.08a1.9 1.9 0 011.37-1.11 9.1 9.1 0 011.23-.06H0v1.7h-3.88c-.35 0-.63.06-.84.18-.3.15-.44.44-.44.87 0 .44.14.77.44 1 .3.23.72.34 1.26.35H0V-.8h-8.6v-1.67h3.05a2.05 2.05 0 01-1-1.84zm0 0"/></symbol><symbol overflow="visible" id="s"><path d="M-6.39-3.8v-1.68l4.6-.98-4.6-1V-9.2L0-7.34v1.71l-4.65 1L0-3.6v1.73l-6.39 1.8v-1.8l4.59-1zm0 0"/></symbol><symbol overflow="visible" id="F"><path d="M3.13-6.54c.39 0 .74.09 1.03.25.3.18.55.41.74.71v-3.04h1.7V0H4.96v-.88c-.24.38-.5.65-.81.82-.3.17-.7.26-1.14.26-.75 0-1.38-.3-1.89-.9C.63-1.3.37-2.1.37-3.04a4 4 0 01.75-2.57c.5-.63 1.18-.94 2.01-.94zM3.5-1.2c.47 0 .83-.17 1.08-.52.24-.36.37-.8.37-1.37 0-.78-.2-1.34-.6-1.67-.24-.2-.52-.3-.84-.3-.49 0-.85.18-1.08.54a2.6 2.6 0 00-.34 1.38c0 .59.12 1.06.35 1.41.23.36.58.53 1.06.53zm0 0"/></symbol><symbol overflow="visible" id="G"><path d="M2.5-7.15H.8v-1.54h1.7zm-1.7.76h1.7V0H.8zm0 0"/></symbol><symbol overflow="visible" id="H"><path d="M2.08-2.04c.03.3.11.5.23.63.2.23.59.34 1.15.34.33 0 .59-.05.78-.15.2-.1.3-.24.3-.44a.48.48 0 00-.24-.43c-.16-.1-.74-.26-1.75-.5a3.58 3.58 0 01-1.53-.68C.72-3.53.58-3.9.58-4.4a2 2 0 01.7-1.52 2.8 2.8 0 011.95-.64c.8 0 1.45.16 1.95.48.5.32.79.87.86 1.65H4.37a.96.96 0 00-.18-.51c-.19-.23-.5-.34-.94-.34-.36 0-.62.06-.77.17-.16.11-.24.25-.24.4 0 .19.09.33.25.42.17.09.74.24 1.74.46.66.15 1.16.39 1.5.7.32.33.49.73.49 1.2 0 .64-.24 1.15-.7 1.56-.48.4-1.2.6-2.2.6-1 0-1.74-.22-2.21-.64a2.07 2.07 0 01-.72-1.62zm0 0"/></symbol><symbol overflow="visible" id="I"><path d="M5.18-3.2c0-.49-.11-.92-.34-1.3-.22-.38-.59-.57-1.09-.57-.6 0-1.02.29-1.25.86-.12.3-.17.7-.17 1.16 0 .75.2 1.27.59 1.57.23.17.51.26.83.26.46 0 .82-.18 1.06-.54.25-.36.37-.83.37-1.44zm-.95-3.33c.75 0 1.38.28 1.9.83.51.55.77 1.36.77 2.43 0 1.12-.25 1.98-.76 2.57-.5.59-1.16.88-1.95.88-.51 0-.93-.13-1.27-.38a2.6 2.6 0 01-.54-.61v3.33H.73v-8.9h1.6v.93c.18-.27.37-.49.58-.65a2.1 2.1 0 011.32-.43zm0 0"/></symbol><symbol overflow="visible" id="J"><path d="M2.48 0H.81v-8.64h1.67zm0 0"/></symbol><symbol overflow="visible" id="K"><path d="M4.3-3.1a2.76 2.76 0 01-.76.28l-.38.06c-.35.06-.6.14-.75.23-.26.15-.39.39-.39.71 0 .28.08.49.24.62a.9.9 0 00.58.18c.36 0 .69-.1.99-.3.3-.22.46-.6.47-1.16zM3.3-3.89c.3-.04.53-.1.66-.15.24-.1.35-.26.35-.48 0-.26-.09-.44-.26-.54-.19-.1-.45-.15-.8-.15-.4 0-.68.1-.84.3-.12.14-.2.34-.24.58H.56c.03-.56.18-1.02.46-1.38.44-.56 1.2-.84 2.27-.84.7 0 1.32.14 1.87.42.54.27.8.8.8 1.57v2.92l.02.75c.02.22.05.36.1.44a.6.6 0 00.25.2V0H4.5a1.86 1.86 0 01-.1-.36 4.38 4.38 0 01-.05-.39c-.23.25-.5.46-.8.64-.36.2-.76.3-1.22.3A2.1 2.1 0 01.91-.3C.54-.63.34-1.1.34-1.7c0-.78.3-1.35.91-1.7.34-.2.82-.33 1.47-.41zm0 0"/></symbol><symbol overflow="visible" id="L"><path d="M4.6-4.1c-.04-.23-.12-.45-.25-.64-.19-.26-.47-.38-.87-.38-.56 0-.95.27-1.15.83-.11.3-.17.7-.17 1.18 0 .47.06.85.17 1.13.2.53.57.8 1.12.8.4 0 .67-.1.83-.31.17-.21.27-.49.3-.82h1.7c-.03.5-.22.98-.55 1.44-.52.73-1.3 1.1-2.32 1.1-1.03 0-1.79-.31-2.27-.92a3.7 3.7 0 01-.73-2.37c0-1.1.27-1.96.8-2.56a2.8 2.8 0 012.22-.92c.8 0 1.46.18 1.97.54.51.36.81 1 .9 1.9zm0 0"/></symbol><symbol overflow="visible" id="M"><path d="M3.3-5.18c-.39 0-.69.12-.9.36-.21.25-.35.57-.4.99h2.6c-.03-.44-.17-.78-.4-1a1.23 1.23 0 00-.9-.35zm0-1.37c.53 0 1 .1 1.43.3.43.2.78.5 1.06.94.25.38.41.81.48 1.31.05.3.07.72.06 1.27H1.96c.02.64.22 1.09.6 1.35.23.16.51.24.83.24.34 0 .63-.1.84-.3.12-.1.22-.25.3-.44h1.72c-.05.38-.24.77-.6 1.16a2.9 2.9 0 01-2.3.93c-.8 0-1.52-.26-2.14-.78C.59-1.1.27-1.95.27-3.13c0-1.1.28-1.95.85-2.54a2.87 2.87 0 012.18-.88zm0 0"/></symbol><symbol overflow="visible" id="N"><path d="M7.91-6.53c.29 0 .57.06.84.17a1.85 1.85 0 011.1 1.4c.04.2.06.52.06.94V0H8.18v-4.07c0-.24-.04-.44-.12-.6-.14-.3-.42-.44-.82-.44-.46 0-.77.2-.95.57-.1.2-.14.45-.14.74V0H4.48v-3.8c0-.38-.03-.66-.11-.83-.14-.3-.42-.46-.83-.46-.48 0-.8.15-.96.46-.1.18-.13.44-.13.79V0H.75v-6.38h1.63v.93c.2-.33.4-.56.58-.7a2 2 0 011.26-.38c.49 0 .88.1 1.18.33.24.2.43.45.55.76.22-.37.5-.65.82-.83.34-.17.72-.26 1.14-.26zm0 0"/></symbol><symbol overflow="visible" id="O"><path d="M4.32-6.54c.66 0 1.2.17 1.62.52.42.34.63.92.63 1.72V0H4.86v-3.88c0-.34-.05-.6-.14-.78-.16-.32-.47-.49-.93-.49-.57 0-.96.24-1.17.72-.11.25-.17.58-.17.97V0H.8v-6.38H2.4v.93c.22-.32.42-.56.61-.7.35-.26.78-.39 1.31-.39zm0 0"/></symbol><symbol overflow="visible" id="P"><path d="M.13-5.14v-1.19h.89V-8.1h1.64v1.78H3.7v1.19H2.66v3.37c0 .27.04.43.1.5.07.06.28.09.62.09h.32V.05l-.79.03C2.12.1 1.6-.02 1.3-.32c-.2-.2-.28-.49-.28-.89v-3.93zm0 0"/></symbol><symbol overflow="visible" id="R"><path d="M5.97-8.64h1.87L4.9 0H3.2L.27-8.64H2.2l1.88 6.56zm0 0"/></symbol><symbol overflow="visible" id="S"><path d="M2.22-2.66c.05.39.16.68.32.88.3.35.8.53 1.5.53.43 0 .78-.05 1.05-.14.5-.18.75-.51.75-1 0-.29-.12-.5-.37-.66a4.06 4.06 0 00-1.18-.4l-.92-.21c-.9-.2-1.51-.43-1.86-.66C.93-4.72.64-5.34.64-6.2c0-.77.28-1.4.84-1.92.57-.51 1.4-.77 2.48-.77.91 0 1.69.24 2.33.73.64.48.98 1.18 1.01 2.1H5.57c-.03-.52-.26-.9-.68-1.11a2.28 2.28 0 00-1.05-.22c-.47 0-.84.1-1.11.28a.9.9 0 00-.42.79c0 .3.14.54.4.69a5 5 0 001.13.36l1.5.36c.64.15 1.14.36 1.47.62.51.4.77 1 .77 1.77 0 .79-.3 1.44-.9 1.96a3.8 3.8 0 01-2.56.78C2.99.22 2.1-.04 1.46-.55A2.56 2.56 0 01.5-2.66zm0 0"/></symbol><symbol overflow="visible" id="T"><path d="M3.52-1.37c.4 0 .72-.15 1-.44.26-.3.4-.77.4-1.41 0-.6-.13-1.07-.39-1.39-.25-.31-.6-.47-1.03-.47-.58 0-.98.28-1.21.83-.12.29-.17.65-.17 1.08 0 .37.06.7.18.99.23.54.64.8 1.22.8zm-.41-5.17c.32 0 .6.05.84.15.4.17.73.48.98.92v-.92h1.62v6.06c0 .83-.14 1.45-.42 1.87-.47.71-1.39 1.07-2.74 1.07-.82 0-1.48-.16-2-.48C.88 1.81.6 1.33.54.7h1.82c.04.2.12.33.23.42.18.15.48.23.9.23.6 0 1-.2 1.2-.6.14-.27.2-.7.2-1.3v-.42c-.15.27-.32.48-.5.62-.34.25-.77.38-1.3.38-.82 0-1.48-.29-1.97-.87A3.5 3.5 0 01.4-3.18c0-.94.23-1.74.7-2.39a2.35 2.35 0 012.02-.97zm0 0"/></symbol><symbol overflow="visible" id="U"><path d="M4.3-6.55c.4 0 .75.07 1.08.2a1.9 1.9 0 011.11 1.37c.04.25.06.66.06 1.23V0h-1.7v-3.88c0-.35-.06-.63-.18-.84-.15-.3-.44-.44-.87-.44-.44 0-.77.14-1 .44-.23.3-.35.72-.35 1.26V0H.8v-8.6h1.66v3.05a2.06 2.06 0 011.85-1zm0 0"/></symbol></defs><path fill="#fff" d="M0 0h360v360H0z"/><path d="M57.6 302.4h244.8V57.6H57.6v244.8" fill="none" stroke-width=".75" stroke-linecap="round" stroke-linejoin="round" stroke="#000" stroke-miterlimit="10"/><path d="M120.98 193.6c0 5.4-8.1 5.4-8.1 0s8.1-5.4 8.1 0" fill="#ee7600" stroke-width=".75" stroke-linecap="round" stroke-linejoin="round" stroke="#ee7600" stroke-miterlimit="10"/><path d="M120.98 193.6c0 5.4-8.1 5.4-8.1 0s8.1-5.4 8.1 0M91.58 177.28c0 5.4-8.1 5.4-8.1 0s8.1-5.4 8.1 0M176.4 189.97c0 5.4-8.11 5.4-8.11 0s8.1-5.4 8.1 0M234.06 214.45c0 5.4-8.1 5.4-8.1 0s8.1-5.4 8.1 0M157.73 219.9c0 5.4-8.1 5.4-8.1 0s8.1-5.4 8.1 0M234.06 254.35c0 5.4-8.1 5.4-8.1 0s8.1-5.4 8.1 0M113.46 162.77c0 5.4-8.1 5.4-8.1 0s8.1-5.4 8.1 0M110.13 177.28c0 5.4-8.1 5.4-8.1 0s8.1-5.4 8.1 0M125.28 209.92c0 5.4-8.1 5.4-8.1 0s8.1-5.4 8.1 0M125.28 222.61c0 5.4-8.1 5.4-8.1 0s8.1-5.4 8.1 0M186.45 235.3c0 5.4-8.1 5.4-8.1 0s8.1-5.4 8.1 0" fill="#ee7600" stroke-width=".75" stroke-linecap="round" stroke-linejoin="round" stroke="#ee7600" stroke-miterlimit="10"/><path d="M186.45 227.15c0 5.4-8.1 5.4-8.1 0s8.1-5.4 8.1 0M186.45 246.19c0 5.4-8.1 5.4-8.1 0s8.1-5.4 8.1 0M297.38 289.7c0 5.4-8.1 5.4-8.1 0s8.1-5.4 8.1 0" fill="#ee7600" stroke-width=".75" stroke-linecap="round" stroke-linejoin="round" stroke="#ee7600" stroke-miterlimit="10"/><path d="M290.6 289.7c0 5.4-8.1 5.4-8.1 0s8.1-5.4 8.1 0M279.29 250.72c0 5.4-8.1 5.4-8.1 0s8.1-5.4 8.1 0M75.01 90.24c0 5.4-8.1 5.4-8.1 0s8.1-5.4 8.1 0M73.32 108.38c0 5.4-8.1 5.4-8.1 0s8.1-5.4 8.1 0M70.71 76.64c0 5.4-8.1 5.4-8.1 0s8.1-5.4 8.1 0M98.42 189.07c0 5.4-8.1 5.4-8.1 0s8.1-5.4 8.1 0M210.31 243.46c0 5.4-8.1 5.4-8.1 0s8.1-5.4 8.1 0" fill="#ee7600" stroke-width=".75" stroke-linecap="round" stroke-linejoin="round" stroke="#ee7600" stroke-miterlimit="10"/><path d="M202.4 246.19c0 5.4-8.1 5.4-8.1 0s8.1-5.4 8.1 0M228.4 263.41c0 5.4-8.1 5.4-8.1 0s8.1-5.4 8.1 0M256.68 209.92c0 5.4-8.1 5.4-8.1 0s8.1-5.4 8.1 0M75.18 136.48c0 5.4-8.1 5.4-8.1 0s8.1-5.4 8.1 0M98.54 148.27c0 5.4-8.1 5.4-8.1 0s8.1-5.4 8.1 0M84.29 108.38c0 5.4-8.1 5.4-8.1 0s8.1-5.4 8.1 0M228.97 240.75c0 5.4-8.1 5.4-8.1 0s8.1-5.4 8.1 0M112.5 205.39c0 5.4-8.1 5.4-8.1 0s8.1-5.4 8.1 0" fill="#ee7600" stroke-width=".75" stroke-linecap="round" stroke-linejoin="round" stroke="#ee7600" stroke-miterlimit="10"/><path d="M200.7 248c0 5.4-8.1 5.4-8.1 0s8.1-5.4 8.1 0M98.93 189.97c0 5.4-8.1 5.4-8.1 0s8.1-5.4 8.1 0" fill="#ee7600" stroke-width=".75" stroke-linecap="round" stroke-linejoin="round" stroke="#ee7600" stroke-miterlimit="10"/><path d="M57.6 293.33V66.67M57.6 293.33h-7.2M57.6 248h-7.2M57.6 202.67h-7.2M57.6 157.33h-7.2M57.6 112h-7.2M57.6 66.67h-7.2" fill="none" stroke-width="1.5" stroke-linecap="round" stroke-linejoin="round" stroke="#000" stroke-miterlimit="10"/><g fill="#ee7600"><use xlink:href="#a" x="29.2" y="297.07"/><use xlink:href="#b" x="35.87" y="297.07"/></g><g fill="#ee7600"><use xlink:href="#a" x="29.2" y="251.74"/><use xlink:href="#c" x="35.87" y="251.74"/></g><g fill="#ee7600"><use xlink:href="#d" x="29.2" y="206.41"/><use xlink:href="#b" x="35.87" y="206.41"/></g><g fill="#ee7600"><use xlink:href="#d" x="29.2" y="161.07"/><use xlink:href="#c" x="35.87" y="161.07"/></g><g fill="#ee7600"><use xlink:href="#e" x="29.2" y="115.74"/><use xlink:href="#b" x="35.87" y="115.74"/></g><g fill="#ee7600"><use xlink:href="#e" x="29.2" y="70.41"/><use xlink:href="#c" x="35.87" y="70.41"/></g><g fill="#ee7600"><use xlink:href="#f" x="10.76" y="226"/><use xlink:href="#g" x="10.76" y="215.33"/><use xlink:href="#h" x="10.76" y="212"/><use xlink:href="#i" x="10.76" y="208.66"/><use xlink:href="#j" x="10.76" y="201.99"/><use xlink:href="#k" x="10.76" y="195.31"/><use xlink:href="#l" x="10.76" y="191.98"/><use xlink:href="#i" x="10.76" y="184.65"/><use xlink:href="#m" x="10.76" y="177.98"/><use xlink:href="#k" x="10.76" y="173.31"/><use xlink:href="#n" x="10.76" y="169.97"/><use xlink:href="#o" x="10.76" y="162.64"/><use xlink:href="#h" x="10.76" y="155.97"/><use xlink:href="#h" x="10.76" y="152.63"/><use xlink:href="#p" x="10.76" y="149.3"/><use xlink:href="#q" x="10.76" y="141.97"/></g><path d="M120.98 248c0 5.4-8.1 5.4-8.1 0s8.1-5.4 8.1 0" fill="#228b22" stroke-width=".75" stroke-linecap="round" stroke-linejoin="round" stroke="#228b22" stroke-miterlimit="10"/><path d="M120.98 248c0 5.4-8.1 5.4-8.1 0s8.1-5.4 8.1 0M91.58 260.84c0 5.4-8.1 5.4-8.1 0s8.1-5.4 8.1 0M176.4 248c0 5.4-8.11 5.4-8.11 0s8.1-5.4 8.1 0M234.06 198.9c0 5.39-8.1 5.39-8.1 0 0-5.41 8.1-5.41 8.1 0M157.73 251.78c0 5.4-8.1 5.4-8.1 0s8.1-5.4 8.1 0M234.06 146c0 5.4-8.1 5.4-8.1 0s8.1-5.4 8.1 0M113.46 284.27c0 5.4-8.1 5.4-8.1 0s8.1-5.4 8.1 0M110.13 259.33c0 5.4-8.1 5.4-8.1 0s8.1-5.4 8.1 0M125.28 238.18c0 5.4-8.1 5.4-8.1 0s8.1-5.4 8.1 0" fill="#228b22" stroke-width=".75" stroke-linecap="round" stroke-linejoin="round" stroke="#228b22" stroke-miterlimit="10"/><path d="M125.28 238.18c0 5.4-8.1 5.4-8.1 0s8.1-5.4 8.1 0M186.45 195.1c0 5.41-8.1 5.41-8.1 0 0-5.39 8.1-5.39 8.1 0" fill="#228b22" stroke-width=".75" stroke-linecap="round" stroke-linejoin="round" stroke="#228b22" stroke-miterlimit="10"/><path d="M186.45 195.1c0 5.41-8.1 5.41-8.1 0 0-5.39 8.1-5.39 8.1 0" fill="#228b22" stroke-width=".75" stroke-linecap="round" stroke-linejoin="round" stroke="#228b22" stroke-miterlimit="10"/><path d="M186.45 195.1c0 5.41-8.1 5.41-8.1 0 0-5.39 8.1-5.39 8.1 0M297.38 176.22c0 5.4-8.1 5.4-8.1 0s8.1-5.4 8.1 0M290.6 168.67c0 5.4-8.1 5.4-8.1 0s8.1-5.4 8.1 0M279.29 157.33c0 5.4-8.1 5.4-8.1 0s8.1-5.4 8.1 0M75.01 281.25c0 5.4-8.1 5.4-8.1 0s8.1-5.4 8.1 0M73.32 291.82c0 5.4-8.1 5.4-8.1 0s8.1-5.4 8.1 0" fill="#228b22" stroke-width=".75" stroke-linecap="round" stroke-linejoin="round" stroke="#228b22" stroke-miterlimit="10"/><path d="M70.71 282c0 5.4-8.1 5.4-8.1 0s8.1-5.4 8.1 0M98.42 257.82c0 5.4-8.1 5.4-8.1 0s8.1-5.4 8.1 0M210.31 217.78c0 5.4-8.1 5.4-8.1 0s8.1-5.4 8.1 0" fill="#228b22" stroke-width=".75" stroke-linecap="round" stroke-linejoin="round" stroke="#228b22" stroke-miterlimit="10"/><path d="M202.4 217.78c0 5.4-8.1 5.4-8.1 0s8.1-5.4 8.1 0M228.4 146c0 5.4-8.1 5.4-8.1 0s8.1-5.4 8.1 0M256.68 198.9c0 5.39-8.1 5.39-8.1 0 0-5.41 8.1-5.41 8.1 0M75.18 281.25c0 5.4-8.1 5.4-8.1 0s8.1-5.4 8.1 0M98.54 262.36c0 5.4-8.1 5.4-8.1 0s8.1-5.4 8.1 0M84.29 245.73c0 5.4-8.1 5.4-8.1 0s8.1-5.4 8.1 0M228.97 131.64c0 5.4-8.1 5.4-8.1 0s8.1-5.4 8.1 0M112.5 198.9c0 5.39-8.1 5.39-8.1 0 0-5.41 8.1-5.41 8.1 0M200.7 78c0 5.4-8.1 5.4-8.1 0s8.1-5.4 8.1 0M98.93 248.75c0 5.4-8.1 5.4-8.1 0s8.1-5.4 8.1 0" fill="#228b22" stroke-width=".75" stroke-linecap="round" stroke-linejoin="round" stroke="#228b22" stroke-miterlimit="10"/><path d="M302.4 293.33V66.67M302.4 293.33h7.2M302.4 255.55h7.2M302.4 217.78h7.2M302.4 180h7.2M302.4 142.22h7.2M302.4 104.45h7.2M302.4 66.67h7.2" fill="none" stroke-width="1.5" stroke-linecap="round" stroke-linejoin="round" stroke="#000" stroke-miterlimit="10"/><g fill="#228b22"><use xlink:href="#c" x="316.8" y="297.07"/><use xlink:href="#b" x="323.47" y="297.07"/></g><g fill="#228b22"><use xlink:href="#a" x="316.8" y="259.29"/><use xlink:href="#b" x="323.47" y="259.29"/><use xlink:href="#b" x="330.15" y="259.29"/></g><g fill="#228b22"><use xlink:href="#a" x="316.8" y="221.52"/><use xlink:href="#c" x="323.47" y="221.52"/><use xlink:href="#b" x="330.15" y="221.52"/></g><g fill="#228b22"><use xlink:href="#d" x="316.8" y="183.74"/><use xlink:href="#b" x="323.47" y="183.74"/><use xlink:href="#b" x="330.15" y="183.74"/></g><g fill="#228b22"><use xlink:href="#d" x="316.8" y="145.96"/><use xlink:href="#c" x="323.47" y="145.96"/><use xlink:href="#b" x="330.15" y="145.96"/></g><g fill="#228b22"><use xlink:href="#e" x="316.8" y="108.19"/><use xlink:href="#b" x="323.47" y="108.19"/><use xlink:href="#b" x="330.15" y="108.19"/></g><g fill="#228b22"><use xlink:href="#e" x="316.8" y="70.41"/><use xlink:href="#c" x="323.47" y="70.41"/><use xlink:href="#b" x="330.15" y="70.41"/></g><g fill="#228b22"><use xlink:href="#r" x="356.36" y="216"/><use xlink:href="#p" x="356.36" y="208.67"/><use xlink:href="#m" x="356.36" y="201.34"/><use xlink:href="#j" x="356.36" y="196.67"/><use xlink:href="#i" x="356.36" y="190"/><use xlink:href="#k" x="356.36" y="183.32"/><use xlink:href="#l" x="356.36" y="179.99"/><use xlink:href="#p" x="356.36" y="172.66"/><use xlink:href="#s" x="356.36" y="165.33"/><use xlink:href="#i" x="356.36" y="155.99"/><use xlink:href="#m" x="356.36" y="149.32"/></g><path d="M83 302.4h169.63M83 302.4v7.2M139.55 302.4v7.2M196.09 302.4v7.2M252.63 302.4v7.2" fill="none" stroke-width=".75" stroke-linecap="round" stroke-linejoin="round" stroke="#000" stroke-miterlimit="10"/><use xlink:href="#a" x="72.51" y="327.56"/><use xlink:href="#b" x="79.18" y="327.56"/><use xlink:href="#b" x="85.86" y="327.56"/><use xlink:href="#d" x="129.05" y="327.56"/><use xlink:href="#b" x="135.72" y="327.56"/><use xlink:href="#b" x="142.39" y="327.56"/><g><use xlink:href="#e" x="185.59" y="327.56"/><use xlink:href="#b" x="192.26" y="327.56"/><use xlink:href="#b" x="198.93" y="327.56"/></g><g><use xlink:href="#t" x="242.13" y="327.56"/><use xlink:href="#b" x="248.8" y="327.56"/><use xlink:href="#b" x="255.47" y="327.56"/></g><g><use xlink:href="#u" x="144.5" y="356.36"/><use xlink:href="#v" x="151.17" y="356.36"/><use xlink:href="#w" x="153.84" y="356.36"/><use xlink:href="#x" x="159.84" y="356.36"/><use xlink:href="#y" x="166.51" y="356.36"/><use xlink:href="#z" x="169.18" y="356.36"/><use xlink:href="#A" x="175.85" y="356.36"/><use xlink:href="#B" x="181.85" y="356.36"/><use xlink:href="#C" x="188.53" y="356.36"/><use xlink:href="#B" x="198.52" y="356.36"/><use xlink:href="#D" x="205.2" y="356.36"/><use xlink:href="#E" x="211.87" y="356.36"/></g><g><use xlink:href="#F" x="57.6" y="32.54"/><use xlink:href="#G" x="64.93" y="32.54"/><use xlink:href="#H" x="68.27" y="32.54"/><use xlink:href="#I" x="74.94" y="32.54"/><use xlink:href="#J" x="82.27" y="32.54"/><use xlink:href="#K" x="85.6" y="32.54"/><use xlink:href="#L" x="92.28" y="32.54"/><use xlink:href="#M" x="98.95" y="32.54"/><use xlink:href="#N" x="105.63" y="32.54"/><use xlink:href="#M" x="116.29" y="32.54"/><use xlink:href="#O" x="122.97" y="32.54"/><use xlink:href="#P" x="130.3" y="32.54"/><use xlink:href="#Q" x="134.29" y="32.54"/><use xlink:href="#R" x="137.63" y="32.54"/><use xlink:href="#S" x="145.63" y="32.54"/><use xlink:href="#Q" x="153.64" y="32.54"/><use xlink:href="#N" x="156.97" y="32.54"/><use xlink:href="#I" x="167.64" y="32.54"/><use xlink:href="#T" x="174.97" y="32.54"/><use xlink:href="#Q" x="182.3" y="32.54"/><use xlink:href="#R" x="185.63" y="32.54"/><use xlink:href="#S" x="193.64" y="32.54"/><use xlink:href="#Q" x="201.64" y="32.54"/><use xlink:href="#U" x="204.98" y="32.54"/><use xlink:href="#I" x="212.31" y="32.54"/></g></svg>