<svg xmlns="http://www.w3.org/2000/svg" xmlns:xlink="http://www.w3.org/1999/xlink" width="960" height="576" viewBox="0 0 720 432"><defs><symbol overflow="visible" id="f"><path d="M1.15-5.94v-.81c.76-.07 1.3-.2 1.6-.37.3-.18.52-.59.66-1.24h.84V0H3.12v-5.94zm0 0"/></symbol><symbol overflow="visible" id="g"><path d="M3.25-8.4c1.08 0 1.87.45 2.35 1.35a6 6 0 01.56 2.84c0 1.14-.17 2.08-.5 2.83C5.16-.3 4.36.23 3.24.23c-1 0-1.76-.43-2.25-1.3a6 6 0 01-.61-2.94c0-.96.12-1.78.36-2.46.46-1.27 1.3-1.91 2.5-1.91zM3.23-.72c.55 0 .99-.25 1.3-.73.33-.49.5-1.38.5-2.7 0-.96-.12-1.74-.35-2.36-.24-.61-.7-.92-1.37-.92-.62 0-1.08.3-1.36.87a6.02 6.02 0 00-.43 2.59c0 .85.09 1.54.27 2.06.28.8.76 1.19 1.44 1.19zm0 0"/></symbol><symbol overflow="visible" id="h"><path d="M.38 0C.4-.72.55-1.35.81-1.89c.26-.53.77-1.02 1.52-1.45L3.47-4c.5-.29.86-.54 1.06-.75.32-.32.48-.7.48-1.1 0-.5-.15-.88-.44-1.17a1.6 1.6 0 00-1.17-.43c-.72 0-1.22.27-1.5.82-.15.29-.23.7-.25 1.22H.58c.01-.73.15-1.33.4-1.8.46-.8 1.27-1.21 2.43-1.21.96 0 1.66.26 2.1.78.44.52.67 1.1.67 1.73 0 .68-.24 1.25-.71 1.73-.27.27-.77.61-1.47 1l-.8.45c-.39.21-.7.41-.91.6-.4.34-.63.72-.74 1.13h4.58v1zm0 0"/></symbol><symbol overflow="visible" id="i"><path d="M3.12.23C2.12.23 1.4-.04.96-.6a3.04 3.04 0 01-.67-1.99h1.1c.05.54.15.94.3 1.19.28.44.77.66 1.49.66.55 0 1-.15 1.33-.45.34-.3.5-.68.5-1.15 0-.58-.17-.98-.53-1.2a2.68 2.68 0 00-1.47-.35h-.43v-.92a5.58 5.58 0 00.51.03c.4 0 .72-.07.98-.2.44-.21.66-.6.66-1.16 0-.42-.14-.75-.44-.97-.3-.23-.64-.34-1.04-.34-.7 0-1.19.23-1.46.7-.15.26-.23.63-.25 1.1H.5c0-.62.13-1.15.38-1.59.42-.78 1.18-1.17 2.26-1.17.86 0 1.52.19 1.98.57.47.38.7.93.7 1.65 0 .52-.13.94-.4 1.26-.18.2-.4.35-.67.47.44.12.78.35 1.03.7.25.34.37.77.37 1.27 0 .8-.26 1.45-.8 1.95-.52.5-1.26.76-2.23.76zm0 0"/></symbol><symbol overflow="visible" id="j"><path d="M3.97-2.97v-3.8l-2.7 3.8zM3.98 0v-2.05H.3v-1.03l3.85-5.33h.89v5.44h1.23v.92H5.04V0zm0 0"/></symbol><symbol overflow="visible" id="k"><path d="M1.48-2.14c.07.6.35 1.02.84 1.25.25.12.54.18.87.18.62 0 1.08-.2 1.39-.6.3-.4.45-.84.45-1.33 0-.58-.18-1.04-.54-1.36a1.87 1.87 0 00-1.29-.48c-.36 0-.67.07-.93.21-.26.14-.48.34-.66.59l-.92-.05.64-4.52h4.36v1.02H2.12L1.77-4.9c.2-.15.37-.26.55-.33.31-.13.67-.2 1.09-.2.77 0 1.42.25 1.95.75s.8 1.13.8 1.88c0 .8-.24 1.5-.73 2.1-.5.61-1.27.91-2.35.91C2.4.21 1.8.02 1.27-.37.74-.75.45-1.34.39-2.14zm0 0"/></symbol><symbol overflow="visible" id="B"><path d="M3.2-6.46c.7 0 1.28.17 1.72.52.44.34.7.93.8 1.78H4.7a1.9 1.9 0 00-.43-.97c-.23-.26-.58-.39-1.07-.39-.68 0-1.16.33-1.45.99-.19.42-.28.95-.28 1.58 0 .63.13 1.15.4 1.58.26.43.68.65 1.25.65.44 0 .79-.14 1.04-.4.26-.27.43-.64.54-1.1h1.02c-.12.83-.41 1.44-.88 1.83-.47.38-1.07.57-1.8.57a2.4 2.4 0 01-1.96-.9 3.44 3.44 0 01-.74-2.24c0-1.1.27-1.96.8-2.58a2.6 2.6 0 012.06-.92zm0 0"/></symbol><symbol overflow="visible" id="C"><path d="M1.58-1.67c0 .3.12.54.33.72.23.18.5.26.8.26.37 0 .73-.08 1.08-.26.58-.28.87-.75.87-1.4v-.85c-.12.09-.3.16-.5.21-.2.06-.4.1-.59.12l-.64.08a2.4 2.4 0 00-.86.24.94.94 0 00-.49.88zM4.14-3.8c.24-.04.4-.14.49-.3.04-.1.07-.24.07-.41 0-.36-.13-.62-.4-.78a2.03 2.03 0 00-1.09-.25c-.55 0-.94.15-1.17.45-.13.16-.21.4-.25.73H.8c.02-.77.27-1.31.75-1.61.49-.3 1.05-.46 1.68-.46.74 0 1.34.14 1.8.42.46.28.69.72.69 1.31v3.62c0 .11.02.2.07.27.04.06.14.1.28.1l.16-.01.18-.03v.78c-.16.05-.29.08-.37.09l-.35.01c-.37 0-.63-.12-.8-.38a1.44 1.44 0 01-.17-.58c-.22.28-.52.53-.93.73-.4.2-.84.31-1.33.31-.58 0-1.06-.17-1.42-.53-.38-.35-.56-.8-.56-1.33 0-.58.18-1.03.54-1.35.37-.32.85-.52 1.43-.6zm0 0"/></symbol><symbol overflow="visible" id="D"><path d="M1.4-1.97c.03.35.12.62.26.81.27.34.73.51 1.39.51.39 0 .73-.08 1.03-.26.3-.16.44-.43.44-.79a.67.67 0 00-.36-.6 4.49 4.49 0 00-.9-.3l-.83-.22a4.09 4.09 0 01-1.19-.45 1.33 1.33 0 01-.68-1.18c0-.59.22-1.07.64-1.44.43-.37 1-.55 1.73-.55.94 0 1.62.28 2.05.83.26.35.38.74.38 1.14h-1c-.02-.24-.1-.46-.25-.65-.24-.28-.66-.42-1.26-.42-.4 0-.7.08-.9.23-.21.15-.32.36-.32.6 0 .28.14.5.4.66.17.1.4.18.7.26l.7.17c.76.18 1.27.36 1.52.53.41.27.62.7.62 1.27 0 .56-.21 1.05-.64 1.45-.42.4-1.07.61-1.94.61-.93 0-1.6-.21-1.98-.63A2.4 2.4 0 01.4-1.97zm0 0"/></symbol><symbol overflow="visible" id="E"><path d="M3.39-6.41A2.82 2.82 0 015.64-5.3c.2.32.35.68.42 1.1.06.3.1.76.1 1.39h-4.6c.01.64.16 1.15.44 1.53.29.39.72.58 1.31.58a1.7 1.7 0 001.72-1.28h1.03A2.76 2.76 0 015.27-.5c-.32.32-.72.53-1.18.64-.26.06-.55.1-.87.1-.78 0-1.44-.3-1.99-.86a3.32 3.32 0 01-.8-2.39c0-1 .27-1.82.81-2.45a2.7 2.7 0 012.15-.94zm1.68 2.77a2.72 2.72 0 00-.3-1.1c-.29-.5-.77-.76-1.45-.76-.48 0-.89.18-1.22.53-.33.35-.5.79-.52 1.33zm0 0"/></symbol><symbol overflow="visible" id="F"><path d="M.77-6.25h1.07V0H.77zm0-2.36h1.07v1.2H.77zm0 0"/></symbol><symbol overflow="visible" id="G"><path d="M.77-6.27h1v.89c.3-.37.62-.64.95-.8.33-.16.7-.23 1.1-.23.9 0 1.5.3 1.81.93.17.34.26.82.26 1.46V0H4.82v-3.95c0-.39-.06-.7-.17-.93-.19-.4-.53-.59-1.03-.59-.25 0-.45.03-.6.08-.3.09-.55.26-.77.51-.18.21-.29.43-.34.65-.05.22-.08.53-.08.94V0H.77zm0 0"/></symbol><symbol overflow="visible" id="H"><path d="M.77-8.64h1.06v3.21c.25-.31.47-.53.67-.66.34-.23.77-.34 1.27-.34.91 0 1.53.32 1.85.96.18.34.27.83.27 1.45V0H4.8v-3.95c0-.46-.05-.8-.17-1.02-.2-.34-.55-.51-1.08-.51-.44 0-.83.14-1.2.45-.35.3-.52.87-.52 1.7V0H.77zm0 0"/></symbol><symbol overflow="visible" id="I"><path d="M3.27-.68c.7 0 1.17-.27 1.43-.8a4 4 0 00.11-3.2c-.3-.57-.81-.86-1.54-.86-.64 0-1.1.25-1.4.74-.3.5-.44 1.09-.44 1.78a3 3 0 00.44 1.67c.29.45.75.67 1.4.67zm.03-5.78c.81 0 1.5.27 2.06.81.55.54.84 1.33.84 2.38 0 1.01-.25 1.85-.75 2.5-.49.67-1.25 1-2.29 1-.86 0-1.54-.3-2.05-.88A3.46 3.46 0 01.34-3c0-1.05.27-1.9.8-2.52a2.7 2.7 0 012.16-.94zm0 0"/></symbol><symbol overflow="visible" id="J"><path d="M.8-6.27h1v1.08c.09-.21.29-.47.6-.77a1.56 1.56 0 011.22-.45l.24.02v1.12a1.63 1.63 0 00-.35-.03c-.53 0-.94.17-1.22.51-.29.34-.43.74-.43 1.18V0H.8zm0 0"/></symbol><symbol overflow="visible" id="K"><path d="M.7-8.64h1.02v3.12c.23-.3.5-.52.82-.68.32-.16.67-.24 1.05-.24.78 0 1.41.27 1.9.8.48.54.73 1.34.73 2.38 0 1-.24 1.82-.72 2.47-.48.66-1.15.99-2 .99-.48 0-.88-.11-1.21-.35-.2-.14-.4-.35-.63-.65V0H.7zm2.73 7.9c.57 0 1-.22 1.28-.67.29-.46.43-1.05.43-1.8 0-.65-.14-1.2-.43-1.63a1.4 1.4 0 00-1.25-.66c-.48 0-.9.18-1.26.54-.36.35-.54.94-.54 1.76 0 .59.07 1.06.22 1.43.28.7.8 1.04 1.55 1.04zm0 0"/></symbol><symbol overflow="visible" id="L"><path d="M.8-8.6h1.06V0H.8zm0 0"/></symbol><symbol overflow="visible" id="M"><path d="M1.44-3.06c0 .67.15 1.23.43 1.69.28.45.74.67 1.37.67.49 0 .89-.2 1.2-.63.32-.42.47-1.02.47-1.8 0-.8-.16-1.39-.48-1.76a1.52 1.52 0 00-1.2-.58c-.53 0-.96.2-1.3.61-.32.4-.49 1-.49 1.8zm1.6-3.33c.47 0 .87.1 1.2.3.18.13.4.33.63.62v-3.17H5.9V0h-.95v-.88c-.25.4-.54.67-.87.84A2.5 2.5 0 012.9.22c-.7 0-1.3-.29-1.82-.88a3.45 3.45 0 01-.76-2.35c0-.91.23-1.7.7-2.37a2.3 2.3 0 012-1zm0 0"/></symbol><symbol overflow="visible" id="N"><path d="M.77-6.27h1.05v.89c.25-.31.47-.54.68-.68.34-.24.74-.35 1.18-.35.5 0 .9.12 1.2.36.18.14.33.35.48.62.23-.33.5-.58.82-.74.32-.17.67-.24 1.07-.24.84 0 1.41.3 1.72.91.16.33.25.77.25 1.32V0h-1.1v-4.36c0-.42-.1-.7-.31-.86a1.25 1.25 0 00-.77-.23c-.41 0-.77.13-1.07.41-.3.28-.45.74-.45 1.4V0H4.45v-4.1c0-.42-.05-.73-.15-.93-.16-.29-.46-.44-.9-.44-.4 0-.76.16-1.08.47-.33.3-.5.86-.5 1.67V0H.78zm0 0"/></symbol><symbol overflow="visible" id="O"><path d="M.98-8.03h1.07v1.76h1v.86h-1v4.09c0 .22.08.37.22.44.09.04.22.07.41.07h.17l.2-.02V0a2.41 2.41 0 01-.8.1c-.5 0-.83-.13-1-.38a1.69 1.69 0 01-.27-.98V-5.4H.13v-.86h.85zm0 0"/></symbol><symbol overflow="visible" id="P"><path d="M4.7-6.27h1.16l-1 2.75-.95 2.64C3.3.72 2.87 1.7 2.6 2.05c-.24.35-.67.52-1.28.52a2.53 2.53 0 01-.64-.08v-.96a4.9 4.9 0 00.61.11c.2 0 .34-.03.44-.1a.9.9 0 00.23-.24l.21-.47.27-.65L.12-6.27h1.2L3-1.17zm0 0"/></symbol><symbol overflow="visible" id="Q"><path d="M1.83-6.27v4.16c0 .32.05.58.15.79.19.37.54.56 1.05.56.74 0 1.24-.33 1.5-.99.15-.35.22-.83.22-1.45v-3.07H5.8V0h-1l.02-.93A2.24 2.24 0 012.85.17c-.9 0-1.51-.3-1.83-.9A2.67 2.67 0 01.75-2v-4.26zm0 0"/></symbol><symbol overflow="visible" id="R"><path d="M5.18 0H4.13v-8.6h1.05zm-3.1 0H1.04v-5.41H.16v-.84h.88v-1.1c0-.47.14-.82.43-1.04.28-.23.67-.34 1.15-.34a5.06 5.06 0 01.51.04v.94l-.23-.01h-.14c-.3 0-.5.08-.6.25a.98.98 0 00-.08.49v.77h1.05v.84H2.08zm0 0"/></symbol><symbol overflow="visible" id="S"><path d="M1.26-6.27l1.2 4.94L3.7-6.27h1.19L6.1-1.36l1.28-4.91h1.06L6.62 0h-1.1L4.25-4.86 3.01 0h-1.1L.11-6.27zm0 0"/></symbol><symbol overflow="visible" id="l"><path d="M.65-5.1c0-1.8.48-3.2 1.45-4.18a4.34 4.34 0 013.22-1.28c1.75 0 3.02.57 3.83 1.72.44.64.68 1.28.71 1.93H7.7c-.14-.5-.32-.88-.54-1.13-.4-.44-.98-.67-1.75-.67-.79 0-1.41.32-1.87.95a4.58 4.58 0 00-.68 2.7c0 1.16.24 2.03.72 2.61.48.58 1.1.87 1.83.87.76 0 1.34-.25 1.74-.75.22-.26.4-.67.55-1.2h2.14A4.66 4.66 0 018.41-.77 4.22 4.22 0 015.44.29a4.49 4.49 0 01-3.51-1.43A5.76 5.76 0 01.65-5.1zm0 0"/></symbol><symbol overflow="visible" id="m"><path d="M5.16-7.86c.47 0 .9.08 1.29.25a2.25 2.25 0 011.34 1.63c.05.3.07.8.07 1.48V0H5.82v-4.66c0-.41-.07-.75-.21-1-.19-.36-.54-.54-1.05-.54-.52 0-.93.18-1.2.54-.28.35-.41.86-.41 1.51V0h-2v-10.33h2v3.67c.29-.45.62-.76 1-.94.39-.17.79-.26 1.21-.26zm0 0"/></symbol><symbol overflow="visible" id="n"><path d="M3-8.58H.96v-1.85H3zm-2.04.92H3V0H.96zm0 0"/></symbol><symbol overflow="visible" id="o"><path d="M5.51-4.91a1.79 1.79 0 00-.29-.78c-.22-.3-.57-.46-1.04-.46-.68 0-1.14.33-1.39 1-.13.36-.2.83-.2 1.42 0 .57.07 1.02.2 1.36.24.64.69.96 1.35.96.47 0 .8-.13 1-.38.2-.26.32-.58.36-.99h2.04c-.04.61-.26 1.19-.66 1.73C6.25-.17 5.32.27 4.1.27S1.95-.1 1.37-.83A4.44 4.44 0 01.5-3.68c0-1.31.32-2.34.96-3.07a3.37 3.37 0 012.66-1.1c.96 0 1.75.22 2.36.65.61.43.97 1.2 1.09 2.29zm0 0"/></symbol><symbol overflow="visible" id="p"><path d="M.91-10.33h1.97v5.58l2.5-2.88h2.48L5.18-4.7 7.96 0H5.55L3.7-3.28l-.83.87V0H.91zm0 0"/></symbol><symbol overflow="visible" id="q"><path d="M3.96-6.21c-.47 0-.83.14-1.08.43-.25.3-.42.69-.48 1.18H5.5c-.03-.53-.19-.93-.48-1.2a1.5 1.5 0 00-1.07-.41zm0-1.66c.63 0 1.21.12 1.72.36a3 3 0 011.27 1.13c.3.46.5.99.58 1.58.05.35.07.86.06 1.52H2.35c.02.77.27 1.31.72 1.62.28.2.61.29 1 .29.41 0 .75-.12 1-.35.15-.13.27-.3.38-.53H7.5c-.05.45-.3.92-.71 1.39A3.48 3.48 0 014.03.25a3.9 3.9 0 01-2.58-.94C.7-1.32.33-2.34.33-3.75c0-1.33.34-2.35 1.01-3.05a3.45 3.45 0 012.62-1.07zm0 0"/></symbol><symbol overflow="visible" id="r"><path d="M5.18-7.85c.8 0 1.44.2 1.95.63.5.41.75 1.1.75 2.06V0H5.83v-4.66c0-.4-.06-.71-.16-.93-.2-.4-.58-.59-1.13-.59-.68 0-1.15.29-1.4.86-.13.3-.2.7-.2 1.17V0h-2v-7.65h1.94v1.12c.26-.4.5-.68.73-.85.42-.31.94-.47 1.57-.47zm0 0"/></symbol><symbol overflow="visible" id="t"><path d="M4.55-7.66h2.03l1.17 5.52 1.2-5.52h2.08L8.81 0H6.75l-1.2-5.58L4.33 0H2.25L.1-7.66h2.15l1.2 5.5zm0 0"/></symbol><symbol overflow="visible" id="u"><path d="M4.23-1.64c.47 0 .86-.18 1.18-.54.33-.35.49-.91.49-1.69 0-.72-.15-1.28-.46-1.66A1.5 1.5 0 004.2-6.1c-.7 0-1.18.33-1.45 1-.14.35-.21.78-.21 1.3 0 .44.07.84.22 1.18.28.65.76.98 1.47.98zm-.5-6.2c.38 0 .72.05 1 .17.49.2.88.57 1.18 1.11v-1.1h1.95V-.4a4.1 4.1 0 01-.5 2.23c-.57.87-1.67 1.3-3.29 1.3-.98 0-1.78-.2-2.4-.58A2.12 2.12 0 01.65.84h2.18c.05.23.14.4.27.5.22.19.58.28 1.1.28.71 0 1.2-.25 1.44-.73.16-.3.24-.83.24-1.56v-.49c-.2.33-.4.57-.62.74-.4.3-.92.46-1.55.46C2.72.04 1.93-.31 1.35-1a4.2 4.2 0 01-.89-2.81c0-1.14.29-2.1.86-2.87a2.82 2.82 0 012.4-1.17zm0 0"/></symbol><symbol overflow="visible" id="v"><path d="M.15-6.17v-1.42H1.2v-2.14H3.2v2.14h1.25v1.42H3.2v4.05c0 .32.04.51.12.6.08.07.32.1.73.1h.4V.06L3.5.11c-.95.03-1.6-.14-1.95-.5-.22-.23-.34-.58-.34-1.06v-4.72zm0 0"/></symbol><symbol overflow="visible" id="w"><path d="M5.08-7.83c1 0 1.8.36 2.36 1.09.57.72.86 1.66.86 2.81 0 1.2-.28 2.18-.85 2.96A2.74 2.74 0 015.1.2C4.46.2 3.96.08 3.57-.18a3 3 0 01-.74-.78V0H.86v-10.35h2v3.69a2.48 2.48 0 012.21-1.17zm-.52 6.38c.52 0 .92-.2 1.2-.62.3-.42.44-.97.44-1.65 0-.54-.08-1-.22-1.35a1.47 1.47 0 00-1.47-1.01A1.5 1.5 0 003-5.1c-.14.35-.21.8-.21 1.36 0 .66.15 1.2.43 1.64.3.43.74.64 1.33.64zm0 0"/></symbol><symbol overflow="visible" id="x"><path d="M1.25 1.47l.25.01c.2.01.38 0 .56-.02.18-.02.33-.07.45-.16.12-.08.22-.25.33-.5.1-.25.14-.4.12-.46l-2.81-8h2.23l1.67 5.65 1.58-5.65h2.13L5.13-.12c-.5 1.45-.9 2.35-1.2 2.7-.3.35-.89.52-1.77.52h-.43l-.48-.03zm0 0"/></symbol><symbol overflow="visible" id="y"><path d="M3.76-10.47l.35.01.42.03v1.63l-.57-.03c-.26 0-.44.05-.55.18a.64.64 0 00-.15.4v.66h1.32v1.41H3.26V0h-2v-6.18H.16v-1.41h1.1v-.5c0-.82.13-1.38.41-1.7.29-.45 1-.68 2.1-.68zm0 0"/></symbol><symbol overflow="visible" id="z"><path d="M3.76-7.85A2.45 2.45 0 015.88-6.7v-3.65H7.9V0H5.96v-1.06c-.28.45-.6.78-.98.99-.36.2-.82.3-1.36.3-.9 0-1.65-.35-2.26-1.08a4.18 4.18 0 01-.92-2.79c0-1.3.3-2.33.9-3.08.6-.75 1.41-1.13 2.42-1.13zm.44 6.4c.57 0 1-.21 1.3-.63.29-.42.43-.97.43-1.64 0-.94-.23-1.6-.7-2.01A1.53 1.53 0 004.2-6.1c-.58 0-1.01.22-1.29.67-.27.44-.4 1-.4 1.65 0 .7.13 1.27.41 1.7.28.42.7.63 1.27.63zm0 0"/></symbol><symbol overflow="visible" id="A"><path d="M6.21-3.83a3 3 0 00-.4-1.57c-.27-.46-.7-.68-1.31-.68-.73 0-1.23.34-1.5 1.03a3.9 3.9 0 00-.2 1.4c0 .88.23 1.5.7 1.87.28.21.62.32 1 .32.56 0 .98-.22 1.28-.65.29-.43.43-1 .43-1.72zm-1.13-4a3 3 0 012.27.99c.62.66.93 1.63.93 2.91 0 1.35-.3 2.38-.9 3.09-.61.7-1.4 1.06-2.35 1.06C4.42.22 3.9.07 3.5-.24a2.95 2.95 0 01-.65-.74v4H.88V-7.66H2.8v1.13a2.54 2.54 0 012.28-1.3zm0 0"/></symbol><clipPath id="a"><path d="M59.04 319h630.72v2H59.04zm0 0"/></clipPath><clipPath id="b"><path d="M59.04 258h630.72v2H59.04zm0 0"/></clipPath><clipPath id="c"><path d="M59.04 197h630.72v2H59.04zm0 0"/></clipPath><clipPath id="d"><path d="M59.04 136h630.72v2H59.04zm0 0"/></clipPath><clipPath id="e"><path d="M59.04 75h630.72v2H59.04zm0 0"/></clipPath></defs><path fill="#fff" d="M0 0h720v432H0z"/><g clip-path="url(#a)"><path d="M59.04 320.14h630.72" fill="none" stroke-width="1.5" stroke-linecap="round" stroke-linejoin="round" stroke="#d3d3d3" stroke-dasharray="1.5 4.5" stroke-miterlimit="10"/></g><g clip-path="url(#b)"><path d="M59.04 259.14h630.72" fill="none" stroke-width="1.5" stroke-linecap="round" stroke-linejoin="round" stroke="#d3d3d3" stroke-dasharray="1.5 4.5" stroke-miterlimit="10"/></g><g clip-path="url(#c)"><path d="M59.04 198.14h630.72" fill="none" stroke-width="1.5" stroke-linecap="round" stroke-linejoin="round" stroke="#d3d3d3" stroke-dasharray="1.5 4.5" stroke-miterlimit="10"/></g><g clip-path="url(#d)"><path d="M59.04 137.14h630.72" fill="none" stroke-width="1.5" stroke-linecap="round" stroke-linejoin="round" stroke="#d3d3d3" stroke-dasharray="1.5 4.5" stroke-miterlimit="10"/></g><g clip-path="url(#e)"><path d="M59.04 76.13h630.72" fill="none" stroke-width="1.5" stroke-linecap="round" stroke-linejoin="round" stroke="#d3d3d3" stroke-dasharray="1.5 4.5" stroke-miterlimit="10"/></g><path d="M129.25 313.94l.01-.48.01-.48.01-.47.02-.96.02-.48.01-.47.02-.48v-.48l.03-.47.01-.48.02-.48.02-.48.04-.95.1-1.9.02-.49.03-.47.03-.48.06-.95.07-.95.04-.49.04-.47.13-1.43.05-.48.05-.47.05-.49.1-.95.06-.47.13-.96.07-.47.07-.49.07-.47.07-.48.16-.95.08-.48.09-.47.09-.48.08-.48.1-.48.2-.95.1-.48.12-.47.1-.48.24-.96.25-.95.13-.48.13-.47.14-.48.14-.48.14-.48.15-.47.15-.48.16-.48.16-.47.17-.48.16-.48.17-.48.18-.47.36-.96.37-.95.2-.48.19-.48.2-.47.2-.48.2-.48.43-.95.21-.48.22-.48.45-.95.22-.48.47-.95.23-.48.71-1.43.49-.95.25-.48.24-.48.25-.48.25-.47.75-1.43.25-.48.25-.48.26-.48 1.25-2.38.25-.48.73-1.43.49-.95.24-.48.23-.48.24-.48.46-.95.45-.95.23-.48.21-.48.22-.48.21-.47.41-.96.4-.95.2-.48.19-.48.19-.47.36-.96.17-.47.34-.96.16-.48.16-.47.15-.48.15-.48.14-.47.14-.48.14-.48.13-.48.13-.47.13-.48.23-.95.22-.96.1-.48.2-.95.1-.48.09-.47.16-.96.08-.48.08-.47.14-.96.06-.47.13-.95.06-.49.1-.95.06-.47.14-1.43.04-.49.09-.95.07-.95.04-.48.04-.47.03-.49.21-2.85.04-.48.1-1.43.12-1.43.04-.48.09-.96.14-1.43.05-.47.05-.48.06-.48.12-.95.12-.96.07-.47.07-.48.07-.48.16-.95.08-.48.09-.48.09-.47.1-.48.09-.48.1-.48.1-.47.12-.48.22-.95.12-.48.13-.48.13-.48.13-.47.14-.48.29-.95.15-.48.16-.48.15-.48.17-.47.16-.48.36-.95.18-.48.19-.48.18-.48.4-.95.2-.48.21-.47.22-.48.22-.48.21-.48.23-.47.46-.96.24-.47.24-.48.25-.48.25-.48.5-.95.26-.48.27-.47.26-.48.27-.48.27-.48.27-.47.28-.48.27-.48.56-.95.29-.48.28-.48.29-.47.57-.96.29-.47.29-.48.29-.48.57-.95.29-.48.29-.48.57-.95.28-.48.28-.48.56-.95.54-.95.27-.48.26-.48.52-.95.25-.48.25-.48.24-.47.24-.48.23-.48.23-.48.44-.95.4-.95.2-.48.18-.48.18-.48.17-.47.17-.48.15-.48.15-.47.13-.48.13-.47.12-.49.11-.47.1-.48.1-.47.08-.48.07-.48.06-.47.05-.49.04-.47.03-.48.02-.47v-.96l-.02-.47-.03-.49-.03-.47-.11-.95-.08-.48-.08-.48-.1-.47-.1-.48-.13-.48-.13-.48-.14-.47-.16-.48-.17-.48-.17-.47-.2-.48-.2-.48-.2-.48-.23-.47-.24-.48-.25-.48-.25-.47-.27-.48-.28-.48-.29-.48-.3-.47-.3-.48-.66-.95-.34-.48-.35-.48-.36-.48-.37-.47-.37-.48-.39-.48-.39-.47-.4-.48-.4-.48-.42-.48-.43-.47-.43-.48-.43-.48-.44-.47-.45-.48-.46-.48-.45-.48-.94-.95-.47-.48-.96-.95-.49-.48-.48-.48-.99-.95-.99-.95-.5-.48-1-.96-.5-.47-1.5-1.43-.5-.48-.5-.48-1-.95-.48-.48-.5-.48-.49-.47-.48-.48-.49-.48-.96-.95-.47-.48-.47-.48-.47-.47-.46-.48-.45-.48-.46-.48-.44-.47-.44-.48-.44-.48-.43-.47-.43-.48-.42-.48-.41-.48-.41-.47-.4-.48-.4-.48-.39-.47-.38-.48-.38-.48-.37-.48-.36-.47-.36-.48-.35-.48-.34-.47-.34-.48-.33-.48-.32-.48-.63-.95-.3-.48-.29-.47-.29-.48-.28-.48-.28-.48-.26-.47-.26-.48-.26-.48-.24-.47-.25-.48-.23-.48-.23-.48-.22-.47-.22-.48-.2-.48-.2-.47-.2-.48-.2-.48-.18-.48-.35-.95-.17-.48-.32-.95-.15-.48-.15-.48-.14-.47-.13-.48-.14-.47-.12-.48-.12-.48-.12-.48-.11-.48-.11-.47-.1-.48-.1-.47-.2-.96-.09-.48-.08-.47-.08-.48-.08-.48-.15-.95-.07-.48-.06-.48-.13-.95-.06-.48-.05-.47-.1-.96-.05-.47-.05-.48-.04-.48-.12-1.43-.07-.95-.03-.48-.03-.48-.03-.48-.03-.47-.02-.48-.03-.48-.02-.47-.02-.48-.02-.48-.02-.48-.02-.47-.02-.48-.03-.95-.01-.48-.02-.48-.01-.48-.04-1.43v-.47l-.02-.48-.01-.96H129v.48l-.02.48v.48l-.06 2.38-.02.48-.01.48-.05 1.43-.06 1.43-.02.48-.05.95-.08 1.43-.03.48-.03.48-.1 1.43-.05.47-.08.96-.05.48-.05.47-.04.48-.11.95-.12.96-.06.47-.07.48-.14.96-.08.47-.07.48-.09.47-.08.48-.1.48-.08.48-.1.48-.2.95-.11.47-.12.48-.12.48-.25.95-.13.48-.13.48-.15.47-.14.48-.15.48-.16.48-.16.47-.17.48-.17.48-.18.47-.19.48-.19.48-.2.48-.2.47-.2.48-.22.48-.22.47-.23.48-.23.48-.25.48-.24.47-.26.48-.26.48-.26.47-.28.48-.28.48-.29.48-.3.47-.3.48-.3.48-.32.47-.33.48-.32.48-.34.48-.34.47-.35.48-.36.48-.36.47-.37.48-.38.48-.38.48-.4.47-.39.48-.4.48-.4.47-.42.48-.42.48-.43.48-.43.47-.43.48-.45.48-.9.95-.45.48-.46.48-.94.95-.47.48-.48.47-.48.48-.48.48-.98.95-.99.96-.5.47-.5.48-.49.48-.5.48-.5.47-.5.48-2 1.9-.5.49-1 .95-.49.48-.97.95-.49.48-.48.48-.48.47-.47.48-.47.48-.46.47-.92.96-.45.48-.44.47-.44.48-.85.95-.41.48-.41.48-.4.48-.4.47-.38.48-.74.95-.36.48-.35.48-.34.48-.33.47-.32.48-.31.48-.3.47-.3.48-.27.48-.27.48-.26.47-.24.48-.24.48-.22.47-.22.48-.2.48-.19.48-.17.47-.17.48-.16.48-.14.47-.13.48-.12.48-.1.48-.1.47-.1.48-.07.48-.05.47-.06.48-.03.47-.03.49-.02.47v.96l.03.47.02.48.04.47.05.49.06.47.08.48.07.47.1.48.1.48.1.47.13.49.12.47.15.48.14.47.15.48.34.95.18.48.19.48.19.48.2.47.2.48.22.48.22.47.23.48.23.48.24.48.49.95.5.95.27.48.26.48.27.48.27.47.27.48.28.48.28.47.28.48.28.48.86 1.43.58.95.28.48.3.48.57.95.28.48.3.48.56.95.28.48.57.95.27.48.55.95.27.48.27.48.27.48.26.47.51.96.5.95.25.48.48.95.23.48.23.48.23.47.22.48.21.48.43.95.2.48.2.48.2.47.19.48.18.48.36.95.17.48.17.48.17.47.16.48.15.48.15.48.29.95.14.48.13.47.13.48.12.48.13.48.11.47.12.48.2.95.1.48.1.48.1.48.09.47.17.96.16.95.07.48.07.48.13.95.07.48.11.95.06.48.05.48.1.95.05.48.13 1.43.04.48.08.95.03.48.04.47.07.96.04.48.1 1.43.03.47.08.96.03.48.04.47.16 1.9.04.48.04.49.1.95.1.95.1.95.06.49.06.47.07.48.07.47.06.48.15.95.08.49.08.47.09.48.18.95.1.48.1.47.1.48.22.96.11.47.25.96.12.47.14.48.13.48.14.48.15.47.3.96.16.47.16.48.17.48.34.95.18.48.19.48.37.95.2.48.4.95.4.96.44.95.22.48.44.95.23.48.23.48.47.95.24.48.23.48.73 1.43.25.47.25.48.24.48.75 1.43.26.48.5.95.25.48 1.25 2.38.25.48.24.48.25.48.73 1.43.23.47.24.48.23.48.24.48.68 1.43.43.95.22.48.21.48.42.95.2.48.2.47.2.48.19.48.19.48.37.95.18.48.34.95.17.48.16.48.16.47.3.96.15.47.15.48.14.48.27.95.13.48.13.48.24.95.12.48.1.48.11.47.11.48.1.48.1.47.19.96.08.48.17.95.16.95.08.48.07.48.06.48.14.95.11.95.11.95.05.49.05.47.1.95.04.48.08.95.04.49.07.95.1 1.43.02.47.03.49.02.47.03.48.02.47.06 1.43.02.48.02.48.04 1.43.02.48.01.47.01.48.04 1.43v.48l.02.48zm0 0" fill="#3b99b1" stroke-width=".75" stroke-linecap="round" stroke-linejoin="round" stroke="#000" stroke-miterlimit="10"/><path d="M227.35 345.7l.01-.27.01-.25.04-.79.01-.26.01-.26.02-.26.02-.26.01-.26.06-.79.05-.52.03-.26.02-.26.03-.26.06-.53.11-.78.04-.26.04-.26.14-.79.05-.26.06-.26.06-.26.06-.26.06-.26.13-.53.15-.52.08-.26.08-.26.09-.26.08-.26.1-.26.1-.27.1-.26.1-.26.11-.26.12-.26.11-.26.12-.26.13-.26.27-.53.14-.26.15-.26.15-.26.16-.26.16-.26.16-.26.17-.26.18-.27.18-.25.19-.27.39-.52.2-.26.2-.26.22-.26.22-.27.23-.25.22-.27.48-.52.25-.26.25-.26.25-.26.27-.26.53-.53.28-.26.57-.52.3-.26.3-.26.3-.26.3-.26.32-.27.31-.26.32-.26.66-.52.34-.26.34-.26.34-.26.35-.27.35-.26.35-.26.36-.26.37-.26.36-.26.75-.52.75-.53.78-.52.39-.26.39-.26.4-.26.4-.26.8-.53.4-.26.41-.26.41-.26.83-.52 1.26-.79.42-.26.42-.26.85-.52.43-.26.43-.26.43-.26.43-.27.43-.25.44-.27.43-.26 1.73-1.04.43-.26.43-.26.44-.27 1.29-.78.85-.52.42-.26.42-.26.84-.53.41-.26.4-.26.42-.26.4-.26.4-.26.4-.26.38-.27.4-.26.37-.26.38-.26.37-.26.36-.26.36-.26.35-.26.35-.27.34-.26.33-.26.32-.26.32-.26.3-.26.3-.26.3-.26.28-.27.27-.26.27-.26.25-.26.25-.26.23-.26.23-.26.21-.26.2-.27.2-.26.19-.26.17-.26.16-.26.16-.26.14-.26.13-.26.12-.26.1-.27.1-.25.1-.27.07-.26.06-.26.06-.26.05-.26.03-.26.02-.27.02-.25v-.53l-.02-.26-.02-.26-.04-.26-.04-.26-.05-.26-.06-.26-.07-.27-.08-.26-.18-.52-.1-.26-.1-.26-.12-.26-.12-.26-.13-.27-.13-.26-.14-.26-.15-.26-.15-.26-.16-.26-.16-.26-.16-.26-.18-.27-.17-.26-.37-.52-.19-.26-.39-.52-.2-.26-.41-.53-.21-.26-.22-.26-.21-.26-.45-.52-.22-.26-.46-.53-.24-.26-.24-.26-.24-.26-.5-.52-.5-.53-.26-.26-.26-.26-.26-.26-.54-.52-.28-.26-.56-.52-.28-.27-.3-.25-.28-.27-.3-.26-.6-.52-.3-.26-.63-.53-.32-.25-.65-.53-.33-.26-.33-.26-.67-.52-.34-.26-.35-.26-.34-.27-.7-.52-.72-.52-.36-.26-.71-.52-1.82-1.31-.37-.26-.36-.26-.36-.26-.36-.27-.36-.26-.36-.26-.35-.26-.35-.26-.35-.26-.35-.26-.68-.53-.65-.52-.33-.26-.31-.26-.31-.26-.3-.26-.3-.26-.29-.27-.28-.26-.27-.26-.27-.26-.25-.26-.25-.26-.24-.26-.23-.26-.22-.27-.2-.26-.2-.25-.2-.27-.17-.26-.18-.26-.15-.26-.15-.26-.14-.26-.12-.27-.11-.25-.1-.27-.1-.26-.08-.26-.07-.26-.05-.26-.05-.26-.04-.26-.02-.26-.02-.27v-.52l.02-.26.02-.26.04-.26.04-.26.05-.26.06-.27.08-.26.07-.26.09-.26.09-.26.1-.26.1-.26.1-.26.12-.27.24-.52.12-.26.13-.26.14-.26.13-.26.14-.26.14-.27.4-.78.14-.26.14-.26.13-.26.26-.53.24-.52.12-.26.1-.26.11-.26.1-.26.1-.26.08-.27.08-.26.07-.26.07-.26.05-.26.05-.26.07-.52.02-.27.01-.26v-.52l-.02-.26-.03-.26-.03-.26-.05-.26-.06-.26-.06-.27-.08-.25-.1-.27-.09-.26-.1-.26-.12-.26-.13-.26-.14-.26-.14-.26-.16-.26-.17-.27-.17-.26-.18-.26-.2-.26-.2-.26-.2-.26-.22-.26-.22-.26-.47-.53-.24-.26-.5-.52-.26-.26-.27-.26-.27-.26-.54-.53-.28-.26-.29-.26-.28-.26-.58-.52-1.17-1.05-.3-.26-.3-.26-.87-.78-.58-.53-.29-.26-.28-.26-.28-.26-.28-.26-.54-.52-.53-.53-.26-.26-.26-.26-.25-.26-.5-.52-.46-.53-.23-.26-.22-.25-.22-.27-.2-.26-.22-.26-.2-.26-.2-.26-.19-.26-.18-.26-.18-.26-.18-.27-.17-.26-.16-.26-.16-.26-.16-.26-.15-.26-.14-.26-.28-.53-.13-.26-.12-.26-.12-.26-.12-.26-.1-.26-.11-.26-.1-.26-.1-.27-.1-.26-.09-.26-.08-.26-.09-.26-.07-.26-.08-.26-.07-.26-.13-.53-.07-.26-.06-.26-.05-.26-.1-.52-.1-.53-.04-.26-.08-.52-.03-.26-.04-.26-.06-.52-.08-.79-.03-.26-.02-.26-.06-.78-.03-.53-.01-.25-.02-.27-.05-1.04h-.26l-.05 1.04-.01.27-.02.25-.01.26-.02.27-.02.26-.02.26-.02.26-.02.26-.03.26-.02.26-.06.53-.06.52-.03.26-.04.26-.08.52-.04.26-.1.53-.1.52-.05.26-.12.52-.07.26-.14.53-.07.26-.08.26-.08.26-.09.26-.09.26-.1.26-.09.27-.1.26-.11.26-.1.26-.12.26-.12.26-.13.26-.13.26-.27.53-.15.26-.3.52-.16.26-.16.26-.18.26-.17.27-.18.26-.19.25-.2.27-.19.26-.2.26-.2.26-.22.26-.22.27-.22.25-.22.26-.24.27-.24.26-.24.26-.25.26-.25.26-.25.26-.26.26-.53.53-.55.52-.28.26-.28.26-.28.26-.29.26-.87.79-.58.52-.3.26-.3.26-1.16 1.05-.58.52-.29.26-.28.26-.28.26-.28.26-.27.27-.54.52-.26.26-.25.26-.5.52-.23.26-.23.27-.22.26-.22.26-.2.26-.2.26-.2.26-.18.26-.17.26-.17.27-.15.26-.15.26-.14.26-.12.26-.12.26-.1.26-.1.26-.1.27-.07.25-.07.26-.06.27-.04.26-.04.26-.03.26-.01.26-.01.27v.25l.01.26.02.27.03.26.04.26.05.26.06.26.06.26.07.26.08.26.09.27.1.26.09.26.1.26.12.26.11.26.24.52.26.53.14.26.13.26.14.26.82 1.57.13.26.26.52.24.52.11.27.11.26.1.26.1.26.09.26.09.26.07.26.07.26.06.27.05.26.05.26.03.26.02.26.02.26v.52l-.02.27-.02.26-.03.26-.05.26-.06.26-.07.26-.08.26-.1.26-.1.27-.1.25-.13.26-.14.27-.14.26-.16.26-.17.26-.18.26-.19.27-.2.25-.2.26-.23.27-.22.26-.24.26-.25.26-.26.26-.26.26-.27.26-.29.26-.28.27-.3.26-.3.26-.31.26-.32.26-.32.26-.33.26-.33.26-.34.27-.34.26-.34.26-.35.26-.35.26-.72.52-.71.53-.73.52-.36.26-2.18 1.57-.36.26-.36.26-.36.26-1.05.78-.35.27-.34.26-.34.26-.34.26-.34.26-.98.78-.32.27-.32.25-.32.27-.61.52-.6.52-.3.26-.3.27-.28.25-.85.79-.27.26-.54.52-.26.26-.26.26-.26.26-.51.53-.5.52-.23.26-.24.26-.24.26-.46.53-.23.26-.44.52-.22.26-.21.26-.22.26-.2.26-.2.27-.2.26-.4.52-.19.26-.18.26-.18.26-.18.26-.17.27-.17.26-.16.26-.16.26-.15.26-.29.52-.13.26-.12.27-.13.26-.11.26-.11.26-.1.26-.1.26-.08.26-.07.26-.07.27-.06.26-.06.26-.04.26-.03.26-.03.26-.01.26v.53l.01.25.02.27.04.26.04.26.06.26.06.26.08.26.09.27.1.25.1.26.12.27.14.26.14.26.15.26.17.26.16.26.2.26.19.26.2.27.22.26.22.26.24.26.24.26.26.26.26.26.27.26.29.27.29.26.3.26.3.26.32.26.32.26.34.26.33.26.35.27.35.26.36.26.36.26.38.26.37.26.77.52.39.27.8.52.4.26.4.26.41.26.42.26.83.53.42.26.43.26.85.52 1.29.78.43.27.43.26.43.26 1.3.78.43.26.87.53.43.25 1.72 1.05.85.52.42.26.85.52.83.53.83.52.41.26.41.26.4.26.41.26 1.2.79.39.26.39.26.38.26.77.52.75.53.37.26.37.26.36.26.36.26.36.26.35.26.34.27.35.26.34.26.33.26.33.26.65.52.32.26.31.27.3.26.3.26.3.26.3.26.29.26.56.52.54.53.26.26.5.52.26.26.47.52.23.27.22.25.22.27.43.52.4.52.19.26.18.27.19.25.17.27.34.52.16.26.15.26.16.26.14.26.14.26.14.26.13.27.25.52.12.26.11.26.11.26.1.26.1.26.1.27.1.26.09.26.09.26.08.26.08.26.07.26.14.53.07.26.06.26.06.26.06.26.05.26.05.26.14.79.04.26.04.26.11.78.06.53.03.26.03.26.03.26.02.26.02.26.02.26.04.53.02.26.01.26.03.52.01.26.02.26.02.53.01.25.01.27zm0 0" fill="#65b59a" stroke-width=".75" stroke-linecap="round" stroke-linejoin="round" stroke="#000" stroke-miterlimit="10"/><path d="M325.49 347.46l.01-.4.02-.81.02-.4.01-.4.03-.82.02-.4.02-.41.02-.4.04-.82.02-.4.02-.4.08-1.23.04-.4.03-.4.03-.41.03-.4.08-.82.04-.4.04-.4.1-.82.05-.4.1-.82.12-.8.07-.41.07-.4.14-.82.08-.4.07-.4.18-.82.09-.4.09-.4.2-.82.1-.4.12-.41.12-.4.11-.41.13-.4.13-.41.13-.4.14-.41.14-.41.15-.4.15-.41.16-.4.16-.41.35-.81.17-.4.19-.41.19-.4.2-.41.2-.41.2-.4.44-.82.22-.4.23-.4.24-.41.24-.4.25-.41.25-.4.26-.41.27-.4.27-.41.27-.41.28-.4.29-.4.6-.82.3-.4.3-.41.32-.4.32-.41.32-.4.33-.41.33-.4.34-.41.34-.41.7-.81.35-.4.36-.41.73-.81.36-.4.37-.41.75-.81.38-.41.38-.4 1.15-1.22.39-.4.38-.41.4-.4.38-.41.39-.4.39-.41 1.55-1.63.38-.4.38-.4.76-.82.38-.4.37-.4.37-.41.74-.81.36-.4.36-.41.36-.41.35-.4.35-.41.34-.4.34-.41.33-.4.33-.41.33-.4.32-.41.31-.4.31-.41.3-.41.3-.4.3-.4.29-.42.28-.4.28-.4.27-.41.27-.4.26-.41.25-.4.25-.41.25-.4.23-.41.23-.41.23-.4.22-.4.21-.41.22-.41.2-.4.2-.41.19-.4.19-.41.18-.4.18-.41.17-.4.17-.41.16-.41.16-.4.15-.4.15-.41.15-.41.14-.4.13-.41.14-.4.12-.41.25-.81.12-.41.12-.4.1-.4.12-.42.1-.4.11-.4.1-.41.1-.4.1-.41.1-.4.1-.41.08-.4.18-.82.1-.4.34-1.63.08-.4.09-.4.08-.41.08-.4.09-.41.08-.4.08-.41.17-.82.08-.4.09-.4.08-.41.09-.4.09-.41.08-.4.09-.41.18-.81.09-.4.37-1.63.1-.4.1-.41.1-.4.1-.41.1-.4.1-.41.1-.4.21-.82.1-.4.11-.4.33-1.23.11-.4.11-.4.23-.82.11-.4.12-.4.11-.41.12-.41.11-.4.12-.4.23-.82.11-.4.12-.41.11-.4.34-1.22.12-.4.33-1.23.1-.4.1-.4.21-.82.2-.8.08-.41.1-.4.08-.41.09-.41.08-.4.08-.4.07-.41.13-.82.07-.4.05-.4.05-.41.05-.4.04-.41.04-.4.02-.41.03-.41.02-.4v-.4l.01-.41v-.81l-.02-.41-.02-.4-.03-.41-.04-.4-.04-.41-.06-.4-.06-.41-.06-.4-.08-.42-.08-.4-.1-.4-.1-.41-.1-.4-.13-.41-.12-.4-.14-.41-.15-.4-.15-.41-.16-.41-.17-.4-.18-.4-.19-.41-.2-.41-.2-.4-.21-.41-.23-.4-.23-.41-.23-.4-.25-.41-.26-.4-.26-.41-.27-.41-.28-.4-.29-.4-.29-.41-.3-.41-.31-.4-.31-.4-.32-.42-.33-.4-.33-.4-.34-.41-.35-.4-.35-.41-.35-.4-.73-.82-.37-.4-.37-.41-.76-.81-.39-.4-.38-.41-.78-.81-.4-.41-.4-.4-.8-.81-.4-.41-.4-.4-.4-.41-.4-.4-.81-.82-.81-.8-.4-.41-.4-.41-.4-.4-.4-.4-.4-.41-.79-.82-.4-.4-.39-.4-.77-.82-.38-.4-.38-.4-1.13-1.23-.37-.4-.36-.4-.73-.82-.36-.4-.35-.4-.35-.41-.35-.4-.34-.41-.34-.41-.34-.4-.66-.81-.33-.41-.33-.4-.32-.41-.31-.4-.63-.82-.3-.4-.3-.4-.3-.41-.3-.41-.3-.4-.58-.81-.29-.41-.28-.4-.27-.4-.28-.42-.27-.4-.27-.4-.27-.41-.26-.4-.26-.41-.26-.4-.25-.42-.26-.4-.25-.4-.24-.41-.25-.4-.24-.41-.23-.4-.47-.82-.23-.4-.23-.4-.44-.82-.22-.4-.21-.41-.22-.4-.4-.82-.42-.8-.2-.41-.19-.4-.19-.41-.19-.41-.18-.4-.19-.4-.18-.41-.17-.41-.17-.4-.18-.4-.16-.42-.17-.4-.32-.81-.15-.4-.16-.41-.14-.4-.15-.42-.14-.4-.41-1.22-.13-.4-.13-.4-.13-.41-.12-.4-.12-.41-.11-.4-.33-1.22-.1-.41-.1-.4-.1-.41-.19-.81-.09-.4-.08-.41-.09-.4-.08-.41-.08-.41-.07-.4-.08-.4-.14-.82-.07-.4-.06-.4-.06-.42-.12-.8-.05-.41-.06-.4-.1-.82-.05-.4-.04-.4-.08-.82-.08-.81-.04-.4-.04-.41-.06-.81-.03-.4-.03-.41-.03-.4-.02-.41-.03-.41-.02-.4-.05-.82-.02-.4-.02-.4-.02-.41-.03-.81-.02-.41-.01-.4-.02-.4v-.41l-.02-.41-.02-.4v-.4l-.02-.42v-.4l-.02-.4v-.41l-.04-1.63h-.2l-.03 1.63v.4l-.01.4-.01.41-.01.41-.02.4-.02.82-.03.8-.01.41-.02.4-.02.41-.01.4-.02.42-.02.4-.02.4-.05.82-.02.4-.03.4-.05.82-.03.4-.03.4-.07.82-.03.4-.04.4-.12 1.23-.04.4-.05.4-.04.41-.1.81-.06.41-.05.4-.06.4-.06.41-.06.41-.07.4-.06.4-.14.82-.08.4-.07.41-.08.4-.08.41-.09.4-.08.41-.18.81-.2.82-.1.4-.1.4-.1.41-.12.4-.11.41-.12.4-.11.41-.13.4-.12.41-.13.4-.13.41-.13.41-.14.4-.14.41-.14.4-.15.41-.15.4-.15.41-.15.4-.16.41-.33.81-.17.41-.17.4-.17.4-.18.42-.18.4-.18.4-.19.41-.18.4-.2.41-.2.4-.19.41-.2.4-.2.41-.2.41-.22.4-.2.4-.22.42-.44.8-.23.41-.22.4-.23.41-.23.4-.24.41-.23.4-.49.82-.24.4-.25.41-.26.4-.25.41-.52.81-.26.4-.27.41-.27.4-.27.41-.28.41-.28.4-.28.4-.28.42-.58.8-.3.41-.3.4-.3.41-.3.4-.3.41-.63.81-.32.41-.32.4-.32.4-.66.82-.33.4-.34.41-.69.81-.7.81-.35.4-.35.41-.73.82-.37.4-.36.4-.37.41-.38.4-.38.41-.38.4-.38.41-.78.81-.39.41-.4.4-.78.82-.4.4-.4.4-.4.41-.4.4-.8.82-.41.4-.8.81-.41.41-.4.4-.4.4-.4.42-.4.4-.4.4-.4.41-.4.4-.78.82-.39.4-.38.4-.76.82-.37.4-.37.4-.73.82-.35.4-.35.41-.35.4-.67.82-.33.4-.32.41-.31.4-.31.4-.3.42-.3.4-.28.4-.28.41-.27.4-.27.41-.25.4-.25.41-.24.4-.23.41-.22.41-.21.4-.21.4-.2.42-.18.4-.18.4-.17.41-.16.4-.16.41-.14.4-.14.41-.12.4-.12.41-.11.41-.1.4-.1.4-.08.41-.08.41-.07.4-.05.41-.06.4-.04.41-.04.4-.03.41-.02.4-.02.41v1.22l.01.4.02.41.02.4.03.41.04.4.04.41.05.4.05.41.05.41.06.4.14.82.07.4.08.4.08.41.08.4.18.82.1.4.19.81.2.82.1.4.11.4.33 1.22.11.4.34 1.22.12.4.11.41.12.4.11.42.12.4.11.4.12.41.12.4.11.41.12.4.1.41.35 1.22.1.4.34 1.22.1.4.1.41.22.81.1.4.1.41.2.81.2.82.1.4.09.4.1.41.08.4.1.41.09.4.18.82.08.4.1.4.25 1.23.08.4.09.4.08.41.09.4.08.41.08.4.08.41.09.4.08.41.09.41.08.4.34 1.63.1.4.17.81.1.4.09.41.3 1.22.1.4.1.4.33 1.23.12.4.11.4.25.82.13.4.13.4.14.41.14.4.15.42.14.4.16.4.16.41.16.4.17.41.17.4.18.41.18.4.19.41.19.41.2.4.2.4.21.42.22.4.22.4.22.41.47.81.25.4.24.41.26.4.26.41.27.41.27.4.28.4.28.41.29.41.29.4.3.41.3.4.32.41.63.81.33.4.33.41.33.4.34.42.34.4 1.06 1.22.36.4.36.4.73.82.37.4.38.41.38.4.76.82.38.4.39.4.38.41.77.81.4.4.38.41.39.4.39.41.38.41.39.4.39.4 1.15 1.23.38.4.37.4.38.41.74.81.37.4.73.82.35.4.36.4.35.41.69.82.33.4.34.4.33.41.64.81.31.4.31.41.3.4.6.82.28.4.28.41.28.4.27.41.27.4.25.41.26.4.25.41.24.41.24.4.23.4.22.41.22.41.21.4.2.41.21.4.2.41.19.4.18.41.18.4.18.41.17.4.16.42.16.4.15.4.15.41.14.4.14.41.13.4.13.41.13.4.12.41.11.4.22.82.1.4.1.41.1.4.08.41.17.81.08.4.08.41.14.81.07.41.06.4.12.81.1.82.06.4.1.81.04.4.04.41.07.81.04.4.03.42.03.4.03.4.08 1.22.03.4.02.41.04.81.02.4.02.41.05 1.22v.4l.02.41.03.81v.4zm0 0" fill="#b6c68f" stroke-width=".75" stroke-linecap="round" stroke-linejoin="round" stroke="#000" stroke-miterlimit="10"/><path d="M423.57 341.45v-.48l.03-.96.01-.49.03-.96.04-1.44.02-.48.02-.48.02-.48.02-.48.02-.49.03-.48.02-.48.06-.96.06-.96.03-.48.04-.48.07-.96.09-.96.1-.97.04-.48.06-.48.17-1.44.13-.96.14-.96.08-.49.08-.48.08-.48.08-.48.18-.96.1-.48.1-.48.1-.48.1-.49.22-.96.24-.96.12-.48.13-.48.12-.48.13-.48.28-.96.29-.97.3-.96.15-.48.16-.48.32-.96.16-.48.34-.96.34-.96.18-.49.17-.48.18-.48.36-.96.18-.48.18-.48.37-.96.18-.49.36-.96.18-.48.19-.48.36-.96.35-.96.17-.49.18-.48.17-.48.34-.96.33-.96.15-.48.16-.48.15-.48.3-.96.15-.49.28-.96.26-.96.13-.48.13-.48.12-.48.23-.96.22-.96.1-.48.11-.49.2-.96.18-.96.1-.48.25-1.44.08-.49.17-.96.15-.96.09-.48.15-.96.08-.48.08-.49.08-.48.08-.48.26-1.44.09-.48.1-.48.09-.48.1-.48.1-.48.1-.48.11-.48.12-.49.11-.48.12-.48.13-.48.13-.48.14-.48.14-.48.15-.48.16-.48.16-.48.16-.48.18-.49.18-.48.18-.48.2-.48.2-.48.2-.48.22-.48.22-.48.23-.48.24-.49.24-.48.26-.48.26-.48.27-.48.27-.48.29-.48.3-.48.3-.48.3-.48.32-.48.33-.49.33-.48.34-.48.34-.48.36-.48.36-.48.37-.48.38-.48.39-.48.4-.48.39-.48.4-.48.42-.48.41-.49.43-.48.43-.48.87-.96.9-.96.9-.96.46-.48.46-.49.46-.48.93-.96.47-.48.46-.48.47-.48.47-.48.46-.49.92-.96.46-.48.45-.48.45-.48.45-.48.44-.48.43-.48.43-.48.42-.48.41-.48.4-.49.4-.48.38-.48.38-.48.37-.48.36-.48.34-.48.34-.48.32-.48.3-.48.3-.48.3-.48.26-.48.26-.49.24-.48.23-.48.22-.48.2-.48.19-.48.17-.48.17-.48.14-.48.13-.49.12-.48.1-.48.09-.48.07-.48.06-.48.05-.48.04-.48.02-.48.02-.49v-.48l-.02-.48-.02-.48-.03-.48-.04-.48-.05-.48-.07-.48-.06-.48-.08-.48-.08-.48-.09-.48-.2-.97-.1-.48-.11-.48-.11-.48-.12-.48-.11-.48-.37-1.44-.12-.48-.24-.96-.12-.49-.36-1.44-.1-.48-.12-.48-.1-.48-.1-.48-.1-.49-.1-.48-.1-.48-.09-.48-.08-.48-.09-.48-.07-.48-.08-.48-.07-.48-.07-.48-.06-.48-.06-.49-.06-.48-.11-.96-.1-.96-.06-.48-.32-3.37-.05-.48-.06-.48-.05-.48-.06-.48-.13-.96-.07-.48-.07-.48-.08-.48-.08-.49-.1-.48-.09-.48-.1-.48-.1-.48-.24-.96-.13-.48-.13-.48-.14-.49-.16-.48-.15-.48-.17-.48-.17-.48-.18-.48-.2-.48-.2-.48-.2-.48-.21-.48-.22-.48-.23-.49-.48-.96-.25-.48-.52-.96-.28-.48-.28-.48-.28-.48-.3-.48-.3-.48-.3-.48-.62-.97-.31-.48-.33-.48-.33-.48-.33-.48-.67-.96-.69-.96-.35-.48-.34-.49-.36-.48-1.42-1.92-.36-.48-.35-.48-.36-.49-1.44-1.92-.35-.48-.36-.48-.36-.48-.35-.48-.36-.48-.35-.48-.7-.96-1.05-1.45-.34-.48-.35-.48-.34-.48-.34-.48-.33-.48-.34-.48-.34-.48-.66-.96-.34-.49-.98-1.44-.33-.48-.32-.48-.32-.48-.32-.48-.32-.48-.31-.49-.32-.48-.94-1.44-.61-.96-.3-.48-.31-.48-.3-.48-.61-.97-.3-.48-.29-.48-.3-.48-.29-.48-.29-.48-.28-.48-.3-.48-.56-.96-.55-.96-.27-.49-.27-.48-.27-.48-.27-.48-.26-.48-.52-.96-.25-.48-.5-.96-.23-.48-.24-.49-.47-.96-.23-.48-.22-.48-.22-.48-.21-.48-.21-.48-.21-.49-.2-.48-.2-.48-.39-.96-.18-.48-.18-.48-.18-.48-.17-.48-.17-.48-.16-.48-.16-.48-.15-.49-.15-.48-.14-.48-.14-.48-.14-.48-.13-.48-.13-.48-.12-.48-.24-.96-.1-.48-.11-.48-.1-.48-.1-.49-.1-.48-.18-.96-.16-.96-.08-.48-.07-.48-.07-.48-.07-.49-.13-.96-.05-.48-.11-.96-.05-.48-.05-.48-.05-.49-.04-.48-.08-.96-.1-1.44-.04-.48-.02-.48-.03-.48-.03-.48-.04-.96-.02-.49-.03-.48-.01-.48-.02-.48-.02-.48-.05-1.44-.03-1.44v-.48l-.02-.48h-.23v.48l-.05 1.92-.02.48-.01.48-.02.48-.02.48-.01.48-.04.96-.1 1.93-.03.48-.02.48-.07.96-.03.48-.12 1.44-.04.48-.05.49-.05.48-.1.96-.17 1.44-.07.48-.07.49-.07.48-.07.48-.16.96-.17.96-.09.48-.1.48-.1.48-.1.49-.21.96-.12.48-.24.96-.13.48-.13.48-.13.48-.14.48-.15.48-.15.48-.31.97-.16.48-.17.48-.17.48-.36.96-.18.48-.39.96-.2.48-.2.48-.2.49-.43.96-.22.48-.22.48-.23.48-.23.48-.23.48-.24.49-.24.48-.25.48-.25.48-.5.96-.27.48-.26.48-.26.48-.27.48-.27.48-.28.49-.55.96-.28.48-.57.96-.3.48-.28.48-.59.96-.59.96-.9 1.45-.3.48-.32.48-.3.48-.31.48-.31.48-.31.48-.32.48-.31.48-.32.49-.32.48-.64.96-.97 1.44-.33.48-.33.48-.33.49-.33.48-1.01 1.44-1.02 1.44-.34.48-.35.48-.35.48-.34.48-1.41 1.93-.36.48-.35.48-.71.96-.72.96-.36.48-.71.96-.36.49-.36.48-.36.48-.36.48-.7.96-.71.96-.35.49-.35.48-.35.48-.67.96-.34.48-.33.48-.65.96-.32.49-.31.48-.31.48-.3.48-.3.48-.3.48-.28.48-.28.48-.27.48-.27.48-.26.48-.25.48-.24.48-.24.49-.23.48-.22.48-.21.48-.2.48-.2.48-.2.48-.17.48-.18.48-.16.48-.16.48-.16.48-.14.49-.13.48-.13.48-.12.48-.11.48-.1.48-.11.48-.1.48-.08.48-.09.49-.08.48-.07.48-.14.96-.06.48-.06.48-.05.48-.05.48-.1.97-.28 2.88-.05.48-.1.96-.06.48-.17 1.45-.07.48-.07.48-.14.96-.08.48-.08.48-.1.48-.08.48-.19.96-.1.49-.21.96-.11.48-.23.96-.11.48-.13.48-.12.49-.48 1.92-.13.48-.35 1.44-.11.48-.11.48-.2.97-.1.48-.09.48-.08.48-.08.48-.06.48-.07.48-.05.48-.04.48-.03.48-.02.48-.01.48v.48l.01.49.02.48.04.48.05.48.06.48.08.48.09.48.1.48.11.48.13.49.15.48.16.48.17.48.2.48.2.48.2.48.24.48.24.49.26.48.27.48.28.48.3.48.31.48.32.48.34.48.34.48.36.48.37.48.38.48.38.48.4.49.4.48.41.48.43.48.42.48.43.48.89.96.9.96.46.48.92.96.47.49.93.96.47.48.46.48.47.48.46.48.47.48.46.49.91.96.9.96.44.48.44.48.44.48.42.48.43.48.41.49.42.48.8.96.4.48.76.96.37.48.36.48.36.48.69.96.33.48.32.49.32.48.3.48.3.48.3.48.29.48.27.48.27.48.27.48.25.48.24.48.24.49.23.48.22.48.22.48.2.48.2.48.2.48.19.48.18.48.17.49.17.48.16.48.15.48.3.96.13.48.13.48.13.48.12.48.12.48.11.49.21.96.1.48.1.48.1.48.27 1.44.09.48.24 1.44.08.49.08.48.31 1.92.09.48.07.48.09.48.08.49.17.96.27 1.44.3 1.44.1.49.1.48.1.48.24.96.36 1.44.13.48.13.48.27.96.14.49.15.48.15.48.3.96.16.48.16.48.5 1.44.5 1.44.18.49.18.48.72 1.92.18.48.18.48.18.48.19.49.18.48.18.48.18.48.54 1.44.18.48.18.48.17.49.18.48.16.48.18.48.49 1.44.16.48.15.48.31.96.15.48.14.48.14.49.28.96.13.48.13.48.12.48.12.48.24.96.22.96.1.49.1.48.1.48.19.96.17.96.08.48.08.48.08.49.07.48.07.48.07.48.12.96.06.48.06.48.05.48.1.96.04.49.05.48.11 1.44.04.48.03.48.04.48.02.48.03.48.03.48.07 1.45.02.48.04.96.02.48.02.48v.48l.04.96.01.48.01.49.01.48.01.48.01.48zm0 0" fill="#e9b31f" stroke-width=".75" stroke-linecap="round" stroke-linejoin="round" stroke="#000" stroke-miterlimit="10"/><path d="M521.66 330.62l.01-.39.01-.38.01-.39v-.38l.03-.76.01-.39.03-.77.03-.76.01-.39.02-.38.06-1.15.02-.39.05-.76.02-.38.03-.4.03-.37.03-.39.03-.38.03-.38.04-.39.08-.76.08-.77.05-.39.15-1.15.06-.38.06-.39.06-.38.13-.76.07-.39.08-.38.15-.77.17-.76.1-.4.09-.37.1-.39.1-.38.1-.39.11-.38.12-.38.11-.38.13-.39.12-.38.26-.77.15-.38.14-.39.14-.38.16-.39.16-.38.15-.38.17-.38.17-.39.18-.38.36-.77.19-.38.2-.39.19-.38.2-.38.21-.39.21-.38.22-.39.21-.38.23-.38.23-.38.23-.4.48-.76.24-.38.25-.38.25-.39.52-.76.26-.39.27-.38.27-.39.27-.38.27-.38.55-.77.29-.39.28-.38.28-.38.3-.38.28-.39.29-.38.29-.39.29-.38.3-.38.28-.38.3-.4.87-1.14.3-.39.28-.38.58-.76.29-.39.28-.38.29-.39.56-.76.28-.39.27-.38.27-.39.54-.76.26-.38.27-.39.5-.77.25-.38.25-.38.24-.39.24-.38.24-.38.23-.39.22-.38.22-.39.22-.38.42-.76.2-.4.2-.37.38-.77.18-.38.18-.39.17-.38.18-.38.16-.39.16-.38.16-.39.15-.38.15-.38.28-.77.13-.39.13-.38.25-.76.12-.39.12-.38.11-.39.11-.38.21-.76.1-.4.1-.37.2-.77.1-.39.09-.38.18-.76.1-.39.08-.38.27-1.15.1-.39.09-.38.1-.39.29-1.14.1-.39.1-.38.12-.39.22-.76.12-.39.13-.38.13-.38.27-.77.15-.39.14-.38.16-.38.16-.38.17-.4.17-.37.18-.39.18-.38.2-.38.2-.39.2-.38.22-.38.21-.39.23-.38.24-.39.23-.38.25-.38.26-.39.26-.38.26-.39.28-.38.28-.38.28-.38.3-.39.3-.38.3-.39.3-.38.32-.38.32-.38.32-.4.65-.76.34-.38.33-.39.33-.38.34-.38.34-.38.34-.39.34-.38.34-.39 1-1.15.34-.38.33-.39.32-.38.32-.38.31-.38.31-.39.3-.38.3-.39.29-.38.28-.38.27-.39.27-.38.25-.38.24-.39.23-.38.22-.39.21-.38.2-.38.18-.38.17-.4.15-.37.15-.39.12-.38.11-.38.1-.39.08-.38.07-.38.05-.39.04-.38.02-.39v-.38l-.02-.38-.02-.39-.06-.38-.06-.39-.08-.38-.1-.38-.11-.38-.14-.39-.14-.38-.16-.39-.19-.38-.19-.38-.2-.38-.23-.4-.24-.37-.26-.39-.27-.38-.27-.39-.3-.38-.3-.38-.33-.38-.33-.39-.34-.38-.35-.39-.36-.38-.37-.38-.38-.39-.38-.38-.8-.77-.41-.38-.42-.38-.41-.39-.42-.38-.85-.77-.43-.38-.44-.39-.86-.76-.43-.39-.43-.38-.42-.39-.85-.76-.42-.38-.4-.4-.42-.37-.4-.39-.4-.38-.38-.38-.38-.39-.75-.76-.7-.77-.34-.39-.33-.38-.32-.38-.3-.39-.3-.38-.3-.39-.27-.38-.26-.38-.26-.38-.24-.39-.24-.38-.21-.39-.21-.38-.2-.38-.19-.38-.18-.4-.16-.37-.15-.39-.15-.38-.13-.39-.12-.38-.11-.38-.1-.38-.1-.39-.08-.38-.07-.39-.07-.38-.06-.38-.05-.39-.04-.38-.04-.39-.03-.38-.03-.38-.01-.38-.02-.39-.01-.38-.01-.39v-4.98l-.04-.77-.01-.38-.03-.39-.03-.38-.03-.38-.05-.39-.04-.38-.06-.39-.06-.38-.07-.38-.08-.39-.08-.38-.1-.39-.1-.38-.1-.38-.25-.77-.13-.38-.15-.39-.14-.38-.16-.38-.17-.38-.18-.4-.19-.37-.19-.39-.2-.38-.21-.39-.22-.38-.23-.38-.23-.38-.24-.39-.25-.38-.25-.39-.26-.38-.27-.38-.27-.39-.28-.38-.29-.39-.29-.38-.29-.38-.3-.38-.3-.39-.3-.38-.94-1.15-.32-.39-.32-.38-.64-.77-.32-.38-.33-.39-.32-.38-.32-.38-.32-.38-.32-.4-.32-.37-.64-.77-.3-.38-.32-.39-.92-1.15-.3-.38-.29-.39-.29-.38-.28-.38-.28-.39-.28-.38-.27-.39-.27-.38-.26-.38-.26-.38-.25-.39-.25-.38-.24-.39-.23-.38-.23-.38-.23-.38-.22-.4-.21-.37-.4-.77-.2-.39-.38-.76-.17-.38-.17-.39-.18-.38-.16-.39-.15-.38-.15-.38-.15-.39-.14-.38-.13-.39-.26-.76-.12-.38-.12-.39-.1-.38-.11-.39-.1-.38-.1-.38-.1-.39-.08-.38-.09-.38-.08-.39-.08-.38-.07-.39-.07-.38-.07-.38-.06-.38-.06-.4-.06-.37-.06-.39-.05-.38-.05-.38-.04-.39-.05-.38-.04-.38-.04-.39-.04-.38-.03-.39-.04-.38-.03-.38-.05-.77-.03-.39-.07-1.14-.02-.39-.02-.38-.02-.39-.05-1.14v-.4l-.02-.37h-.32l-.02.38v.39l-.04.76-.02.38-.01.39-.02.38-.02.39-.07 1.14-.03.4-.05.76-.04.38-.03.38-.04.39-.07.76-.1.77-.04.39-.04.38-.17 1.15-.06.39-.07.38-.06.38-.07.38-.08.39-.07.38-.09.39-.08.38-.09.38-.1.39-.1.38-.1.38-.1.39-.11.38-.12.39-.12.38-.12.38-.13.38-.14.39-.14.38-.14.39-.15.38-.16.38-.16.39-.17.38-.17.39-.18.38-.18.38-.2.38-.19.39-.2.38-.2.39-.22.38-.22.39-.22.38-.23.38-.23.38-.25.39-.24.38-.26.39-.51.76-.27.38-.27.4-.28.37-.57.77-.29.38-.3.39-.29.38-.6.77-.32.38-.3.39-.32.38-.31.38-.32.39-.32.38-.32.39-.32.38-.32.38-.33.38-.32.39-.32.38-.96 1.15-.32.39-.94 1.15-.3.38-.3.39-.3.38-.59.76-.28.39-.28.38-.28.39-.26.38-.26.38-.26.39-.24.38-.25.39-.23.38-.23.38-.21.38-.21.39-.2.38-.2.39-.18.38-.18.39-.17.38-.16.38-.15.38-.14.39-.14.38-.24.77-.1.38-.1.38-.1.4-.08.37-.08.39-.07.38-.06.38-.06.39-.05.38-.04.38-.03.39-.04.38-.02.39-.02.38-.03.77v.38l-.01.39V190.98l.01 1.15V193.66l-.01.39-.01.38-.02.39-.02.38-.02.38-.07.77-.04.38-.06.39-.05.38-.07.38-.07.39-.09.38-.09.39-.1.38-.12.38-.12.38-.13.39-.14.38-.16.39-.16.38-.18.39-.18.38-.2.38-.21.38-.22.39-.23.38-.25.39-.25.38-.27.38-.27.38-.3.4-.3.37-.3.39-.64.76-.34.39-.7.76-.75.77-.38.39-.4.38-.39.38-.4.39-.4.38-.42.39-.41.38-.43.38-.42.38-.43.39-1.29 1.15-.43.38-.43.39-.43.38-.85.77-.42.38-.42.39-.82.76-.8.77-.39.38-.37.39-.38.38-.35.38-.36.39-.34.38-.33.39-.32.38-.3.38-.3.38-.28.39-.27.38-.25.39-.24.38-.23.39-.2.38-.2.38-.18.38-.16.39-.15.38-.13.39-.11.38-.1.38-.09.38-.06.4-.05.37-.03.39-.01.38v.38l.02.39.03.38.05.38.07.39.08.38.1.39.11.38.13.38.14.39.15.38.18.39.18.38.2.38.2.38.22.39.24.38.24.39.25.38.27.38.27.39.28.38.29.38.29.39.3.38.31.39.32.38.32.38.32.38.33.39.33.38.33.39.34.38.34.38.34.39.34.38.34.39.33.38.34.38.34.38.33.39.33.38.33.39.33.38.32.39.32.38.3.38.32.38.3.39.3.38.58.77.28.38.27.38.27.4.26.37.25.39.25.38.24.38.23.39.23.38.22.38.21.39.2.38.2.39.2.38.19.38.18.39.17.38.17.39.16.38.15.38.15.38.15.39.27.77.25.76.12.39.12.38.11.38.11.39.1.38.1.39.1.38.2.76.1.39.1.38.08.39.1.38.18.77.08.38.1.39.09.38.09.38.1.38.09.39.29 1.15.1.39.1.38.22.76.12.39.12.38.11.39.25.76.14.38.13.4.28.76.15.38.15.38.16.39.16.38.16.38.34.77.18.39.19.38.19.38.19.39.2.38.2.39.2.38.44.76.22.39.22.38.23.39.47.76.25.39.49.76.25.39.26.38.26.39.26.38.27.38.27.38.27.39.28.38.55.77.29.38.28.39.29.38.28.39.58.76.3.38.28.39.88 1.15.3.39.58.76.29.38.3.39.28.38.29.39.85 1.14.28.4.56.76.27.38.27.38.27.39.26.38.27.38.51.77.25.39.25.38.49.77.23.38.24.39.23.38.22.38.22.38.22.39.2.38.21.39.2.38.2.38.2.39.18.38.19.38.18.39.17.38.18.39.16.38.16.38.31.77.15.38.14.39.27.76.13.39.13.38.24.77.11.38.11.38.1.39.11.38.1.39.1.38.08.39.09.38.16.76.08.39.07.38.14.77.13.76.05.4.06.37.16 1.15.04.39.05.38.03.38.05.39.03.38.04.39.13 1.53.02.39.03.38.02.38.02.38.03.39.06 1.15.01.38.02.39.03.76.02.77.01.39.03.76.01.77.01.38.01.39zm0 0" fill="#e78100" stroke-width=".75" stroke-linecap="round" stroke-linejoin="round" stroke="#000" stroke-miterlimit="10"/><path d="M619.79 263.84l.03-.63.02-.32.04-.63.03-.31.03-.32.04-.31.03-.32.09-.63.05-.32.06-.32.06-.3.06-.32.08-.32.07-.32.09-.31.09-.32.1-.31.1-.32.12-.32.12-.31.13-.31.14-.32.15-.32.16-.31.16-.32.18-.31.18-.32.2-.32.2-.31.2-.32.22-.31.22-.32.23-.31.48-.64.25-.3.25-.33.25-.31.51-.63.27-.32.25-.31.26-.32.26-.32.49-.63.24-.31.22-.32.22-.31.21-.32.2-.32.19-.31.17-.32.15-.31.15-.32.12-.32.1-.3.1-.32.07-.32.05-.32.03-.31.01-.32v-.31l-.03-.32-.05-.31-.06-.32-.08-.32-.1-.31-.13-.32-.13-.31-.15-.32-.17-.32-.18-.3-.2-.32-.2-.32-.22-.32-.23-.31-.23-.32-.24-.31-.25-.32-.51-.63-.26-.31-.26-.32-.26-.32-.26-.31-.25-.32-.25-.31-.5-.64-.23-.31-.24-.32-.22-.31-.22-.32-.2-.31-.21-.32-.2-.32-.18-.31-.18-.32-.16-.31-.16-.32-.15-.31-.15-.32-.13-.31-.12-.32-.12-.32-.1-.31-.1-.32-.1-.31-.09-.32-.08-.31-.07-.32-.06-.32-.07-.31-.05-.32-.05-.31-.08-.64-.03-.3-.04-.32-.04-.64-.02-.31-.01-.32-.01-.31v-1.27l.01-.31.01-.32.02-.31.02-.32.03-.32.03-.3.04-.33.1-.63.05-.31.07-.32.07-.31.08-.32.09-.32.1-.31.1-.31.12-.32.13-.32.15-.31.15-.32.16-.31.19-.32.2-.32.2-.31.23-.32.24-.31.26-.32.28-.31.29-.32.31-.32.33-.31.35-.32.36-.31.39-.32.4-.31.41-.32.43-.31.46-.32.46-.32.48-.31.5-.32.5-.31.52-.32.52-.31.54-.32.54-.32.54-.31 1.1-.63.55-.32.55-.32.55-.3.53-.32.54-.32.52-.32.51-.31.5-.32.48-.31.47-.32.46-.32.43-.31.42-.32.4-.31.39-.32.36-.31.34-.32.33-.32.31-.3.3-.33.26-.31.27-.32.25-.31.23-.32.23-.31.22-.32.21-.32.21-.31.2-.32.43-.63.22-.31.22-.32.23-.31.24-.32.26-.32.27-.31.28-.32.3-.32.32-.3.34-.32.36-.32.38-.32.4-.31.41-.32.44-.31.46-.32.47-.32.5-.31.5-.31.52-.32.53-.32.55-.31.55-.32.56-.31 1.14-.64 1.15-.63.58-.31.57-.32 1.12-.63.55-.32.54-.3.53-.32.52-.32.5-.32.5-.31.47-.32.46-.31.44-.32.42-.32.41-.31.39-.32.36-.31.34-.32.33-.31.3-.32.28-.32.25-.3.24-.33.2-.31.17-.32.14-.31.13-.32.08-.31.05-.32.02-.32-.01-.31-.06-.32-.1-.31-.12-.32-.17-.31-.22-.32-.26-.31-.3-.32-.34-.32-.4-.31-.45-.32-.48-.32-.53-.3-.59-.32-.62-.32-.67-.32-.71-.31-.77-.32-.8-.31-.84-.32-.87-.32-.92-.31-.95-.31-.97-.32-1-.32-1.03-.31-1.05-.32-1.06-.31-1.08-.32-1.09-.32-1.1-.31-1.09-.32-1.1-.31-1.1-.32-1.08-.31-1.08-.32-1.07-.32-1.04-.31-1.03-.32-1-.31-1-.32-.94-.31-.93-.32-.9-.31-.87-.32-.83-.32-.8-.31-.77-.32-.73-.31-.68-.32-.66-.31-.62-.32-.59-.32-.54-.31-.51-.32-.49-.31-.44-.32-.4-.32-.38-.3-.35-.32-.3-.32-.28-.32-.25-.31-.23-.32-.19-.31-.16-.32-.14-.32-.12-.31-.1-.32-.06-.31-.04-.32-.03-.31v-.32l.02-.32.04-.3.05-.32.07-.32.1-.32.1-.31.12-.32.14-.31.15-.32.16-.32.18-.31.2-.31.2-.32.2-.32.22-.31.23-.32.23-.31.49-.64.25-.31.25-.32.25-.31.51-.63.25-.32.5-.63.23-.32.23-.31.22-.32.21-.31.2-.32.2-.31.17-.32.16-.32.15-.31.13-.32.12-.31.1-.32.09-.31.07-.32.05-.32.03-.31.02-.32v-.31l-.02-.32-.03-.32-.04-.3-.06-.32-.07-.32-.08-.32-.1-.31-.1-.32-.11-.31-.12-.32-.12-.32-.13-.31-.12-.32-.13-.31-.25-.63-.12-.32-.12-.32-.1-.3-.1-.33-.1-.31-.08-.32-.07-.31-.06-.32-.04-.31-.03-.32-.02-.32v-.63l.02-.31.04-.32.05-.31.05-.32.08-.31.08-.32.1-.32.1-.31.22-.64.12-.3.13-.32.12-.32.13-.32.13-.31.12-.32.12-.31.12-.32.1-.32.1-.31.1-.31.08-.32.07-.32.05-.31.04-.32.03-.31.02-.32v-.31l-.03-.32-.04-.32-.05-.31-.07-.32-.09-.31-.1-.32-.13-.32-.13-.3-.16-.32-.16-.32-.18-.32-.2-.31-.2-.32-.21-.31-.23-.32-.23-.32-.24-.31-.25-.32-.25-.31-.26-.32-.25-.31-.53-.64-.26-.3-.51-.64-.5-.63-.24-.32-.47-.63-.22-.32-.22-.31-.2-.32-.2-.31-.2-.32-.18-.31-.18-.32-.16-.31-.16-.32-.14-.32-.15-.31-.13-.32-.12-.32-.11-.3-.11-.32-.1-.32-.1-.32-.08-.31-.07-.32-.08-.31-.06-.32-.12-.63-.05-.31-.09-.64-.07-.63-.03-.31-.03-.32-.04-.63-.02-.32-.02-.31-.01-.32h-.22l-.01.32-.02.31-.02.32-.04.63-.03.32-.03.31-.03.32-.04.31-.09.64-.05.3-.12.64-.06.32-.07.31-.09.32-.08.31-.09.32-.1.32-.1.31-.12.31-.12.32-.13.32-.15.31-.14.32-.16.32-.16.3-.18.33-.18.31-.2.32-.2.31-.2.32-.22.31-.22.32-.23.32-.24.31-.24.32-.25.31-.25.32-.52.63-.25.31-.26.32-.26.32-.26.31-.26.32-.25.31-.25.32-.24.31-.23.32-.23.32-.21.31-.2.32-.2.31-.18.32-.16.32-.16.31-.13.31-.12.32-.11.32-.09.31-.07.32-.05.31-.04.32-.02.31v.64l.04.31.03.32.06.31.07.32.08.32.1.3.1.32.1.32.24.63.12.32.26.63.25.63.12.31.23.64.1.31.09.32.08.32.07.3.06.33.05.31.04.32.02.31v.63l-.02.32-.03.32-.04.31-.06.32-.07.31-.08.32-.1.31-.1.32-.1.31-.12.32-.12.32-.25.63-.13.31-.13.32-.12.31-.12.32-.12.32-.1.31-.1.32-.1.31-.09.32-.07.32-.06.31-.04.31-.03.32-.02.32v.31l.02.32.03.31.06.32.06.32.09.31.1.32.12.31.13.32.15.31.16.32.18.32.19.3.2.33.2.31.23.32.23.31.24.32.49.63.25.32.5.63.26.31.25.32.25.31.25.32.24.32.23.31.23.32.22.31.2.32.2.32.2.3.17.32.17.32.15.32.14.31.12.32.1.31.1.32.07.31.05.32.04.31.02.32v.32l-.03.31-.04.32-.07.31-.09.32-.12.31-.14.32-.16.32-.2.31-.22.32-.25.31-.28.32-.3.32-.35.31-.38.31-.4.32-.44.32-.49.31-.5.32-.55.31-.59.32-.62.32-.66.31-.68.32-.74.31-.76.32-.8.31-.83.32-.87.32-.9.3-.93.33-.95.31-.98.32-1.01.31-1.03.32-1.04.31-1.07.32-1.08.32-1.09.31-1.09.32-1.1.31-1.1.32-1.1.31-1.08.32-1.08.32-1.06.31-1.05.32-1.03.31-1 .32-.97.32-.95.3-.92.32-.87.32-.84.32-.8.31-.77.32-.7.31-.68.32-.63.32-.58.31-.53.31-.48.32-.45.32-.4.31-.34.32-.3.32-.26.3-.22.33-.17.31-.13.32-.1.31-.05.32v.31l.01.32.05.32.08.31.12.31.15.32.17.32.2.31.23.32.26.31.28.32.3.32.32.31.35.32.36.31.39.32.4.31.43.32.44.32.46.3.48.33.49.31.5.32.52.31.53.32.54.31.55.32.56.32 1.13.63.58.31 1.72.95.57.32.56.31.55.32.55.31.53.32.52.32.5.3.5.32.47.32.46.32.43.31.42.32.4.31.38.32.36.32.34.31.32.31.3.32.28.32.28.31.25.32.24.32.23.3.22.33.22.31.21.32.21.31.2.32.22.31.21.32.22.32.23.31.23.32.25.31.27.32.27.31.3.32.3.31.33.32.34.32.36.31.39.32.4.31.41.32.44.31.46.32.47.32.48.31.5.32.51.31.52.32.53.32.54.31.55.31 1.65.95.55.32.54.31.54.32.54.32.52.31.52.32.5.31.5.32.48.31.46.32.45.32.43.3.42.32.4.32.39.32.36.31.34.32.34.31.3.32.3.32.28.31.26.32.24.31.23.32.2.31.2.32.19.32.16.3.16.33.14.31.13.32.12.31.1.32.1.31.09.32.08.32.07.31.06.32.06.31.05.32.05.31.04.32.03.31.02.32.03.32.02.31.01.32.01.31v1.58l-.02.32-.02.31-.04.64-.04.31-.03.31-.04.32-.09.63-.05.32-.06.31-.07.32-.07.32-.08.31-.09.32-.1.31-.1.32-.1.31-.12.32-.12.32-.13.3-.14.33-.16.31-.16.32-.16.31-.18.32-.18.31-.2.32-.2.32-.21.31-.22.32-.23.31-.23.32-.23.31-.5.64-.25.31-.25.32-.26.31-.26.32-.26.32-.26.3-.5.64-.26.32-.24.31-.23.32-.23.31-.22.32-.2.32-.2.31-.18.31-.17.32-.15.32-.13.31-.13.32-.1.31-.08.32-.07.31-.04.32-.03.32v.63l.04.31.05.32.07.32.1.31.1.31.12.32.15.32.15.31.17.32.19.31.2.32.2.32.23.31.23.32.23.31.25.32.25.31.5.64.26.3.26.33.52.63.5.63.25.31.25.32.23.32.23.31.22.32.22.31.21.32.2.31.19.32.18.32.18.31.16.32.16.31.14.32.14.32.14.3.12.32.11.32.11.32.1.31.1.32.16.63.07.32.06.31.06.31.06.32.05.32.09.63.04.32.03.3.03.33.03.31.04.63.02.32.03.63zm0 0" fill="#f5191c" stroke-width=".75" stroke-linecap="round" stroke-linejoin="round" stroke="#000" stroke-miterlimit="10"/><use xlink:href="#f" x="23.64" y="323.88"/><use xlink:href="#g" x="30.31" y="323.88"/><use xlink:href="#g" x="36.99" y="323.88"/><use xlink:href="#h" x="23.64" y="262.88"/><use xlink:href="#g" x="30.31" y="262.88"/><use xlink:href="#g" x="36.99" y="262.88"/><use xlink:href="#i" x="23.64" y="201.88"/><use xlink:href="#g" x="30.31" y="201.88"/><use xlink:href="#g" x="36.99" y="201.88"/><use xlink:href="#j" x="23.64" y="140.88"/><use xlink:href="#g" x="30.31" y="140.88"/><use xlink:href="#g" x="36.99" y="140.88"/><use xlink:href="#k" x="23.64" y="79.87"/><use xlink:href="#g" x="30.31" y="79.87"/><use xlink:href="#g" x="36.99" y="79.87"/><use xlink:href="#l" x="277.4" y="34.11"/><use xlink:href="#m" x="287.8" y="34.11"/><use xlink:href="#n" x="296.59" y="34.11"/><use xlink:href="#o" x="300.59" y="34.11"/><use xlink:href="#p" x="308.6" y="34.11"/><use xlink:href="#q" x="316.61" y="34.11"/><use xlink:href="#r" x="324.62" y="34.11"/><use xlink:href="#s" x="333.41" y="34.11"/><use xlink:href="#t" x="337.41" y="34.11"/><use xlink:href="#q" x="348.61" y="34.11"/><use xlink:href="#n" x="356.62" y="34.11"/><use xlink:href="#u" x="360.62" y="34.11"/><use xlink:href="#m" x="369.42" y="34.11"/><use xlink:href="#v" x="378.21" y="34.11"/><use xlink:href="#s" x="383.01" y="34.11"/><use xlink:href="#w" x="387.01" y="34.11"/><use xlink:href="#x" x="395.81" y="34.11"/><use xlink:href="#s" x="403.81" y="34.11"/><use xlink:href="#y" x="407.82" y="34.11"/><use xlink:href="#q" x="412.61" y="34.11"/><use xlink:href="#q" x="420.62" y="34.11"/><use xlink:href="#z" x="428.63" y="34.11"/><use xlink:href="#s" x="437.42" y="34.11"/><use xlink:href="#v" x="441.42" y="34.11"/><use xlink:href="#x" x="446.22" y="34.11"/><use xlink:href="#A" x="454.23" y="34.11"/><use xlink:href="#q" x="463.02" y="34.11"/><path d="M251.64 369.36h8.64v7.2h-8.64zm0 0" fill="#3b99b1" stroke-width=".75" stroke-linecap="round" stroke-linejoin="round" stroke="#000" stroke-miterlimit="10"/><path d="M251.64 383.76h8.64v7.2h-8.64zm0 0" fill="#65b59a" stroke-width=".75" stroke-linecap="round" stroke-linejoin="round" stroke="#000" stroke-miterlimit="10"/><path d="M338.88 369.36h8.64v7.2h-8.64zm0 0" fill="#b6c68f" stroke-width=".75" stroke-linecap="round" stroke-linejoin="round" stroke="#000" stroke-miterlimit="10"/><path d="M338.88 383.76h8.64v7.2h-8.64zm0 0" fill="#e9b31f" stroke-width=".75" stroke-linecap="round" stroke-linejoin="round" stroke="#000" stroke-miterlimit="10"/><path d="M426.12 369.36h8.64v7.2h-8.64zm0 0" fill="#e78100" stroke-width=".75" stroke-linecap="round" stroke-linejoin="round" stroke="#000" stroke-miterlimit="10"/><path d="M426.12 383.76h8.64v7.2h-8.64zm0 0" fill="#f5191c" stroke-width=".75" stroke-linecap="round" stroke-linejoin="round" stroke="#000" stroke-miterlimit="10"/><g><use xlink:href="#B" x="271.08" y="376.7"/><use xlink:href="#C" x="277.08" y="376.7"/><use xlink:href="#D" x="283.75" y="376.7"/><use xlink:href="#E" x="289.75" y="376.7"/><use xlink:href="#F" x="296.43" y="376.7"/><use xlink:href="#G" x="299.09" y="376.7"/></g><g><use xlink:href="#H" x="271.08" y="391.1"/><use xlink:href="#I" x="277.75" y="391.1"/><use xlink:href="#J" x="284.43" y="391.1"/><use xlink:href="#D" x="288.42" y="391.1"/><use xlink:href="#E" x="294.42" y="391.1"/><use xlink:href="#K" x="301.1" y="391.1"/><use xlink:href="#E" x="307.77" y="391.1"/><use xlink:href="#C" x="314.44" y="391.1"/><use xlink:href="#G" x="321.12" y="391.1"/></g><g><use xlink:href="#L" x="358.32" y="376.7"/><use xlink:href="#F" x="360.99" y="376.7"/><use xlink:href="#G" x="363.65" y="376.7"/><use xlink:href="#D" x="370.33" y="376.7"/><use xlink:href="#E" x="376.33" y="376.7"/><use xlink:href="#E" x="383" y="376.7"/><use xlink:href="#M" x="389.67" y="376.7"/></g><g><use xlink:href="#N" x="358.32" y="391.1"/><use xlink:href="#E" x="368.32" y="391.1"/><use xlink:href="#C" x="374.99" y="391.1"/><use xlink:href="#O" x="381.66" y="391.1"/><use xlink:href="#N" x="385" y="391.1"/><use xlink:href="#E" x="394.99" y="391.1"/><use xlink:href="#C" x="401.67" y="391.1"/><use xlink:href="#L" x="408.34" y="391.1"/></g><g><use xlink:href="#D" x="445.56" y="376.7"/><use xlink:href="#I" x="451.56" y="376.7"/><use xlink:href="#P" x="458.23" y="376.7"/><use xlink:href="#K" x="464.23" y="376.7"/><use xlink:href="#E" x="470.91" y="376.7"/><use xlink:href="#C" x="477.58" y="376.7"/><use xlink:href="#G" x="484.25" y="376.7"/></g><g><use xlink:href="#D" x="445.56" y="391.1"/><use xlink:href="#Q" x="451.56" y="391.1"/><use xlink:href="#G" x="458.23" y="391.1"/><use xlink:href="#R" x="464.91" y="391.1"/><use xlink:href="#I" x="470.91" y="391.1"/><use xlink:href="#S" x="477.58" y="391.1"/><use xlink:href="#E" x="486.25" y="391.1"/><use xlink:href="#J" x="492.92" y="391.1"/></g></svg>
